  0
SECTION
  2
HEADER
  9
$ANGBASE
  50
0.0
  9
$ANGDIR
  70
  1
  9
$MEASUREMENT
  70
0
  0
ENDSEC
  0
SECTION
  2
TABLES
  0
TABLE
  2
LTYPE
  70
4
  0
LTYPE
  5
40F
  2
CONTINUOUS
  70
0
  3
Solid line
  72
65
  73
0
  40
0.0
  0
LTYPE
  5
410
  2
DASHDOT
 70
0
  3
Dash Dot ____ _ ____ _
 72
65
 73
4
 40
2.0
 49
1.25
 49
-0.25
 49
0.25
 49
-0.25
  0
LTYPE
  5
411
  2
DASHED
 70
0
  3
Dashed __ __ __ __ __
 72
65
 73
2
 40
0.75
 49
0.5
 49
-0.25
  0
LTYPE
  5
43B
  2
DOTTED
 70
0
  3
Dotted .  .  .  .
 72
65
 73
2
 40
0.2
 49
0.0
 49
-0.2
  0
ENDTAB
  0
TABLE
  2
STYLE
  70
4
  0
STYLE
  2
KICAD
  70
0
  40
0
  41
1
  42
1
  50
0
  71
0
  3
isocp.shx
  0
STYLE
  2
KICADB
  70
0
  40
0
  41
1
  42
1
  50
0
  71
0
  3
isocp.shx
  0
STYLE
  2
KICADI
  70
0
  40
0
  41
1
  42
1
  50
15
  71
0
  3
isocp.shx
  0
STYLE
  2
KICADBI
  70
0
  40
0
  41
1
  42
1
  50
15
  71
0
  3
isocp.shx
  0
ENDTAB
  0
TABLE
  2
LAYER
  70
30
  0
LAYER
  2
BLACK
  70
0
  62
7
  6
CONTINUOUS
  0
LAYER
  2
GRAY1
  70
0
  62
251
  6
CONTINUOUS
  0
LAYER
  2
GRAY2
  70
0
  62
8
  6
CONTINUOUS
  0
LAYER
  2
GRAY3
  70
0
  62
9
  6
CONTINUOUS
  0
LAYER
  2
WHITE
  70
0
  62
7
  6
CONTINUOUS
  0
LAYER
  2
LYELLOW
  70
0
  62
51
  6
CONTINUOUS
  0
LAYER
  2
BLUE1
  70
0
  62
178
  6
CONTINUOUS
  0
LAYER
  2
GREEN1
  70
0
  62
98
  6
CONTINUOUS
  0
LAYER
  2
CYAN1
  70
0
  62
138
  6
CONTINUOUS
  0
LAYER
  2
RED1
  70
0
  62
18
  6
CONTINUOUS
  0
LAYER
  2
MAGENTA1
  70
0
  62
228
  6
CONTINUOUS
  0
LAYER
  2
BROWN1
  70
0
  62
58
  6
CONTINUOUS
  0
LAYER
  2
BLUE2
  70
0
  62
5
  6
CONTINUOUS
  0
LAYER
  2
GREEN2
  70
0
  62
3
  6
CONTINUOUS
  0
LAYER
  2
CYAN2
  70
0
  62
4
  6
CONTINUOUS
  0
LAYER
  2
RED2
  70
0
  62
1
  6
CONTINUOUS
  0
LAYER
  2
MAGENTA2
  70
0
  62
6
  6
CONTINUOUS
  0
LAYER
  2
BROWN2
  70
0
  62
54
  6
CONTINUOUS
  0
LAYER
  2
BLUE3
  70
0
  62
171
  6
CONTINUOUS
  0
LAYER
  2
GREEN3
  70
0
  62
91
  6
CONTINUOUS
  0
LAYER
  2
CYAN3
  70
0
  62
131
  6
CONTINUOUS
  0
LAYER
  2
RED3
  70
0
  62
11
  6
CONTINUOUS
  0
LAYER
  2
MAGENTA3
  70
0
  62
221
  6
CONTINUOUS
  0
LAYER
  2
YELLOW3
  70
0
  62
2
  6
CONTINUOUS
  0
LAYER
  2
BLUE4
  70
0
  62
5
  6
CONTINUOUS
  0
LAYER
  2
GREEN4
  70
0
  62
3
  6
CONTINUOUS
  0
LAYER
  2
CYAN4
  70
0
  62
4
  6
CONTINUOUS
  0
LAYER
  2
RED4
  70
0
  62
1
  6
CONTINUOUS
  0
LAYER
  2
MAGENTA4
  70
0
  62
6
  6
CONTINUOUS
  0
LAYER
  2
YELLOW4
  70
0
  62
2
  6
CONTINUOUS
  0
ENDTAB
  0
ENDSEC
  0
SECTION
  2
ENTITIES
0
LINE
8
BLACK
6
CONTINUOUS
10
177.509
20
-24.4
11
177.518
21
-24.4
0
LINE
8
BLACK
6
CONTINUOUS
10
177.518
20
-24.4
11
177.526
21
-24.403
0
LINE
8
BLACK
6
CONTINUOUS
10
177.526
20
-24.403
11
177.535
21
-24.4046
0
LINE
8
BLACK
6
CONTINUOUS
10
177.535
20
-24.4046
11
177.542
21
-24.409
0
LINE
8
BLACK
6
CONTINUOUS
10
177.542
20
-24.409
11
177.551
21
-24.4121
0
LINE
8
BLACK
6
CONTINUOUS
10
177.551
20
-24.4121
11
177.558
21
-24.4178
0
LINE
8
BLACK
6
CONTINUOUS
10
177.558
20
-24.4178
11
177.565
21
-24.4222
0
LINE
8
BLACK
6
CONTINUOUS
10
177.565
20
-24.4222
11
177.571
21
-24.429
0
LINE
8
BLACK
6
CONTINUOUS
10
177.571
20
-24.429
11
177.578
21
-24.4347
0
LINE
8
BLACK
6
CONTINUOUS
10
177.578
20
-24.4347
11
177.582
21
-24.4424
0
LINE
8
BLACK
6
CONTINUOUS
10
177.582
20
-24.4424
11
177.588
21
-24.4492
0
LINE
8
BLACK
6
CONTINUOUS
10
177.588
20
-24.4492
11
177.591
21
-24.4576
0
LINE
8
BLACK
6
CONTINUOUS
10
177.591
20
-24.4576
11
177.595
21
-24.4653
0
LINE
8
BLACK
6
CONTINUOUS
10
177.595
20
-24.4653
11
177.597
21
-24.474
0
LINE
8
BLACK
6
CONTINUOUS
10
177.597
20
-24.474
11
177.6
21
-24.4824
0
LINE
8
BLACK
6
CONTINUOUS
10
177.6
20
-24.4824
11
177.6
21
-24.4912
0
LINE
8
BLACK
6
CONTINUOUS
10
177.6
20
-24.4912
11
177.6
21
-24.4913
0
LINE
8
BLACK
6
CONTINUOUS
10
177.6
20
-24.4913
11
177.6
21
-84.5087
0
LINE
8
BLACK
6
CONTINUOUS
10
177.6
20
-84.5087
11
177.6
21
-84.5088
0
LINE
8
BLACK
6
CONTINUOUS
10
177.6
20
-84.5088
11
177.6
21
-84.5176
0
LINE
8
BLACK
6
CONTINUOUS
10
177.6
20
-84.5176
11
177.597
21
-84.526
0
LINE
8
BLACK
6
CONTINUOUS
10
177.597
20
-84.526
11
177.595
21
-84.5347
0
LINE
8
BLACK
6
CONTINUOUS
10
177.595
20
-84.5347
11
177.591
21
-84.5424
0
LINE
8
BLACK
6
CONTINUOUS
10
177.591
20
-84.5424
11
177.588
21
-84.5508
0
LINE
8
BLACK
6
CONTINUOUS
10
177.588
20
-84.5508
11
177.582
21
-84.5576
0
LINE
8
BLACK
6
CONTINUOUS
10
177.582
20
-84.5576
11
177.578
21
-84.5653
0
LINE
8
BLACK
6
CONTINUOUS
10
177.578
20
-84.5653
11
177.571
21
-84.571
0
LINE
8
BLACK
6
CONTINUOUS
10
177.571
20
-84.571
11
177.565
21
-84.5778
0
LINE
8
BLACK
6
CONTINUOUS
10
177.565
20
-84.5778
11
177.558
21
-84.5822
0
LINE
8
BLACK
6
CONTINUOUS
10
177.558
20
-84.5822
11
177.551
21
-84.5879
0
LINE
8
BLACK
6
CONTINUOUS
10
177.551
20
-84.5879
11
177.542
21
-84.591
0
LINE
8
BLACK
6
CONTINUOUS
10
177.542
20
-84.591
11
177.535
21
-84.5954
0
LINE
8
BLACK
6
CONTINUOUS
10
177.535
20
-84.5954
11
177.526
21
-84.597
0
LINE
8
BLACK
6
CONTINUOUS
10
177.526
20
-84.597
11
177.518
21
-84.6
0
LINE
8
BLACK
6
CONTINUOUS
10
177.518
20
-84.6
11
177.509
21
-84.6
0
LINE
8
BLACK
6
CONTINUOUS
10
177.509
20
-84.6
11
177.509
21
-84.6
0
LINE
8
BLACK
6
CONTINUOUS
10
177.509
20
-84.6
11
113.991
21
-84.6
0
LINE
8
BLACK
6
CONTINUOUS
10
113.991
20
-84.6
11
113.991
21
-84.6
0
LINE
8
BLACK
6
CONTINUOUS
10
113.991
20
-84.6
11
113.982
21
-84.6
0
LINE
8
BLACK
6
CONTINUOUS
10
113.982
20
-84.6
11
113.974
21
-84.597
0
LINE
8
BLACK
6
CONTINUOUS
10
113.974
20
-84.597
11
113.965
21
-84.5954
0
LINE
8
BLACK
6
CONTINUOUS
10
113.965
20
-84.5954
11
113.958
21
-84.591
0
LINE
8
BLACK
6
CONTINUOUS
10
113.958
20
-84.591
11
113.949
21
-84.5879
0
LINE
8
BLACK
6
CONTINUOUS
10
113.949
20
-84.5879
11
113.942
21
-84.5822
0
LINE
8
BLACK
6
CONTINUOUS
10
113.942
20
-84.5822
11
113.935
21
-84.5778
0
LINE
8
BLACK
6
CONTINUOUS
10
113.935
20
-84.5778
11
113.929
21
-84.571
0
LINE
8
BLACK
6
CONTINUOUS
10
113.929
20
-84.571
11
113.922
21
-84.5653
0
LINE
8
BLACK
6
CONTINUOUS
10
113.922
20
-84.5653
11
113.918
21
-84.5576
0
LINE
8
BLACK
6
CONTINUOUS
10
113.918
20
-84.5576
11
113.912
21
-84.5508
0
LINE
8
BLACK
6
CONTINUOUS
10
113.912
20
-84.5508
11
113.909
21
-84.5424
0
LINE
8
BLACK
6
CONTINUOUS
10
113.909
20
-84.5424
11
113.905
21
-84.5347
0
LINE
8
BLACK
6
CONTINUOUS
10
113.905
20
-84.5347
11
113.903
21
-84.526
0
LINE
8
BLACK
6
CONTINUOUS
10
113.903
20
-84.526
11
113.9
21
-84.5176
0
LINE
8
BLACK
6
CONTINUOUS
10
113.9
20
-84.5176
11
113.9
21
-84.4824
0
LINE
8
BLACK
6
CONTINUOUS
10
113.9
20
-84.4824
11
113.9
21
-62.4913
0
LINE
8
BLACK
6
CONTINUOUS
10
113.9
20
-62.4913
11
113.9
21
-62.4912
0
LINE
8
BLACK
6
CONTINUOUS
10
113.9
20
-62.4912
11
113.9
21
-24.4913
0
LINE
8
BLACK
6
CONTINUOUS
10
113.9
20
-24.4913
11
113.9
21
-24.4912
0
LINE
8
BLACK
6
CONTINUOUS
10
113.9
20
-24.4912
11
113.9
21
-24.4824
0
LINE
8
BLACK
6
CONTINUOUS
10
113.9
20
-24.4824
11
113.903
21
-24.474
0
LINE
8
BLACK
6
CONTINUOUS
10
113.903
20
-24.474
11
113.905
21
-24.4653
0
LINE
8
BLACK
6
CONTINUOUS
10
113.905
20
-24.4653
11
113.909
21
-24.4576
0
LINE
8
BLACK
6
CONTINUOUS
10
113.909
20
-24.4576
11
113.912
21
-24.4492
0
LINE
8
BLACK
6
CONTINUOUS
10
113.912
20
-24.4492
11
113.918
21
-24.4424
0
LINE
8
BLACK
6
CONTINUOUS
10
113.918
20
-24.4424
11
113.922
21
-24.4347
0
LINE
8
BLACK
6
CONTINUOUS
10
113.922
20
-24.4347
11
113.929
21
-24.429
0
LINE
8
BLACK
6
CONTINUOUS
10
113.929
20
-24.429
11
113.935
21
-24.4222
0
LINE
8
BLACK
6
CONTINUOUS
10
113.935
20
-24.4222
11
113.942
21
-24.4178
0
LINE
8
BLACK
6
CONTINUOUS
10
113.942
20
-24.4178
11
113.949
21
-24.4121
0
LINE
8
BLACK
6
CONTINUOUS
10
113.949
20
-24.4121
11
113.958
21
-24.409
0
LINE
8
BLACK
6
CONTINUOUS
10
113.958
20
-24.409
11
113.965
21
-24.4046
0
LINE
8
BLACK
6
CONTINUOUS
10
113.965
20
-24.4046
11
113.974
21
-24.403
0
LINE
8
BLACK
6
CONTINUOUS
10
113.974
20
-24.403
11
113.982
21
-24.4
0
LINE
8
BLACK
6
CONTINUOUS
10
113.982
20
-24.4
11
113.991
21
-24.4
0
LINE
8
BLACK
6
CONTINUOUS
10
113.991
20
-24.4
11
113.991
21
-24.4
0
LINE
8
BLACK
6
CONTINUOUS
10
113.991
20
-24.4
11
177.509
21
-24.4
0
LINE
8
BLACK
6
CONTINUOUS
10
177.509
20
-24.4
11
177.509
21
-24.4
0
LINE
8
BLACK
6
CONTINUOUS
10
177.4
20
-84.4
11
177.4
21
-24.6
0
LINE
8
BLACK
6
CONTINUOUS
10
177.4
20
-24.6
11
114.1
21
-24.6
0
LINE
8
BLACK
6
CONTINUOUS
10
114.1
20
-24.6
11
114.1
21
-84.4
0
LINE
8
BLACK
6
CONTINUOUS
10
114.1
20
-84.4
11
177.4
21
-84.4
0
LINE
8
BLACK
6
CONTINUOUS
10
176.114
20
-83.0156
11
175.901
21
-83.1946
0
LINE
8
BLACK
6
CONTINUOUS
10
175.901
20
-83.1946
11
175.639
21
-83.2899
0
LINE
8
BLACK
6
CONTINUOUS
10
175.639
20
-83.2899
11
175.361
21
-83.2899
0
LINE
8
BLACK
6
CONTINUOUS
10
175.361
20
-83.2899
11
175.099
21
-83.1946
0
LINE
8
BLACK
6
CONTINUOUS
10
175.099
20
-83.1946
11
174.886
21
-83.0156
0
LINE
8
BLACK
6
CONTINUOUS
10
174.886
20
-83.0156
11
174.746
21
-82.7743
0
LINE
8
BLACK
6
CONTINUOUS
10
174.746
20
-82.7743
11
174.698
21
-82.5
0
LINE
8
BLACK
6
CONTINUOUS
10
174.698
20
-82.5
11
174.746
21
-82.2257
0
LINE
8
BLACK
6
CONTINUOUS
10
174.746
20
-82.2257
11
174.886
21
-81.9844
0
LINE
8
BLACK
6
CONTINUOUS
10
174.886
20
-81.9844
11
175.099
21
-81.8054
0
LINE
8
BLACK
6
CONTINUOUS
10
175.099
20
-81.8054
11
175.361
21
-81.7101
0
LINE
8
BLACK
6
CONTINUOUS
10
175.361
20
-81.7101
11
175.639
21
-81.7101
0
LINE
8
BLACK
6
CONTINUOUS
10
175.639
20
-81.7101
11
175.901
21
-81.8054
0
LINE
8
BLACK
6
CONTINUOUS
10
175.901
20
-81.8054
11
176.114
21
-81.9844
0
LINE
8
BLACK
6
CONTINUOUS
10
176.114
20
-81.9844
11
176.254
21
-82.2257
0
LINE
8
BLACK
6
CONTINUOUS
10
176.254
20
-82.2257
11
176.302
21
-82.5
0
LINE
8
BLACK
6
CONTINUOUS
10
176.302
20
-82.5
11
176.254
21
-82.7743
0
LINE
8
BLACK
6
CONTINUOUS
10
176.254
20
-82.7743
11
176.114
21
-83.0156
0
LINE
8
BLACK
6
CONTINUOUS
10
175.984
20
-82.0937
11
175.816
21
-81.9526
0
LINE
8
BLACK
6
CONTINUOUS
10
175.816
20
-81.9526
11
175.61
21
-81.8775
0
LINE
8
BLACK
6
CONTINUOUS
10
175.61
20
-81.8775
11
175.39
21
-81.8775
0
LINE
8
BLACK
6
CONTINUOUS
10
175.39
20
-81.8775
11
175.184
21
-81.9526
0
LINE
8
BLACK
6
CONTINUOUS
10
175.184
20
-81.9526
11
175.016
21
-82.0937
0
LINE
8
BLACK
6
CONTINUOUS
10
175.016
20
-82.0937
11
174.906
21
-82.2838
0
LINE
8
BLACK
6
CONTINUOUS
10
174.906
20
-82.2838
11
174.868
21
-82.5
0
LINE
8
BLACK
6
CONTINUOUS
10
174.868
20
-82.5
11
174.906
21
-82.7162
0
LINE
8
BLACK
6
CONTINUOUS
10
174.906
20
-82.7162
11
175.016
21
-82.9063
0
LINE
8
BLACK
6
CONTINUOUS
10
175.016
20
-82.9063
11
175.184
21
-83.0474
0
LINE
8
BLACK
6
CONTINUOUS
10
175.184
20
-83.0474
11
175.39
21
-83.1225
0
LINE
8
BLACK
6
CONTINUOUS
10
175.39
20
-83.1225
11
175.61
21
-83.1225
0
LINE
8
BLACK
6
CONTINUOUS
10
175.61
20
-83.1225
11
175.816
21
-83.0474
0
LINE
8
BLACK
6
CONTINUOUS
10
175.816
20
-83.0474
11
175.984
21
-82.9063
0
LINE
8
BLACK
6
CONTINUOUS
10
175.984
20
-82.9063
11
176.094
21
-82.7162
0
LINE
8
BLACK
6
CONTINUOUS
10
176.094
20
-82.7162
11
176.132
21
-82.5
0
LINE
8
BLACK
6
CONTINUOUS
10
176.132
20
-82.5
11
176.094
21
-82.2838
0
LINE
8
BLACK
6
CONTINUOUS
10
176.094
20
-82.2838
11
175.984
21
-82.0937
0
LINE
8
BLACK
6
CONTINUOUS
10
116.614
20
-83.0156
11
116.401
21
-83.1946
0
LINE
8
BLACK
6
CONTINUOUS
10
116.401
20
-83.1946
11
116.139
21
-83.2899
0
LINE
8
BLACK
6
CONTINUOUS
10
116.139
20
-83.2899
11
115.861
21
-83.2899
0
LINE
8
BLACK
6
CONTINUOUS
10
115.861
20
-83.2899
11
115.599
21
-83.1946
0
LINE
8
BLACK
6
CONTINUOUS
10
115.599
20
-83.1946
11
115.386
21
-83.0156
0
LINE
8
BLACK
6
CONTINUOUS
10
115.386
20
-83.0156
11
115.246
21
-82.7743
0
LINE
8
BLACK
6
CONTINUOUS
10
115.246
20
-82.7743
11
115.198
21
-82.5
0
LINE
8
BLACK
6
CONTINUOUS
10
115.198
20
-82.5
11
115.246
21
-82.2257
0
LINE
8
BLACK
6
CONTINUOUS
10
115.246
20
-82.2257
11
115.386
21
-81.9844
0
LINE
8
BLACK
6
CONTINUOUS
10
115.386
20
-81.9844
11
115.599
21
-81.8054
0
LINE
8
BLACK
6
CONTINUOUS
10
115.599
20
-81.8054
11
115.861
21
-81.7101
0
LINE
8
BLACK
6
CONTINUOUS
10
115.861
20
-81.7101
11
116.139
21
-81.7101
0
LINE
8
BLACK
6
CONTINUOUS
10
116.139
20
-81.7101
11
116.401
21
-81.8054
0
LINE
8
BLACK
6
CONTINUOUS
10
116.401
20
-81.8054
11
116.614
21
-81.9844
0
LINE
8
BLACK
6
CONTINUOUS
10
116.614
20
-81.9844
11
116.754
21
-82.2257
0
LINE
8
BLACK
6
CONTINUOUS
10
116.754
20
-82.2257
11
116.802
21
-82.5
0
LINE
8
BLACK
6
CONTINUOUS
10
116.802
20
-82.5
11
116.754
21
-82.7743
0
LINE
8
BLACK
6
CONTINUOUS
10
116.754
20
-82.7743
11
116.614
21
-83.0156
0
LINE
8
BLACK
6
CONTINUOUS
10
116.484
20
-82.0937
11
116.316
21
-81.9526
0
LINE
8
BLACK
6
CONTINUOUS
10
116.316
20
-81.9526
11
116.11
21
-81.8775
0
LINE
8
BLACK
6
CONTINUOUS
10
116.11
20
-81.8775
11
115.89
21
-81.8775
0
LINE
8
BLACK
6
CONTINUOUS
10
115.89
20
-81.8775
11
115.684
21
-81.9526
0
LINE
8
BLACK
6
CONTINUOUS
10
115.684
20
-81.9526
11
115.516
21
-82.0937
0
LINE
8
BLACK
6
CONTINUOUS
10
115.516
20
-82.0937
11
115.406
21
-82.2838
0
LINE
8
BLACK
6
CONTINUOUS
10
115.406
20
-82.2838
11
115.368
21
-82.5
0
LINE
8
BLACK
6
CONTINUOUS
10
115.368
20
-82.5
11
115.406
21
-82.7162
0
LINE
8
BLACK
6
CONTINUOUS
10
115.406
20
-82.7162
11
115.516
21
-82.9063
0
LINE
8
BLACK
6
CONTINUOUS
10
115.516
20
-82.9063
11
115.684
21
-83.0474
0
LINE
8
BLACK
6
CONTINUOUS
10
115.684
20
-83.0474
11
115.89
21
-83.1225
0
LINE
8
BLACK
6
CONTINUOUS
10
115.89
20
-83.1225
11
116.11
21
-83.1225
0
LINE
8
BLACK
6
CONTINUOUS
10
116.11
20
-83.1225
11
116.316
21
-83.0474
0
LINE
8
BLACK
6
CONTINUOUS
10
116.316
20
-83.0474
11
116.484
21
-82.9063
0
LINE
8
BLACK
6
CONTINUOUS
10
116.484
20
-82.9063
11
116.594
21
-82.7162
0
LINE
8
BLACK
6
CONTINUOUS
10
116.594
20
-82.7162
11
116.632
21
-82.5
0
LINE
8
BLACK
6
CONTINUOUS
10
116.632
20
-82.5
11
116.594
21
-82.2838
0
LINE
8
BLACK
6
CONTINUOUS
10
116.594
20
-82.2838
11
116.484
21
-82.0937
0
LINE
8
BLACK
6
CONTINUOUS
10
176.114
20
-27.0156
11
175.901
21
-27.1946
0
LINE
8
BLACK
6
CONTINUOUS
10
175.901
20
-27.1946
11
175.639
21
-27.2899
0
LINE
8
BLACK
6
CONTINUOUS
10
175.639
20
-27.2899
11
175.361
21
-27.2899
0
LINE
8
BLACK
6
CONTINUOUS
10
175.361
20
-27.2899
11
175.099
21
-27.1946
0
LINE
8
BLACK
6
CONTINUOUS
10
175.099
20
-27.1946
11
174.886
21
-27.0156
0
LINE
8
BLACK
6
CONTINUOUS
10
174.886
20
-27.0156
11
174.746
21
-26.7743
0
LINE
8
BLACK
6
CONTINUOUS
10
174.746
20
-26.7743
11
174.698
21
-26.5
0
LINE
8
BLACK
6
CONTINUOUS
10
174.698
20
-26.5
11
174.746
21
-26.2257
0
LINE
8
BLACK
6
CONTINUOUS
10
174.746
20
-26.2257
11
174.886
21
-25.9844
0
LINE
8
BLACK
6
CONTINUOUS
10
174.886
20
-25.9844
11
175.099
21
-25.8054
0
LINE
8
BLACK
6
CONTINUOUS
10
175.099
20
-25.8054
11
175.361
21
-25.7101
0
LINE
8
BLACK
6
CONTINUOUS
10
175.361
20
-25.7101
11
175.639
21
-25.7101
0
LINE
8
BLACK
6
CONTINUOUS
10
175.639
20
-25.7101
11
175.901
21
-25.8054
0
LINE
8
BLACK
6
CONTINUOUS
10
175.901
20
-25.8054
11
176.114
21
-25.9844
0
LINE
8
BLACK
6
CONTINUOUS
10
176.114
20
-25.9844
11
176.254
21
-26.2257
0
LINE
8
BLACK
6
CONTINUOUS
10
176.254
20
-26.2257
11
176.302
21
-26.5
0
LINE
8
BLACK
6
CONTINUOUS
10
176.302
20
-26.5
11
176.254
21
-26.7743
0
LINE
8
BLACK
6
CONTINUOUS
10
176.254
20
-26.7743
11
176.114
21
-27.0156
0
LINE
8
BLACK
6
CONTINUOUS
10
175.984
20
-26.0937
11
175.816
21
-25.9526
0
LINE
8
BLACK
6
CONTINUOUS
10
175.816
20
-25.9526
11
175.61
21
-25.8775
0
LINE
8
BLACK
6
CONTINUOUS
10
175.61
20
-25.8775
11
175.39
21
-25.8775
0
LINE
8
BLACK
6
CONTINUOUS
10
175.39
20
-25.8775
11
175.184
21
-25.9526
0
LINE
8
BLACK
6
CONTINUOUS
10
175.184
20
-25.9526
11
175.016
21
-26.0937
0
LINE
8
BLACK
6
CONTINUOUS
10
175.016
20
-26.0937
11
174.906
21
-26.2838
0
LINE
8
BLACK
6
CONTINUOUS
10
174.906
20
-26.2838
11
174.868
21
-26.5
0
LINE
8
BLACK
6
CONTINUOUS
10
174.868
20
-26.5
11
174.906
21
-26.7162
0
LINE
8
BLACK
6
CONTINUOUS
10
174.906
20
-26.7162
11
175.016
21
-26.9063
0
LINE
8
BLACK
6
CONTINUOUS
10
175.016
20
-26.9063
11
175.184
21
-27.0474
0
LINE
8
BLACK
6
CONTINUOUS
10
175.184
20
-27.0474
11
175.39
21
-27.1225
0
LINE
8
BLACK
6
CONTINUOUS
10
175.39
20
-27.1225
11
175.61
21
-27.1225
0
LINE
8
BLACK
6
CONTINUOUS
10
175.61
20
-27.1225
11
175.816
21
-27.0474
0
LINE
8
BLACK
6
CONTINUOUS
10
175.816
20
-27.0474
11
175.984
21
-26.9063
0
LINE
8
BLACK
6
CONTINUOUS
10
175.984
20
-26.9063
11
176.094
21
-26.7162
0
LINE
8
BLACK
6
CONTINUOUS
10
176.094
20
-26.7162
11
176.132
21
-26.5
0
LINE
8
BLACK
6
CONTINUOUS
10
176.132
20
-26.5
11
176.094
21
-26.2838
0
LINE
8
BLACK
6
CONTINUOUS
10
176.094
20
-26.2838
11
175.984
21
-26.0937
0
LINE
8
BLACK
6
CONTINUOUS
10
116.614
20
-27.0156
11
116.401
21
-27.1946
0
LINE
8
BLACK
6
CONTINUOUS
10
116.401
20
-27.1946
11
116.139
21
-27.2899
0
LINE
8
BLACK
6
CONTINUOUS
10
116.139
20
-27.2899
11
115.861
21
-27.2899
0
LINE
8
BLACK
6
CONTINUOUS
10
115.861
20
-27.2899
11
115.599
21
-27.1946
0
LINE
8
BLACK
6
CONTINUOUS
10
115.599
20
-27.1946
11
115.386
21
-27.0156
0
LINE
8
BLACK
6
CONTINUOUS
10
115.386
20
-27.0156
11
115.246
21
-26.7743
0
LINE
8
BLACK
6
CONTINUOUS
10
115.246
20
-26.7743
11
115.198
21
-26.5
0
LINE
8
BLACK
6
CONTINUOUS
10
115.198
20
-26.5
11
115.246
21
-26.2257
0
LINE
8
BLACK
6
CONTINUOUS
10
115.246
20
-26.2257
11
115.386
21
-25.9844
0
LINE
8
BLACK
6
CONTINUOUS
10
115.386
20
-25.9844
11
115.599
21
-25.8054
0
LINE
8
BLACK
6
CONTINUOUS
10
115.599
20
-25.8054
11
115.861
21
-25.7101
0
LINE
8
BLACK
6
CONTINUOUS
10
115.861
20
-25.7101
11
116.139
21
-25.7101
0
LINE
8
BLACK
6
CONTINUOUS
10
116.139
20
-25.7101
11
116.401
21
-25.8054
0
LINE
8
BLACK
6
CONTINUOUS
10
116.401
20
-25.8054
11
116.614
21
-25.9844
0
LINE
8
BLACK
6
CONTINUOUS
10
116.614
20
-25.9844
11
116.754
21
-26.2257
0
LINE
8
BLACK
6
CONTINUOUS
10
116.754
20
-26.2257
11
116.802
21
-26.5
0
LINE
8
BLACK
6
CONTINUOUS
10
116.802
20
-26.5
11
116.754
21
-26.7743
0
LINE
8
BLACK
6
CONTINUOUS
10
116.754
20
-26.7743
11
116.614
21
-27.0156
0
LINE
8
BLACK
6
CONTINUOUS
10
116.484
20
-26.0937
11
116.316
21
-25.9526
0
LINE
8
BLACK
6
CONTINUOUS
10
116.316
20
-25.9526
11
116.11
21
-25.8775
0
LINE
8
BLACK
6
CONTINUOUS
10
116.11
20
-25.8775
11
115.89
21
-25.8775
0
LINE
8
BLACK
6
CONTINUOUS
10
115.89
20
-25.8775
11
115.684
21
-25.9526
0
LINE
8
BLACK
6
CONTINUOUS
10
115.684
20
-25.9526
11
115.516
21
-26.0937
0
LINE
8
BLACK
6
CONTINUOUS
10
115.516
20
-26.0937
11
115.406
21
-26.2838
0
LINE
8
BLACK
6
CONTINUOUS
10
115.406
20
-26.2838
11
115.368
21
-26.5
0
LINE
8
BLACK
6
CONTINUOUS
10
115.368
20
-26.5
11
115.406
21
-26.7162
0
LINE
8
BLACK
6
CONTINUOUS
10
115.406
20
-26.7162
11
115.516
21
-26.9063
0
LINE
8
BLACK
6
CONTINUOUS
10
115.516
20
-26.9063
11
115.684
21
-27.0474
0
LINE
8
BLACK
6
CONTINUOUS
10
115.684
20
-27.0474
11
115.89
21
-27.1225
0
LINE
8
BLACK
6
CONTINUOUS
10
115.89
20
-27.1225
11
116.11
21
-27.1225
0
LINE
8
BLACK
6
CONTINUOUS
10
116.11
20
-27.1225
11
116.316
21
-27.0474
0
LINE
8
BLACK
6
CONTINUOUS
10
116.316
20
-27.0474
11
116.484
21
-26.9063
0
LINE
8
BLACK
6
CONTINUOUS
10
116.484
20
-26.9063
11
116.594
21
-26.7162
0
LINE
8
BLACK
6
CONTINUOUS
10
116.594
20
-26.7162
11
116.632
21
-26.5
0
LINE
8
BLACK
6
CONTINUOUS
10
116.632
20
-26.5
11
116.594
21
-26.2838
0
LINE
8
BLACK
6
CONTINUOUS
10
116.594
20
-26.2838
11
116.484
21
-26.0937
0
CIRCLE
8
BLACK
10
165.5
20
-34.92
40
0.65
0
CIRCLE
8
BLACK
10
165.5
20
-40
40
0.65
0
CIRCLE
8
BLACK
10
168
20
-60
40
0.4
0
CIRCLE
8
BLACK
10
168
20
-56.5
40
0.4
0
CIRCLE
8
BLACK
10
168
20
-51
40
0.4
0
CIRCLE
8
BLACK
10
168
20
-47.5
40
0.4
0
CIRCLE
8
BLACK
10
122.5
20
-56.96
40
0.65
0
CIRCLE
8
BLACK
10
122.5
20
-62.04
40
0.65
0
CIRCLE
8
BLACK
10
122.5
20
-73.54
40
0.65
0
CIRCLE
8
BLACK
10
122.5
20
-68.46
40
0.65
0
CIRCLE
8
BLACK
10
122.5
20
-35.5
40
0.65
0
CIRCLE
8
BLACK
10
122.5
20
-40.58
40
0.65
0
CIRCLE
8
BLACK
10
171
20
-40
40
0.65
0
CIRCLE
8
BLACK
10
171
20
-34.92
40
0.65
0
CIRCLE
8
BLACK
10
170.58
20
-78.5
40
0.65
0
CIRCLE
8
BLACK
10
165.5
20
-78.5
40
0.65
0
CIRCLE
8
BLACK
10
170.5
20
-66.92
40
0.65
0
CIRCLE
8
BLACK
10
170.5
20
-72
40
0.65
0
LINE
8
BLACK
6
CONTINUOUS
10
136
20
-58.5
11
136.098
21
-58.4904
0
LINE
8
BLACK
6
CONTINUOUS
10
136.098
20
-58.4904
11
136.191
21
-58.4619
0
LINE
8
BLACK
6
CONTINUOUS
10
136.191
20
-58.4619
11
136.278
21
-58.4157
0
LINE
8
BLACK
6
CONTINUOUS
10
136.278
20
-58.4157
11
136.354
21
-58.3536
0
LINE
8
BLACK
6
CONTINUOUS
10
136.354
20
-58.3536
11
136.416
21
-58.2778
0
LINE
8
BLACK
6
CONTINUOUS
10
136.416
20
-58.2778
11
136.462
21
-58.1913
0
LINE
8
BLACK
6
CONTINUOUS
10
136.462
20
-58.1913
11
136.49
21
-58.0975
0
LINE
8
BLACK
6
CONTINUOUS
10
136.49
20
-58.0975
11
136.5
21
-58
0
LINE
8
BLACK
6
CONTINUOUS
10
136.5
20
-58
11
136.49
21
-57.9025
0
LINE
8
BLACK
6
CONTINUOUS
10
136.49
20
-57.9025
11
136.462
21
-57.8087
0
LINE
8
BLACK
6
CONTINUOUS
10
136.462
20
-57.8087
11
136.416
21
-57.7222
0
LINE
8
BLACK
6
CONTINUOUS
10
136.416
20
-57.7222
11
136.354
21
-57.6464
0
LINE
8
BLACK
6
CONTINUOUS
10
136.354
20
-57.6464
11
136.278
21
-57.5843
0
LINE
8
BLACK
6
CONTINUOUS
10
136.278
20
-57.5843
11
136.191
21
-57.5381
0
LINE
8
BLACK
6
CONTINUOUS
10
136.191
20
-57.5381
11
136.098
21
-57.5096
0
LINE
8
BLACK
6
CONTINUOUS
10
136.098
20
-57.5096
11
136
21
-57.5
0
LINE
8
BLACK
6
CONTINUOUS
10
136
20
-57.5
11
132
21
-57.5
0
LINE
8
BLACK
6
CONTINUOUS
10
132
20
-57.5
11
131.902
21
-57.5096
0
LINE
8
BLACK
6
CONTINUOUS
10
131.902
20
-57.5096
11
131.809
21
-57.5381
0
LINE
8
BLACK
6
CONTINUOUS
10
131.809
20
-57.5381
11
131.722
21
-57.5843
0
LINE
8
BLACK
6
CONTINUOUS
10
131.722
20
-57.5843
11
131.646
21
-57.6464
0
LINE
8
BLACK
6
CONTINUOUS
10
131.646
20
-57.6464
11
131.584
21
-57.7222
0
LINE
8
BLACK
6
CONTINUOUS
10
131.584
20
-57.7222
11
131.538
21
-57.8087
0
LINE
8
BLACK
6
CONTINUOUS
10
131.538
20
-57.8087
11
131.51
21
-57.9025
0
LINE
8
BLACK
6
CONTINUOUS
10
131.51
20
-57.9025
11
131.5
21
-58
0
LINE
8
BLACK
6
CONTINUOUS
10
131.5
20
-58
11
131.51
21
-58.0975
0
LINE
8
BLACK
6
CONTINUOUS
10
131.51
20
-58.0975
11
131.538
21
-58.1913
0
LINE
8
BLACK
6
CONTINUOUS
10
131.538
20
-58.1913
11
131.584
21
-58.2778
0
LINE
8
BLACK
6
CONTINUOUS
10
131.584
20
-58.2778
11
131.646
21
-58.3536
0
LINE
8
BLACK
6
CONTINUOUS
10
131.646
20
-58.3536
11
131.722
21
-58.4157
0
LINE
8
BLACK
6
CONTINUOUS
10
131.722
20
-58.4157
11
131.809
21
-58.4619
0
LINE
8
BLACK
6
CONTINUOUS
10
131.809
20
-58.4619
11
131.902
21
-58.4904
0
LINE
8
BLACK
6
CONTINUOUS
10
131.902
20
-58.4904
11
132
21
-58.5
0
LINE
8
BLACK
6
CONTINUOUS
10
132
20
-58.5
11
136
21
-58.5
0
LINE
8
BLACK
6
CONTINUOUS
10
136
20
-72.5
11
136.098
21
-72.4904
0
LINE
8
BLACK
6
CONTINUOUS
10
136.098
20
-72.4904
11
136.191
21
-72.4619
0
LINE
8
BLACK
6
CONTINUOUS
10
136.191
20
-72.4619
11
136.278
21
-72.4157
0
LINE
8
BLACK
6
CONTINUOUS
10
136.278
20
-72.4157
11
136.354
21
-72.3536
0
LINE
8
BLACK
6
CONTINUOUS
10
136.354
20
-72.3536
11
136.416
21
-72.2778
0
LINE
8
BLACK
6
CONTINUOUS
10
136.416
20
-72.2778
11
136.462
21
-72.1913
0
LINE
8
BLACK
6
CONTINUOUS
10
136.462
20
-72.1913
11
136.49
21
-72.0975
0
LINE
8
BLACK
6
CONTINUOUS
10
136.49
20
-72.0975
11
136.5
21
-72
0
LINE
8
BLACK
6
CONTINUOUS
10
136.5
20
-72
11
136.49
21
-71.9025
0
LINE
8
BLACK
6
CONTINUOUS
10
136.49
20
-71.9025
11
136.462
21
-71.8087
0
LINE
8
BLACK
6
CONTINUOUS
10
136.462
20
-71.8087
11
136.416
21
-71.7222
0
LINE
8
BLACK
6
CONTINUOUS
10
136.416
20
-71.7222
11
136.354
21
-71.6464
0
LINE
8
BLACK
6
CONTINUOUS
10
136.354
20
-71.6464
11
136.278
21
-71.5843
0
LINE
8
BLACK
6
CONTINUOUS
10
136.278
20
-71.5843
11
136.191
21
-71.5381
0
LINE
8
BLACK
6
CONTINUOUS
10
136.191
20
-71.5381
11
136.098
21
-71.5096
0
LINE
8
BLACK
6
CONTINUOUS
10
136.098
20
-71.5096
11
136
21
-71.5
0
LINE
8
BLACK
6
CONTINUOUS
10
136
20
-71.5
11
132
21
-71.5
0
LINE
8
BLACK
6
CONTINUOUS
10
132
20
-71.5
11
131.902
21
-71.5096
0
LINE
8
BLACK
6
CONTINUOUS
10
131.902
20
-71.5096
11
131.809
21
-71.5381
0
LINE
8
BLACK
6
CONTINUOUS
10
131.809
20
-71.5381
11
131.722
21
-71.5843
0
LINE
8
BLACK
6
CONTINUOUS
10
131.722
20
-71.5843
11
131.646
21
-71.6464
0
LINE
8
BLACK
6
CONTINUOUS
10
131.646
20
-71.6464
11
131.584
21
-71.7222
0
LINE
8
BLACK
6
CONTINUOUS
10
131.584
20
-71.7222
11
131.538
21
-71.8087
0
LINE
8
BLACK
6
CONTINUOUS
10
131.538
20
-71.8087
11
131.51
21
-71.9025
0
LINE
8
BLACK
6
CONTINUOUS
10
131.51
20
-71.9025
11
131.5
21
-72
0
LINE
8
BLACK
6
CONTINUOUS
10
131.5
20
-72
11
131.51
21
-72.0975
0
LINE
8
BLACK
6
CONTINUOUS
10
131.51
20
-72.0975
11
131.538
21
-72.1913
0
LINE
8
BLACK
6
CONTINUOUS
10
131.538
20
-72.1913
11
131.584
21
-72.2778
0
LINE
8
BLACK
6
CONTINUOUS
10
131.584
20
-72.2778
11
131.646
21
-72.3536
0
LINE
8
BLACK
6
CONTINUOUS
10
131.646
20
-72.3536
11
131.722
21
-72.4157
0
LINE
8
BLACK
6
CONTINUOUS
10
131.722
20
-72.4157
11
131.809
21
-72.4619
0
LINE
8
BLACK
6
CONTINUOUS
10
131.809
20
-72.4619
11
131.902
21
-72.4904
0
LINE
8
BLACK
6
CONTINUOUS
10
131.902
20
-72.4904
11
132
21
-72.5
0
LINE
8
BLACK
6
CONTINUOUS
10
132
20
-72.5
11
136
21
-72.5
0
LINE
8
BLACK
6
CONTINUOUS
10
140.5
20
-62
11
140.51
21
-62.0975
0
LINE
8
BLACK
6
CONTINUOUS
10
140.51
20
-62.0975
11
140.538
21
-62.1913
0
LINE
8
BLACK
6
CONTINUOUS
10
140.538
20
-62.1913
11
140.584
21
-62.2778
0
LINE
8
BLACK
6
CONTINUOUS
10
140.584
20
-62.2778
11
140.646
21
-62.3536
0
LINE
8
BLACK
6
CONTINUOUS
10
140.646
20
-62.3536
11
140.722
21
-62.4157
0
LINE
8
BLACK
6
CONTINUOUS
10
140.722
20
-62.4157
11
140.809
21
-62.4619
0
LINE
8
BLACK
6
CONTINUOUS
10
140.809
20
-62.4619
11
140.902
21
-62.4904
0
LINE
8
BLACK
6
CONTINUOUS
10
140.902
20
-62.4904
11
141
21
-62.5
0
LINE
8
BLACK
6
CONTINUOUS
10
141
20
-62.5
11
141.098
21
-62.4904
0
LINE
8
BLACK
6
CONTINUOUS
10
141.098
20
-62.4904
11
141.191
21
-62.4619
0
LINE
8
BLACK
6
CONTINUOUS
10
141.191
20
-62.4619
11
141.278
21
-62.4157
0
LINE
8
BLACK
6
CONTINUOUS
10
141.278
20
-62.4157
11
141.354
21
-62.3536
0
LINE
8
BLACK
6
CONTINUOUS
10
141.354
20
-62.3536
11
141.416
21
-62.2778
0
LINE
8
BLACK
6
CONTINUOUS
10
141.416
20
-62.2778
11
141.462
21
-62.1913
0
LINE
8
BLACK
6
CONTINUOUS
10
141.462
20
-62.1913
11
141.49
21
-62.0975
0
LINE
8
BLACK
6
CONTINUOUS
10
141.49
20
-62.0975
11
141.5
21
-62
0
LINE
8
BLACK
6
CONTINUOUS
10
141.5
20
-62
11
141.5
21
-58
0
LINE
8
BLACK
6
CONTINUOUS
10
141.5
20
-58
11
141.49
21
-57.9025
0
LINE
8
BLACK
6
CONTINUOUS
10
141.49
20
-57.9025
11
141.462
21
-57.8087
0
LINE
8
BLACK
6
CONTINUOUS
10
141.462
20
-57.8087
11
141.416
21
-57.7222
0
LINE
8
BLACK
6
CONTINUOUS
10
141.416
20
-57.7222
11
141.354
21
-57.6464
0
LINE
8
BLACK
6
CONTINUOUS
10
141.354
20
-57.6464
11
141.278
21
-57.5843
0
LINE
8
BLACK
6
CONTINUOUS
10
141.278
20
-57.5843
11
141.191
21
-57.5381
0
LINE
8
BLACK
6
CONTINUOUS
10
141.191
20
-57.5381
11
141.098
21
-57.5096
0
LINE
8
BLACK
6
CONTINUOUS
10
141.098
20
-57.5096
11
141
21
-57.5
0
LINE
8
BLACK
6
CONTINUOUS
10
141
20
-57.5
11
140.902
21
-57.5096
0
LINE
8
BLACK
6
CONTINUOUS
10
140.902
20
-57.5096
11
140.809
21
-57.5381
0
LINE
8
BLACK
6
CONTINUOUS
10
140.809
20
-57.5381
11
140.722
21
-57.5843
0
LINE
8
BLACK
6
CONTINUOUS
10
140.722
20
-57.5843
11
140.646
21
-57.6464
0
LINE
8
BLACK
6
CONTINUOUS
10
140.646
20
-57.6464
11
140.584
21
-57.7222
0
LINE
8
BLACK
6
CONTINUOUS
10
140.584
20
-57.7222
11
140.538
21
-57.8087
0
LINE
8
BLACK
6
CONTINUOUS
10
140.538
20
-57.8087
11
140.51
21
-57.9025
0
LINE
8
BLACK
6
CONTINUOUS
10
140.51
20
-57.9025
11
140.5
21
-58
0
LINE
8
BLACK
6
CONTINUOUS
10
140.5
20
-58
11
140.5
21
-62
0
LINE
8
BLACK
6
CONTINUOUS
10
140.5
20
-72
11
140.51
21
-72.0975
0
LINE
8
BLACK
6
CONTINUOUS
10
140.51
20
-72.0975
11
140.538
21
-72.1913
0
LINE
8
BLACK
6
CONTINUOUS
10
140.538
20
-72.1913
11
140.584
21
-72.2778
0
LINE
8
BLACK
6
CONTINUOUS
10
140.584
20
-72.2778
11
140.646
21
-72.3536
0
LINE
8
BLACK
6
CONTINUOUS
10
140.646
20
-72.3536
11
140.722
21
-72.4157
0
LINE
8
BLACK
6
CONTINUOUS
10
140.722
20
-72.4157
11
140.809
21
-72.4619
0
LINE
8
BLACK
6
CONTINUOUS
10
140.809
20
-72.4619
11
140.902
21
-72.4904
0
LINE
8
BLACK
6
CONTINUOUS
10
140.902
20
-72.4904
11
141
21
-72.5
0
LINE
8
BLACK
6
CONTINUOUS
10
141
20
-72.5
11
141.098
21
-72.4904
0
LINE
8
BLACK
6
CONTINUOUS
10
141.098
20
-72.4904
11
141.191
21
-72.4619
0
LINE
8
BLACK
6
CONTINUOUS
10
141.191
20
-72.4619
11
141.278
21
-72.4157
0
LINE
8
BLACK
6
CONTINUOUS
10
141.278
20
-72.4157
11
141.354
21
-72.3536
0
LINE
8
BLACK
6
CONTINUOUS
10
141.354
20
-72.3536
11
141.416
21
-72.2778
0
LINE
8
BLACK
6
CONTINUOUS
10
141.416
20
-72.2778
11
141.462
21
-72.1913
0
LINE
8
BLACK
6
CONTINUOUS
10
141.462
20
-72.1913
11
141.49
21
-72.0975
0
LINE
8
BLACK
6
CONTINUOUS
10
141.49
20
-72.0975
11
141.5
21
-72
0
LINE
8
BLACK
6
CONTINUOUS
10
141.5
20
-72
11
141.5
21
-68
0
LINE
8
BLACK
6
CONTINUOUS
10
141.5
20
-68
11
141.49
21
-67.9025
0
LINE
8
BLACK
6
CONTINUOUS
10
141.49
20
-67.9025
11
141.462
21
-67.8087
0
LINE
8
BLACK
6
CONTINUOUS
10
141.462
20
-67.8087
11
141.416
21
-67.7222
0
LINE
8
BLACK
6
CONTINUOUS
10
141.416
20
-67.7222
11
141.354
21
-67.6464
0
LINE
8
BLACK
6
CONTINUOUS
10
141.354
20
-67.6464
11
141.278
21
-67.5843
0
LINE
8
BLACK
6
CONTINUOUS
10
141.278
20
-67.5843
11
141.191
21
-67.5381
0
LINE
8
BLACK
6
CONTINUOUS
10
141.191
20
-67.5381
11
141.098
21
-67.5096
0
LINE
8
BLACK
6
CONTINUOUS
10
141.098
20
-67.5096
11
141
21
-67.5
0
LINE
8
BLACK
6
CONTINUOUS
10
141
20
-67.5
11
140.902
21
-67.5096
0
LINE
8
BLACK
6
CONTINUOUS
10
140.902
20
-67.5096
11
140.809
21
-67.5381
0
LINE
8
BLACK
6
CONTINUOUS
10
140.809
20
-67.5381
11
140.722
21
-67.5843
0
LINE
8
BLACK
6
CONTINUOUS
10
140.722
20
-67.5843
11
140.646
21
-67.6464
0
LINE
8
BLACK
6
CONTINUOUS
10
140.646
20
-67.6464
11
140.584
21
-67.7222
0
LINE
8
BLACK
6
CONTINUOUS
10
140.584
20
-67.7222
11
140.538
21
-67.8087
0
LINE
8
BLACK
6
CONTINUOUS
10
140.538
20
-67.8087
11
140.51
21
-67.9025
0
LINE
8
BLACK
6
CONTINUOUS
10
140.51
20
-67.9025
11
140.5
21
-68
0
LINE
8
BLACK
6
CONTINUOUS
10
140.5
20
-68
11
140.5
21
-72
0
LINE
8
BLACK
6
CONTINUOUS
10
146.5
20
-72
11
146.51
21
-72.0975
0
LINE
8
BLACK
6
CONTINUOUS
10
146.51
20
-72.0975
11
146.538
21
-72.1913
0
LINE
8
BLACK
6
CONTINUOUS
10
146.538
20
-72.1913
11
146.584
21
-72.2778
0
LINE
8
BLACK
6
CONTINUOUS
10
146.584
20
-72.2778
11
146.646
21
-72.3536
0
LINE
8
BLACK
6
CONTINUOUS
10
146.646
20
-72.3536
11
146.722
21
-72.4157
0
LINE
8
BLACK
6
CONTINUOUS
10
146.722
20
-72.4157
11
146.809
21
-72.4619
0
LINE
8
BLACK
6
CONTINUOUS
10
146.809
20
-72.4619
11
146.902
21
-72.4904
0
LINE
8
BLACK
6
CONTINUOUS
10
146.902
20
-72.4904
11
147
21
-72.5
0
LINE
8
BLACK
6
CONTINUOUS
10
147
20
-72.5
11
147.098
21
-72.4904
0
LINE
8
BLACK
6
CONTINUOUS
10
147.098
20
-72.4904
11
147.191
21
-72.4619
0
LINE
8
BLACK
6
CONTINUOUS
10
147.191
20
-72.4619
11
147.278
21
-72.4157
0
LINE
8
BLACK
6
CONTINUOUS
10
147.278
20
-72.4157
11
147.354
21
-72.3536
0
LINE
8
BLACK
6
CONTINUOUS
10
147.354
20
-72.3536
11
147.416
21
-72.2778
0
LINE
8
BLACK
6
CONTINUOUS
10
147.416
20
-72.2778
11
147.462
21
-72.1913
0
LINE
8
BLACK
6
CONTINUOUS
10
147.462
20
-72.1913
11
147.49
21
-72.0975
0
LINE
8
BLACK
6
CONTINUOUS
10
147.49
20
-72.0975
11
147.5
21
-72
0
LINE
8
BLACK
6
CONTINUOUS
10
147.5
20
-72
11
147.5
21
-68
0
LINE
8
BLACK
6
CONTINUOUS
10
147.5
20
-68
11
147.49
21
-67.9025
0
LINE
8
BLACK
6
CONTINUOUS
10
147.49
20
-67.9025
11
147.462
21
-67.8087
0
LINE
8
BLACK
6
CONTINUOUS
10
147.462
20
-67.8087
11
147.416
21
-67.7222
0
LINE
8
BLACK
6
CONTINUOUS
10
147.416
20
-67.7222
11
147.354
21
-67.6464
0
LINE
8
BLACK
6
CONTINUOUS
10
147.354
20
-67.6464
11
147.278
21
-67.5843
0
LINE
8
BLACK
6
CONTINUOUS
10
147.278
20
-67.5843
11
147.191
21
-67.5381
0
LINE
8
BLACK
6
CONTINUOUS
10
147.191
20
-67.5381
11
147.098
21
-67.5096
0
LINE
8
BLACK
6
CONTINUOUS
10
147.098
20
-67.5096
11
147
21
-67.5
0
LINE
8
BLACK
6
CONTINUOUS
10
147
20
-67.5
11
146.902
21
-67.5096
0
LINE
8
BLACK
6
CONTINUOUS
10
146.902
20
-67.5096
11
146.809
21
-67.5381
0
LINE
8
BLACK
6
CONTINUOUS
10
146.809
20
-67.5381
11
146.722
21
-67.5843
0
LINE
8
BLACK
6
CONTINUOUS
10
146.722
20
-67.5843
11
146.646
21
-67.6464
0
LINE
8
BLACK
6
CONTINUOUS
10
146.646
20
-67.6464
11
146.584
21
-67.7222
0
LINE
8
BLACK
6
CONTINUOUS
10
146.584
20
-67.7222
11
146.538
21
-67.8087
0
LINE
8
BLACK
6
CONTINUOUS
10
146.538
20
-67.8087
11
146.51
21
-67.9025
0
LINE
8
BLACK
6
CONTINUOUS
10
146.51
20
-67.9025
11
146.5
21
-68
0
LINE
8
BLACK
6
CONTINUOUS
10
146.5
20
-68
11
146.5
21
-72
0
LINE
8
BLACK
6
CONTINUOUS
10
146.5
20
-62
11
146.51
21
-62.0975
0
LINE
8
BLACK
6
CONTINUOUS
10
146.51
20
-62.0975
11
146.538
21
-62.1913
0
LINE
8
BLACK
6
CONTINUOUS
10
146.538
20
-62.1913
11
146.584
21
-62.2778
0
LINE
8
BLACK
6
CONTINUOUS
10
146.584
20
-62.2778
11
146.646
21
-62.3536
0
LINE
8
BLACK
6
CONTINUOUS
10
146.646
20
-62.3536
11
146.722
21
-62.4157
0
LINE
8
BLACK
6
CONTINUOUS
10
146.722
20
-62.4157
11
146.809
21
-62.4619
0
LINE
8
BLACK
6
CONTINUOUS
10
146.809
20
-62.4619
11
146.902
21
-62.4904
0
LINE
8
BLACK
6
CONTINUOUS
10
146.902
20
-62.4904
11
147
21
-62.5
0
LINE
8
BLACK
6
CONTINUOUS
10
147
20
-62.5
11
147.098
21
-62.4904
0
LINE
8
BLACK
6
CONTINUOUS
10
147.098
20
-62.4904
11
147.191
21
-62.4619
0
LINE
8
BLACK
6
CONTINUOUS
10
147.191
20
-62.4619
11
147.278
21
-62.4157
0
LINE
8
BLACK
6
CONTINUOUS
10
147.278
20
-62.4157
11
147.354
21
-62.3536
0
LINE
8
BLACK
6
CONTINUOUS
10
147.354
20
-62.3536
11
147.416
21
-62.2778
0
LINE
8
BLACK
6
CONTINUOUS
10
147.416
20
-62.2778
11
147.462
21
-62.1913
0
LINE
8
BLACK
6
CONTINUOUS
10
147.462
20
-62.1913
11
147.49
21
-62.0975
0
LINE
8
BLACK
6
CONTINUOUS
10
147.49
20
-62.0975
11
147.5
21
-62
0
LINE
8
BLACK
6
CONTINUOUS
10
147.5
20
-62
11
147.5
21
-58
0
LINE
8
BLACK
6
CONTINUOUS
10
147.5
20
-58
11
147.49
21
-57.9025
0
LINE
8
BLACK
6
CONTINUOUS
10
147.49
20
-57.9025
11
147.462
21
-57.8087
0
LINE
8
BLACK
6
CONTINUOUS
10
147.462
20
-57.8087
11
147.416
21
-57.7222
0
LINE
8
BLACK
6
CONTINUOUS
10
147.416
20
-57.7222
11
147.354
21
-57.6464
0
LINE
8
BLACK
6
CONTINUOUS
10
147.354
20
-57.6464
11
147.278
21
-57.5843
0
LINE
8
BLACK
6
CONTINUOUS
10
147.278
20
-57.5843
11
147.191
21
-57.5381
0
LINE
8
BLACK
6
CONTINUOUS
10
147.191
20
-57.5381
11
147.098
21
-57.5096
0
LINE
8
BLACK
6
CONTINUOUS
10
147.098
20
-57.5096
11
147
21
-57.5
0
LINE
8
BLACK
6
CONTINUOUS
10
147
20
-57.5
11
146.902
21
-57.5096
0
LINE
8
BLACK
6
CONTINUOUS
10
146.902
20
-57.5096
11
146.809
21
-57.5381
0
LINE
8
BLACK
6
CONTINUOUS
10
146.809
20
-57.5381
11
146.722
21
-57.5843
0
LINE
8
BLACK
6
CONTINUOUS
10
146.722
20
-57.5843
11
146.646
21
-57.6464
0
LINE
8
BLACK
6
CONTINUOUS
10
146.646
20
-57.6464
11
146.584
21
-57.7222
0
LINE
8
BLACK
6
CONTINUOUS
10
146.584
20
-57.7222
11
146.538
21
-57.8087
0
LINE
8
BLACK
6
CONTINUOUS
10
146.538
20
-57.8087
11
146.51
21
-57.9025
0
LINE
8
BLACK
6
CONTINUOUS
10
146.51
20
-57.9025
11
146.5
21
-58
0
LINE
8
BLACK
6
CONTINUOUS
10
146.5
20
-58
11
146.5
21
-62
0
LINE
8
BLACK
6
CONTINUOUS
10
151.5
20
-62
11
151.51
21
-62.0975
0
LINE
8
BLACK
6
CONTINUOUS
10
151.51
20
-62.0975
11
151.538
21
-62.1913
0
LINE
8
BLACK
6
CONTINUOUS
10
151.538
20
-62.1913
11
151.584
21
-62.2778
0
LINE
8
BLACK
6
CONTINUOUS
10
151.584
20
-62.2778
11
151.646
21
-62.3536
0
LINE
8
BLACK
6
CONTINUOUS
10
151.646
20
-62.3536
11
151.722
21
-62.4157
0
LINE
8
BLACK
6
CONTINUOUS
10
151.722
20
-62.4157
11
151.809
21
-62.4619
0
LINE
8
BLACK
6
CONTINUOUS
10
151.809
20
-62.4619
11
151.902
21
-62.4904
0
LINE
8
BLACK
6
CONTINUOUS
10
151.902
20
-62.4904
11
152
21
-62.5
0
LINE
8
BLACK
6
CONTINUOUS
10
152
20
-62.5
11
152.098
21
-62.4904
0
LINE
8
BLACK
6
CONTINUOUS
10
152.098
20
-62.4904
11
152.191
21
-62.4619
0
LINE
8
BLACK
6
CONTINUOUS
10
152.191
20
-62.4619
11
152.278
21
-62.4157
0
LINE
8
BLACK
6
CONTINUOUS
10
152.278
20
-62.4157
11
152.354
21
-62.3536
0
LINE
8
BLACK
6
CONTINUOUS
10
152.354
20
-62.3536
11
152.416
21
-62.2778
0
LINE
8
BLACK
6
CONTINUOUS
10
152.416
20
-62.2778
11
152.462
21
-62.1913
0
LINE
8
BLACK
6
CONTINUOUS
10
152.462
20
-62.1913
11
152.49
21
-62.0975
0
LINE
8
BLACK
6
CONTINUOUS
10
152.49
20
-62.0975
11
152.5
21
-62
0
LINE
8
BLACK
6
CONTINUOUS
10
152.5
20
-62
11
152.5
21
-58
0
LINE
8
BLACK
6
CONTINUOUS
10
152.5
20
-58
11
152.49
21
-57.9025
0
LINE
8
BLACK
6
CONTINUOUS
10
152.49
20
-57.9025
11
152.462
21
-57.8087
0
LINE
8
BLACK
6
CONTINUOUS
10
152.462
20
-57.8087
11
152.416
21
-57.7222
0
LINE
8
BLACK
6
CONTINUOUS
10
152.416
20
-57.7222
11
152.354
21
-57.6464
0
LINE
8
BLACK
6
CONTINUOUS
10
152.354
20
-57.6464
11
152.278
21
-57.5843
0
LINE
8
BLACK
6
CONTINUOUS
10
152.278
20
-57.5843
11
152.191
21
-57.5381
0
LINE
8
BLACK
6
CONTINUOUS
10
152.191
20
-57.5381
11
152.098
21
-57.5096
0
LINE
8
BLACK
6
CONTINUOUS
10
152.098
20
-57.5096
11
152
21
-57.5
0
LINE
8
BLACK
6
CONTINUOUS
10
152
20
-57.5
11
151.902
21
-57.5096
0
LINE
8
BLACK
6
CONTINUOUS
10
151.902
20
-57.5096
11
151.809
21
-57.5381
0
LINE
8
BLACK
6
CONTINUOUS
10
151.809
20
-57.5381
11
151.722
21
-57.5843
0
LINE
8
BLACK
6
CONTINUOUS
10
151.722
20
-57.5843
11
151.646
21
-57.6464
0
LINE
8
BLACK
6
CONTINUOUS
10
151.646
20
-57.6464
11
151.584
21
-57.7222
0
LINE
8
BLACK
6
CONTINUOUS
10
151.584
20
-57.7222
11
151.538
21
-57.8087
0
LINE
8
BLACK
6
CONTINUOUS
10
151.538
20
-57.8087
11
151.51
21
-57.9025
0
LINE
8
BLACK
6
CONTINUOUS
10
151.51
20
-57.9025
11
151.5
21
-58
0
LINE
8
BLACK
6
CONTINUOUS
10
151.5
20
-58
11
151.5
21
-62
0
LINE
8
BLACK
6
CONTINUOUS
10
151.5
20
-72
11
151.51
21
-72.0975
0
LINE
8
BLACK
6
CONTINUOUS
10
151.51
20
-72.0975
11
151.538
21
-72.1913
0
LINE
8
BLACK
6
CONTINUOUS
10
151.538
20
-72.1913
11
151.584
21
-72.2778
0
LINE
8
BLACK
6
CONTINUOUS
10
151.584
20
-72.2778
11
151.646
21
-72.3536
0
LINE
8
BLACK
6
CONTINUOUS
10
151.646
20
-72.3536
11
151.722
21
-72.4157
0
LINE
8
BLACK
6
CONTINUOUS
10
151.722
20
-72.4157
11
151.809
21
-72.4619
0
LINE
8
BLACK
6
CONTINUOUS
10
151.809
20
-72.4619
11
151.902
21
-72.4904
0
LINE
8
BLACK
6
CONTINUOUS
10
151.902
20
-72.4904
11
152
21
-72.5
0
LINE
8
BLACK
6
CONTINUOUS
10
152
20
-72.5
11
152.098
21
-72.4904
0
LINE
8
BLACK
6
CONTINUOUS
10
152.098
20
-72.4904
11
152.191
21
-72.4619
0
LINE
8
BLACK
6
CONTINUOUS
10
152.191
20
-72.4619
11
152.278
21
-72.4157
0
LINE
8
BLACK
6
CONTINUOUS
10
152.278
20
-72.4157
11
152.354
21
-72.3536
0
LINE
8
BLACK
6
CONTINUOUS
10
152.354
20
-72.3536
11
152.416
21
-72.2778
0
LINE
8
BLACK
6
CONTINUOUS
10
152.416
20
-72.2778
11
152.462
21
-72.1913
0
LINE
8
BLACK
6
CONTINUOUS
10
152.462
20
-72.1913
11
152.49
21
-72.0975
0
LINE
8
BLACK
6
CONTINUOUS
10
152.49
20
-72.0975
11
152.5
21
-72
0
LINE
8
BLACK
6
CONTINUOUS
10
152.5
20
-72
11
152.5
21
-68
0
LINE
8
BLACK
6
CONTINUOUS
10
152.5
20
-68
11
152.49
21
-67.9025
0
LINE
8
BLACK
6
CONTINUOUS
10
152.49
20
-67.9025
11
152.462
21
-67.8087
0
LINE
8
BLACK
6
CONTINUOUS
10
152.462
20
-67.8087
11
152.416
21
-67.7222
0
LINE
8
BLACK
6
CONTINUOUS
10
152.416
20
-67.7222
11
152.354
21
-67.6464
0
LINE
8
BLACK
6
CONTINUOUS
10
152.354
20
-67.6464
11
152.278
21
-67.5843
0
LINE
8
BLACK
6
CONTINUOUS
10
152.278
20
-67.5843
11
152.191
21
-67.5381
0
LINE
8
BLACK
6
CONTINUOUS
10
152.191
20
-67.5381
11
152.098
21
-67.5096
0
LINE
8
BLACK
6
CONTINUOUS
10
152.098
20
-67.5096
11
152
21
-67.5
0
LINE
8
BLACK
6
CONTINUOUS
10
152
20
-67.5
11
151.902
21
-67.5096
0
LINE
8
BLACK
6
CONTINUOUS
10
151.902
20
-67.5096
11
151.809
21
-67.5381
0
LINE
8
BLACK
6
CONTINUOUS
10
151.809
20
-67.5381
11
151.722
21
-67.5843
0
LINE
8
BLACK
6
CONTINUOUS
10
151.722
20
-67.5843
11
151.646
21
-67.6464
0
LINE
8
BLACK
6
CONTINUOUS
10
151.646
20
-67.6464
11
151.584
21
-67.7222
0
LINE
8
BLACK
6
CONTINUOUS
10
151.584
20
-67.7222
11
151.538
21
-67.8087
0
LINE
8
BLACK
6
CONTINUOUS
10
151.538
20
-67.8087
11
151.51
21
-67.9025
0
LINE
8
BLACK
6
CONTINUOUS
10
151.51
20
-67.9025
11
151.5
21
-68
0
LINE
8
BLACK
6
CONTINUOUS
10
151.5
20
-68
11
151.5
21
-72
0
LINE
8
BLACK
6
CONTINUOUS
10
151.5
20
-47
11
151.51
21
-47.0975
0
LINE
8
BLACK
6
CONTINUOUS
10
151.51
20
-47.0975
11
151.538
21
-47.1913
0
LINE
8
BLACK
6
CONTINUOUS
10
151.538
20
-47.1913
11
151.584
21
-47.2778
0
LINE
8
BLACK
6
CONTINUOUS
10
151.584
20
-47.2778
11
151.646
21
-47.3536
0
LINE
8
BLACK
6
CONTINUOUS
10
151.646
20
-47.3536
11
151.722
21
-47.4157
0
LINE
8
BLACK
6
CONTINUOUS
10
151.722
20
-47.4157
11
151.809
21
-47.4619
0
LINE
8
BLACK
6
CONTINUOUS
10
151.809
20
-47.4619
11
151.902
21
-47.4904
0
LINE
8
BLACK
6
CONTINUOUS
10
151.902
20
-47.4904
11
152
21
-47.5
0
LINE
8
BLACK
6
CONTINUOUS
10
152
20
-47.5
11
152.098
21
-47.4904
0
LINE
8
BLACK
6
CONTINUOUS
10
152.098
20
-47.4904
11
152.191
21
-47.4619
0
LINE
8
BLACK
6
CONTINUOUS
10
152.191
20
-47.4619
11
152.278
21
-47.4157
0
LINE
8
BLACK
6
CONTINUOUS
10
152.278
20
-47.4157
11
152.354
21
-47.3536
0
LINE
8
BLACK
6
CONTINUOUS
10
152.354
20
-47.3536
11
152.416
21
-47.2778
0
LINE
8
BLACK
6
CONTINUOUS
10
152.416
20
-47.2778
11
152.462
21
-47.1913
0
LINE
8
BLACK
6
CONTINUOUS
10
152.462
20
-47.1913
11
152.49
21
-47.0975
0
LINE
8
BLACK
6
CONTINUOUS
10
152.49
20
-47.0975
11
152.5
21
-47
0
LINE
8
BLACK
6
CONTINUOUS
10
152.5
20
-47
11
152.5
21
-43
0
LINE
8
BLACK
6
CONTINUOUS
10
152.5
20
-43
11
152.49
21
-42.9025
0
LINE
8
BLACK
6
CONTINUOUS
10
152.49
20
-42.9025
11
152.462
21
-42.8087
0
LINE
8
BLACK
6
CONTINUOUS
10
152.462
20
-42.8087
11
152.416
21
-42.7222
0
LINE
8
BLACK
6
CONTINUOUS
10
152.416
20
-42.7222
11
152.354
21
-42.6464
0
LINE
8
BLACK
6
CONTINUOUS
10
152.354
20
-42.6464
11
152.278
21
-42.5843
0
LINE
8
BLACK
6
CONTINUOUS
10
152.278
20
-42.5843
11
152.191
21
-42.5381
0
LINE
8
BLACK
6
CONTINUOUS
10
152.191
20
-42.5381
11
152.098
21
-42.5096
0
LINE
8
BLACK
6
CONTINUOUS
10
152.098
20
-42.5096
11
152
21
-42.5
0
LINE
8
BLACK
6
CONTINUOUS
10
152
20
-42.5
11
151.902
21
-42.5096
0
LINE
8
BLACK
6
CONTINUOUS
10
151.902
20
-42.5096
11
151.809
21
-42.5381
0
LINE
8
BLACK
6
CONTINUOUS
10
151.809
20
-42.5381
11
151.722
21
-42.5843
0
LINE
8
BLACK
6
CONTINUOUS
10
151.722
20
-42.5843
11
151.646
21
-42.6464
0
LINE
8
BLACK
6
CONTINUOUS
10
151.646
20
-42.6464
11
151.584
21
-42.7222
0
LINE
8
BLACK
6
CONTINUOUS
10
151.584
20
-42.7222
11
151.538
21
-42.8087
0
LINE
8
BLACK
6
CONTINUOUS
10
151.538
20
-42.8087
11
151.51
21
-42.9025
0
LINE
8
BLACK
6
CONTINUOUS
10
151.51
20
-42.9025
11
151.5
21
-43
0
LINE
8
BLACK
6
CONTINUOUS
10
151.5
20
-43
11
151.5
21
-47
0
LINE
8
BLACK
6
CONTINUOUS
10
151.5
20
-37
11
151.51
21
-37.0975
0
LINE
8
BLACK
6
CONTINUOUS
10
151.51
20
-37.0975
11
151.538
21
-37.1913
0
LINE
8
BLACK
6
CONTINUOUS
10
151.538
20
-37.1913
11
151.584
21
-37.2778
0
LINE
8
BLACK
6
CONTINUOUS
10
151.584
20
-37.2778
11
151.646
21
-37.3536
0
LINE
8
BLACK
6
CONTINUOUS
10
151.646
20
-37.3536
11
151.722
21
-37.4157
0
LINE
8
BLACK
6
CONTINUOUS
10
151.722
20
-37.4157
11
151.809
21
-37.4619
0
LINE
8
BLACK
6
CONTINUOUS
10
151.809
20
-37.4619
11
151.902
21
-37.4904
0
LINE
8
BLACK
6
CONTINUOUS
10
151.902
20
-37.4904
11
152
21
-37.5
0
LINE
8
BLACK
6
CONTINUOUS
10
152
20
-37.5
11
152.098
21
-37.4904
0
LINE
8
BLACK
6
CONTINUOUS
10
152.098
20
-37.4904
11
152.191
21
-37.4619
0
LINE
8
BLACK
6
CONTINUOUS
10
152.191
20
-37.4619
11
152.278
21
-37.4157
0
LINE
8
BLACK
6
CONTINUOUS
10
152.278
20
-37.4157
11
152.354
21
-37.3536
0
LINE
8
BLACK
6
CONTINUOUS
10
152.354
20
-37.3536
11
152.416
21
-37.2778
0
LINE
8
BLACK
6
CONTINUOUS
10
152.416
20
-37.2778
11
152.462
21
-37.1913
0
LINE
8
BLACK
6
CONTINUOUS
10
152.462
20
-37.1913
11
152.49
21
-37.0975
0
LINE
8
BLACK
6
CONTINUOUS
10
152.49
20
-37.0975
11
152.5
21
-37
0
LINE
8
BLACK
6
CONTINUOUS
10
152.5
20
-37
11
152.5
21
-33
0
LINE
8
BLACK
6
CONTINUOUS
10
152.5
20
-33
11
152.49
21
-32.9025
0
LINE
8
BLACK
6
CONTINUOUS
10
152.49
20
-32.9025
11
152.462
21
-32.8087
0
LINE
8
BLACK
6
CONTINUOUS
10
152.462
20
-32.8087
11
152.416
21
-32.7222
0
LINE
8
BLACK
6
CONTINUOUS
10
152.416
20
-32.7222
11
152.354
21
-32.6464
0
LINE
8
BLACK
6
CONTINUOUS
10
152.354
20
-32.6464
11
152.278
21
-32.5843
0
LINE
8
BLACK
6
CONTINUOUS
10
152.278
20
-32.5843
11
152.191
21
-32.5381
0
LINE
8
BLACK
6
CONTINUOUS
10
152.191
20
-32.5381
11
152.098
21
-32.5096
0
LINE
8
BLACK
6
CONTINUOUS
10
152.098
20
-32.5096
11
152
21
-32.5
0
LINE
8
BLACK
6
CONTINUOUS
10
152
20
-32.5
11
151.902
21
-32.5096
0
LINE
8
BLACK
6
CONTINUOUS
10
151.902
20
-32.5096
11
151.809
21
-32.5381
0
LINE
8
BLACK
6
CONTINUOUS
10
151.809
20
-32.5381
11
151.722
21
-32.5843
0
LINE
8
BLACK
6
CONTINUOUS
10
151.722
20
-32.5843
11
151.646
21
-32.6464
0
LINE
8
BLACK
6
CONTINUOUS
10
151.646
20
-32.6464
11
151.584
21
-32.7222
0
LINE
8
BLACK
6
CONTINUOUS
10
151.584
20
-32.7222
11
151.538
21
-32.8087
0
LINE
8
BLACK
6
CONTINUOUS
10
151.538
20
-32.8087
11
151.51
21
-32.9025
0
LINE
8
BLACK
6
CONTINUOUS
10
151.51
20
-32.9025
11
151.5
21
-33
0
LINE
8
BLACK
6
CONTINUOUS
10
151.5
20
-33
11
151.5
21
-37
0
LINE
8
BLACK
6
CONTINUOUS
10
146.5
20
-37
11
146.51
21
-37.0975
0
LINE
8
BLACK
6
CONTINUOUS
10
146.51
20
-37.0975
11
146.538
21
-37.1913
0
LINE
8
BLACK
6
CONTINUOUS
10
146.538
20
-37.1913
11
146.584
21
-37.2778
0
LINE
8
BLACK
6
CONTINUOUS
10
146.584
20
-37.2778
11
146.646
21
-37.3536
0
LINE
8
BLACK
6
CONTINUOUS
10
146.646
20
-37.3536
11
146.722
21
-37.4157
0
LINE
8
BLACK
6
CONTINUOUS
10
146.722
20
-37.4157
11
146.809
21
-37.4619
0
LINE
8
BLACK
6
CONTINUOUS
10
146.809
20
-37.4619
11
146.902
21
-37.4904
0
LINE
8
BLACK
6
CONTINUOUS
10
146.902
20
-37.4904
11
147
21
-37.5
0
LINE
8
BLACK
6
CONTINUOUS
10
147
20
-37.5
11
147.098
21
-37.4904
0
LINE
8
BLACK
6
CONTINUOUS
10
147.098
20
-37.4904
11
147.191
21
-37.4619
0
LINE
8
BLACK
6
CONTINUOUS
10
147.191
20
-37.4619
11
147.278
21
-37.4157
0
LINE
8
BLACK
6
CONTINUOUS
10
147.278
20
-37.4157
11
147.354
21
-37.3536
0
LINE
8
BLACK
6
CONTINUOUS
10
147.354
20
-37.3536
11
147.416
21
-37.2778
0
LINE
8
BLACK
6
CONTINUOUS
10
147.416
20
-37.2778
11
147.462
21
-37.1913
0
LINE
8
BLACK
6
CONTINUOUS
10
147.462
20
-37.1913
11
147.49
21
-37.0975
0
LINE
8
BLACK
6
CONTINUOUS
10
147.49
20
-37.0975
11
147.5
21
-37
0
LINE
8
BLACK
6
CONTINUOUS
10
147.5
20
-37
11
147.5
21
-33
0
LINE
8
BLACK
6
CONTINUOUS
10
147.5
20
-33
11
147.49
21
-32.9025
0
LINE
8
BLACK
6
CONTINUOUS
10
147.49
20
-32.9025
11
147.462
21
-32.8087
0
LINE
8
BLACK
6
CONTINUOUS
10
147.462
20
-32.8087
11
147.416
21
-32.7222
0
LINE
8
BLACK
6
CONTINUOUS
10
147.416
20
-32.7222
11
147.354
21
-32.6464
0
LINE
8
BLACK
6
CONTINUOUS
10
147.354
20
-32.6464
11
147.278
21
-32.5843
0
LINE
8
BLACK
6
CONTINUOUS
10
147.278
20
-32.5843
11
147.191
21
-32.5381
0
LINE
8
BLACK
6
CONTINUOUS
10
147.191
20
-32.5381
11
147.098
21
-32.5096
0
LINE
8
BLACK
6
CONTINUOUS
10
147.098
20
-32.5096
11
147
21
-32.5
0
LINE
8
BLACK
6
CONTINUOUS
10
147
20
-32.5
11
146.902
21
-32.5096
0
LINE
8
BLACK
6
CONTINUOUS
10
146.902
20
-32.5096
11
146.809
21
-32.5381
0
LINE
8
BLACK
6
CONTINUOUS
10
146.809
20
-32.5381
11
146.722
21
-32.5843
0
LINE
8
BLACK
6
CONTINUOUS
10
146.722
20
-32.5843
11
146.646
21
-32.6464
0
LINE
8
BLACK
6
CONTINUOUS
10
146.646
20
-32.6464
11
146.584
21
-32.7222
0
LINE
8
BLACK
6
CONTINUOUS
10
146.584
20
-32.7222
11
146.538
21
-32.8087
0
LINE
8
BLACK
6
CONTINUOUS
10
146.538
20
-32.8087
11
146.51
21
-32.9025
0
LINE
8
BLACK
6
CONTINUOUS
10
146.51
20
-32.9025
11
146.5
21
-33
0
LINE
8
BLACK
6
CONTINUOUS
10
146.5
20
-33
11
146.5
21
-37
0
LINE
8
BLACK
6
CONTINUOUS
10
146.5
20
-47
11
146.51
21
-47.0975
0
LINE
8
BLACK
6
CONTINUOUS
10
146.51
20
-47.0975
11
146.538
21
-47.1913
0
LINE
8
BLACK
6
CONTINUOUS
10
146.538
20
-47.1913
11
146.584
21
-47.2778
0
LINE
8
BLACK
6
CONTINUOUS
10
146.584
20
-47.2778
11
146.646
21
-47.3536
0
LINE
8
BLACK
6
CONTINUOUS
10
146.646
20
-47.3536
11
146.722
21
-47.4157
0
LINE
8
BLACK
6
CONTINUOUS
10
146.722
20
-47.4157
11
146.809
21
-47.4619
0
LINE
8
BLACK
6
CONTINUOUS
10
146.809
20
-47.4619
11
146.902
21
-47.4904
0
LINE
8
BLACK
6
CONTINUOUS
10
146.902
20
-47.4904
11
147
21
-47.5
0
LINE
8
BLACK
6
CONTINUOUS
10
147
20
-47.5
11
147.098
21
-47.4904
0
LINE
8
BLACK
6
CONTINUOUS
10
147.098
20
-47.4904
11
147.191
21
-47.4619
0
LINE
8
BLACK
6
CONTINUOUS
10
147.191
20
-47.4619
11
147.278
21
-47.4157
0
LINE
8
BLACK
6
CONTINUOUS
10
147.278
20
-47.4157
11
147.354
21
-47.3536
0
LINE
8
BLACK
6
CONTINUOUS
10
147.354
20
-47.3536
11
147.416
21
-47.2778
0
LINE
8
BLACK
6
CONTINUOUS
10
147.416
20
-47.2778
11
147.462
21
-47.1913
0
LINE
8
BLACK
6
CONTINUOUS
10
147.462
20
-47.1913
11
147.49
21
-47.0975
0
LINE
8
BLACK
6
CONTINUOUS
10
147.49
20
-47.0975
11
147.5
21
-47
0
LINE
8
BLACK
6
CONTINUOUS
10
147.5
20
-47
11
147.5
21
-43
0
LINE
8
BLACK
6
CONTINUOUS
10
147.5
20
-43
11
147.49
21
-42.9025
0
LINE
8
BLACK
6
CONTINUOUS
10
147.49
20
-42.9025
11
147.462
21
-42.8087
0
LINE
8
BLACK
6
CONTINUOUS
10
147.462
20
-42.8087
11
147.416
21
-42.7222
0
LINE
8
BLACK
6
CONTINUOUS
10
147.416
20
-42.7222
11
147.354
21
-42.6464
0
LINE
8
BLACK
6
CONTINUOUS
10
147.354
20
-42.6464
11
147.278
21
-42.5843
0
LINE
8
BLACK
6
CONTINUOUS
10
147.278
20
-42.5843
11
147.191
21
-42.5381
0
LINE
8
BLACK
6
CONTINUOUS
10
147.191
20
-42.5381
11
147.098
21
-42.5096
0
LINE
8
BLACK
6
CONTINUOUS
10
147.098
20
-42.5096
11
147
21
-42.5
0
LINE
8
BLACK
6
CONTINUOUS
10
147
20
-42.5
11
146.902
21
-42.5096
0
LINE
8
BLACK
6
CONTINUOUS
10
146.902
20
-42.5096
11
146.809
21
-42.5381
0
LINE
8
BLACK
6
CONTINUOUS
10
146.809
20
-42.5381
11
146.722
21
-42.5843
0
LINE
8
BLACK
6
CONTINUOUS
10
146.722
20
-42.5843
11
146.646
21
-42.6464
0
LINE
8
BLACK
6
CONTINUOUS
10
146.646
20
-42.6464
11
146.584
21
-42.7222
0
LINE
8
BLACK
6
CONTINUOUS
10
146.584
20
-42.7222
11
146.538
21
-42.8087
0
LINE
8
BLACK
6
CONTINUOUS
10
146.538
20
-42.8087
11
146.51
21
-42.9025
0
LINE
8
BLACK
6
CONTINUOUS
10
146.51
20
-42.9025
11
146.5
21
-43
0
LINE
8
BLACK
6
CONTINUOUS
10
146.5
20
-43
11
146.5
21
-47
0
LINE
8
BLACK
6
CONTINUOUS
10
140.5
20
-47
11
140.51
21
-47.0975
0
LINE
8
BLACK
6
CONTINUOUS
10
140.51
20
-47.0975
11
140.538
21
-47.1913
0
LINE
8
BLACK
6
CONTINUOUS
10
140.538
20
-47.1913
11
140.584
21
-47.2778
0
LINE
8
BLACK
6
CONTINUOUS
10
140.584
20
-47.2778
11
140.646
21
-47.3536
0
LINE
8
BLACK
6
CONTINUOUS
10
140.646
20
-47.3536
11
140.722
21
-47.4157
0
LINE
8
BLACK
6
CONTINUOUS
10
140.722
20
-47.4157
11
140.809
21
-47.4619
0
LINE
8
BLACK
6
CONTINUOUS
10
140.809
20
-47.4619
11
140.902
21
-47.4904
0
LINE
8
BLACK
6
CONTINUOUS
10
140.902
20
-47.4904
11
141
21
-47.5
0
LINE
8
BLACK
6
CONTINUOUS
10
141
20
-47.5
11
141.098
21
-47.4904
0
LINE
8
BLACK
6
CONTINUOUS
10
141.098
20
-47.4904
11
141.191
21
-47.4619
0
LINE
8
BLACK
6
CONTINUOUS
10
141.191
20
-47.4619
11
141.278
21
-47.4157
0
LINE
8
BLACK
6
CONTINUOUS
10
141.278
20
-47.4157
11
141.354
21
-47.3536
0
LINE
8
BLACK
6
CONTINUOUS
10
141.354
20
-47.3536
11
141.416
21
-47.2778
0
LINE
8
BLACK
6
CONTINUOUS
10
141.416
20
-47.2778
11
141.462
21
-47.1913
0
LINE
8
BLACK
6
CONTINUOUS
10
141.462
20
-47.1913
11
141.49
21
-47.0975
0
LINE
8
BLACK
6
CONTINUOUS
10
141.49
20
-47.0975
11
141.5
21
-47
0
LINE
8
BLACK
6
CONTINUOUS
10
141.5
20
-47
11
141.5
21
-43
0
LINE
8
BLACK
6
CONTINUOUS
10
141.5
20
-43
11
141.49
21
-42.9025
0
LINE
8
BLACK
6
CONTINUOUS
10
141.49
20
-42.9025
11
141.462
21
-42.8087
0
LINE
8
BLACK
6
CONTINUOUS
10
141.462
20
-42.8087
11
141.416
21
-42.7222
0
LINE
8
BLACK
6
CONTINUOUS
10
141.416
20
-42.7222
11
141.354
21
-42.6464
0
LINE
8
BLACK
6
CONTINUOUS
10
141.354
20
-42.6464
11
141.278
21
-42.5843
0
LINE
8
BLACK
6
CONTINUOUS
10
141.278
20
-42.5843
11
141.191
21
-42.5381
0
LINE
8
BLACK
6
CONTINUOUS
10
141.191
20
-42.5381
11
141.098
21
-42.5096
0
LINE
8
BLACK
6
CONTINUOUS
10
141.098
20
-42.5096
11
141
21
-42.5
0
LINE
8
BLACK
6
CONTINUOUS
10
141
20
-42.5
11
140.902
21
-42.5096
0
LINE
8
BLACK
6
CONTINUOUS
10
140.902
20
-42.5096
11
140.809
21
-42.5381
0
LINE
8
BLACK
6
CONTINUOUS
10
140.809
20
-42.5381
11
140.722
21
-42.5843
0
LINE
8
BLACK
6
CONTINUOUS
10
140.722
20
-42.5843
11
140.646
21
-42.6464
0
LINE
8
BLACK
6
CONTINUOUS
10
140.646
20
-42.6464
11
140.584
21
-42.7222
0
LINE
8
BLACK
6
CONTINUOUS
10
140.584
20
-42.7222
11
140.538
21
-42.8087
0
LINE
8
BLACK
6
CONTINUOUS
10
140.538
20
-42.8087
11
140.51
21
-42.9025
0
LINE
8
BLACK
6
CONTINUOUS
10
140.51
20
-42.9025
11
140.5
21
-43
0
LINE
8
BLACK
6
CONTINUOUS
10
140.5
20
-43
11
140.5
21
-47
0
LINE
8
BLACK
6
CONTINUOUS
10
140.5
20
-37
11
140.51
21
-37.0975
0
LINE
8
BLACK
6
CONTINUOUS
10
140.51
20
-37.0975
11
140.538
21
-37.1913
0
LINE
8
BLACK
6
CONTINUOUS
10
140.538
20
-37.1913
11
140.584
21
-37.2778
0
LINE
8
BLACK
6
CONTINUOUS
10
140.584
20
-37.2778
11
140.646
21
-37.3536
0
LINE
8
BLACK
6
CONTINUOUS
10
140.646
20
-37.3536
11
140.722
21
-37.4157
0
LINE
8
BLACK
6
CONTINUOUS
10
140.722
20
-37.4157
11
140.809
21
-37.4619
0
LINE
8
BLACK
6
CONTINUOUS
10
140.809
20
-37.4619
11
140.902
21
-37.4904
0
LINE
8
BLACK
6
CONTINUOUS
10
140.902
20
-37.4904
11
141
21
-37.5
0
LINE
8
BLACK
6
CONTINUOUS
10
141
20
-37.5
11
141.098
21
-37.4904
0
LINE
8
BLACK
6
CONTINUOUS
10
141.098
20
-37.4904
11
141.191
21
-37.4619
0
LINE
8
BLACK
6
CONTINUOUS
10
141.191
20
-37.4619
11
141.278
21
-37.4157
0
LINE
8
BLACK
6
CONTINUOUS
10
141.278
20
-37.4157
11
141.354
21
-37.3536
0
LINE
8
BLACK
6
CONTINUOUS
10
141.354
20
-37.3536
11
141.416
21
-37.2778
0
LINE
8
BLACK
6
CONTINUOUS
10
141.416
20
-37.2778
11
141.462
21
-37.1913
0
LINE
8
BLACK
6
CONTINUOUS
10
141.462
20
-37.1913
11
141.49
21
-37.0975
0
LINE
8
BLACK
6
CONTINUOUS
10
141.49
20
-37.0975
11
141.5
21
-37
0
LINE
8
BLACK
6
CONTINUOUS
10
141.5
20
-37
11
141.5
21
-33
0
LINE
8
BLACK
6
CONTINUOUS
10
141.5
20
-33
11
141.49
21
-32.9025
0
LINE
8
BLACK
6
CONTINUOUS
10
141.49
20
-32.9025
11
141.462
21
-32.8087
0
LINE
8
BLACK
6
CONTINUOUS
10
141.462
20
-32.8087
11
141.416
21
-32.7222
0
LINE
8
BLACK
6
CONTINUOUS
10
141.416
20
-32.7222
11
141.354
21
-32.6464
0
LINE
8
BLACK
6
CONTINUOUS
10
141.354
20
-32.6464
11
141.278
21
-32.5843
0
LINE
8
BLACK
6
CONTINUOUS
10
141.278
20
-32.5843
11
141.191
21
-32.5381
0
LINE
8
BLACK
6
CONTINUOUS
10
141.191
20
-32.5381
11
141.098
21
-32.5096
0
LINE
8
BLACK
6
CONTINUOUS
10
141.098
20
-32.5096
11
141
21
-32.5
0
LINE
8
BLACK
6
CONTINUOUS
10
141
20
-32.5
11
140.902
21
-32.5096
0
LINE
8
BLACK
6
CONTINUOUS
10
140.902
20
-32.5096
11
140.809
21
-32.5381
0
LINE
8
BLACK
6
CONTINUOUS
10
140.809
20
-32.5381
11
140.722
21
-32.5843
0
LINE
8
BLACK
6
CONTINUOUS
10
140.722
20
-32.5843
11
140.646
21
-32.6464
0
LINE
8
BLACK
6
CONTINUOUS
10
140.646
20
-32.6464
11
140.584
21
-32.7222
0
LINE
8
BLACK
6
CONTINUOUS
10
140.584
20
-32.7222
11
140.538
21
-32.8087
0
LINE
8
BLACK
6
CONTINUOUS
10
140.538
20
-32.8087
11
140.51
21
-32.9025
0
LINE
8
BLACK
6
CONTINUOUS
10
140.51
20
-32.9025
11
140.5
21
-33
0
LINE
8
BLACK
6
CONTINUOUS
10
140.5
20
-33
11
140.5
21
-37
0
LINE
8
BLACK
6
CONTINUOUS
10
136
20
-47.5
11
136.098
21
-47.4904
0
LINE
8
BLACK
6
CONTINUOUS
10
136.098
20
-47.4904
11
136.191
21
-47.4619
0
LINE
8
BLACK
6
CONTINUOUS
10
136.191
20
-47.4619
11
136.278
21
-47.4157
0
LINE
8
BLACK
6
CONTINUOUS
10
136.278
20
-47.4157
11
136.354
21
-47.3536
0
LINE
8
BLACK
6
CONTINUOUS
10
136.354
20
-47.3536
11
136.416
21
-47.2778
0
LINE
8
BLACK
6
CONTINUOUS
10
136.416
20
-47.2778
11
136.462
21
-47.1913
0
LINE
8
BLACK
6
CONTINUOUS
10
136.462
20
-47.1913
11
136.49
21
-47.0975
0
LINE
8
BLACK
6
CONTINUOUS
10
136.49
20
-47.0975
11
136.5
21
-47
0
LINE
8
BLACK
6
CONTINUOUS
10
136.5
20
-47
11
136.49
21
-46.9025
0
LINE
8
BLACK
6
CONTINUOUS
10
136.49
20
-46.9025
11
136.462
21
-46.8087
0
LINE
8
BLACK
6
CONTINUOUS
10
136.462
20
-46.8087
11
136.416
21
-46.7222
0
LINE
8
BLACK
6
CONTINUOUS
10
136.416
20
-46.7222
11
136.354
21
-46.6464
0
LINE
8
BLACK
6
CONTINUOUS
10
136.354
20
-46.6464
11
136.278
21
-46.5843
0
LINE
8
BLACK
6
CONTINUOUS
10
136.278
20
-46.5843
11
136.191
21
-46.5381
0
LINE
8
BLACK
6
CONTINUOUS
10
136.191
20
-46.5381
11
136.098
21
-46.5096
0
LINE
8
BLACK
6
CONTINUOUS
10
136.098
20
-46.5096
11
136
21
-46.5
0
LINE
8
BLACK
6
CONTINUOUS
10
136
20
-46.5
11
132
21
-46.5
0
LINE
8
BLACK
6
CONTINUOUS
10
132
20
-46.5
11
131.902
21
-46.5096
0
LINE
8
BLACK
6
CONTINUOUS
10
131.902
20
-46.5096
11
131.809
21
-46.5381
0
LINE
8
BLACK
6
CONTINUOUS
10
131.809
20
-46.5381
11
131.722
21
-46.5843
0
LINE
8
BLACK
6
CONTINUOUS
10
131.722
20
-46.5843
11
131.646
21
-46.6464
0
LINE
8
BLACK
6
CONTINUOUS
10
131.646
20
-46.6464
11
131.584
21
-46.7222
0
LINE
8
BLACK
6
CONTINUOUS
10
131.584
20
-46.7222
11
131.538
21
-46.8087
0
LINE
8
BLACK
6
CONTINUOUS
10
131.538
20
-46.8087
11
131.51
21
-46.9025
0
LINE
8
BLACK
6
CONTINUOUS
10
131.51
20
-46.9025
11
131.5
21
-47
0
LINE
8
BLACK
6
CONTINUOUS
10
131.5
20
-47
11
131.51
21
-47.0975
0
LINE
8
BLACK
6
CONTINUOUS
10
131.51
20
-47.0975
11
131.538
21
-47.1913
0
LINE
8
BLACK
6
CONTINUOUS
10
131.538
20
-47.1913
11
131.584
21
-47.2778
0
LINE
8
BLACK
6
CONTINUOUS
10
131.584
20
-47.2778
11
131.646
21
-47.3536
0
LINE
8
BLACK
6
CONTINUOUS
10
131.646
20
-47.3536
11
131.722
21
-47.4157
0
LINE
8
BLACK
6
CONTINUOUS
10
131.722
20
-47.4157
11
131.809
21
-47.4619
0
LINE
8
BLACK
6
CONTINUOUS
10
131.809
20
-47.4619
11
131.902
21
-47.4904
0
LINE
8
BLACK
6
CONTINUOUS
10
131.902
20
-47.4904
11
132
21
-47.5
0
LINE
8
BLACK
6
CONTINUOUS
10
132
20
-47.5
11
136
21
-47.5
0
LINE
8
BLACK
6
CONTINUOUS
10
136
20
-33.5
11
136.098
21
-33.4904
0
LINE
8
BLACK
6
CONTINUOUS
10
136.098
20
-33.4904
11
136.191
21
-33.4619
0
LINE
8
BLACK
6
CONTINUOUS
10
136.191
20
-33.4619
11
136.278
21
-33.4157
0
LINE
8
BLACK
6
CONTINUOUS
10
136.278
20
-33.4157
11
136.354
21
-33.3536
0
LINE
8
BLACK
6
CONTINUOUS
10
136.354
20
-33.3536
11
136.416
21
-33.2778
0
LINE
8
BLACK
6
CONTINUOUS
10
136.416
20
-33.2778
11
136.462
21
-33.1913
0
LINE
8
BLACK
6
CONTINUOUS
10
136.462
20
-33.1913
11
136.49
21
-33.0975
0
LINE
8
BLACK
6
CONTINUOUS
10
136.49
20
-33.0975
11
136.5
21
-33
0
LINE
8
BLACK
6
CONTINUOUS
10
136.5
20
-33
11
136.49
21
-32.9025
0
LINE
8
BLACK
6
CONTINUOUS
10
136.49
20
-32.9025
11
136.462
21
-32.8087
0
LINE
8
BLACK
6
CONTINUOUS
10
136.462
20
-32.8087
11
136.416
21
-32.7222
0
LINE
8
BLACK
6
CONTINUOUS
10
136.416
20
-32.7222
11
136.354
21
-32.6464
0
LINE
8
BLACK
6
CONTINUOUS
10
136.354
20
-32.6464
11
136.278
21
-32.5843
0
LINE
8
BLACK
6
CONTINUOUS
10
136.278
20
-32.5843
11
136.191
21
-32.5381
0
LINE
8
BLACK
6
CONTINUOUS
10
136.191
20
-32.5381
11
136.098
21
-32.5096
0
LINE
8
BLACK
6
CONTINUOUS
10
136.098
20
-32.5096
11
136
21
-32.5
0
LINE
8
BLACK
6
CONTINUOUS
10
136
20
-32.5
11
132
21
-32.5
0
LINE
8
BLACK
6
CONTINUOUS
10
132
20
-32.5
11
131.902
21
-32.5096
0
LINE
8
BLACK
6
CONTINUOUS
10
131.902
20
-32.5096
11
131.809
21
-32.5381
0
LINE
8
BLACK
6
CONTINUOUS
10
131.809
20
-32.5381
11
131.722
21
-32.5843
0
LINE
8
BLACK
6
CONTINUOUS
10
131.722
20
-32.5843
11
131.646
21
-32.6464
0
LINE
8
BLACK
6
CONTINUOUS
10
131.646
20
-32.6464
11
131.584
21
-32.7222
0
LINE
8
BLACK
6
CONTINUOUS
10
131.584
20
-32.7222
11
131.538
21
-32.8087
0
LINE
8
BLACK
6
CONTINUOUS
10
131.538
20
-32.8087
11
131.51
21
-32.9025
0
LINE
8
BLACK
6
CONTINUOUS
10
131.51
20
-32.9025
11
131.5
21
-33
0
LINE
8
BLACK
6
CONTINUOUS
10
131.5
20
-33
11
131.51
21
-33.0975
0
LINE
8
BLACK
6
CONTINUOUS
10
131.51
20
-33.0975
11
131.538
21
-33.1913
0
LINE
8
BLACK
6
CONTINUOUS
10
131.538
20
-33.1913
11
131.584
21
-33.2778
0
LINE
8
BLACK
6
CONTINUOUS
10
131.584
20
-33.2778
11
131.646
21
-33.3536
0
LINE
8
BLACK
6
CONTINUOUS
10
131.646
20
-33.3536
11
131.722
21
-33.4157
0
LINE
8
BLACK
6
CONTINUOUS
10
131.722
20
-33.4157
11
131.809
21
-33.4619
0
LINE
8
BLACK
6
CONTINUOUS
10
131.809
20
-33.4619
11
131.902
21
-33.4904
0
LINE
8
BLACK
6
CONTINUOUS
10
131.902
20
-33.4904
11
132
21
-33.5
0
LINE
8
BLACK
6
CONTINUOUS
10
132
20
-33.5
11
136
21
-33.5
0
CIRCLE
8
BLACK
10
159.5
20
-74.82
40
0.6
0
CIRCLE
8
BLACK
10
159.5
20
-54.5
40
0.6
0
CIRCLE
8
BLACK
10
159.5
20
-30
40
0.6
0
CIRCLE
8
BLACK
10
159.5
20
-50.32
40
0.6
0
LINE
8
BLACK
6
CONTINUOUS
10
172.097
20
-80.5528
11
172.046
21
-80.745
0
LINE
8
BLACK
6
CONTINUOUS
10
172.046
20
-80.745
11
172.011
21
-80.9409
0
LINE
8
BLACK
6
CONTINUOUS
10
172.011
20
-80.9409
11
171.978
21
-80.999
0
LINE
8
BLACK
6
CONTINUOUS
10
171.978
20
-80.999
11
171.96
21
-81.0637
0
LINE
8
BLACK
6
CONTINUOUS
10
171.96
20
-81.0637
11
171.846
21
-81.2267
0
LINE
8
BLACK
6
CONTINUOUS
10
171.846
20
-81.2267
11
171.747
21
-81.3991
0
LINE
8
BLACK
6
CONTINUOUS
10
171.747
20
-81.3991
11
171.594
21
-81.527
0
LINE
8
BLACK
6
CONTINUOUS
10
171.594
20
-81.527
11
169.607
21
-83.5143
0
LINE
8
BLACK
6
CONTINUOUS
10
169.607
20
-83.5143
11
169.479
21
-83.6668
0
LINE
8
BLACK
6
CONTINUOUS
10
169.479
20
-83.6668
11
169.307
21
-83.7663
0
LINE
8
BLACK
6
CONTINUOUS
10
169.307
20
-83.7663
11
169.144
21
-83.8804
0
LINE
8
BLACK
6
CONTINUOUS
10
169.144
20
-83.8804
11
169.079
21
-83.8978
0
LINE
8
BLACK
6
CONTINUOUS
10
169.079
20
-83.8978
11
169.021
21
-83.9313
0
LINE
8
BLACK
6
CONTINUOUS
10
169.021
20
-83.9313
11
168.825
21
-83.9658
0
LINE
8
BLACK
6
CONTINUOUS
10
168.825
20
-83.9658
11
168.633
21
-84.0173
0
LINE
8
BLACK
6
CONTINUOUS
10
168.633
20
-84.0173
11
168.435
21
-84
0
LINE
8
BLACK
6
CONTINUOUS
10
168.435
20
-84
11
153.565
21
-84
0
LINE
8
BLACK
6
CONTINUOUS
10
153.565
20
-84
11
153.367
21
-84.0173
0
LINE
8
BLACK
6
CONTINUOUS
10
153.367
20
-84.0173
11
153.175
21
-83.9658
0
LINE
8
BLACK
6
CONTINUOUS
10
153.175
20
-83.9658
11
152.979
21
-83.9313
0
LINE
8
BLACK
6
CONTINUOUS
10
152.979
20
-83.9313
11
152.921
21
-83.8978
0
LINE
8
BLACK
6
CONTINUOUS
10
152.921
20
-83.8978
11
152.856
21
-83.8804
0
LINE
8
BLACK
6
CONTINUOUS
10
152.856
20
-83.8804
11
152.693
21
-83.7663
0
LINE
8
BLACK
6
CONTINUOUS
10
152.693
20
-83.7663
11
152.521
21
-83.6668
0
LINE
8
BLACK
6
CONTINUOUS
10
152.521
20
-83.6668
11
152.393
21
-83.5144
0
LINE
8
BLACK
6
CONTINUOUS
10
152.393
20
-83.5144
11
147
21
-78.1213
0
LINE
8
BLACK
6
CONTINUOUS
10
147
20
-78.1213
11
146.107
21
-79.0143
0
LINE
8
BLACK
6
CONTINUOUS
10
146.107
20
-79.0143
11
145.979
21
-79.1668
0
LINE
8
BLACK
6
CONTINUOUS
10
145.979
20
-79.1668
11
145.807
21
-79.2663
0
LINE
8
BLACK
6
CONTINUOUS
10
145.807
20
-79.2663
11
145.644
21
-79.3804
0
LINE
8
BLACK
6
CONTINUOUS
10
145.644
20
-79.3804
11
145.579
21
-79.3978
0
LINE
8
BLACK
6
CONTINUOUS
10
145.579
20
-79.3978
11
145.521
21
-79.4313
0
LINE
8
BLACK
6
CONTINUOUS
10
145.521
20
-79.4313
11
145.325
21
-79.4658
0
LINE
8
BLACK
6
CONTINUOUS
10
145.325
20
-79.4658
11
145.133
21
-79.5173
0
LINE
8
BLACK
6
CONTINUOUS
10
145.133
20
-79.5173
11
144.935
21
-79.5
0
LINE
8
BLACK
6
CONTINUOUS
10
144.935
20
-79.5
11
136.065
21
-79.5
0
LINE
8
BLACK
6
CONTINUOUS
10
136.065
20
-79.5
11
135.867
21
-79.5173
0
LINE
8
BLACK
6
CONTINUOUS
10
135.867
20
-79.5173
11
135.675
21
-79.4658
0
LINE
8
BLACK
6
CONTINUOUS
10
135.675
20
-79.4658
11
135.479
21
-79.4313
0
LINE
8
BLACK
6
CONTINUOUS
10
135.479
20
-79.4313
11
135.421
21
-79.3978
0
LINE
8
BLACK
6
CONTINUOUS
10
135.421
20
-79.3978
11
135.356
21
-79.3804
0
LINE
8
BLACK
6
CONTINUOUS
10
135.356
20
-79.3804
11
135.193
21
-79.2663
0
LINE
8
BLACK
6
CONTINUOUS
10
135.193
20
-79.2663
11
135.021
21
-79.1668
0
LINE
8
BLACK
6
CONTINUOUS
10
135.021
20
-79.1668
11
134.893
21
-79.0144
0
LINE
8
BLACK
6
CONTINUOUS
10
134.893
20
-79.0144
11
134
21
-78.1213
0
LINE
8
BLACK
6
CONTINUOUS
10
134
20
-78.1213
11
133.607
21
-78.5143
0
LINE
8
BLACK
6
CONTINUOUS
10
133.607
20
-78.5143
11
133.479
21
-78.6668
0
LINE
8
BLACK
6
CONTINUOUS
10
133.479
20
-78.6668
11
133.307
21
-78.7663
0
LINE
8
BLACK
6
CONTINUOUS
10
133.307
20
-78.7663
11
133.144
21
-78.8804
0
LINE
8
BLACK
6
CONTINUOUS
10
133.144
20
-78.8804
11
133.079
21
-78.8978
0
LINE
8
BLACK
6
CONTINUOUS
10
133.079
20
-78.8978
11
133.021
21
-78.9313
0
LINE
8
BLACK
6
CONTINUOUS
10
133.021
20
-78.9313
11
132.825
21
-78.9658
0
LINE
8
BLACK
6
CONTINUOUS
10
132.825
20
-78.9658
11
132.633
21
-79.0173
0
LINE
8
BLACK
6
CONTINUOUS
10
132.633
20
-79.0173
11
132.435
21
-79
0
LINE
8
BLACK
6
CONTINUOUS
10
132.435
20
-79
11
119.565
21
-79
0
LINE
8
BLACK
6
CONTINUOUS
10
119.565
20
-79
11
119.367
21
-79.0173
0
LINE
8
BLACK
6
CONTINUOUS
10
119.367
20
-79.0173
11
119.175
21
-78.9658
0
LINE
8
BLACK
6
CONTINUOUS
10
119.175
20
-78.9658
11
118.979
21
-78.9313
0
LINE
8
BLACK
6
CONTINUOUS
10
118.979
20
-78.9313
11
118.921
21
-78.8978
0
LINE
8
BLACK
6
CONTINUOUS
10
118.921
20
-78.8978
11
118.856
21
-78.8804
0
LINE
8
BLACK
6
CONTINUOUS
10
118.856
20
-78.8804
11
118.693
21
-78.7663
0
LINE
8
BLACK
6
CONTINUOUS
10
118.693
20
-78.7663
11
118.521
21
-78.6668
0
LINE
8
BLACK
6
CONTINUOUS
10
118.521
20
-78.6668
11
118.393
21
-78.5144
0
LINE
8
BLACK
6
CONTINUOUS
10
118.393
20
-78.5144
11
114.986
21
-75.107
0
LINE
8
BLACK
6
CONTINUOUS
10
114.986
20
-75.107
11
114.833
21
-74.9791
0
LINE
8
BLACK
6
CONTINUOUS
10
114.833
20
-74.9791
11
114.734
21
-74.8067
0
LINE
8
BLACK
6
CONTINUOUS
10
114.734
20
-74.8067
11
114.62
21
-74.6437
0
LINE
8
BLACK
6
CONTINUOUS
10
114.62
20
-74.6437
11
114.602
21
-74.579
0
LINE
8
BLACK
6
CONTINUOUS
10
114.602
20
-74.579
11
114.569
21
-74.5209
0
LINE
8
BLACK
6
CONTINUOUS
10
114.569
20
-74.5209
11
114.534
21
-74.325
0
LINE
8
BLACK
6
CONTINUOUS
10
114.534
20
-74.325
11
114.483
21
-74.1328
0
LINE
8
BLACK
6
CONTINUOUS
10
114.483
20
-74.1328
11
114.5
21
-73.9345
0
LINE
8
BLACK
6
CONTINUOUS
10
114.5
20
-73.9345
11
114.5
21
-53.5655
0
LINE
8
BLACK
6
CONTINUOUS
10
114.5
20
-53.5655
11
114.483
21
-53.3672
0
LINE
8
BLACK
6
CONTINUOUS
10
114.483
20
-53.3672
11
114.534
21
-53.175
0
LINE
8
BLACK
6
CONTINUOUS
10
114.534
20
-53.175
11
114.569
21
-52.9791
0
LINE
8
BLACK
6
CONTINUOUS
10
114.569
20
-52.9791
11
114.602
21
-52.921
0
LINE
8
BLACK
6
CONTINUOUS
10
114.602
20
-52.921
11
114.62
21
-52.8563
0
LINE
8
BLACK
6
CONTINUOUS
10
114.62
20
-52.8563
11
114.734
21
-52.6933
0
LINE
8
BLACK
6
CONTINUOUS
10
114.734
20
-52.6933
11
114.833
21
-52.5209
0
LINE
8
BLACK
6
CONTINUOUS
10
114.833
20
-52.5209
11
114.986
21
-52.393
0
LINE
8
BLACK
6
CONTINUOUS
10
114.986
20
-52.393
11
121.393
21
-45.9856
0
LINE
8
BLACK
6
CONTINUOUS
10
121.393
20
-45.9856
11
121.521
21
-45.8332
0
LINE
8
BLACK
6
CONTINUOUS
10
121.521
20
-45.8332
11
121.693
21
-45.7337
0
LINE
8
BLACK
6
CONTINUOUS
10
121.693
20
-45.7337
11
121.856
21
-45.6196
0
LINE
8
BLACK
6
CONTINUOUS
10
121.856
20
-45.6196
11
121.921
21
-45.6022
0
LINE
8
BLACK
6
CONTINUOUS
10
121.921
20
-45.6022
11
121.979
21
-45.5687
0
LINE
8
BLACK
6
CONTINUOUS
10
121.979
20
-45.5687
11
122.175
21
-45.5342
0
LINE
8
BLACK
6
CONTINUOUS
10
122.175
20
-45.5342
11
122.367
21
-45.4827
0
LINE
8
BLACK
6
CONTINUOUS
10
122.367
20
-45.4827
11
122.565
21
-45.5
0
LINE
8
BLACK
6
CONTINUOUS
10
122.565
20
-45.5
11
130.779
21
-45.5
0
LINE
8
BLACK
6
CONTINUOUS
10
130.779
20
-45.5
11
130.938
21
-45.3672
0
LINE
8
BLACK
6
CONTINUOUS
10
130.938
20
-45.3672
11
131.375
21
-45.25
0
LINE
8
BLACK
6
CONTINUOUS
10
131.375
20
-45.25
11
136.625
21
-45.25
0
LINE
8
BLACK
6
CONTINUOUS
10
136.625
20
-45.25
11
136.924
21
-45.3028
0
LINE
8
BLACK
6
CONTINUOUS
10
136.924
20
-45.3028
11
137.187
21
-45.4547
0
LINE
8
BLACK
6
CONTINUOUS
10
137.187
20
-45.4547
11
137.383
21
-45.6875
0
LINE
8
BLACK
6
CONTINUOUS
10
137.383
20
-45.6875
11
137.5
21
-46.125
0
LINE
8
BLACK
6
CONTINUOUS
10
137.5
20
-46.125
11
137.5
21
-47.875
0
LINE
8
BLACK
6
CONTINUOUS
10
137.5
20
-47.875
11
137.447
21
-48.1743
0
LINE
8
BLACK
6
CONTINUOUS
10
137.447
20
-48.1743
11
137.295
21
-48.4374
0
LINE
8
BLACK
6
CONTINUOUS
10
137.295
20
-48.4374
11
137.062
21
-48.6328
0
LINE
8
BLACK
6
CONTINUOUS
10
137.062
20
-48.6328
11
136.625
21
-48.75
0
LINE
8
BLACK
6
CONTINUOUS
10
136.625
20
-48.75
11
131.375
21
-48.75
0
LINE
8
BLACK
6
CONTINUOUS
10
131.375
20
-48.75
11
131.076
21
-48.6972
0
LINE
8
BLACK
6
CONTINUOUS
10
131.076
20
-48.6972
11
130.813
21
-48.5453
0
LINE
8
BLACK
6
CONTINUOUS
10
130.813
20
-48.5453
11
130.775
21
-48.5
0
LINE
8
BLACK
6
CONTINUOUS
10
130.775
20
-48.5
11
123.121
21
-48.5
0
LINE
8
BLACK
6
CONTINUOUS
10
123.121
20
-48.5
11
117.5
21
-54.1213
0
LINE
8
BLACK
6
CONTINUOUS
10
117.5
20
-54.1213
11
117.5
21
-73.3787
0
LINE
8
BLACK
6
CONTINUOUS
10
117.5
20
-73.3787
11
120.121
21
-76
0
LINE
8
BLACK
6
CONTINUOUS
10
120.121
20
-76
11
131.879
21
-76
0
LINE
8
BLACK
6
CONTINUOUS
10
131.879
20
-76
11
132.5
21
-75.3787
0
LINE
8
BLACK
6
CONTINUOUS
10
132.5
20
-75.3787
11
132.5
21
-73.75
0
LINE
8
BLACK
6
CONTINUOUS
10
132.5
20
-73.75
11
131.375
21
-73.75
0
LINE
8
BLACK
6
CONTINUOUS
10
131.375
20
-73.75
11
131.076
21
-73.6972
0
LINE
8
BLACK
6
CONTINUOUS
10
131.076
20
-73.6972
11
130.813
21
-73.5453
0
LINE
8
BLACK
6
CONTINUOUS
10
130.813
20
-73.5453
11
130.617
21
-73.3125
0
LINE
8
BLACK
6
CONTINUOUS
10
130.617
20
-73.3125
11
130.5
21
-72.875
0
LINE
8
BLACK
6
CONTINUOUS
10
130.5
20
-72.875
11
130.5
21
-71.125
0
LINE
8
BLACK
6
CONTINUOUS
10
130.5
20
-71.125
11
130.553
21
-70.8257
0
LINE
8
BLACK
6
CONTINUOUS
10
130.553
20
-70.8257
11
130.705
21
-70.5626
0
LINE
8
BLACK
6
CONTINUOUS
10
130.705
20
-70.5626
11
130.938
21
-70.3672
0
LINE
8
BLACK
6
CONTINUOUS
10
130.938
20
-70.3672
11
131.375
21
-70.25
0
LINE
8
BLACK
6
CONTINUOUS
10
131.375
20
-70.25
11
136.625
21
-70.25
0
LINE
8
BLACK
6
CONTINUOUS
10
136.625
20
-70.25
11
136.924
21
-70.3028
0
LINE
8
BLACK
6
CONTINUOUS
10
136.924
20
-70.3028
11
137.187
21
-70.4547
0
LINE
8
BLACK
6
CONTINUOUS
10
137.187
20
-70.4547
11
137.383
21
-70.6875
0
LINE
8
BLACK
6
CONTINUOUS
10
137.383
20
-70.6875
11
137.5
21
-71.125
0
LINE
8
BLACK
6
CONTINUOUS
10
137.5
20
-71.125
11
137.5
21
-72.875
0
LINE
8
BLACK
6
CONTINUOUS
10
137.5
20
-72.875
11
137.447
21
-73.1743
0
LINE
8
BLACK
6
CONTINUOUS
10
137.447
20
-73.1743
11
137.295
21
-73.4374
0
LINE
8
BLACK
6
CONTINUOUS
10
137.295
20
-73.4374
11
137.062
21
-73.6328
0
LINE
8
BLACK
6
CONTINUOUS
10
137.062
20
-73.6328
11
136.625
21
-73.75
0
LINE
8
BLACK
6
CONTINUOUS
10
136.625
20
-73.75
11
135.5
21
-73.75
0
LINE
8
BLACK
6
CONTINUOUS
10
135.5
20
-73.75
11
135.5
21
-75.3787
0
LINE
8
BLACK
6
CONTINUOUS
10
135.5
20
-75.3787
11
136.621
21
-76.5
0
LINE
8
BLACK
6
CONTINUOUS
10
136.621
20
-76.5
11
144.379
21
-76.5
0
LINE
8
BLACK
6
CONTINUOUS
10
144.379
20
-76.5
11
145.537
21
-75.3416
0
LINE
8
BLACK
6
CONTINUOUS
10
145.537
20
-75.3416
11
145.5
21
-75.1312
0
LINE
8
BLACK
6
CONTINUOUS
10
145.5
20
-75.1312
11
145.5
21
-73.2207
0
LINE
8
BLACK
6
CONTINUOUS
10
145.5
20
-73.2207
11
145.367
21
-73.0625
0
LINE
8
BLACK
6
CONTINUOUS
10
145.367
20
-73.0625
11
145.25
21
-72.625
0
LINE
8
BLACK
6
CONTINUOUS
10
145.25
20
-72.625
11
145.25
21
-67.375
0
LINE
8
BLACK
6
CONTINUOUS
10
145.25
20
-67.375
11
145.303
21
-67.0757
0
LINE
8
BLACK
6
CONTINUOUS
10
145.303
20
-67.0757
11
145.455
21
-66.8126
0
LINE
8
BLACK
6
CONTINUOUS
10
145.455
20
-66.8126
11
145.688
21
-66.6172
0
LINE
8
BLACK
6
CONTINUOUS
10
145.688
20
-66.6172
11
146.125
21
-66.5
0
LINE
8
BLACK
6
CONTINUOUS
10
146.125
20
-66.5
11
147.875
21
-66.5
0
LINE
8
BLACK
6
CONTINUOUS
10
147.875
20
-66.5
11
148.174
21
-66.5528
0
LINE
8
BLACK
6
CONTINUOUS
10
148.174
20
-66.5528
11
148.437
21
-66.7047
0
LINE
8
BLACK
6
CONTINUOUS
10
148.437
20
-66.7047
11
148.633
21
-66.9375
0
LINE
8
BLACK
6
CONTINUOUS
10
148.633
20
-66.9375
11
148.75
21
-67.375
0
LINE
8
BLACK
6
CONTINUOUS
10
148.75
20
-67.375
11
148.75
21
-72.625
0
LINE
8
BLACK
6
CONTINUOUS
10
148.75
20
-72.625
11
148.697
21
-72.9243
0
LINE
8
BLACK
6
CONTINUOUS
10
148.697
20
-72.9243
11
148.545
21
-73.1874
0
LINE
8
BLACK
6
CONTINUOUS
10
148.545
20
-73.1874
11
148.5
21
-73.2254
0
LINE
8
BLACK
6
CONTINUOUS
10
148.5
20
-73.2254
11
148.5
21
-75.1312
0
LINE
8
BLACK
6
CONTINUOUS
10
148.5
20
-75.1312
11
148.463
21
-75.3416
0
LINE
8
BLACK
6
CONTINUOUS
10
148.463
20
-75.3416
11
154.121
21
-81
0
LINE
8
BLACK
6
CONTINUOUS
10
154.121
20
-81
11
167.879
21
-81
0
LINE
8
BLACK
6
CONTINUOUS
10
167.879
20
-81
11
169.08
21
-79.7987
0
LINE
8
BLACK
6
CONTINUOUS
10
169.08
20
-79.7987
11
169.08
21
-78.7645
0
LINE
8
BLACK
6
CONTINUOUS
10
169.08
20
-78.7645
11
169.08
21
-78.7645
0
LINE
8
BLACK
6
CONTINUOUS
10
169.08
20
-78.7645
11
169.08
21
-78.2355
0
LINE
8
BLACK
6
CONTINUOUS
10
169.08
20
-78.2355
11
169.08
21
-72.4843
0
LINE
8
BLACK
6
CONTINUOUS
10
169.08
20
-72.4843
11
169
21
-72.2645
0
LINE
8
BLACK
6
CONTINUOUS
10
169
20
-72.2645
11
169
21
-71.7355
0
LINE
8
BLACK
6
CONTINUOUS
10
169
20
-71.7355
11
169.181
21
-71.2384
0
LINE
8
BLACK
6
CONTINUOUS
10
169.181
20
-71.2384
11
169.521
21
-70.8332
0
LINE
8
BLACK
6
CONTINUOUS
10
169.521
20
-70.8332
11
169.979
21
-70.5687
0
LINE
8
BLACK
6
CONTINUOUS
10
169.979
20
-70.5687
11
170.5
21
-70.4769
0
LINE
8
BLACK
6
CONTINUOUS
10
170.5
20
-70.4769
11
171.021
21
-70.5687
0
LINE
8
BLACK
6
CONTINUOUS
10
171.021
20
-70.5687
11
171.479
21
-70.8332
0
LINE
8
BLACK
6
CONTINUOUS
10
171.479
20
-70.8332
11
171.601
21
-70.9788
0
LINE
8
BLACK
6
CONTINUOUS
10
171.601
20
-70.9788
11
171.747
21
-71.1009
0
LINE
8
BLACK
6
CONTINUOUS
10
171.747
20
-71.1009
11
172.011
21
-71.5591
0
LINE
8
BLACK
6
CONTINUOUS
10
172.011
20
-71.5591
11
172.08
21
-71.9488
0
LINE
8
BLACK
6
CONTINUOUS
10
172.08
20
-71.9488
11
172.08
21
-80.3545
0
LINE
8
BLACK
6
CONTINUOUS
10
172.08
20
-80.3545
11
172.097
21
-80.5528
0
LINE
8
BLACK
6
CONTINUOUS
10
164.842
20
-66.2438
11
164.927
21
-66.1421
0
LINE
8
BLACK
6
CONTINUOUS
10
164.927
20
-66.1421
11
165.042
21
-66.0758
0
LINE
8
BLACK
6
CONTINUOUS
10
165.042
20
-66.0758
11
165.151
21
-65.9997
0
LINE
8
BLACK
6
CONTINUOUS
10
165.151
20
-65.9997
11
165.194
21
-65.9882
0
LINE
8
BLACK
6
CONTINUOUS
10
165.194
20
-65.9882
11
165.233
21
-65.9658
0
LINE
8
BLACK
6
CONTINUOUS
10
165.233
20
-65.9658
11
165.363
21
-65.9428
0
LINE
8
BLACK
6
CONTINUOUS
10
165.363
20
-65.9428
11
165.491
21
-65.9084
0
LINE
8
BLACK
6
CONTINUOUS
10
165.491
20
-65.9084
11
165.624
21
-65.92
0
LINE
8
BLACK
6
CONTINUOUS
10
165.624
20
-65.92
11
169.381
21
-65.92
0
LINE
8
BLACK
6
CONTINUOUS
10
169.381
20
-65.92
11
169.521
21
-65.7532
0
LINE
8
BLACK
6
CONTINUOUS
10
169.521
20
-65.7532
11
169.979
21
-65.4887
0
LINE
8
BLACK
6
CONTINUOUS
10
169.979
20
-65.4887
11
170.5
21
-65.3969
0
LINE
8
BLACK
6
CONTINUOUS
10
170.5
20
-65.3969
11
170.593
21
-65.4132
0
LINE
8
BLACK
6
CONTINUOUS
10
170.593
20
-65.4132
11
171
21
-65.0058
0
LINE
8
BLACK
6
CONTINUOUS
10
171
20
-65.0058
11
171
21
-58.9142
0
LINE
8
BLACK
6
CONTINUOUS
10
171
20
-58.9142
11
169.586
21
-57.5
0
LINE
8
BLACK
6
CONTINUOUS
10
169.586
20
-57.5
11
167.913
21
-57.5
0
LINE
8
BLACK
6
CONTINUOUS
10
167.913
20
-57.5
11
167.913
21
-57.5
0
LINE
8
BLACK
6
CONTINUOUS
10
167.913
20
-57.5
11
167.824
21
-57.5
0
LINE
8
BLACK
6
CONTINUOUS
10
167.824
20
-57.5
11
167.74
21
-57.4696
0
LINE
8
BLACK
6
CONTINUOUS
10
167.74
20
-57.4696
11
167.653
21
-57.4542
0
LINE
8
BLACK
6
CONTINUOUS
10
167.653
20
-57.4542
11
167.576
21
-57.4098
0
LINE
8
BLACK
6
CONTINUOUS
10
167.576
20
-57.4098
11
167.492
21
-57.3794
0
LINE
8
BLACK
6
CONTINUOUS
10
167.492
20
-57.3794
11
167.424
21
-57.3223
0
LINE
8
BLACK
6
CONTINUOUS
10
167.424
20
-57.3223
11
167.386
21
-57.3
0
LINE
8
BLACK
6
CONTINUOUS
10
167.386
20
-57.3
11
167.2
21
-57.3
0
LINE
8
BLACK
6
CONTINUOUS
10
167.2
20
-57.3
11
167.2
21
-57.1144
0
LINE
8
BLACK
6
CONTINUOUS
10
167.2
20
-57.1144
11
167.178
21
-57.0758
0
LINE
8
BLACK
6
CONTINUOUS
10
167.178
20
-57.0758
11
167.121
21
-57.0077
0
LINE
8
BLACK
6
CONTINUOUS
10
167.121
20
-57.0077
11
167.09
21
-56.9242
0
LINE
8
BLACK
6
CONTINUOUS
10
167.09
20
-56.9242
11
167.046
21
-56.8473
0
LINE
8
BLACK
6
CONTINUOUS
10
167.046
20
-56.8473
11
167.03
21
-56.7598
0
LINE
8
BLACK
6
CONTINUOUS
10
167.03
20
-56.7598
11
167
21
-56.6763
0
LINE
8
BLACK
6
CONTINUOUS
10
167
20
-56.6763
11
167
21
-56.3237
0
LINE
8
BLACK
6
CONTINUOUS
10
167
20
-56.3237
11
167
21
-52
0
LINE
8
BLACK
6
CONTINUOUS
10
167
20
-52
11
164.544
21
-52
0
LINE
8
BLACK
6
CONTINUOUS
10
164.544
20
-52
11
164.411
21
-52.0116
0
LINE
8
BLACK
6
CONTINUOUS
10
164.411
20
-52.0116
11
164.283
21
-51.9772
0
LINE
8
BLACK
6
CONTINUOUS
10
164.283
20
-51.9772
11
164.153
21
-51.9542
0
LINE
8
BLACK
6
CONTINUOUS
10
164.153
20
-51.9542
11
164.114
21
-51.9319
0
LINE
8
BLACK
6
CONTINUOUS
10
164.114
20
-51.9319
11
164.071
21
-51.9203
0
LINE
8
BLACK
6
CONTINUOUS
10
164.071
20
-51.9203
11
163.962
21
-51.8442
0
LINE
8
BLACK
6
CONTINUOUS
10
163.962
20
-51.8442
11
163.847
21
-51.7779
0
LINE
8
BLACK
6
CONTINUOUS
10
163.847
20
-51.7779
11
163.762
21
-51.6762
0
LINE
8
BLACK
6
CONTINUOUS
10
163.762
20
-51.6762
11
163.406
21
-51.32
0
LINE
8
BLACK
6
CONTINUOUS
10
163.406
20
-51.32
11
160.168
21
-51.32
0
LINE
8
BLACK
6
CONTINUOUS
10
160.168
20
-51.32
11
159.917
21
-51.465
0
LINE
8
BLACK
6
CONTINUOUS
10
159.917
20
-51.465
11
159.605
21
-51.52
0
LINE
8
BLACK
6
CONTINUOUS
10
159.605
20
-51.52
11
159.395
21
-51.52
0
LINE
8
BLACK
6
CONTINUOUS
10
159.395
20
-51.52
11
159.083
21
-51.465
0
LINE
8
BLACK
6
CONTINUOUS
10
159.083
20
-51.465
11
158.717
21
-51.2534
0
LINE
8
BLACK
6
CONTINUOUS
10
158.717
20
-51.2534
11
158.445
21
-50.9293
0
LINE
8
BLACK
6
CONTINUOUS
10
158.445
20
-50.9293
11
158.3
21
-50.5316
0
LINE
8
BLACK
6
CONTINUOUS
10
158.3
20
-50.5316
11
158.3
21
-50.1084
0
LINE
8
BLACK
6
CONTINUOUS
10
158.3
20
-50.1084
11
158.445
21
-49.7107
0
LINE
8
BLACK
6
CONTINUOUS
10
158.445
20
-49.7107
11
158.717
21
-49.3866
0
LINE
8
BLACK
6
CONTINUOUS
10
158.717
20
-49.3866
11
159.083
21
-49.175
0
LINE
8
BLACK
6
CONTINUOUS
10
159.083
20
-49.175
11
159.395
21
-49.12
0
LINE
8
BLACK
6
CONTINUOUS
10
159.395
20
-49.12
11
159.605
21
-49.12
0
LINE
8
BLACK
6
CONTINUOUS
10
159.605
20
-49.12
11
159.917
21
-49.175
0
LINE
8
BLACK
6
CONTINUOUS
10
159.917
20
-49.175
11
160.168
21
-49.32
0
LINE
8
BLACK
6
CONTINUOUS
10
160.168
20
-49.32
11
163.776
21
-49.32
0
LINE
8
BLACK
6
CONTINUOUS
10
163.776
20
-49.32
11
163.909
21
-49.3084
0
LINE
8
BLACK
6
CONTINUOUS
10
163.909
20
-49.3084
11
164.037
21
-49.3428
0
LINE
8
BLACK
6
CONTINUOUS
10
164.037
20
-49.3428
11
164.167
21
-49.3658
0
LINE
8
BLACK
6
CONTINUOUS
10
164.167
20
-49.3658
11
164.206
21
-49.3881
0
LINE
8
BLACK
6
CONTINUOUS
10
164.206
20
-49.3881
11
164.249
21
-49.3997
0
LINE
8
BLACK
6
CONTINUOUS
10
164.249
20
-49.3997
11
164.358
21
-49.4758
0
LINE
8
BLACK
6
CONTINUOUS
10
164.358
20
-49.4758
11
164.473
21
-49.5421
0
LINE
8
BLACK
6
CONTINUOUS
10
164.473
20
-49.5421
11
164.558
21
-49.6438
0
LINE
8
BLACK
6
CONTINUOUS
10
164.558
20
-49.6438
11
164.914
21
-50
0
LINE
8
BLACK
6
CONTINUOUS
10
164.914
20
-50
11
168.087
21
-50
0
LINE
8
BLACK
6
CONTINUOUS
10
168.087
20
-50
11
168.087
21
-50
0
LINE
8
BLACK
6
CONTINUOUS
10
168.087
20
-50
11
168.176
21
-50
0
LINE
8
BLACK
6
CONTINUOUS
10
168.176
20
-50
11
168.26
21
-50.0304
0
LINE
8
BLACK
6
CONTINUOUS
10
168.26
20
-50.0304
11
168.347
21
-50.0458
0
LINE
8
BLACK
6
CONTINUOUS
10
168.347
20
-50.0458
11
168.424
21
-50.0902
0
LINE
8
BLACK
6
CONTINUOUS
10
168.424
20
-50.0902
11
168.508
21
-50.1206
0
LINE
8
BLACK
6
CONTINUOUS
10
168.508
20
-50.1206
11
168.576
21
-50.1777
0
LINE
8
BLACK
6
CONTINUOUS
10
168.576
20
-50.1777
11
168.614
21
-50.2
0
LINE
8
BLACK
6
CONTINUOUS
10
168.614
20
-50.2
11
168.8
21
-50.2
0
LINE
8
BLACK
6
CONTINUOUS
10
168.8
20
-50.2
11
168.8
21
-50.3856
0
LINE
8
BLACK
6
CONTINUOUS
10
168.8
20
-50.3856
11
168.822
21
-50.4242
0
LINE
8
BLACK
6
CONTINUOUS
10
168.822
20
-50.4242
11
168.879
21
-50.4923
0
LINE
8
BLACK
6
CONTINUOUS
10
168.879
20
-50.4923
11
168.91
21
-50.5758
0
LINE
8
BLACK
6
CONTINUOUS
10
168.91
20
-50.5758
11
168.954
21
-50.6527
0
LINE
8
BLACK
6
CONTINUOUS
10
168.954
20
-50.6527
11
168.97
21
-50.7402
0
LINE
8
BLACK
6
CONTINUOUS
10
168.97
20
-50.7402
11
169
21
-50.8237
0
LINE
8
BLACK
6
CONTINUOUS
10
169
20
-50.8237
11
169
21
-50.9125
0
LINE
8
BLACK
6
CONTINUOUS
10
169
20
-50.9125
11
169
21
-50.9125
0
LINE
8
BLACK
6
CONTINUOUS
10
169
20
-50.9125
11
169
21
-55.5
0
LINE
8
BLACK
6
CONTINUOUS
10
169
20
-55.5
11
169.956
21
-55.5
0
LINE
8
BLACK
6
CONTINUOUS
10
169.956
20
-55.5
11
170.088
21
-55.4884
0
LINE
8
BLACK
6
CONTINUOUS
10
170.088
20
-55.4884
11
170.217
21
-55.5228
0
LINE
8
BLACK
6
CONTINUOUS
10
170.217
20
-55.5228
11
170.347
21
-55.5458
0
LINE
8
BLACK
6
CONTINUOUS
10
170.347
20
-55.5458
11
170.386
21
-55.5681
0
LINE
8
BLACK
6
CONTINUOUS
10
170.386
20
-55.5681
11
170.429
21
-55.5797
0
LINE
8
BLACK
6
CONTINUOUS
10
170.429
20
-55.5797
11
170.538
21
-55.6558
0
LINE
8
BLACK
6
CONTINUOUS
10
170.538
20
-55.6558
11
170.653
21
-55.7221
0
LINE
8
BLACK
6
CONTINUOUS
10
170.653
20
-55.7221
11
170.738
21
-55.8238
0
LINE
8
BLACK
6
CONTINUOUS
10
170.738
20
-55.8238
11
172.676
21
-57.762
0
LINE
8
BLACK
6
CONTINUOUS
10
172.676
20
-57.762
11
172.778
21
-57.8473
0
LINE
8
BLACK
6
CONTINUOUS
10
172.778
20
-57.8473
11
172.844
21
-57.9622
0
LINE
8
BLACK
6
CONTINUOUS
10
172.844
20
-57.9622
11
172.92
21
-58.0709
0
LINE
8
BLACK
6
CONTINUOUS
10
172.92
20
-58.0709
11
172.932
21
-58.114
0
LINE
8
BLACK
6
CONTINUOUS
10
172.932
20
-58.114
11
172.954
21
-58.1527
0
LINE
8
BLACK
6
CONTINUOUS
10
172.954
20
-58.1527
11
172.977
21
-58.2834
0
LINE
8
BLACK
6
CONTINUOUS
10
172.977
20
-58.2834
11
173.012
21
-58.4115
0
LINE
8
BLACK
6
CONTINUOUS
10
173.012
20
-58.4115
11
173
21
-58.5436
0
LINE
8
BLACK
6
CONTINUOUS
10
173
20
-58.5436
11
173
21
-65.3764
0
LINE
8
BLACK
6
CONTINUOUS
10
173
20
-65.3764
11
173.012
21
-65.5085
0
LINE
8
BLACK
6
CONTINUOUS
10
173.012
20
-65.5085
11
172.977
21
-65.6366
0
LINE
8
BLACK
6
CONTINUOUS
10
172.977
20
-65.6366
11
172.954
21
-65.7673
0
LINE
8
BLACK
6
CONTINUOUS
10
172.954
20
-65.7673
11
172.932
21
-65.806
0
LINE
8
BLACK
6
CONTINUOUS
10
172.932
20
-65.806
11
172.92
21
-65.8491
0
LINE
8
BLACK
6
CONTINUOUS
10
172.92
20
-65.8491
11
172.844
21
-65.9578
0
LINE
8
BLACK
6
CONTINUOUS
10
172.844
20
-65.9578
11
172.778
21
-66.0727
0
LINE
8
BLACK
6
CONTINUOUS
10
172.778
20
-66.0727
11
172.676
21
-66.158
0
LINE
8
BLACK
6
CONTINUOUS
10
172.676
20
-66.158
11
172
21
-66.8342
0
LINE
8
BLACK
6
CONTINUOUS
10
172
20
-66.8342
11
172
21
-67.1845
0
LINE
8
BLACK
6
CONTINUOUS
10
172
20
-67.1845
11
171.819
21
-67.6816
0
LINE
8
BLACK
6
CONTINUOUS
10
171.819
20
-67.6816
11
171.479
21
-68.0868
0
LINE
8
BLACK
6
CONTINUOUS
10
171.479
20
-68.0868
11
171.021
21
-68.3513
0
LINE
8
BLACK
6
CONTINUOUS
10
171.021
20
-68.3513
11
170.5
21
-68.4431
0
LINE
8
BLACK
6
CONTINUOUS
10
170.5
20
-68.4431
11
169.979
21
-68.3513
0
LINE
8
BLACK
6
CONTINUOUS
10
169.979
20
-68.3513
11
169.521
21
-68.0868
0
LINE
8
BLACK
6
CONTINUOUS
10
169.521
20
-68.0868
11
169.381
21
-67.92
0
LINE
8
BLACK
6
CONTINUOUS
10
169.381
20
-67.92
11
165.994
21
-67.92
0
LINE
8
BLACK
6
CONTINUOUS
10
165.994
20
-67.92
11
160.5
21
-73.4142
0
LINE
8
BLACK
6
CONTINUOUS
10
160.5
20
-73.4142
11
160.5
21
-74.1449
0
LINE
8
BLACK
6
CONTINUOUS
10
160.5
20
-74.1449
11
160.555
21
-74.2107
0
LINE
8
BLACK
6
CONTINUOUS
10
160.555
20
-74.2107
11
160.7
21
-74.6084
0
LINE
8
BLACK
6
CONTINUOUS
10
160.7
20
-74.6084
11
160.7
21
-75.0316
0
LINE
8
BLACK
6
CONTINUOUS
10
160.7
20
-75.0316
11
160.555
21
-75.4293
0
LINE
8
BLACK
6
CONTINUOUS
10
160.555
20
-75.4293
11
160.5
21
-75.4951
0
LINE
8
BLACK
6
CONTINUOUS
10
160.5
20
-75.4951
11
160.5
21
-76.0858
0
LINE
8
BLACK
6
CONTINUOUS
10
160.5
20
-76.0858
11
161.914
21
-77.5
0
LINE
8
BLACK
6
CONTINUOUS
10
161.914
20
-77.5
11
164.381
21
-77.5
0
LINE
8
BLACK
6
CONTINUOUS
10
164.381
20
-77.5
11
164.521
21
-77.3332
0
LINE
8
BLACK
6
CONTINUOUS
10
164.521
20
-77.3332
11
164.979
21
-77.0687
0
LINE
8
BLACK
6
CONTINUOUS
10
164.979
20
-77.0687
11
165.5
21
-76.9769
0
LINE
8
BLACK
6
CONTINUOUS
10
165.5
20
-76.9769
11
166.021
21
-77.0687
0
LINE
8
BLACK
6
CONTINUOUS
10
166.021
20
-77.0687
11
166.479
21
-77.3332
0
LINE
8
BLACK
6
CONTINUOUS
10
166.479
20
-77.3332
11
166.819
21
-77.7384
0
LINE
8
BLACK
6
CONTINUOUS
10
166.819
20
-77.7384
11
167
21
-78.2355
0
LINE
8
BLACK
6
CONTINUOUS
10
167
20
-78.2355
11
167
21
-78.7645
0
LINE
8
BLACK
6
CONTINUOUS
10
167
20
-78.7645
11
166.819
21
-79.2616
0
LINE
8
BLACK
6
CONTINUOUS
10
166.819
20
-79.2616
11
166.479
21
-79.6668
0
LINE
8
BLACK
6
CONTINUOUS
10
166.479
20
-79.6668
11
166.021
21
-79.9313
0
LINE
8
BLACK
6
CONTINUOUS
10
166.021
20
-79.9313
11
165.5
21
-80.0231
0
LINE
8
BLACK
6
CONTINUOUS
10
165.5
20
-80.0231
11
164.979
21
-79.9313
0
LINE
8
BLACK
6
CONTINUOUS
10
164.979
20
-79.9313
11
164.521
21
-79.6668
0
LINE
8
BLACK
6
CONTINUOUS
10
164.521
20
-79.6668
11
164.381
21
-79.5
0
LINE
8
BLACK
6
CONTINUOUS
10
164.381
20
-79.5
11
161.544
21
-79.5
0
LINE
8
BLACK
6
CONTINUOUS
10
161.544
20
-79.5
11
161.411
21
-79.5116
0
LINE
8
BLACK
6
CONTINUOUS
10
161.411
20
-79.5116
11
161.283
21
-79.4772
0
LINE
8
BLACK
6
CONTINUOUS
10
161.283
20
-79.4772
11
161.153
21
-79.4542
0
LINE
8
BLACK
6
CONTINUOUS
10
161.153
20
-79.4542
11
161.114
21
-79.4319
0
LINE
8
BLACK
6
CONTINUOUS
10
161.114
20
-79.4319
11
161.071
21
-79.4203
0
LINE
8
BLACK
6
CONTINUOUS
10
161.071
20
-79.4203
11
160.962
21
-79.3442
0
LINE
8
BLACK
6
CONTINUOUS
10
160.962
20
-79.3442
11
160.847
21
-79.2779
0
LINE
8
BLACK
6
CONTINUOUS
10
160.847
20
-79.2779
11
160.762
21
-79.1762
0
LINE
8
BLACK
6
CONTINUOUS
10
160.762
20
-79.1762
11
158.824
21
-77.238
0
LINE
8
BLACK
6
CONTINUOUS
10
158.824
20
-77.238
11
158.722
21
-77.1527
0
LINE
8
BLACK
6
CONTINUOUS
10
158.722
20
-77.1527
11
158.656
21
-77.0378
0
LINE
8
BLACK
6
CONTINUOUS
10
158.656
20
-77.0378
11
158.58
21
-76.9291
0
LINE
8
BLACK
6
CONTINUOUS
10
158.58
20
-76.9291
11
158.568
21
-76.886
0
LINE
8
BLACK
6
CONTINUOUS
10
158.568
20
-76.886
11
158.546
21
-76.8473
0
LINE
8
BLACK
6
CONTINUOUS
10
158.546
20
-76.8473
11
158.523
21
-76.7166
0
LINE
8
BLACK
6
CONTINUOUS
10
158.523
20
-76.7166
11
158.488
21
-76.5885
0
LINE
8
BLACK
6
CONTINUOUS
10
158.488
20
-76.5885
11
158.5
21
-76.4564
0
LINE
8
BLACK
6
CONTINUOUS
10
158.5
20
-76.4564
11
158.5
21
-75.4951
0
LINE
8
BLACK
6
CONTINUOUS
10
158.5
20
-75.4951
11
158.445
21
-75.4293
0
LINE
8
BLACK
6
CONTINUOUS
10
158.445
20
-75.4293
11
158.3
21
-75.0316
0
LINE
8
BLACK
6
CONTINUOUS
10
158.3
20
-75.0316
11
158.3
21
-74.6084
0
LINE
8
BLACK
6
CONTINUOUS
10
158.3
20
-74.6084
11
158.445
21
-74.2107
0
LINE
8
BLACK
6
CONTINUOUS
10
158.445
20
-74.2107
11
158.5
21
-74.1449
0
LINE
8
BLACK
6
CONTINUOUS
10
158.5
20
-74.1449
11
158.5
21
-73.0436
0
LINE
8
BLACK
6
CONTINUOUS
10
158.5
20
-73.0436
11
158.488
21
-72.9115
0
LINE
8
BLACK
6
CONTINUOUS
10
158.488
20
-72.9115
11
158.5
21
-72.8684
0
LINE
8
BLACK
6
CONTINUOUS
10
158.5
20
-72.8684
11
158.5
21
-69.4125
0
LINE
8
BLACK
6
CONTINUOUS
10
158.5
20
-69.4125
11
158.5
21
-69.4125
0
LINE
8
BLACK
6
CONTINUOUS
10
158.5
20
-69.4125
11
158.5
21
-68.4142
0
LINE
8
BLACK
6
CONTINUOUS
10
158.5
20
-68.4142
11
155.731
21
-65.6452
0
LINE
8
BLACK
6
CONTINUOUS
10
155.731
20
-65.6452
11
155.629
21
-65.5
0
LINE
8
BLACK
6
CONTINUOUS
10
155.629
20
-65.5
11
148.022
21
-65.5
0
LINE
8
BLACK
6
CONTINUOUS
10
148.022
20
-65.5
11
147.956
21
-65.5058
0
LINE
8
BLACK
6
CONTINUOUS
10
147.956
20
-65.5058
11
147.892
21
-65.4886
0
LINE
8
BLACK
6
CONTINUOUS
10
147.892
20
-65.4886
11
147.826
21
-65.4771
0
LINE
8
BLACK
6
CONTINUOUS
10
147.826
20
-65.4771
11
147.807
21
-65.4659
0
LINE
8
BLACK
6
CONTINUOUS
10
147.807
20
-65.4659
11
147.785
21
-65.4601
0
LINE
8
BLACK
6
CONTINUOUS
10
147.785
20
-65.4601
11
147.731
21
-65.4221
0
LINE
8
BLACK
6
CONTINUOUS
10
147.731
20
-65.4221
11
147.674
21
-65.3889
0
LINE
8
BLACK
6
CONTINUOUS
10
147.674
20
-65.3889
11
147.631
21
-65.3381
0
LINE
8
BLACK
6
CONTINUOUS
10
147.631
20
-65.3381
11
146.662
21
-64.369
0
LINE
8
BLACK
6
CONTINUOUS
10
146.662
20
-64.369
11
146.611
21
-64.3264
0
LINE
8
BLACK
6
CONTINUOUS
10
146.611
20
-64.3264
11
146.578
21
-64.2689
0
LINE
8
BLACK
6
CONTINUOUS
10
146.578
20
-64.2689
11
146.54
21
-64.2146
0
LINE
8
BLACK
6
CONTINUOUS
10
146.54
20
-64.2146
11
146.534
21
-64.193
0
LINE
8
BLACK
6
CONTINUOUS
10
146.534
20
-64.193
11
146.523
21
-64.1736
0
LINE
8
BLACK
6
CONTINUOUS
10
146.523
20
-64.1736
11
146.511
21
-64.1083
0
LINE
8
BLACK
6
CONTINUOUS
10
146.511
20
-64.1083
11
146.494
21
-64.0442
0
LINE
8
BLACK
6
CONTINUOUS
10
146.494
20
-64.0442
11
146.5
21
-63.9782
0
LINE
8
BLACK
6
CONTINUOUS
10
146.5
20
-63.9782
11
146.5
21
-63.5
0
LINE
8
BLACK
6
CONTINUOUS
10
146.5
20
-63.5
11
146.125
21
-63.5
0
LINE
8
BLACK
6
CONTINUOUS
10
146.125
20
-63.5
11
145.826
21
-63.4472
0
LINE
8
BLACK
6
CONTINUOUS
10
145.826
20
-63.4472
11
145.563
21
-63.2953
0
LINE
8
BLACK
6
CONTINUOUS
10
145.563
20
-63.2953
11
145.367
21
-63.0625
0
LINE
8
BLACK
6
CONTINUOUS
10
145.367
20
-63.0625
11
145.25
21
-62.625
0
LINE
8
BLACK
6
CONTINUOUS
10
145.25
20
-62.625
11
145.25
21
-57.375
0
LINE
8
BLACK
6
CONTINUOUS
10
145.25
20
-57.375
11
145.303
21
-57.0757
0
LINE
8
BLACK
6
CONTINUOUS
10
145.303
20
-57.0757
11
145.455
21
-56.8126
0
LINE
8
BLACK
6
CONTINUOUS
10
145.455
20
-56.8126
11
145.688
21
-56.6172
0
LINE
8
BLACK
6
CONTINUOUS
10
145.688
20
-56.6172
11
146.125
21
-56.5
0
LINE
8
BLACK
6
CONTINUOUS
10
146.125
20
-56.5
11
147.875
21
-56.5
0
LINE
8
BLACK
6
CONTINUOUS
10
147.875
20
-56.5
11
148.174
21
-56.5528
0
LINE
8
BLACK
6
CONTINUOUS
10
148.174
20
-56.5528
11
148.437
21
-56.7047
0
LINE
8
BLACK
6
CONTINUOUS
10
148.437
20
-56.7047
11
148.633
21
-56.9375
0
LINE
8
BLACK
6
CONTINUOUS
10
148.633
20
-56.9375
11
148.75
21
-57.375
0
LINE
8
BLACK
6
CONTINUOUS
10
148.75
20
-57.375
11
148.75
21
-62.625
0
LINE
8
BLACK
6
CONTINUOUS
10
148.75
20
-62.625
11
148.697
21
-62.9243
0
LINE
8
BLACK
6
CONTINUOUS
10
148.697
20
-62.9243
11
148.545
21
-63.1874
0
LINE
8
BLACK
6
CONTINUOUS
10
148.545
20
-63.1874
11
148.312
21
-63.3828
0
LINE
8
BLACK
6
CONTINUOUS
10
148.312
20
-63.3828
11
147.875
21
-63.5
0
LINE
8
BLACK
6
CONTINUOUS
10
147.875
20
-63.5
11
147.5
21
-63.5
0
LINE
8
BLACK
6
CONTINUOUS
10
147.5
20
-63.5
11
147.5
21
-63.7929
0
LINE
8
BLACK
6
CONTINUOUS
10
147.5
20
-63.7929
11
148.207
21
-64.5
0
LINE
8
BLACK
6
CONTINUOUS
10
148.207
20
-64.5
11
155.63
21
-64.5
0
LINE
8
BLACK
6
CONTINUOUS
10
155.63
20
-64.5
11
155.668
21
-64.4176
0
LINE
8
BLACK
6
CONTINUOUS
10
155.668
20
-64.4176
11
155.918
21
-64.1682
0
LINE
8
BLACK
6
CONTINUOUS
10
155.918
20
-64.1682
11
156.237
21
-64.0192
0
LINE
8
BLACK
6
CONTINUOUS
10
156.237
20
-64.0192
11
156.588
21
-63.9884
0
LINE
8
BLACK
6
CONTINUOUS
10
156.588
20
-63.9884
11
156.929
21
-64.0797
0
LINE
8
BLACK
6
CONTINUOUS
10
156.929
20
-64.0797
11
157.145
21
-64.231
0
LINE
8
BLACK
6
CONTINUOUS
10
157.145
20
-64.231
11
160.176
21
-67.262
0
LINE
8
BLACK
6
CONTINUOUS
10
160.176
20
-67.262
11
160.278
21
-67.3473
0
LINE
8
BLACK
6
CONTINUOUS
10
160.278
20
-67.3473
11
160.344
21
-67.4622
0
LINE
8
BLACK
6
CONTINUOUS
10
160.344
20
-67.4622
11
160.42
21
-67.5709
0
LINE
8
BLACK
6
CONTINUOUS
10
160.42
20
-67.5709
11
160.432
21
-67.614
0
LINE
8
BLACK
6
CONTINUOUS
10
160.432
20
-67.614
11
160.454
21
-67.6527
0
LINE
8
BLACK
6
CONTINUOUS
10
160.454
20
-67.6527
11
160.477
21
-67.7834
0
LINE
8
BLACK
6
CONTINUOUS
10
160.477
20
-67.7834
11
160.512
21
-67.9115
0
LINE
8
BLACK
6
CONTINUOUS
10
160.512
20
-67.9115
11
160.5
21
-68.0436
0
LINE
8
BLACK
6
CONTINUOUS
10
160.5
20
-68.0436
11
160.5
21
-70.5858
0
LINE
8
BLACK
6
CONTINUOUS
10
160.5
20
-70.5858
11
164.842
21
-66.2438
0
LINE
8
BLACK
6
CONTINUOUS
10
123.021
20
-60.6087
11
123.479
21
-60.8732
0
LINE
8
BLACK
6
CONTINUOUS
10
123.479
20
-60.8732
11
123.619
21
-61.04
0
LINE
8
BLACK
6
CONTINUOUS
10
123.619
20
-61.04
11
124.996
21
-61.04
0
LINE
8
BLACK
6
CONTINUOUS
10
124.996
20
-61.04
11
125.128
21
-61.0284
0
LINE
8
BLACK
6
CONTINUOUS
10
125.128
20
-61.0284
11
125.257
21
-61.0628
0
LINE
8
BLACK
6
CONTINUOUS
10
125.257
20
-61.0628
11
125.387
21
-61.0858
0
LINE
8
BLACK
6
CONTINUOUS
10
125.387
20
-61.0858
11
125.426
21
-61.1081
0
LINE
8
BLACK
6
CONTINUOUS
10
125.426
20
-61.1081
11
125.469
21
-61.1197
0
LINE
8
BLACK
6
CONTINUOUS
10
125.469
20
-61.1197
11
125.578
21
-61.1958
0
LINE
8
BLACK
6
CONTINUOUS
10
125.578
20
-61.1958
11
125.693
21
-61.2621
0
LINE
8
BLACK
6
CONTINUOUS
10
125.693
20
-61.2621
11
125.778
21
-61.3638
0
LINE
8
BLACK
6
CONTINUOUS
10
125.778
20
-61.3638
11
129.676
21
-65.262
0
LINE
8
BLACK
6
CONTINUOUS
10
129.676
20
-65.262
11
129.778
21
-65.3473
0
LINE
8
BLACK
6
CONTINUOUS
10
129.778
20
-65.3473
11
129.844
21
-65.4622
0
LINE
8
BLACK
6
CONTINUOUS
10
129.844
20
-65.4622
11
129.92
21
-65.5709
0
LINE
8
BLACK
6
CONTINUOUS
10
129.92
20
-65.5709
11
129.932
21
-65.614
0
LINE
8
BLACK
6
CONTINUOUS
10
129.932
20
-65.614
11
129.954
21
-65.6527
0
LINE
8
BLACK
6
CONTINUOUS
10
129.954
20
-65.6527
11
129.977
21
-65.7834
0
LINE
8
BLACK
6
CONTINUOUS
10
129.977
20
-65.7834
11
130.012
21
-65.9115
0
LINE
8
BLACK
6
CONTINUOUS
10
130.012
20
-65.9115
11
130
21
-66.0436
0
LINE
8
BLACK
6
CONTINUOUS
10
130
20
-66.0436
11
130
21
-67
0
LINE
8
BLACK
6
CONTINUOUS
10
130
20
-67
11
138.956
21
-67
0
LINE
8
BLACK
6
CONTINUOUS
10
138.956
20
-67
11
139.088
21
-66.9884
0
LINE
8
BLACK
6
CONTINUOUS
10
139.088
20
-66.9884
11
139.217
21
-67.0228
0
LINE
8
BLACK
6
CONTINUOUS
10
139.217
20
-67.0228
11
139.323
21
-67.0415
0
LINE
8
BLACK
6
CONTINUOUS
10
139.323
20
-67.0415
11
139.455
21
-66.8126
0
LINE
8
BLACK
6
CONTINUOUS
10
139.455
20
-66.8126
11
139.688
21
-66.6172
0
LINE
8
BLACK
6
CONTINUOUS
10
139.688
20
-66.6172
11
140.125
21
-66.5
0
LINE
8
BLACK
6
CONTINUOUS
10
140.125
20
-66.5
11
141.875
21
-66.5
0
LINE
8
BLACK
6
CONTINUOUS
10
141.875
20
-66.5
11
142.174
21
-66.5528
0
LINE
8
BLACK
6
CONTINUOUS
10
142.174
20
-66.5528
11
142.437
21
-66.7047
0
LINE
8
BLACK
6
CONTINUOUS
10
142.437
20
-66.7047
11
142.633
21
-66.9375
0
LINE
8
BLACK
6
CONTINUOUS
10
142.633
20
-66.9375
11
142.75
21
-67.375
0
LINE
8
BLACK
6
CONTINUOUS
10
142.75
20
-67.375
11
142.75
21
-72.625
0
LINE
8
BLACK
6
CONTINUOUS
10
142.75
20
-72.625
11
142.697
21
-72.9243
0
LINE
8
BLACK
6
CONTINUOUS
10
142.697
20
-72.9243
11
142.545
21
-73.1874
0
LINE
8
BLACK
6
CONTINUOUS
10
142.545
20
-73.1874
11
142.312
21
-73.3828
0
LINE
8
BLACK
6
CONTINUOUS
10
142.312
20
-73.3828
11
141.875
21
-73.5
0
LINE
8
BLACK
6
CONTINUOUS
10
141.875
20
-73.5
11
140.125
21
-73.5
0
LINE
8
BLACK
6
CONTINUOUS
10
140.125
20
-73.5
11
139.826
21
-73.4472
0
LINE
8
BLACK
6
CONTINUOUS
10
139.826
20
-73.4472
11
139.563
21
-73.2953
0
LINE
8
BLACK
6
CONTINUOUS
10
139.563
20
-73.2953
11
139.367
21
-73.0625
0
LINE
8
BLACK
6
CONTINUOUS
10
139.367
20
-73.0625
11
139.25
21
-72.625
0
LINE
8
BLACK
6
CONTINUOUS
10
139.25
20
-72.625
11
139.25
21
-69.6642
0
LINE
8
BLACK
6
CONTINUOUS
10
139.25
20
-69.6642
11
138.586
21
-69
0
LINE
8
BLACK
6
CONTINUOUS
10
138.586
20
-69
11
129.414
21
-69
0
LINE
8
BLACK
6
CONTINUOUS
10
129.414
20
-69
11
124.198
21
-74.2162
0
LINE
8
BLACK
6
CONTINUOUS
10
124.198
20
-74.2162
11
124.113
21
-74.3179
0
LINE
8
BLACK
6
CONTINUOUS
10
124.113
20
-74.3179
11
123.998
21
-74.3842
0
LINE
8
BLACK
6
CONTINUOUS
10
123.998
20
-74.3842
11
123.889
21
-74.4603
0
LINE
8
BLACK
6
CONTINUOUS
10
123.889
20
-74.4603
11
123.846
21
-74.4719
0
LINE
8
BLACK
6
CONTINUOUS
10
123.846
20
-74.4719
11
123.807
21
-74.4942
0
LINE
8
BLACK
6
CONTINUOUS
10
123.807
20
-74.4942
11
123.677
21
-74.5172
0
LINE
8
BLACK
6
CONTINUOUS
10
123.677
20
-74.5172
11
123.627
21
-74.5305
0
LINE
8
BLACK
6
CONTINUOUS
10
123.627
20
-74.5305
11
123.479
21
-74.7068
0
LINE
8
BLACK
6
CONTINUOUS
10
123.479
20
-74.7068
11
123.021
21
-74.9713
0
LINE
8
BLACK
6
CONTINUOUS
10
123.021
20
-74.9713
11
122.5
21
-75.0631
0
LINE
8
BLACK
6
CONTINUOUS
10
122.5
20
-75.0631
11
121.979
21
-74.9713
0
LINE
8
BLACK
6
CONTINUOUS
10
121.979
20
-74.9713
11
121.521
21
-74.7068
0
LINE
8
BLACK
6
CONTINUOUS
10
121.521
20
-74.7068
11
121.181
21
-74.3016
0
LINE
8
BLACK
6
CONTINUOUS
10
121.181
20
-74.3016
11
121
21
-73.8045
0
LINE
8
BLACK
6
CONTINUOUS
10
121
20
-73.8045
11
121
21
-73.2755
0
LINE
8
BLACK
6
CONTINUOUS
10
121
20
-73.2755
11
121.181
21
-72.7784
0
LINE
8
BLACK
6
CONTINUOUS
10
121.181
20
-72.7784
11
121.521
21
-72.3732
0
LINE
8
BLACK
6
CONTINUOUS
10
121.521
20
-72.3732
11
121.979
21
-72.1087
0
LINE
8
BLACK
6
CONTINUOUS
10
121.979
20
-72.1087
11
122.5
21
-72.0169
0
LINE
8
BLACK
6
CONTINUOUS
10
122.5
20
-72.0169
11
123.021
21
-72.1087
0
LINE
8
BLACK
6
CONTINUOUS
10
123.021
20
-72.1087
11
123.31
21
-72.2757
0
LINE
8
BLACK
6
CONTINUOUS
10
123.31
20
-72.2757
11
128
21
-67.5858
0
LINE
8
BLACK
6
CONTINUOUS
10
128
20
-67.5858
11
128
21
-66.4142
0
LINE
8
BLACK
6
CONTINUOUS
10
128
20
-66.4142
11
124.626
21
-63.04
0
LINE
8
BLACK
6
CONTINUOUS
10
124.626
20
-63.04
11
123.619
21
-63.04
0
LINE
8
BLACK
6
CONTINUOUS
10
123.619
20
-63.04
11
123.479
21
-63.2068
0
LINE
8
BLACK
6
CONTINUOUS
10
123.479
20
-63.2068
11
123.021
21
-63.4713
0
LINE
8
BLACK
6
CONTINUOUS
10
123.021
20
-63.4713
11
122.5
21
-63.5631
0
LINE
8
BLACK
6
CONTINUOUS
10
122.5
20
-63.5631
11
121.979
21
-63.4713
0
LINE
8
BLACK
6
CONTINUOUS
10
121.979
20
-63.4713
11
121.521
21
-63.2068
0
LINE
8
BLACK
6
CONTINUOUS
10
121.521
20
-63.2068
11
121.181
21
-62.8016
0
LINE
8
BLACK
6
CONTINUOUS
10
121.181
20
-62.8016
11
121
21
-62.3045
0
LINE
8
BLACK
6
CONTINUOUS
10
121
20
-62.3045
11
121
21
-61.7755
0
LINE
8
BLACK
6
CONTINUOUS
10
121
20
-61.7755
11
121.181
21
-61.2784
0
LINE
8
BLACK
6
CONTINUOUS
10
121.181
20
-61.2784
11
121.521
21
-60.8732
0
LINE
8
BLACK
6
CONTINUOUS
10
121.521
20
-60.8732
11
121.979
21
-60.6087
0
LINE
8
BLACK
6
CONTINUOUS
10
121.979
20
-60.6087
11
122.5
21
-60.5169
0
LINE
8
BLACK
6
CONTINUOUS
10
122.5
20
-60.5169
11
123.021
21
-60.6087
0
LINE
8
BLACK
6
CONTINUOUS
10
153.174
20
-66.5528
11
153.437
21
-66.7047
0
LINE
8
BLACK
6
CONTINUOUS
10
153.437
20
-66.7047
11
153.633
21
-66.9375
0
LINE
8
BLACK
6
CONTINUOUS
10
153.633
20
-66.9375
11
153.75
21
-67.375
0
LINE
8
BLACK
6
CONTINUOUS
10
153.75
20
-67.375
11
153.75
21
-72.625
0
LINE
8
BLACK
6
CONTINUOUS
10
153.75
20
-72.625
11
153.697
21
-72.9243
0
LINE
8
BLACK
6
CONTINUOUS
10
153.697
20
-72.9243
11
153.545
21
-73.1874
0
LINE
8
BLACK
6
CONTINUOUS
10
153.545
20
-73.1874
11
153.312
21
-73.3828
0
LINE
8
BLACK
6
CONTINUOUS
10
153.312
20
-73.3828
11
152.875
21
-73.5
0
LINE
8
BLACK
6
CONTINUOUS
10
152.875
20
-73.5
11
151.125
21
-73.5
0
LINE
8
BLACK
6
CONTINUOUS
10
151.125
20
-73.5
11
150.826
21
-73.4472
0
LINE
8
BLACK
6
CONTINUOUS
10
150.826
20
-73.4472
11
150.563
21
-73.2953
0
LINE
8
BLACK
6
CONTINUOUS
10
150.563
20
-73.2953
11
150.367
21
-73.0625
0
LINE
8
BLACK
6
CONTINUOUS
10
150.367
20
-73.0625
11
150.25
21
-72.625
0
LINE
8
BLACK
6
CONTINUOUS
10
150.25
20
-72.625
11
150.25
21
-67.375
0
LINE
8
BLACK
6
CONTINUOUS
10
150.25
20
-67.375
11
150.303
21
-67.0757
0
LINE
8
BLACK
6
CONTINUOUS
10
150.303
20
-67.0757
11
150.455
21
-66.8126
0
LINE
8
BLACK
6
CONTINUOUS
10
150.455
20
-66.8126
11
150.688
21
-66.6172
0
LINE
8
BLACK
6
CONTINUOUS
10
150.688
20
-66.6172
11
151.125
21
-66.5
0
LINE
8
BLACK
6
CONTINUOUS
10
151.125
20
-66.5
11
152.875
21
-66.5
0
LINE
8
BLACK
6
CONTINUOUS
10
152.875
20
-66.5
11
153.174
21
-66.5528
0
LINE
8
BLACK
6
CONTINUOUS
10
123.021
20
-55.5287
11
123.479
21
-55.7932
0
LINE
8
BLACK
6
CONTINUOUS
10
123.479
20
-55.7932
11
123.619
21
-55.96
0
LINE
8
BLACK
6
CONTINUOUS
10
123.619
20
-55.96
11
124.916
21
-55.96
0
LINE
8
BLACK
6
CONTINUOUS
10
124.916
20
-55.96
11
125.048
21
-55.9484
0
LINE
8
BLACK
6
CONTINUOUS
10
125.048
20
-55.9484
11
125.177
21
-55.9828
0
LINE
8
BLACK
6
CONTINUOUS
10
125.177
20
-55.9828
11
125.307
21
-56.0058
0
LINE
8
BLACK
6
CONTINUOUS
10
125.307
20
-56.0058
11
125.346
21
-56.0281
0
LINE
8
BLACK
6
CONTINUOUS
10
125.346
20
-56.0281
11
125.389
21
-56.0397
0
LINE
8
BLACK
6
CONTINUOUS
10
125.389
20
-56.0397
11
125.498
21
-56.1158
0
LINE
8
BLACK
6
CONTINUOUS
10
125.498
20
-56.1158
11
125.613
21
-56.1821
0
LINE
8
BLACK
6
CONTINUOUS
10
125.613
20
-56.1821
11
125.698
21
-56.2838
0
LINE
8
BLACK
6
CONTINUOUS
10
125.698
20
-56.2838
11
130.414
21
-61
0
LINE
8
BLACK
6
CONTINUOUS
10
130.414
20
-61
11
138.586
21
-61
0
LINE
8
BLACK
6
CONTINUOUS
10
138.586
20
-61
11
139.25
21
-60.3358
0
LINE
8
BLACK
6
CONTINUOUS
10
139.25
20
-60.3358
11
139.25
21
-57.375
0
LINE
8
BLACK
6
CONTINUOUS
10
139.25
20
-57.375
11
139.303
21
-57.0757
0
LINE
8
BLACK
6
CONTINUOUS
10
139.303
20
-57.0757
11
139.455
21
-56.8126
0
LINE
8
BLACK
6
CONTINUOUS
10
139.455
20
-56.8126
11
139.688
21
-56.6172
0
LINE
8
BLACK
6
CONTINUOUS
10
139.688
20
-56.6172
11
140.125
21
-56.5
0
LINE
8
BLACK
6
CONTINUOUS
10
140.125
20
-56.5
11
141.875
21
-56.5
0
LINE
8
BLACK
6
CONTINUOUS
10
141.875
20
-56.5
11
142.174
21
-56.5528
0
LINE
8
BLACK
6
CONTINUOUS
10
142.174
20
-56.5528
11
142.437
21
-56.7047
0
LINE
8
BLACK
6
CONTINUOUS
10
142.437
20
-56.7047
11
142.633
21
-56.9375
0
LINE
8
BLACK
6
CONTINUOUS
10
142.633
20
-56.9375
11
142.75
21
-57.375
0
LINE
8
BLACK
6
CONTINUOUS
10
142.75
20
-57.375
11
142.75
21
-62.625
0
LINE
8
BLACK
6
CONTINUOUS
10
142.75
20
-62.625
11
142.697
21
-62.9243
0
LINE
8
BLACK
6
CONTINUOUS
10
142.697
20
-62.9243
11
142.545
21
-63.1874
0
LINE
8
BLACK
6
CONTINUOUS
10
142.545
20
-63.1874
11
142.312
21
-63.3828
0
LINE
8
BLACK
6
CONTINUOUS
10
142.312
20
-63.3828
11
141.875
21
-63.5
0
LINE
8
BLACK
6
CONTINUOUS
10
141.875
20
-63.5
11
140.125
21
-63.5
0
LINE
8
BLACK
6
CONTINUOUS
10
140.125
20
-63.5
11
139.826
21
-63.4472
0
LINE
8
BLACK
6
CONTINUOUS
10
139.826
20
-63.4472
11
139.563
21
-63.2953
0
LINE
8
BLACK
6
CONTINUOUS
10
139.563
20
-63.2953
11
139.367
21
-63.0625
0
LINE
8
BLACK
6
CONTINUOUS
10
139.367
20
-63.0625
11
139.339
21
-62.9557
0
LINE
8
BLACK
6
CONTINUOUS
10
139.339
20
-62.9557
11
139.217
21
-62.9772
0
LINE
8
BLACK
6
CONTINUOUS
10
139.217
20
-62.9772
11
139.088
21
-63.0116
0
LINE
8
BLACK
6
CONTINUOUS
10
139.088
20
-63.0116
11
138.956
21
-63
0
LINE
8
BLACK
6
CONTINUOUS
10
138.956
20
-63
11
130.044
21
-63
0
LINE
8
BLACK
6
CONTINUOUS
10
130.044
20
-63
11
129.911
21
-63.0116
0
LINE
8
BLACK
6
CONTINUOUS
10
129.911
20
-63.0116
11
129.783
21
-62.9772
0
LINE
8
BLACK
6
CONTINUOUS
10
129.783
20
-62.9772
11
129.653
21
-62.9542
0
LINE
8
BLACK
6
CONTINUOUS
10
129.653
20
-62.9542
11
129.614
21
-62.9318
0
LINE
8
BLACK
6
CONTINUOUS
10
129.614
20
-62.9318
11
129.571
21
-62.9203
0
LINE
8
BLACK
6
CONTINUOUS
10
129.571
20
-62.9203
11
129.462
21
-62.8442
0
LINE
8
BLACK
6
CONTINUOUS
10
129.462
20
-62.8442
11
129.347
21
-62.7779
0
LINE
8
BLACK
6
CONTINUOUS
10
129.347
20
-62.7779
11
129.262
21
-62.6762
0
LINE
8
BLACK
6
CONTINUOUS
10
129.262
20
-62.6762
11
124.546
21
-57.96
0
LINE
8
BLACK
6
CONTINUOUS
10
124.546
20
-57.96
11
123.619
21
-57.96
0
LINE
8
BLACK
6
CONTINUOUS
10
123.619
20
-57.96
11
123.479
21
-58.1268
0
LINE
8
BLACK
6
CONTINUOUS
10
123.479
20
-58.1268
11
123.021
21
-58.3913
0
LINE
8
BLACK
6
CONTINUOUS
10
123.021
20
-58.3913
11
122.5
21
-58.4831
0
LINE
8
BLACK
6
CONTINUOUS
10
122.5
20
-58.4831
11
121.979
21
-58.3913
0
LINE
8
BLACK
6
CONTINUOUS
10
121.979
20
-58.3913
11
121.521
21
-58.1268
0
LINE
8
BLACK
6
CONTINUOUS
10
121.521
20
-58.1268
11
121.381
21
-57.96
0
LINE
8
BLACK
6
CONTINUOUS
10
121.381
20
-57.96
11
120.954
21
-57.96
0
LINE
8
BLACK
6
CONTINUOUS
10
120.954
20
-57.96
11
120.145
21
-58.769
0
LINE
8
BLACK
6
CONTINUOUS
10
120.145
20
-58.769
11
120
21
-58.8707
0
LINE
8
BLACK
6
CONTINUOUS
10
120
20
-58.8707
11
120
21
-66.1293
0
LINE
8
BLACK
6
CONTINUOUS
10
120
20
-66.1293
11
120.145
21
-66.231
0
LINE
8
BLACK
6
CONTINUOUS
10
120.145
20
-66.231
11
121.374
21
-67.46
0
LINE
8
BLACK
6
CONTINUOUS
10
121.374
20
-67.46
11
121.381
21
-67.46
0
LINE
8
BLACK
6
CONTINUOUS
10
121.381
20
-67.46
11
121.521
21
-67.2932
0
LINE
8
BLACK
6
CONTINUOUS
10
121.521
20
-67.2932
11
121.979
21
-67.0287
0
LINE
8
BLACK
6
CONTINUOUS
10
121.979
20
-67.0287
11
122.5
21
-66.9369
0
LINE
8
BLACK
6
CONTINUOUS
10
122.5
20
-66.9369
11
123.021
21
-67.0287
0
LINE
8
BLACK
6
CONTINUOUS
10
123.021
20
-67.0287
11
123.479
21
-67.2932
0
LINE
8
BLACK
6
CONTINUOUS
10
123.479
20
-67.2932
11
123.819
21
-67.6984
0
LINE
8
BLACK
6
CONTINUOUS
10
123.819
20
-67.6984
11
124
21
-68.1955
0
LINE
8
BLACK
6
CONTINUOUS
10
124
20
-68.1955
11
124
21
-68.7245
0
LINE
8
BLACK
6
CONTINUOUS
10
124
20
-68.7245
11
123.819
21
-69.2216
0
LINE
8
BLACK
6
CONTINUOUS
10
123.819
20
-69.2216
11
123.479
21
-69.6268
0
LINE
8
BLACK
6
CONTINUOUS
10
123.479
20
-69.6268
11
123.021
21
-69.8913
0
LINE
8
BLACK
6
CONTINUOUS
10
123.021
20
-69.8913
11
122.5
21
-69.9831
0
LINE
8
BLACK
6
CONTINUOUS
10
122.5
20
-69.9831
11
121.979
21
-69.8913
0
LINE
8
BLACK
6
CONTINUOUS
10
121.979
20
-69.8913
11
121.521
21
-69.6268
0
LINE
8
BLACK
6
CONTINUOUS
10
121.521
20
-69.6268
11
121.381
21
-69.46
0
LINE
8
BLACK
6
CONTINUOUS
10
121.381
20
-69.46
11
121.004
21
-69.46
0
LINE
8
BLACK
6
CONTINUOUS
10
121.004
20
-69.46
11
120.871
21
-69.4716
0
LINE
8
BLACK
6
CONTINUOUS
10
120.871
20
-69.4716
11
120.743
21
-69.4372
0
LINE
8
BLACK
6
CONTINUOUS
10
120.743
20
-69.4372
11
120.613
21
-69.4142
0
LINE
8
BLACK
6
CONTINUOUS
10
120.613
20
-69.4142
11
120.574
21
-69.3919
0
LINE
8
BLACK
6
CONTINUOUS
10
120.574
20
-69.3919
11
120.531
21
-69.3803
0
LINE
8
BLACK
6
CONTINUOUS
10
120.531
20
-69.3803
11
120.422
21
-69.3042
0
LINE
8
BLACK
6
CONTINUOUS
10
120.422
20
-69.3042
11
120.307
21
-69.2379
0
LINE
8
BLACK
6
CONTINUOUS
10
120.307
20
-69.2379
11
120.222
21
-69.1362
0
LINE
8
BLACK
6
CONTINUOUS
10
120.222
20
-69.1362
11
118.731
21
-67.6452
0
LINE
8
BLACK
6
CONTINUOUS
10
118.731
20
-67.6452
11
118.58
21
-67.4291
0
LINE
8
BLACK
6
CONTINUOUS
10
118.58
20
-67.4291
11
118.488
21
-67.0885
0
LINE
8
BLACK
6
CONTINUOUS
10
118.488
20
-67.0885
11
118.519
21
-66.7372
0
LINE
8
BLACK
6
CONTINUOUS
10
118.519
20
-66.7372
11
118.668
21
-66.4176
0
LINE
8
BLACK
6
CONTINUOUS
10
118.668
20
-66.4176
11
118.918
21
-66.1682
0
LINE
8
BLACK
6
CONTINUOUS
10
118.918
20
-66.1682
11
119
21
-66.1298
0
LINE
8
BLACK
6
CONTINUOUS
10
119
20
-66.1298
11
119
21
-58.8702
0
LINE
8
BLACK
6
CONTINUOUS
10
119
20
-58.8702
11
118.918
21
-58.8318
0
LINE
8
BLACK
6
CONTINUOUS
10
118.918
20
-58.8318
11
118.668
21
-58.5824
0
LINE
8
BLACK
6
CONTINUOUS
10
118.668
20
-58.5824
11
118.519
21
-58.2628
0
LINE
8
BLACK
6
CONTINUOUS
10
118.519
20
-58.2628
11
118.488
21
-57.9115
0
LINE
8
BLACK
6
CONTINUOUS
10
118.488
20
-57.9115
11
118.58
21
-57.5709
0
LINE
8
BLACK
6
CONTINUOUS
10
118.58
20
-57.5709
11
118.731
21
-57.3548
0
LINE
8
BLACK
6
CONTINUOUS
10
118.731
20
-57.3548
11
119.802
21
-56.2838
0
LINE
8
BLACK
6
CONTINUOUS
10
119.802
20
-56.2838
11
119.887
21
-56.1821
0
LINE
8
BLACK
6
CONTINUOUS
10
119.887
20
-56.1821
11
120.002
21
-56.1158
0
LINE
8
BLACK
6
CONTINUOUS
10
120.002
20
-56.1158
11
120.111
21
-56.0397
0
LINE
8
BLACK
6
CONTINUOUS
10
120.111
20
-56.0397
11
120.154
21
-56.0281
0
LINE
8
BLACK
6
CONTINUOUS
10
120.154
20
-56.0281
11
120.193
21
-56.0058
0
LINE
8
BLACK
6
CONTINUOUS
10
120.193
20
-56.0058
11
120.323
21
-55.9828
0
LINE
8
BLACK
6
CONTINUOUS
10
120.323
20
-55.9828
11
120.451
21
-55.9484
0
LINE
8
BLACK
6
CONTINUOUS
10
120.451
20
-55.9484
11
120.584
21
-55.96
0
LINE
8
BLACK
6
CONTINUOUS
10
120.584
20
-55.96
11
121.381
21
-55.96
0
LINE
8
BLACK
6
CONTINUOUS
10
121.381
20
-55.96
11
121.521
21
-55.7932
0
LINE
8
BLACK
6
CONTINUOUS
10
121.521
20
-55.7932
11
121.979
21
-55.5287
0
LINE
8
BLACK
6
CONTINUOUS
10
121.979
20
-55.5287
11
122.5
21
-55.4369
0
LINE
8
BLACK
6
CONTINUOUS
10
122.5
20
-55.4369
11
123.021
21
-55.5287
0
LINE
8
BLACK
6
CONTINUOUS
10
153.174
20
-56.5528
11
153.437
21
-56.7047
0
LINE
8
BLACK
6
CONTINUOUS
10
153.437
20
-56.7047
11
153.633
21
-56.9375
0
LINE
8
BLACK
6
CONTINUOUS
10
153.633
20
-56.9375
11
153.75
21
-57.375
0
LINE
8
BLACK
6
CONTINUOUS
10
153.75
20
-57.375
11
153.75
21
-62.625
0
LINE
8
BLACK
6
CONTINUOUS
10
153.75
20
-62.625
11
153.697
21
-62.9243
0
LINE
8
BLACK
6
CONTINUOUS
10
153.697
20
-62.9243
11
153.545
21
-63.1874
0
LINE
8
BLACK
6
CONTINUOUS
10
153.545
20
-63.1874
11
153.312
21
-63.3828
0
LINE
8
BLACK
6
CONTINUOUS
10
153.312
20
-63.3828
11
152.875
21
-63.5
0
LINE
8
BLACK
6
CONTINUOUS
10
152.875
20
-63.5
11
151.125
21
-63.5
0
LINE
8
BLACK
6
CONTINUOUS
10
151.125
20
-63.5
11
150.826
21
-63.4472
0
LINE
8
BLACK
6
CONTINUOUS
10
150.826
20
-63.4472
11
150.563
21
-63.2953
0
LINE
8
BLACK
6
CONTINUOUS
10
150.563
20
-63.2953
11
150.367
21
-63.0625
0
LINE
8
BLACK
6
CONTINUOUS
10
150.367
20
-63.0625
11
150.25
21
-62.625
0
LINE
8
BLACK
6
CONTINUOUS
10
150.25
20
-62.625
11
150.25
21
-57.375
0
LINE
8
BLACK
6
CONTINUOUS
10
150.25
20
-57.375
11
150.303
21
-57.0757
0
LINE
8
BLACK
6
CONTINUOUS
10
150.303
20
-57.0757
11
150.455
21
-56.8126
0
LINE
8
BLACK
6
CONTINUOUS
10
150.455
20
-56.8126
11
150.688
21
-56.6172
0
LINE
8
BLACK
6
CONTINUOUS
10
150.688
20
-56.6172
11
151.125
21
-56.5
0
LINE
8
BLACK
6
CONTINUOUS
10
151.125
20
-56.5
11
152.875
21
-56.5
0
LINE
8
BLACK
6
CONTINUOUS
10
152.875
20
-56.5
11
153.174
21
-56.5528
0
LINE
8
BLACK
6
CONTINUOUS
10
159.217
20
-53.0228
11
159.347
21
-53.0458
0
LINE
8
BLACK
6
CONTINUOUS
10
159.347
20
-53.0458
11
159.386
21
-53.0681
0
LINE
8
BLACK
6
CONTINUOUS
10
159.386
20
-53.0681
11
159.429
21
-53.0797
0
LINE
8
BLACK
6
CONTINUOUS
10
159.429
20
-53.0797
11
159.538
21
-53.1558
0
LINE
8
BLACK
6
CONTINUOUS
10
159.538
20
-53.1558
11
159.653
21
-53.2221
0
LINE
8
BLACK
6
CONTINUOUS
10
159.653
20
-53.2221
11
159.738
21
-53.3234
0
LINE
8
BLACK
6
CONTINUOUS
10
159.738
20
-53.3234
11
159.917
21
-53.355
0
LINE
8
BLACK
6
CONTINUOUS
10
159.917
20
-53.355
11
160.283
21
-53.5666
0
LINE
8
BLACK
6
CONTINUOUS
10
160.283
20
-53.5666
11
160.555
21
-53.8907
0
LINE
8
BLACK
6
CONTINUOUS
10
160.555
20
-53.8907
11
160.698
21
-54.2843
0
LINE
8
BLACK
6
CONTINUOUS
10
160.698
20
-54.2843
11
165.414
21
-59
0
LINE
8
BLACK
6
CONTINUOUS
10
165.414
20
-59
11
168.087
21
-59
0
LINE
8
BLACK
6
CONTINUOUS
10
168.087
20
-59
11
168.347
21
-59.0458
0
LINE
8
BLACK
6
CONTINUOUS
10
168.347
20
-59.0458
11
168.653
21
-59.2221
0
LINE
8
BLACK
6
CONTINUOUS
10
168.653
20
-59.2221
11
168.879
21
-59.4923
0
LINE
8
BLACK
6
CONTINUOUS
10
168.879
20
-59.4923
11
169
21
-59.8237
0
LINE
8
BLACK
6
CONTINUOUS
10
169
20
-59.8237
11
169
21
-60.1763
0
LINE
8
BLACK
6
CONTINUOUS
10
169
20
-60.1763
11
168.879
21
-60.5077
0
LINE
8
BLACK
6
CONTINUOUS
10
168.879
20
-60.5077
11
168.653
21
-60.7779
0
LINE
8
BLACK
6
CONTINUOUS
10
168.653
20
-60.7779
11
168.347
21
-60.9542
0
LINE
8
BLACK
6
CONTINUOUS
10
168.347
20
-60.9542
11
168.087
21
-61
0
LINE
8
BLACK
6
CONTINUOUS
10
168.087
20
-61
11
165.044
21
-61
0
LINE
8
BLACK
6
CONTINUOUS
10
165.044
20
-61
11
164.911
21
-61.0116
0
LINE
8
BLACK
6
CONTINUOUS
10
164.911
20
-61.0116
11
164.783
21
-60.9772
0
LINE
8
BLACK
6
CONTINUOUS
10
164.783
20
-60.9772
11
164.653
21
-60.9542
0
LINE
8
BLACK
6
CONTINUOUS
10
164.653
20
-60.9542
11
164.614
21
-60.9319
0
LINE
8
BLACK
6
CONTINUOUS
10
164.614
20
-60.9319
11
164.571
21
-60.9203
0
LINE
8
BLACK
6
CONTINUOUS
10
164.571
20
-60.9203
11
164.462
21
-60.8442
0
LINE
8
BLACK
6
CONTINUOUS
10
164.462
20
-60.8442
11
164.347
21
-60.7779
0
LINE
8
BLACK
6
CONTINUOUS
10
164.347
20
-60.7779
11
164.262
21
-60.6762
0
LINE
8
BLACK
6
CONTINUOUS
10
164.262
20
-60.6762
11
159.262
21
-55.6766
0
LINE
8
BLACK
6
CONTINUOUS
10
159.262
20
-55.6766
11
159.083
21
-55.645
0
LINE
8
BLACK
6
CONTINUOUS
10
159.083
20
-55.645
11
158.717
21
-55.4334
0
LINE
8
BLACK
6
CONTINUOUS
10
158.717
20
-55.4334
11
158.445
21
-55.1093
0
LINE
8
BLACK
6
CONTINUOUS
10
158.445
20
-55.1093
11
158.405
21
-55
0
LINE
8
BLACK
6
CONTINUOUS
10
158.405
20
-55
11
136.414
21
-55
0
LINE
8
BLACK
6
CONTINUOUS
10
136.414
20
-55
11
135.164
21
-56.25
0
LINE
8
BLACK
6
CONTINUOUS
10
135.164
20
-56.25
11
136.625
21
-56.25
0
LINE
8
BLACK
6
CONTINUOUS
10
136.625
20
-56.25
11
136.924
21
-56.3028
0
LINE
8
BLACK
6
CONTINUOUS
10
136.924
20
-56.3028
11
137.187
21
-56.4547
0
LINE
8
BLACK
6
CONTINUOUS
10
137.187
20
-56.4547
11
137.383
21
-56.6875
0
LINE
8
BLACK
6
CONTINUOUS
10
137.383
20
-56.6875
11
137.5
21
-57.125
0
LINE
8
BLACK
6
CONTINUOUS
10
137.5
20
-57.125
11
137.5
21
-58.875
0
LINE
8
BLACK
6
CONTINUOUS
10
137.5
20
-58.875
11
137.447
21
-59.1743
0
LINE
8
BLACK
6
CONTINUOUS
10
137.447
20
-59.1743
11
137.295
21
-59.4374
0
LINE
8
BLACK
6
CONTINUOUS
10
137.295
20
-59.4374
11
137.062
21
-59.6328
0
LINE
8
BLACK
6
CONTINUOUS
10
137.062
20
-59.6328
11
136.625
21
-59.75
0
LINE
8
BLACK
6
CONTINUOUS
10
136.625
20
-59.75
11
131.375
21
-59.75
0
LINE
8
BLACK
6
CONTINUOUS
10
131.375
20
-59.75
11
131.076
21
-59.6972
0
LINE
8
BLACK
6
CONTINUOUS
10
131.076
20
-59.6972
11
130.813
21
-59.5453
0
LINE
8
BLACK
6
CONTINUOUS
10
130.813
20
-59.5453
11
130.617
21
-59.3125
0
LINE
8
BLACK
6
CONTINUOUS
10
130.617
20
-59.3125
11
130.5
21
-58.875
0
LINE
8
BLACK
6
CONTINUOUS
10
130.5
20
-58.875
11
130.5
21
-57.125
0
LINE
8
BLACK
6
CONTINUOUS
10
130.5
20
-57.125
11
130.553
21
-56.8257
0
LINE
8
BLACK
6
CONTINUOUS
10
130.553
20
-56.8257
11
130.705
21
-56.5626
0
LINE
8
BLACK
6
CONTINUOUS
10
130.705
20
-56.5626
11
130.938
21
-56.3672
0
LINE
8
BLACK
6
CONTINUOUS
10
130.938
20
-56.3672
11
131.375
21
-56.25
0
LINE
8
BLACK
6
CONTINUOUS
10
131.375
20
-56.25
11
133
21
-56.25
0
LINE
8
BLACK
6
CONTINUOUS
10
133
20
-56.25
11
133
21
-56.0437
0
LINE
8
BLACK
6
CONTINUOUS
10
133
20
-56.0437
11
132.988
21
-55.9115
0
LINE
8
BLACK
6
CONTINUOUS
10
132.988
20
-55.9115
11
133.023
21
-55.7834
0
LINE
8
BLACK
6
CONTINUOUS
10
133.023
20
-55.7834
11
133.046
21
-55.6527
0
LINE
8
BLACK
6
CONTINUOUS
10
133.046
20
-55.6527
11
133.068
21
-55.614
0
LINE
8
BLACK
6
CONTINUOUS
10
133.068
20
-55.614
11
133.08
21
-55.5709
0
LINE
8
BLACK
6
CONTINUOUS
10
133.08
20
-55.5709
11
133.156
21
-55.4622
0
LINE
8
BLACK
6
CONTINUOUS
10
133.156
20
-55.4622
11
133.222
21
-55.3473
0
LINE
8
BLACK
6
CONTINUOUS
10
133.222
20
-55.3473
11
133.324
21
-55.262
0
LINE
8
BLACK
6
CONTINUOUS
10
133.324
20
-55.262
11
135.262
21
-53.3238
0
LINE
8
BLACK
6
CONTINUOUS
10
135.262
20
-53.3238
11
135.347
21
-53.2221
0
LINE
8
BLACK
6
CONTINUOUS
10
135.347
20
-53.2221
11
135.462
21
-53.1558
0
LINE
8
BLACK
6
CONTINUOUS
10
135.462
20
-53.1558
11
135.571
21
-53.0797
0
LINE
8
BLACK
6
CONTINUOUS
10
135.571
20
-53.0797
11
135.614
21
-53.0681
0
LINE
8
BLACK
6
CONTINUOUS
10
135.614
20
-53.0681
11
135.653
21
-53.0458
0
LINE
8
BLACK
6
CONTINUOUS
10
135.653
20
-53.0458
11
135.783
21
-53.0228
0
LINE
8
BLACK
6
CONTINUOUS
10
135.783
20
-53.0228
11
135.911
21
-52.9884
0
LINE
8
BLACK
6
CONTINUOUS
10
135.911
20
-52.9884
11
136.044
21
-53
0
LINE
8
BLACK
6
CONTINUOUS
10
136.044
20
-53
11
158.956
21
-53
0
LINE
8
BLACK
6
CONTINUOUS
10
158.956
20
-53
11
159.088
21
-52.9884
0
LINE
8
BLACK
6
CONTINUOUS
10
159.088
20
-52.9884
11
159.217
21
-53.0228
0
LINE
8
BLACK
6
CONTINUOUS
10
171.521
20
-38.5687
11
171.979
21
-38.8332
0
LINE
8
BLACK
6
CONTINUOUS
10
171.979
20
-38.8332
11
172.319
21
-39.2384
0
LINE
8
BLACK
6
CONTINUOUS
10
172.319
20
-39.2384
11
172.5
21
-39.7355
0
LINE
8
BLACK
6
CONTINUOUS
10
172.5
20
-39.7355
11
172.5
21
-40.2645
0
LINE
8
BLACK
6
CONTINUOUS
10
172.5
20
-40.2645
11
172.319
21
-40.7616
0
LINE
8
BLACK
6
CONTINUOUS
10
172.319
20
-40.7616
11
171.979
21
-41.1668
0
LINE
8
BLACK
6
CONTINUOUS
10
171.979
20
-41.1668
11
171.521
21
-41.4313
0
LINE
8
BLACK
6
CONTINUOUS
10
171.521
20
-41.4313
11
171
21
-41.5231
0
LINE
8
BLACK
6
CONTINUOUS
10
171
20
-41.5231
11
170.479
21
-41.4313
0
LINE
8
BLACK
6
CONTINUOUS
10
170.479
20
-41.4313
11
170.021
21
-41.1668
0
LINE
8
BLACK
6
CONTINUOUS
10
170.021
20
-41.1668
11
169.881
21
-41
0
LINE
8
BLACK
6
CONTINUOUS
10
169.881
20
-41
11
166.619
21
-41
0
LINE
8
BLACK
6
CONTINUOUS
10
166.619
20
-41
11
166.479
21
-41.1668
0
LINE
8
BLACK
6
CONTINUOUS
10
166.479
20
-41.1668
11
166.021
21
-41.4313
0
LINE
8
BLACK
6
CONTINUOUS
10
166.021
20
-41.4313
11
165.5
21
-41.5231
0
LINE
8
BLACK
6
CONTINUOUS
10
165.5
20
-41.5231
11
164.982
21
-41.4319
0
LINE
8
BLACK
6
CONTINUOUS
10
164.982
20
-41.4319
11
154.738
21
-51.6762
0
LINE
8
BLACK
6
CONTINUOUS
10
154.738
20
-51.6762
11
154.653
21
-51.7779
0
LINE
8
BLACK
6
CONTINUOUS
10
154.653
20
-51.7779
11
154.538
21
-51.8442
0
LINE
8
BLACK
6
CONTINUOUS
10
154.538
20
-51.8442
11
154.429
21
-51.9203
0
LINE
8
BLACK
6
CONTINUOUS
10
154.429
20
-51.9203
11
154.386
21
-51.9318
0
LINE
8
BLACK
6
CONTINUOUS
10
154.386
20
-51.9318
11
154.347
21
-51.9542
0
LINE
8
BLACK
6
CONTINUOUS
10
154.347
20
-51.9542
11
154.217
21
-51.9772
0
LINE
8
BLACK
6
CONTINUOUS
10
154.217
20
-51.9772
11
154.088
21
-52.0116
0
LINE
8
BLACK
6
CONTINUOUS
10
154.088
20
-52.0116
11
153.956
21
-52
0
LINE
8
BLACK
6
CONTINUOUS
10
153.956
20
-52
11
148.544
21
-52
0
LINE
8
BLACK
6
CONTINUOUS
10
148.544
20
-52
11
148.411
21
-52.0116
0
LINE
8
BLACK
6
CONTINUOUS
10
148.411
20
-52.0116
11
148.283
21
-51.9772
0
LINE
8
BLACK
6
CONTINUOUS
10
148.283
20
-51.9772
11
148.153
21
-51.9542
0
LINE
8
BLACK
6
CONTINUOUS
10
148.153
20
-51.9542
11
148.114
21
-51.9318
0
LINE
8
BLACK
6
CONTINUOUS
10
148.114
20
-51.9318
11
148.071
21
-51.9203
0
LINE
8
BLACK
6
CONTINUOUS
10
148.071
20
-51.9203
11
147.962
21
-51.8442
0
LINE
8
BLACK
6
CONTINUOUS
10
147.962
20
-51.8442
11
147.847
21
-51.7779
0
LINE
8
BLACK
6
CONTINUOUS
10
147.847
20
-51.7779
11
147.762
21
-51.6762
0
LINE
8
BLACK
6
CONTINUOUS
10
147.762
20
-51.6762
11
146.324
21
-50.238
0
LINE
8
BLACK
6
CONTINUOUS
10
146.324
20
-50.238
11
146.222
21
-50.1527
0
LINE
8
BLACK
6
CONTINUOUS
10
146.222
20
-50.1527
11
146.156
21
-50.0378
0
LINE
8
BLACK
6
CONTINUOUS
10
146.156
20
-50.0378
11
146.08
21
-49.9291
0
LINE
8
BLACK
6
CONTINUOUS
10
146.08
20
-49.9291
11
146.068
21
-49.886
0
LINE
8
BLACK
6
CONTINUOUS
10
146.068
20
-49.886
11
146.046
21
-49.8473
0
LINE
8
BLACK
6
CONTINUOUS
10
146.046
20
-49.8473
11
146.023
21
-49.7166
0
LINE
8
BLACK
6
CONTINUOUS
10
146.023
20
-49.7166
11
145.988
21
-49.5885
0
LINE
8
BLACK
6
CONTINUOUS
10
145.988
20
-49.5885
11
146
21
-49.4563
0
LINE
8
BLACK
6
CONTINUOUS
10
146
20
-49.4563
11
146
21
-48.478
0
LINE
8
BLACK
6
CONTINUOUS
10
146
20
-48.478
11
145.826
21
-48.4472
0
LINE
8
BLACK
6
CONTINUOUS
10
145.826
20
-48.4472
11
145.563
21
-48.2953
0
LINE
8
BLACK
6
CONTINUOUS
10
145.563
20
-48.2953
11
145.367
21
-48.0625
0
LINE
8
BLACK
6
CONTINUOUS
10
145.367
20
-48.0625
11
145.25
21
-47.625
0
LINE
8
BLACK
6
CONTINUOUS
10
145.25
20
-47.625
11
145.25
21
-42.375
0
LINE
8
BLACK
6
CONTINUOUS
10
145.25
20
-42.375
11
145.303
21
-42.0757
0
LINE
8
BLACK
6
CONTINUOUS
10
145.303
20
-42.0757
11
145.455
21
-41.8126
0
LINE
8
BLACK
6
CONTINUOUS
10
145.455
20
-41.8126
11
145.688
21
-41.6172
0
LINE
8
BLACK
6
CONTINUOUS
10
145.688
20
-41.6172
11
146.125
21
-41.5
0
LINE
8
BLACK
6
CONTINUOUS
10
146.125
20
-41.5
11
147.875
21
-41.5
0
LINE
8
BLACK
6
CONTINUOUS
10
147.875
20
-41.5
11
148.174
21
-41.5528
0
LINE
8
BLACK
6
CONTINUOUS
10
148.174
20
-41.5528
11
148.437
21
-41.7047
0
LINE
8
BLACK
6
CONTINUOUS
10
148.437
20
-41.7047
11
148.633
21
-41.9375
0
LINE
8
BLACK
6
CONTINUOUS
10
148.633
20
-41.9375
11
148.75
21
-42.375
0
LINE
8
BLACK
6
CONTINUOUS
10
148.75
20
-42.375
11
148.75
21
-47.625
0
LINE
8
BLACK
6
CONTINUOUS
10
148.75
20
-47.625
11
148.697
21
-47.9243
0
LINE
8
BLACK
6
CONTINUOUS
10
148.697
20
-47.9243
11
148.545
21
-48.1874
0
LINE
8
BLACK
6
CONTINUOUS
10
148.545
20
-48.1874
11
148.312
21
-48.3828
0
LINE
8
BLACK
6
CONTINUOUS
10
148.312
20
-48.3828
11
148
21
-48.4665
0
LINE
8
BLACK
6
CONTINUOUS
10
148
20
-48.4665
11
148
21
-49.0858
0
LINE
8
BLACK
6
CONTINUOUS
10
148
20
-49.0858
11
148.914
21
-50
0
LINE
8
BLACK
6
CONTINUOUS
10
148.914
20
-50
11
153.586
21
-50
0
LINE
8
BLACK
6
CONTINUOUS
10
153.586
20
-50
11
164.086
21
-39.5001
0
LINE
8
BLACK
6
CONTINUOUS
10
164.086
20
-39.5001
11
164.181
21
-39.2384
0
LINE
8
BLACK
6
CONTINUOUS
10
164.181
20
-39.2384
11
164.521
21
-38.8332
0
LINE
8
BLACK
6
CONTINUOUS
10
164.521
20
-38.8332
11
164.979
21
-38.5687
0
LINE
8
BLACK
6
CONTINUOUS
10
164.979
20
-38.5687
11
165.5
21
-38.4769
0
LINE
8
BLACK
6
CONTINUOUS
10
165.5
20
-38.4769
11
166.021
21
-38.5687
0
LINE
8
BLACK
6
CONTINUOUS
10
166.021
20
-38.5687
11
166.479
21
-38.8332
0
LINE
8
BLACK
6
CONTINUOUS
10
166.479
20
-38.8332
11
166.619
21
-39
0
LINE
8
BLACK
6
CONTINUOUS
10
166.619
20
-39
11
169.881
21
-39
0
LINE
8
BLACK
6
CONTINUOUS
10
169.881
20
-39
11
170.021
21
-38.8332
0
LINE
8
BLACK
6
CONTINUOUS
10
170.021
20
-38.8332
11
170.479
21
-38.5687
0
LINE
8
BLACK
6
CONTINUOUS
10
170.479
20
-38.5687
11
171
21
-38.4769
0
LINE
8
BLACK
6
CONTINUOUS
10
171
20
-38.4769
11
171.521
21
-38.5687
0
LINE
8
BLACK
6
CONTINUOUS
10
158.217
20
-25.5228
11
158.347
21
-25.5458
0
LINE
8
BLACK
6
CONTINUOUS
10
158.347
20
-25.5458
11
158.386
21
-25.5681
0
LINE
8
BLACK
6
CONTINUOUS
10
158.386
20
-25.5681
11
158.429
21
-25.5797
0
LINE
8
BLACK
6
CONTINUOUS
10
158.429
20
-25.5797
11
158.538
21
-25.6558
0
LINE
8
BLACK
6
CONTINUOUS
10
158.538
20
-25.6558
11
158.653
21
-25.7221
0
LINE
8
BLACK
6
CONTINUOUS
10
158.653
20
-25.7221
11
158.738
21
-25.8238
0
LINE
8
BLACK
6
CONTINUOUS
10
158.738
20
-25.8238
11
160.176
21
-27.262
0
LINE
8
BLACK
6
CONTINUOUS
10
160.176
20
-27.262
11
160.278
21
-27.3473
0
LINE
8
BLACK
6
CONTINUOUS
10
160.278
20
-27.3473
11
160.344
21
-27.4622
0
LINE
8
BLACK
6
CONTINUOUS
10
160.344
20
-27.4622
11
160.42
21
-27.5709
0
LINE
8
BLACK
6
CONTINUOUS
10
160.42
20
-27.5709
11
160.432
21
-27.614
0
LINE
8
BLACK
6
CONTINUOUS
10
160.432
20
-27.614
11
160.454
21
-27.6527
0
LINE
8
BLACK
6
CONTINUOUS
10
160.454
20
-27.6527
11
160.455
21
-27.6597
0
LINE
8
BLACK
6
CONTINUOUS
10
160.455
20
-27.6597
11
160.462
21
-27.6558
0
LINE
8
BLACK
6
CONTINUOUS
10
160.462
20
-27.6558
11
160.571
21
-27.5797
0
LINE
8
BLACK
6
CONTINUOUS
10
160.571
20
-27.5797
11
160.614
21
-27.5682
0
LINE
8
BLACK
6
CONTINUOUS
10
160.614
20
-27.5682
11
160.653
21
-27.5458
0
LINE
8
BLACK
6
CONTINUOUS
10
160.653
20
-27.5458
11
160.783
21
-27.5228
0
LINE
8
BLACK
6
CONTINUOUS
10
160.783
20
-27.5228
11
160.911
21
-27.4884
0
LINE
8
BLACK
6
CONTINUOUS
10
160.911
20
-27.4884
11
161.044
21
-27.5
0
LINE
8
BLACK
6
CONTINUOUS
10
161.044
20
-27.5
11
170.456
21
-27.5
0
LINE
8
BLACK
6
CONTINUOUS
10
170.456
20
-27.5
11
170.588
21
-27.4884
0
LINE
8
BLACK
6
CONTINUOUS
10
170.588
20
-27.4884
11
170.717
21
-27.5228
0
LINE
8
BLACK
6
CONTINUOUS
10
170.717
20
-27.5228
11
170.847
21
-27.5458
0
LINE
8
BLACK
6
CONTINUOUS
10
170.847
20
-27.5458
11
170.886
21
-27.5681
0
LINE
8
BLACK
6
CONTINUOUS
10
170.886
20
-27.5681
11
170.929
21
-27.5797
0
LINE
8
BLACK
6
CONTINUOUS
10
170.929
20
-27.5797
11
171.038
21
-27.6558
0
LINE
8
BLACK
6
CONTINUOUS
10
171.038
20
-27.6558
11
171.153
21
-27.7221
0
LINE
8
BLACK
6
CONTINUOUS
10
171.153
20
-27.7221
11
171.238
21
-27.8238
0
LINE
8
BLACK
6
CONTINUOUS
10
171.238
20
-27.8238
11
176.176
21
-32.762
0
LINE
8
BLACK
6
CONTINUOUS
10
176.176
20
-32.762
11
176.278
21
-32.8473
0
LINE
8
BLACK
6
CONTINUOUS
10
176.278
20
-32.8473
11
176.344
21
-32.9622
0
LINE
8
BLACK
6
CONTINUOUS
10
176.344
20
-32.9622
11
176.42
21
-33.0709
0
LINE
8
BLACK
6
CONTINUOUS
10
176.42
20
-33.0709
11
176.432
21
-33.114
0
LINE
8
BLACK
6
CONTINUOUS
10
176.432
20
-33.114
11
176.454
21
-33.1527
0
LINE
8
BLACK
6
CONTINUOUS
10
176.454
20
-33.1527
11
176.477
21
-33.2834
0
LINE
8
BLACK
6
CONTINUOUS
10
176.477
20
-33.2834
11
176.512
21
-33.4115
0
LINE
8
BLACK
6
CONTINUOUS
10
176.512
20
-33.4115
11
176.5
21
-33.5436
0
LINE
8
BLACK
6
CONTINUOUS
10
176.5
20
-33.5436
11
176.5
21
-41.9564
0
LINE
8
BLACK
6
CONTINUOUS
10
176.5
20
-41.9564
11
176.512
21
-42.0885
0
LINE
8
BLACK
6
CONTINUOUS
10
176.512
20
-42.0885
11
176.477
21
-42.2166
0
LINE
8
BLACK
6
CONTINUOUS
10
176.477
20
-42.2166
11
176.454
21
-42.3473
0
LINE
8
BLACK
6
CONTINUOUS
10
176.454
20
-42.3473
11
176.432
21
-42.386
0
LINE
8
BLACK
6
CONTINUOUS
10
176.432
20
-42.386
11
176.42
21
-42.4291
0
LINE
8
BLACK
6
CONTINUOUS
10
176.42
20
-42.4291
11
176.344
21
-42.5378
0
LINE
8
BLACK
6
CONTINUOUS
10
176.344
20
-42.5378
11
176.278
21
-42.6527
0
LINE
8
BLACK
6
CONTINUOUS
10
176.278
20
-42.6527
11
176.176
21
-42.738
0
LINE
8
BLACK
6
CONTINUOUS
10
176.176
20
-42.738
11
170.738
21
-48.1762
0
LINE
8
BLACK
6
CONTINUOUS
10
170.738
20
-48.1762
11
170.653
21
-48.2779
0
LINE
8
BLACK
6
CONTINUOUS
10
170.653
20
-48.2779
11
170.538
21
-48.3442
0
LINE
8
BLACK
6
CONTINUOUS
10
170.538
20
-48.3442
11
170.429
21
-48.4203
0
LINE
8
BLACK
6
CONTINUOUS
10
170.429
20
-48.4203
11
170.386
21
-48.4318
0
LINE
8
BLACK
6
CONTINUOUS
10
170.386
20
-48.4318
11
170.347
21
-48.4542
0
LINE
8
BLACK
6
CONTINUOUS
10
170.347
20
-48.4542
11
170.217
21
-48.4772
0
LINE
8
BLACK
6
CONTINUOUS
10
170.217
20
-48.4772
11
170.088
21
-48.5116
0
LINE
8
BLACK
6
CONTINUOUS
10
170.088
20
-48.5116
11
169.956
21
-48.5
0
LINE
8
BLACK
6
CONTINUOUS
10
169.956
20
-48.5
11
167.913
21
-48.5
0
LINE
8
BLACK
6
CONTINUOUS
10
167.913
20
-48.5
11
167.653
21
-48.4542
0
LINE
8
BLACK
6
CONTINUOUS
10
167.653
20
-48.4542
11
167.347
21
-48.2779
0
LINE
8
BLACK
6
CONTINUOUS
10
167.347
20
-48.2779
11
167.121
21
-48.0077
0
LINE
8
BLACK
6
CONTINUOUS
10
167.121
20
-48.0077
11
167
21
-47.6763
0
LINE
8
BLACK
6
CONTINUOUS
10
167
20
-47.6763
11
167
21
-47.3237
0
LINE
8
BLACK
6
CONTINUOUS
10
167
20
-47.3237
11
167.121
21
-46.9923
0
LINE
8
BLACK
6
CONTINUOUS
10
167.121
20
-46.9923
11
167.347
21
-46.7221
0
LINE
8
BLACK
6
CONTINUOUS
10
167.347
20
-46.7221
11
167.653
21
-46.5458
0
LINE
8
BLACK
6
CONTINUOUS
10
167.653
20
-46.5458
11
167.913
21
-46.5
0
LINE
8
BLACK
6
CONTINUOUS
10
167.913
20
-46.5
11
169.586
21
-46.5
0
LINE
8
BLACK
6
CONTINUOUS
10
169.586
20
-46.5
11
174.5
21
-41.5858
0
LINE
8
BLACK
6
CONTINUOUS
10
174.5
20
-41.5858
11
174.5
21
-33.9142
0
LINE
8
BLACK
6
CONTINUOUS
10
174.5
20
-33.9142
11
170.086
21
-29.5
0
LINE
8
BLACK
6
CONTINUOUS
10
170.086
20
-29.5
11
161.414
21
-29.5
0
LINE
8
BLACK
6
CONTINUOUS
10
161.414
20
-29.5
11
160.698
21
-30.2157
0
LINE
8
BLACK
6
CONTINUOUS
10
160.698
20
-30.2157
11
160.555
21
-30.6093
0
LINE
8
BLACK
6
CONTINUOUS
10
160.555
20
-30.6093
11
160.283
21
-30.9334
0
LINE
8
BLACK
6
CONTINUOUS
10
160.283
20
-30.9334
11
159.917
21
-31.145
0
LINE
8
BLACK
6
CONTINUOUS
10
159.917
20
-31.145
11
159.5
21
-31.2185
0
LINE
8
BLACK
6
CONTINUOUS
10
159.5
20
-31.2185
11
159.083
21
-31.145
0
LINE
8
BLACK
6
CONTINUOUS
10
159.083
20
-31.145
11
158.717
21
-30.9334
0
LINE
8
BLACK
6
CONTINUOUS
10
158.717
20
-30.9334
11
158.445
21
-30.6093
0
LINE
8
BLACK
6
CONTINUOUS
10
158.445
20
-30.6093
11
158.3
21
-30.2116
0
LINE
8
BLACK
6
CONTINUOUS
10
158.3
20
-30.2116
11
158.3
21
-29.7884
0
LINE
8
BLACK
6
CONTINUOUS
10
158.3
20
-29.7884
11
158.445
21
-29.3907
0
LINE
8
BLACK
6
CONTINUOUS
10
158.445
20
-29.3907
11
158.5
21
-29.3249
0
LINE
8
BLACK
6
CONTINUOUS
10
158.5
20
-29.3249
11
158.5
21
-28.4142
0
LINE
8
BLACK
6
CONTINUOUS
10
158.5
20
-28.4142
11
157.586
21
-27.5
0
LINE
8
BLACK
6
CONTINUOUS
10
157.586
20
-27.5
11
137.914
21
-27.5
0
LINE
8
BLACK
6
CONTINUOUS
10
137.914
20
-27.5
11
135
21
-30.4142
0
LINE
8
BLACK
6
CONTINUOUS
10
135
20
-30.4142
11
135
21
-31.25
0
LINE
8
BLACK
6
CONTINUOUS
10
135
20
-31.25
11
136.625
21
-31.25
0
LINE
8
BLACK
6
CONTINUOUS
10
136.625
20
-31.25
11
136.924
21
-31.3028
0
LINE
8
BLACK
6
CONTINUOUS
10
136.924
20
-31.3028
11
137.187
21
-31.4547
0
LINE
8
BLACK
6
CONTINUOUS
10
137.187
20
-31.4547
11
137.383
21
-31.6875
0
LINE
8
BLACK
6
CONTINUOUS
10
137.383
20
-31.6875
11
137.5
21
-32.125
0
LINE
8
BLACK
6
CONTINUOUS
10
137.5
20
-32.125
11
137.5
21
-33.875
0
LINE
8
BLACK
6
CONTINUOUS
10
137.5
20
-33.875
11
137.447
21
-34.1743
0
LINE
8
BLACK
6
CONTINUOUS
10
137.447
20
-34.1743
11
137.295
21
-34.4374
0
LINE
8
BLACK
6
CONTINUOUS
10
137.295
20
-34.4374
11
137.062
21
-34.6328
0
LINE
8
BLACK
6
CONTINUOUS
10
137.062
20
-34.6328
11
136.625
21
-34.75
0
LINE
8
BLACK
6
CONTINUOUS
10
136.625
20
-34.75
11
131.375
21
-34.75
0
LINE
8
BLACK
6
CONTINUOUS
10
131.375
20
-34.75
11
131.076
21
-34.6972
0
LINE
8
BLACK
6
CONTINUOUS
10
131.076
20
-34.6972
11
130.813
21
-34.5453
0
LINE
8
BLACK
6
CONTINUOUS
10
130.813
20
-34.5453
11
130.617
21
-34.3125
0
LINE
8
BLACK
6
CONTINUOUS
10
130.617
20
-34.3125
11
130.5
21
-33.875
0
LINE
8
BLACK
6
CONTINUOUS
10
130.5
20
-33.875
11
130.5
21
-32.125
0
LINE
8
BLACK
6
CONTINUOUS
10
130.5
20
-32.125
11
130.553
21
-31.8257
0
LINE
8
BLACK
6
CONTINUOUS
10
130.553
20
-31.8257
11
130.705
21
-31.5626
0
LINE
8
BLACK
6
CONTINUOUS
10
130.705
20
-31.5626
11
130.938
21
-31.3672
0
LINE
8
BLACK
6
CONTINUOUS
10
130.938
20
-31.3672
11
131.375
21
-31.25
0
LINE
8
BLACK
6
CONTINUOUS
10
131.375
20
-31.25
11
133
21
-31.25
0
LINE
8
BLACK
6
CONTINUOUS
10
133
20
-31.25
11
133
21
-30.0437
0
LINE
8
BLACK
6
CONTINUOUS
10
133
20
-30.0437
11
132.988
21
-29.9115
0
LINE
8
BLACK
6
CONTINUOUS
10
132.988
20
-29.9115
11
133.023
21
-29.7834
0
LINE
8
BLACK
6
CONTINUOUS
10
133.023
20
-29.7834
11
133.046
21
-29.6527
0
LINE
8
BLACK
6
CONTINUOUS
10
133.046
20
-29.6527
11
133.068
21
-29.614
0
LINE
8
BLACK
6
CONTINUOUS
10
133.068
20
-29.614
11
133.08
21
-29.5709
0
LINE
8
BLACK
6
CONTINUOUS
10
133.08
20
-29.5709
11
133.156
21
-29.4622
0
LINE
8
BLACK
6
CONTINUOUS
10
133.156
20
-29.4622
11
133.222
21
-29.3473
0
LINE
8
BLACK
6
CONTINUOUS
10
133.222
20
-29.3473
11
133.324
21
-29.262
0
LINE
8
BLACK
6
CONTINUOUS
10
133.324
20
-29.262
11
136.762
21
-25.8238
0
LINE
8
BLACK
6
CONTINUOUS
10
136.762
20
-25.8238
11
136.847
21
-25.7221
0
LINE
8
BLACK
6
CONTINUOUS
10
136.847
20
-25.7221
11
136.962
21
-25.6558
0
LINE
8
BLACK
6
CONTINUOUS
10
136.962
20
-25.6558
11
137.071
21
-25.5797
0
LINE
8
BLACK
6
CONTINUOUS
10
137.071
20
-25.5797
11
137.114
21
-25.5682
0
LINE
8
BLACK
6
CONTINUOUS
10
137.114
20
-25.5682
11
137.153
21
-25.5458
0
LINE
8
BLACK
6
CONTINUOUS
10
137.153
20
-25.5458
11
137.283
21
-25.5228
0
LINE
8
BLACK
6
CONTINUOUS
10
137.283
20
-25.5228
11
137.411
21
-25.4884
0
LINE
8
BLACK
6
CONTINUOUS
10
137.411
20
-25.4884
11
137.544
21
-25.5
0
LINE
8
BLACK
6
CONTINUOUS
10
137.544
20
-25.5
11
157.956
21
-25.5
0
LINE
8
BLACK
6
CONTINUOUS
10
157.956
20
-25.5
11
158.088
21
-25.4884
0
LINE
8
BLACK
6
CONTINUOUS
10
158.088
20
-25.4884
11
158.217
21
-25.5228
0
LINE
8
BLACK
6
CONTINUOUS
10
123.021
20
-39.1487
11
123.479
21
-39.4132
0
LINE
8
BLACK
6
CONTINUOUS
10
123.479
20
-39.4132
11
123.619
21
-39.58
0
LINE
8
BLACK
6
CONTINUOUS
10
123.619
20
-39.58
11
136.036
21
-39.58
0
LINE
8
BLACK
6
CONTINUOUS
10
136.036
20
-39.58
11
136.168
21
-39.5684
0
LINE
8
BLACK
6
CONTINUOUS
10
136.168
20
-39.5684
11
136.297
21
-39.6028
0
LINE
8
BLACK
6
CONTINUOUS
10
136.297
20
-39.6028
11
136.427
21
-39.6258
0
LINE
8
BLACK
6
CONTINUOUS
10
136.427
20
-39.6258
11
136.466
21
-39.6482
0
LINE
8
BLACK
6
CONTINUOUS
10
136.466
20
-39.6482
11
136.509
21
-39.6597
0
LINE
8
BLACK
6
CONTINUOUS
10
136.509
20
-39.6597
11
136.618
21
-39.7358
0
LINE
8
BLACK
6
CONTINUOUS
10
136.618
20
-39.7358
11
136.733
21
-39.8021
0
LINE
8
BLACK
6
CONTINUOUS
10
136.733
20
-39.8021
11
136.818
21
-39.9038
0
LINE
8
BLACK
6
CONTINUOUS
10
136.818
20
-39.9038
11
139.256
21
-42.3417
0
LINE
8
BLACK
6
CONTINUOUS
10
139.256
20
-42.3417
11
139.303
21
-42.0757
0
LINE
8
BLACK
6
CONTINUOUS
10
139.303
20
-42.0757
11
139.455
21
-41.8126
0
LINE
8
BLACK
6
CONTINUOUS
10
139.455
20
-41.8126
11
139.688
21
-41.6172
0
LINE
8
BLACK
6
CONTINUOUS
10
139.688
20
-41.6172
11
140.125
21
-41.5
0
LINE
8
BLACK
6
CONTINUOUS
10
140.125
20
-41.5
11
141.875
21
-41.5
0
LINE
8
BLACK
6
CONTINUOUS
10
141.875
20
-41.5
11
142.174
21
-41.5528
0
LINE
8
BLACK
6
CONTINUOUS
10
142.174
20
-41.5528
11
142.437
21
-41.7047
0
LINE
8
BLACK
6
CONTINUOUS
10
142.437
20
-41.7047
11
142.633
21
-41.9375
0
LINE
8
BLACK
6
CONTINUOUS
10
142.633
20
-41.9375
11
142.75
21
-42.375
0
LINE
8
BLACK
6
CONTINUOUS
10
142.75
20
-42.375
11
142.75
21
-47.625
0
LINE
8
BLACK
6
CONTINUOUS
10
142.75
20
-47.625
11
142.697
21
-47.9243
0
LINE
8
BLACK
6
CONTINUOUS
10
142.697
20
-47.9243
11
142.545
21
-48.1874
0
LINE
8
BLACK
6
CONTINUOUS
10
142.545
20
-48.1874
11
142.312
21
-48.3828
0
LINE
8
BLACK
6
CONTINUOUS
10
142.312
20
-48.3828
11
141.875
21
-48.5
0
LINE
8
BLACK
6
CONTINUOUS
10
141.875
20
-48.5
11
140.125
21
-48.5
0
LINE
8
BLACK
6
CONTINUOUS
10
140.125
20
-48.5
11
139.826
21
-48.4472
0
LINE
8
BLACK
6
CONTINUOUS
10
139.826
20
-48.4472
11
139.563
21
-48.2953
0
LINE
8
BLACK
6
CONTINUOUS
10
139.563
20
-48.2953
11
139.367
21
-48.0625
0
LINE
8
BLACK
6
CONTINUOUS
10
139.367
20
-48.0625
11
139.25
21
-47.625
0
LINE
8
BLACK
6
CONTINUOUS
10
139.25
20
-47.625
11
139.25
21
-45.1642
0
LINE
8
BLACK
6
CONTINUOUS
10
139.25
20
-45.1642
11
135.666
21
-41.58
0
LINE
8
BLACK
6
CONTINUOUS
10
135.666
20
-41.58
11
123.619
21
-41.58
0
LINE
8
BLACK
6
CONTINUOUS
10
123.619
20
-41.58
11
123.479
21
-41.7468
0
LINE
8
BLACK
6
CONTINUOUS
10
123.479
20
-41.7468
11
123.021
21
-42.0113
0
LINE
8
BLACK
6
CONTINUOUS
10
123.021
20
-42.0113
11
122.5
21
-42.1031
0
LINE
8
BLACK
6
CONTINUOUS
10
122.5
20
-42.1031
11
121.979
21
-42.0113
0
LINE
8
BLACK
6
CONTINUOUS
10
121.979
20
-42.0113
11
121.521
21
-41.7468
0
LINE
8
BLACK
6
CONTINUOUS
10
121.521
20
-41.7468
11
121.181
21
-41.3416
0
LINE
8
BLACK
6
CONTINUOUS
10
121.181
20
-41.3416
11
121
21
-40.8445
0
LINE
8
BLACK
6
CONTINUOUS
10
121
20
-40.8445
11
121
21
-40.3155
0
LINE
8
BLACK
6
CONTINUOUS
10
121
20
-40.3155
11
121.181
21
-39.8184
0
LINE
8
BLACK
6
CONTINUOUS
10
121.181
20
-39.8184
11
121.521
21
-39.4132
0
LINE
8
BLACK
6
CONTINUOUS
10
121.521
20
-39.4132
11
121.979
21
-39.1487
0
LINE
8
BLACK
6
CONTINUOUS
10
121.979
20
-39.1487
11
122.5
21
-39.0569
0
LINE
8
BLACK
6
CONTINUOUS
10
122.5
20
-39.0569
11
123.021
21
-39.1487
0
LINE
8
BLACK
6
CONTINUOUS
10
153.174
20
-41.5528
11
153.437
21
-41.7047
0
LINE
8
BLACK
6
CONTINUOUS
10
153.437
20
-41.7047
11
153.633
21
-41.9375
0
LINE
8
BLACK
6
CONTINUOUS
10
153.633
20
-41.9375
11
153.75
21
-42.375
0
LINE
8
BLACK
6
CONTINUOUS
10
153.75
20
-42.375
11
153.75
21
-47.625
0
LINE
8
BLACK
6
CONTINUOUS
10
153.75
20
-47.625
11
153.697
21
-47.9243
0
LINE
8
BLACK
6
CONTINUOUS
10
153.697
20
-47.9243
11
153.545
21
-48.1874
0
LINE
8
BLACK
6
CONTINUOUS
10
153.545
20
-48.1874
11
153.312
21
-48.3828
0
LINE
8
BLACK
6
CONTINUOUS
10
153.312
20
-48.3828
11
152.875
21
-48.5
0
LINE
8
BLACK
6
CONTINUOUS
10
152.875
20
-48.5
11
151.125
21
-48.5
0
LINE
8
BLACK
6
CONTINUOUS
10
151.125
20
-48.5
11
150.826
21
-48.4472
0
LINE
8
BLACK
6
CONTINUOUS
10
150.826
20
-48.4472
11
150.563
21
-48.2953
0
LINE
8
BLACK
6
CONTINUOUS
10
150.563
20
-48.2953
11
150.367
21
-48.0625
0
LINE
8
BLACK
6
CONTINUOUS
10
150.367
20
-48.0625
11
150.25
21
-47.625
0
LINE
8
BLACK
6
CONTINUOUS
10
150.25
20
-47.625
11
150.25
21
-42.375
0
LINE
8
BLACK
6
CONTINUOUS
10
150.25
20
-42.375
11
150.303
21
-42.0757
0
LINE
8
BLACK
6
CONTINUOUS
10
150.303
20
-42.0757
11
150.455
21
-41.8126
0
LINE
8
BLACK
6
CONTINUOUS
10
150.455
20
-41.8126
11
150.688
21
-41.6172
0
LINE
8
BLACK
6
CONTINUOUS
10
150.688
20
-41.6172
11
151.125
21
-41.5
0
LINE
8
BLACK
6
CONTINUOUS
10
151.125
20
-41.5
11
152.875
21
-41.5
0
LINE
8
BLACK
6
CONTINUOUS
10
152.875
20
-41.5
11
153.174
21
-41.5528
0
LINE
8
BLACK
6
CONTINUOUS
10
123.479
20
-36.6668
11
123.021
21
-36.9313
0
LINE
8
BLACK
6
CONTINUOUS
10
123.021
20
-36.9313
11
122.5
21
-37.0231
0
LINE
8
BLACK
6
CONTINUOUS
10
122.5
20
-37.0231
11
121.979
21
-36.9313
0
LINE
8
BLACK
6
CONTINUOUS
10
121.979
20
-36.9313
11
121.521
21
-36.6668
0
LINE
8
BLACK
6
CONTINUOUS
10
121.521
20
-36.6668
11
121.181
21
-36.2616
0
LINE
8
BLACK
6
CONTINUOUS
10
121.181
20
-36.2616
11
121
21
-35.7645
0
LINE
8
BLACK
6
CONTINUOUS
10
121
20
-35.7645
11
121
21
-35.2355
0
LINE
8
BLACK
6
CONTINUOUS
10
121
20
-35.2355
11
121.181
21
-34.7384
0
LINE
8
BLACK
6
CONTINUOUS
10
121.181
20
-34.7384
11
121.521
21
-34.3332
0
LINE
8
BLACK
6
CONTINUOUS
10
121.521
20
-34.3332
11
121.979
21
-34.0687
0
LINE
8
BLACK
6
CONTINUOUS
10
121.979
20
-34.0687
11
122.5
21
-33.9769
0
LINE
8
BLACK
6
CONTINUOUS
10
122.5
20
-33.9769
11
123.021
21
-34.0687
0
LINE
8
BLACK
6
CONTINUOUS
10
123.021
20
-34.0687
11
123.479
21
-34.3332
0
LINE
8
BLACK
6
CONTINUOUS
10
123.479
20
-34.3332
11
123.619
21
-34.5
0
LINE
8
BLACK
6
CONTINUOUS
10
123.619
20
-34.5
11
126.956
21
-34.5
0
LINE
8
BLACK
6
CONTINUOUS
10
126.956
20
-34.5
11
127.088
21
-34.4884
0
LINE
8
BLACK
6
CONTINUOUS
10
127.088
20
-34.4884
11
127.217
21
-34.5228
0
LINE
8
BLACK
6
CONTINUOUS
10
127.217
20
-34.5228
11
127.347
21
-34.5458
0
LINE
8
BLACK
6
CONTINUOUS
10
127.347
20
-34.5458
11
127.386
21
-34.5681
0
LINE
8
BLACK
6
CONTINUOUS
10
127.386
20
-34.5681
11
127.429
21
-34.5797
0
LINE
8
BLACK
6
CONTINUOUS
10
127.429
20
-34.5797
11
127.538
21
-34.6558
0
LINE
8
BLACK
6
CONTINUOUS
10
127.538
20
-34.6558
11
127.653
21
-34.7221
0
LINE
8
BLACK
6
CONTINUOUS
10
127.653
20
-34.7221
11
127.738
21
-34.8238
0
LINE
8
BLACK
6
CONTINUOUS
10
127.738
20
-34.8238
11
128.914
21
-36
0
LINE
8
BLACK
6
CONTINUOUS
10
128.914
20
-36
11
138.586
21
-36
0
LINE
8
BLACK
6
CONTINUOUS
10
138.586
20
-36
11
139.25
21
-35.3358
0
LINE
8
BLACK
6
CONTINUOUS
10
139.25
20
-35.3358
11
139.25
21
-32.375
0
LINE
8
BLACK
6
CONTINUOUS
10
139.25
20
-32.375
11
139.303
21
-32.0757
0
LINE
8
BLACK
6
CONTINUOUS
10
139.303
20
-32.0757
11
139.455
21
-31.8126
0
LINE
8
BLACK
6
CONTINUOUS
10
139.455
20
-31.8126
11
139.688
21
-31.6172
0
LINE
8
BLACK
6
CONTINUOUS
10
139.688
20
-31.6172
11
140.125
21
-31.5
0
LINE
8
BLACK
6
CONTINUOUS
10
140.125
20
-31.5
11
141.875
21
-31.5
0
LINE
8
BLACK
6
CONTINUOUS
10
141.875
20
-31.5
11
142.174
21
-31.5528
0
LINE
8
BLACK
6
CONTINUOUS
10
142.174
20
-31.5528
11
142.437
21
-31.7047
0
LINE
8
BLACK
6
CONTINUOUS
10
142.437
20
-31.7047
11
142.633
21
-31.9375
0
LINE
8
BLACK
6
CONTINUOUS
10
142.633
20
-31.9375
11
142.75
21
-32.375
0
LINE
8
BLACK
6
CONTINUOUS
10
142.75
20
-32.375
11
142.75
21
-37.625
0
LINE
8
BLACK
6
CONTINUOUS
10
142.75
20
-37.625
11
142.697
21
-37.9243
0
LINE
8
BLACK
6
CONTINUOUS
10
142.697
20
-37.9243
11
142.545
21
-38.1874
0
LINE
8
BLACK
6
CONTINUOUS
10
142.545
20
-38.1874
11
142.312
21
-38.3828
0
LINE
8
BLACK
6
CONTINUOUS
10
142.312
20
-38.3828
11
141.875
21
-38.5
0
LINE
8
BLACK
6
CONTINUOUS
10
141.875
20
-38.5
11
140.125
21
-38.5
0
LINE
8
BLACK
6
CONTINUOUS
10
140.125
20
-38.5
11
139.826
21
-38.4472
0
LINE
8
BLACK
6
CONTINUOUS
10
139.826
20
-38.4472
11
139.563
21
-38.2953
0
LINE
8
BLACK
6
CONTINUOUS
10
139.563
20
-38.2953
11
139.367
21
-38.0625
0
LINE
8
BLACK
6
CONTINUOUS
10
139.367
20
-38.0625
11
139.339
21
-37.9557
0
LINE
8
BLACK
6
CONTINUOUS
10
139.339
20
-37.9557
11
139.217
21
-37.9772
0
LINE
8
BLACK
6
CONTINUOUS
10
139.217
20
-37.9772
11
139.088
21
-38.0116
0
LINE
8
BLACK
6
CONTINUOUS
10
139.088
20
-38.0116
11
138.956
21
-38
0
LINE
8
BLACK
6
CONTINUOUS
10
138.956
20
-38
11
128.544
21
-38
0
LINE
8
BLACK
6
CONTINUOUS
10
128.544
20
-38
11
128.411
21
-38.0116
0
LINE
8
BLACK
6
CONTINUOUS
10
128.411
20
-38.0116
11
128.283
21
-37.9772
0
LINE
8
BLACK
6
CONTINUOUS
10
128.283
20
-37.9772
11
128.153
21
-37.9542
0
LINE
8
BLACK
6
CONTINUOUS
10
128.153
20
-37.9542
11
128.114
21
-37.9318
0
LINE
8
BLACK
6
CONTINUOUS
10
128.114
20
-37.9318
11
128.071
21
-37.9203
0
LINE
8
BLACK
6
CONTINUOUS
10
128.071
20
-37.9203
11
127.962
21
-37.8442
0
LINE
8
BLACK
6
CONTINUOUS
10
127.962
20
-37.8442
11
127.847
21
-37.7779
0
LINE
8
BLACK
6
CONTINUOUS
10
127.847
20
-37.7779
11
127.762
21
-37.6762
0
LINE
8
BLACK
6
CONTINUOUS
10
127.762
20
-37.6762
11
126.586
21
-36.5
0
LINE
8
BLACK
6
CONTINUOUS
10
126.586
20
-36.5
11
123.619
21
-36.5
0
LINE
8
BLACK
6
CONTINUOUS
10
123.619
20
-36.5
11
123.479
21
-36.6668
0
LINE
8
BLACK
6
CONTINUOUS
10
155.217
20
-28.5228
11
155.347
21
-28.5458
0
LINE
8
BLACK
6
CONTINUOUS
10
155.347
20
-28.5458
11
155.386
21
-28.5681
0
LINE
8
BLACK
6
CONTINUOUS
10
155.386
20
-28.5681
11
155.429
21
-28.5797
0
LINE
8
BLACK
6
CONTINUOUS
10
155.429
20
-28.5797
11
155.538
21
-28.6558
0
LINE
8
BLACK
6
CONTINUOUS
10
155.538
20
-28.6558
11
155.653
21
-28.7221
0
LINE
8
BLACK
6
CONTINUOUS
10
155.653
20
-28.7221
11
155.738
21
-28.8238
0
LINE
8
BLACK
6
CONTINUOUS
10
155.738
20
-28.8238
11
156.676
21
-29.762
0
LINE
8
BLACK
6
CONTINUOUS
10
156.676
20
-29.762
11
156.778
21
-29.8473
0
LINE
8
BLACK
6
CONTINUOUS
10
156.778
20
-29.8473
11
156.844
21
-29.9622
0
LINE
8
BLACK
6
CONTINUOUS
10
156.844
20
-29.9622
11
156.92
21
-30.0709
0
LINE
8
BLACK
6
CONTINUOUS
10
156.92
20
-30.0709
11
156.932
21
-30.114
0
LINE
8
BLACK
6
CONTINUOUS
10
156.932
20
-30.114
11
156.954
21
-30.1527
0
LINE
8
BLACK
6
CONTINUOUS
10
156.954
20
-30.1527
11
156.977
21
-30.2834
0
LINE
8
BLACK
6
CONTINUOUS
10
156.977
20
-30.2834
11
157.012
21
-30.4115
0
LINE
8
BLACK
6
CONTINUOUS
10
157.012
20
-30.4115
11
157
21
-30.5436
0
LINE
8
BLACK
6
CONTINUOUS
10
157
20
-30.5436
11
157
21
-32.0858
0
LINE
8
BLACK
6
CONTINUOUS
10
157
20
-32.0858
11
158.914
21
-34
0
LINE
8
BLACK
6
CONTINUOUS
10
158.914
20
-34
11
159.993
21
-34
0
LINE
8
BLACK
6
CONTINUOUS
10
159.993
20
-34
11
164.367
21
-33.9364
0
LINE
8
BLACK
6
CONTINUOUS
10
164.367
20
-33.9364
11
164.521
21
-33.7532
0
LINE
8
BLACK
6
CONTINUOUS
10
164.521
20
-33.7532
11
164.979
21
-33.4887
0
LINE
8
BLACK
6
CONTINUOUS
10
164.979
20
-33.4887
11
165.5
21
-33.3969
0
LINE
8
BLACK
6
CONTINUOUS
10
165.5
20
-33.3969
11
166.021
21
-33.4887
0
LINE
8
BLACK
6
CONTINUOUS
10
166.021
20
-33.4887
11
166.479
21
-33.7532
0
LINE
8
BLACK
6
CONTINUOUS
10
166.479
20
-33.7532
11
166.619
21
-33.92
0
LINE
8
BLACK
6
CONTINUOUS
10
166.619
20
-33.92
11
169.881
21
-33.92
0
LINE
8
BLACK
6
CONTINUOUS
10
169.881
20
-33.92
11
170.021
21
-33.7532
0
LINE
8
BLACK
6
CONTINUOUS
10
170.021
20
-33.7532
11
170.479
21
-33.4887
0
LINE
8
BLACK
6
CONTINUOUS
10
170.479
20
-33.4887
11
171
21
-33.3969
0
LINE
8
BLACK
6
CONTINUOUS
10
171
20
-33.3969
11
171.521
21
-33.4887
0
LINE
8
BLACK
6
CONTINUOUS
10
171.521
20
-33.4887
11
171.979
21
-33.7532
0
LINE
8
BLACK
6
CONTINUOUS
10
171.979
20
-33.7532
11
172.319
21
-34.1584
0
LINE
8
BLACK
6
CONTINUOUS
10
172.319
20
-34.1584
11
172.5
21
-34.6555
0
LINE
8
BLACK
6
CONTINUOUS
10
172.5
20
-34.6555
11
172.5
21
-35.1845
0
LINE
8
BLACK
6
CONTINUOUS
10
172.5
20
-35.1845
11
172.319
21
-35.6816
0
LINE
8
BLACK
6
CONTINUOUS
10
172.319
20
-35.6816
11
171.979
21
-36.0868
0
LINE
8
BLACK
6
CONTINUOUS
10
171.979
20
-36.0868
11
171.521
21
-36.3513
0
LINE
8
BLACK
6
CONTINUOUS
10
171.521
20
-36.3513
11
171
21
-36.4431
0
LINE
8
BLACK
6
CONTINUOUS
10
171
20
-36.4431
11
170.479
21
-36.3513
0
LINE
8
BLACK
6
CONTINUOUS
10
170.479
20
-36.3513
11
170.021
21
-36.0868
0
LINE
8
BLACK
6
CONTINUOUS
10
170.021
20
-36.0868
11
169.881
21
-35.92
0
LINE
8
BLACK
6
CONTINUOUS
10
169.881
20
-35.92
11
166.619
21
-35.92
0
LINE
8
BLACK
6
CONTINUOUS
10
166.619
20
-35.92
11
166.479
21
-36.0868
0
LINE
8
BLACK
6
CONTINUOUS
10
166.479
20
-36.0868
11
166.021
21
-36.3513
0
LINE
8
BLACK
6
CONTINUOUS
10
166.021
20
-36.3513
11
165.5
21
-36.4431
0
LINE
8
BLACK
6
CONTINUOUS
10
165.5
20
-36.4431
11
164.979
21
-36.3513
0
LINE
8
BLACK
6
CONTINUOUS
10
164.979
20
-36.3513
11
164.521
21
-36.0868
0
LINE
8
BLACK
6
CONTINUOUS
10
164.521
20
-36.0868
11
164.395
21
-35.9362
0
LINE
8
BLACK
6
CONTINUOUS
10
164.395
20
-35.9362
11
160.095
21
-35.9987
0
LINE
8
BLACK
6
CONTINUOUS
10
160.095
20
-35.9987
11
160.087
21
-36
0
LINE
8
BLACK
6
CONTINUOUS
10
160.087
20
-36
11
160.007
21
-36
0
LINE
8
BLACK
6
CONTINUOUS
10
160.007
20
-36
11
159.927
21
-36.0012
0
LINE
8
BLACK
6
CONTINUOUS
10
159.927
20
-36.0012
11
159.92
21
-36
0
LINE
8
BLACK
6
CONTINUOUS
10
159.92
20
-36
11
158.544
21
-36
0
LINE
8
BLACK
6
CONTINUOUS
10
158.544
20
-36
11
158.411
21
-36.0116
0
LINE
8
BLACK
6
CONTINUOUS
10
158.411
20
-36.0116
11
158.283
21
-35.9772
0
LINE
8
BLACK
6
CONTINUOUS
10
158.283
20
-35.9772
11
158.153
21
-35.9542
0
LINE
8
BLACK
6
CONTINUOUS
10
158.153
20
-35.9542
11
158.114
21
-35.9319
0
LINE
8
BLACK
6
CONTINUOUS
10
158.114
20
-35.9319
11
158.071
21
-35.9203
0
LINE
8
BLACK
6
CONTINUOUS
10
158.071
20
-35.9203
11
157.962
21
-35.8442
0
LINE
8
BLACK
6
CONTINUOUS
10
157.962
20
-35.8442
11
157.847
21
-35.7779
0
LINE
8
BLACK
6
CONTINUOUS
10
157.847
20
-35.7779
11
157.762
21
-35.6762
0
LINE
8
BLACK
6
CONTINUOUS
10
157.762
20
-35.6762
11
155.324
21
-33.238
0
LINE
8
BLACK
6
CONTINUOUS
10
155.324
20
-33.238
11
155.222
21
-33.1527
0
LINE
8
BLACK
6
CONTINUOUS
10
155.222
20
-33.1527
11
155.156
21
-33.0378
0
LINE
8
BLACK
6
CONTINUOUS
10
155.156
20
-33.0378
11
155.08
21
-32.9291
0
LINE
8
BLACK
6
CONTINUOUS
10
155.08
20
-32.9291
11
155.068
21
-32.886
0
LINE
8
BLACK
6
CONTINUOUS
10
155.068
20
-32.886
11
155.046
21
-32.8473
0
LINE
8
BLACK
6
CONTINUOUS
10
155.046
20
-32.8473
11
155.023
21
-32.7166
0
LINE
8
BLACK
6
CONTINUOUS
10
155.023
20
-32.7166
11
154.988
21
-32.5885
0
LINE
8
BLACK
6
CONTINUOUS
10
154.988
20
-32.5885
11
155
21
-32.4564
0
LINE
8
BLACK
6
CONTINUOUS
10
155
20
-32.4564
11
155
21
-30.9142
0
LINE
8
BLACK
6
CONTINUOUS
10
155
20
-30.9142
11
154.586
21
-30.5
0
LINE
8
BLACK
6
CONTINUOUS
10
154.586
20
-30.5
11
148.914
21
-30.5
0
LINE
8
BLACK
6
CONTINUOUS
10
148.914
20
-30.5
11
148
21
-31.4142
0
LINE
8
BLACK
6
CONTINUOUS
10
148
20
-31.4142
11
148
21
-31.522
0
LINE
8
BLACK
6
CONTINUOUS
10
148
20
-31.522
11
148.174
21
-31.5528
0
LINE
8
BLACK
6
CONTINUOUS
10
148.174
20
-31.5528
11
148.437
21
-31.7047
0
LINE
8
BLACK
6
CONTINUOUS
10
148.437
20
-31.7047
11
148.633
21
-31.9375
0
LINE
8
BLACK
6
CONTINUOUS
10
148.633
20
-31.9375
11
148.75
21
-32.375
0
LINE
8
BLACK
6
CONTINUOUS
10
148.75
20
-32.375
11
148.75
21
-37.625
0
LINE
8
BLACK
6
CONTINUOUS
10
148.75
20
-37.625
11
148.697
21
-37.9243
0
LINE
8
BLACK
6
CONTINUOUS
10
148.697
20
-37.9243
11
148.545
21
-38.1874
0
LINE
8
BLACK
6
CONTINUOUS
10
148.545
20
-38.1874
11
148.312
21
-38.3828
0
LINE
8
BLACK
6
CONTINUOUS
10
148.312
20
-38.3828
11
147.875
21
-38.5
0
LINE
8
BLACK
6
CONTINUOUS
10
147.875
20
-38.5
11
146.125
21
-38.5
0
LINE
8
BLACK
6
CONTINUOUS
10
146.125
20
-38.5
11
145.826
21
-38.4472
0
LINE
8
BLACK
6
CONTINUOUS
10
145.826
20
-38.4472
11
145.563
21
-38.2953
0
LINE
8
BLACK
6
CONTINUOUS
10
145.563
20
-38.2953
11
145.367
21
-38.0625
0
LINE
8
BLACK
6
CONTINUOUS
10
145.367
20
-38.0625
11
145.25
21
-37.625
0
LINE
8
BLACK
6
CONTINUOUS
10
145.25
20
-37.625
11
145.25
21
-32.375
0
LINE
8
BLACK
6
CONTINUOUS
10
145.25
20
-32.375
11
145.303
21
-32.0757
0
LINE
8
BLACK
6
CONTINUOUS
10
145.303
20
-32.0757
11
145.455
21
-31.8126
0
LINE
8
BLACK
6
CONTINUOUS
10
145.455
20
-31.8126
11
145.688
21
-31.6172
0
LINE
8
BLACK
6
CONTINUOUS
10
145.688
20
-31.6172
11
146
21
-31.5335
0
LINE
8
BLACK
6
CONTINUOUS
10
146
20
-31.5335
11
146
21
-31.0436
0
LINE
8
BLACK
6
CONTINUOUS
10
146
20
-31.0436
11
145.988
21
-30.9115
0
LINE
8
BLACK
6
CONTINUOUS
10
145.988
20
-30.9115
11
146.023
21
-30.7834
0
LINE
8
BLACK
6
CONTINUOUS
10
146.023
20
-30.7834
11
146.046
21
-30.6527
0
LINE
8
BLACK
6
CONTINUOUS
10
146.046
20
-30.6527
11
146.068
21
-30.614
0
LINE
8
BLACK
6
CONTINUOUS
10
146.068
20
-30.614
11
146.08
21
-30.5709
0
LINE
8
BLACK
6
CONTINUOUS
10
146.08
20
-30.5709
11
146.156
21
-30.4622
0
LINE
8
BLACK
6
CONTINUOUS
10
146.156
20
-30.4622
11
146.222
21
-30.3473
0
LINE
8
BLACK
6
CONTINUOUS
10
146.222
20
-30.3473
11
146.324
21
-30.262
0
LINE
8
BLACK
6
CONTINUOUS
10
146.324
20
-30.262
11
147.762
21
-28.8238
0
LINE
8
BLACK
6
CONTINUOUS
10
147.762
20
-28.8238
11
147.847
21
-28.7221
0
LINE
8
BLACK
6
CONTINUOUS
10
147.847
20
-28.7221
11
147.962
21
-28.6558
0
LINE
8
BLACK
6
CONTINUOUS
10
147.962
20
-28.6558
11
148.071
21
-28.5797
0
LINE
8
BLACK
6
CONTINUOUS
10
148.071
20
-28.5797
11
148.114
21
-28.5682
0
LINE
8
BLACK
6
CONTINUOUS
10
148.114
20
-28.5682
11
148.153
21
-28.5458
0
LINE
8
BLACK
6
CONTINUOUS
10
148.153
20
-28.5458
11
148.283
21
-28.5228
0
LINE
8
BLACK
6
CONTINUOUS
10
148.283
20
-28.5228
11
148.411
21
-28.4884
0
LINE
8
BLACK
6
CONTINUOUS
10
148.411
20
-28.4884
11
148.544
21
-28.5
0
LINE
8
BLACK
6
CONTINUOUS
10
148.544
20
-28.5
11
154.956
21
-28.5
0
LINE
8
BLACK
6
CONTINUOUS
10
154.956
20
-28.5
11
155.088
21
-28.4884
0
LINE
8
BLACK
6
CONTINUOUS
10
155.088
20
-28.4884
11
155.217
21
-28.5228
0
LINE
8
BLACK
6
CONTINUOUS
10
153.174
20
-31.5528
11
153.437
21
-31.7047
0
LINE
8
BLACK
6
CONTINUOUS
10
153.437
20
-31.7047
11
153.633
21
-31.9375
0
LINE
8
BLACK
6
CONTINUOUS
10
153.633
20
-31.9375
11
153.75
21
-32.375
0
LINE
8
BLACK
6
CONTINUOUS
10
153.75
20
-32.375
11
153.75
21
-37.625
0
LINE
8
BLACK
6
CONTINUOUS
10
153.75
20
-37.625
11
153.697
21
-37.9243
0
LINE
8
BLACK
6
CONTINUOUS
10
153.697
20
-37.9243
11
153.545
21
-38.1874
0
LINE
8
BLACK
6
CONTINUOUS
10
153.545
20
-38.1874
11
153.312
21
-38.3828
0
LINE
8
BLACK
6
CONTINUOUS
10
153.312
20
-38.3828
11
152.875
21
-38.5
0
LINE
8
BLACK
6
CONTINUOUS
10
152.875
20
-38.5
11
151.125
21
-38.5
0
LINE
8
BLACK
6
CONTINUOUS
10
151.125
20
-38.5
11
150.826
21
-38.4472
0
LINE
8
BLACK
6
CONTINUOUS
10
150.826
20
-38.4472
11
150.563
21
-38.2953
0
LINE
8
BLACK
6
CONTINUOUS
10
150.563
20
-38.2953
11
150.367
21
-38.0625
0
LINE
8
BLACK
6
CONTINUOUS
10
150.367
20
-38.0625
11
150.25
21
-37.625
0
LINE
8
BLACK
6
CONTINUOUS
10
150.25
20
-37.625
11
150.25
21
-32.375
0
LINE
8
BLACK
6
CONTINUOUS
10
150.25
20
-32.375
11
150.303
21
-32.0757
0
LINE
8
BLACK
6
CONTINUOUS
10
150.303
20
-32.0757
11
150.455
21
-31.8126
0
LINE
8
BLACK
6
CONTINUOUS
10
150.455
20
-31.8126
11
150.688
21
-31.6172
0
LINE
8
BLACK
6
CONTINUOUS
10
150.688
20
-31.6172
11
151.125
21
-31.5
0
LINE
8
BLACK
6
CONTINUOUS
10
151.125
20
-31.5
11
152.875
21
-31.5
0
LINE
8
BLACK
6
CONTINUOUS
10
152.875
20
-31.5
11
153.174
21
-31.5528
0
CIRCLE
8
BLACK
10
165.5
20
-34.92
40
0.65
0
CIRCLE
8
BLACK
10
165.5
20
-40
40
0.65
0
CIRCLE
8
BLACK
10
168
20
-60
40
0.4
0
CIRCLE
8
BLACK
10
168
20
-56.5
40
0.4
0
CIRCLE
8
BLACK
10
168
20
-51
40
0.4
0
CIRCLE
8
BLACK
10
168
20
-47.5
40
0.4
0
CIRCLE
8
BLACK
10
122.5
20
-56.96
40
0.65
0
CIRCLE
8
BLACK
10
122.5
20
-62.04
40
0.65
0
CIRCLE
8
BLACK
10
122.5
20
-73.54
40
0.65
0
CIRCLE
8
BLACK
10
122.5
20
-68.46
40
0.65
0
CIRCLE
8
BLACK
10
122.5
20
-35.5
40
0.65
0
CIRCLE
8
BLACK
10
122.5
20
-40.58
40
0.65
0
CIRCLE
8
BLACK
10
171
20
-40
40
0.65
0
CIRCLE
8
BLACK
10
171
20
-34.92
40
0.65
0
CIRCLE
8
BLACK
10
170.58
20
-78.5
40
0.65
0
CIRCLE
8
BLACK
10
165.5
20
-78.5
40
0.65
0
CIRCLE
8
BLACK
10
170.5
20
-66.92
40
0.65
0
CIRCLE
8
BLACK
10
170.5
20
-72
40
0.65
0
LINE
8
BLACK
6
CONTINUOUS
10
136
20
-58.5
11
136.098
21
-58.4904
0
LINE
8
BLACK
6
CONTINUOUS
10
136.098
20
-58.4904
11
136.191
21
-58.4619
0
LINE
8
BLACK
6
CONTINUOUS
10
136.191
20
-58.4619
11
136.278
21
-58.4157
0
LINE
8
BLACK
6
CONTINUOUS
10
136.278
20
-58.4157
11
136.354
21
-58.3536
0
LINE
8
BLACK
6
CONTINUOUS
10
136.354
20
-58.3536
11
136.416
21
-58.2778
0
LINE
8
BLACK
6
CONTINUOUS
10
136.416
20
-58.2778
11
136.462
21
-58.1913
0
LINE
8
BLACK
6
CONTINUOUS
10
136.462
20
-58.1913
11
136.49
21
-58.0975
0
LINE
8
BLACK
6
CONTINUOUS
10
136.49
20
-58.0975
11
136.5
21
-58
0
LINE
8
BLACK
6
CONTINUOUS
10
136.5
20
-58
11
136.49
21
-57.9025
0
LINE
8
BLACK
6
CONTINUOUS
10
136.49
20
-57.9025
11
136.462
21
-57.8087
0
LINE
8
BLACK
6
CONTINUOUS
10
136.462
20
-57.8087
11
136.416
21
-57.7222
0
LINE
8
BLACK
6
CONTINUOUS
10
136.416
20
-57.7222
11
136.354
21
-57.6464
0
LINE
8
BLACK
6
CONTINUOUS
10
136.354
20
-57.6464
11
136.278
21
-57.5843
0
LINE
8
BLACK
6
CONTINUOUS
10
136.278
20
-57.5843
11
136.191
21
-57.5381
0
LINE
8
BLACK
6
CONTINUOUS
10
136.191
20
-57.5381
11
136.098
21
-57.5096
0
LINE
8
BLACK
6
CONTINUOUS
10
136.098
20
-57.5096
11
136
21
-57.5
0
LINE
8
BLACK
6
CONTINUOUS
10
136
20
-57.5
11
132
21
-57.5
0
LINE
8
BLACK
6
CONTINUOUS
10
132
20
-57.5
11
131.902
21
-57.5096
0
LINE
8
BLACK
6
CONTINUOUS
10
131.902
20
-57.5096
11
131.809
21
-57.5381
0
LINE
8
BLACK
6
CONTINUOUS
10
131.809
20
-57.5381
11
131.722
21
-57.5843
0
LINE
8
BLACK
6
CONTINUOUS
10
131.722
20
-57.5843
11
131.646
21
-57.6464
0
LINE
8
BLACK
6
CONTINUOUS
10
131.646
20
-57.6464
11
131.584
21
-57.7222
0
LINE
8
BLACK
6
CONTINUOUS
10
131.584
20
-57.7222
11
131.538
21
-57.8087
0
LINE
8
BLACK
6
CONTINUOUS
10
131.538
20
-57.8087
11
131.51
21
-57.9025
0
LINE
8
BLACK
6
CONTINUOUS
10
131.51
20
-57.9025
11
131.5
21
-58
0
LINE
8
BLACK
6
CONTINUOUS
10
131.5
20
-58
11
131.51
21
-58.0975
0
LINE
8
BLACK
6
CONTINUOUS
10
131.51
20
-58.0975
11
131.538
21
-58.1913
0
LINE
8
BLACK
6
CONTINUOUS
10
131.538
20
-58.1913
11
131.584
21
-58.2778
0
LINE
8
BLACK
6
CONTINUOUS
10
131.584
20
-58.2778
11
131.646
21
-58.3536
0
LINE
8
BLACK
6
CONTINUOUS
10
131.646
20
-58.3536
11
131.722
21
-58.4157
0
LINE
8
BLACK
6
CONTINUOUS
10
131.722
20
-58.4157
11
131.809
21
-58.4619
0
LINE
8
BLACK
6
CONTINUOUS
10
131.809
20
-58.4619
11
131.902
21
-58.4904
0
LINE
8
BLACK
6
CONTINUOUS
10
131.902
20
-58.4904
11
132
21
-58.5
0
LINE
8
BLACK
6
CONTINUOUS
10
132
20
-58.5
11
136
21
-58.5
0
LINE
8
BLACK
6
CONTINUOUS
10
136
20
-72.5
11
136.098
21
-72.4904
0
LINE
8
BLACK
6
CONTINUOUS
10
136.098
20
-72.4904
11
136.191
21
-72.4619
0
LINE
8
BLACK
6
CONTINUOUS
10
136.191
20
-72.4619
11
136.278
21
-72.4157
0
LINE
8
BLACK
6
CONTINUOUS
10
136.278
20
-72.4157
11
136.354
21
-72.3536
0
LINE
8
BLACK
6
CONTINUOUS
10
136.354
20
-72.3536
11
136.416
21
-72.2778
0
LINE
8
BLACK
6
CONTINUOUS
10
136.416
20
-72.2778
11
136.462
21
-72.1913
0
LINE
8
BLACK
6
CONTINUOUS
10
136.462
20
-72.1913
11
136.49
21
-72.0975
0
LINE
8
BLACK
6
CONTINUOUS
10
136.49
20
-72.0975
11
136.5
21
-72
0
LINE
8
BLACK
6
CONTINUOUS
10
136.5
20
-72
11
136.49
21
-71.9025
0
LINE
8
BLACK
6
CONTINUOUS
10
136.49
20
-71.9025
11
136.462
21
-71.8087
0
LINE
8
BLACK
6
CONTINUOUS
10
136.462
20
-71.8087
11
136.416
21
-71.7222
0
LINE
8
BLACK
6
CONTINUOUS
10
136.416
20
-71.7222
11
136.354
21
-71.6464
0
LINE
8
BLACK
6
CONTINUOUS
10
136.354
20
-71.6464
11
136.278
21
-71.5843
0
LINE
8
BLACK
6
CONTINUOUS
10
136.278
20
-71.5843
11
136.191
21
-71.5381
0
LINE
8
BLACK
6
CONTINUOUS
10
136.191
20
-71.5381
11
136.098
21
-71.5096
0
LINE
8
BLACK
6
CONTINUOUS
10
136.098
20
-71.5096
11
136
21
-71.5
0
LINE
8
BLACK
6
CONTINUOUS
10
136
20
-71.5
11
132
21
-71.5
0
LINE
8
BLACK
6
CONTINUOUS
10
132
20
-71.5
11
131.902
21
-71.5096
0
LINE
8
BLACK
6
CONTINUOUS
10
131.902
20
-71.5096
11
131.809
21
-71.5381
0
LINE
8
BLACK
6
CONTINUOUS
10
131.809
20
-71.5381
11
131.722
21
-71.5843
0
LINE
8
BLACK
6
CONTINUOUS
10
131.722
20
-71.5843
11
131.646
21
-71.6464
0
LINE
8
BLACK
6
CONTINUOUS
10
131.646
20
-71.6464
11
131.584
21
-71.7222
0
LINE
8
BLACK
6
CONTINUOUS
10
131.584
20
-71.7222
11
131.538
21
-71.8087
0
LINE
8
BLACK
6
CONTINUOUS
10
131.538
20
-71.8087
11
131.51
21
-71.9025
0
LINE
8
BLACK
6
CONTINUOUS
10
131.51
20
-71.9025
11
131.5
21
-72
0
LINE
8
BLACK
6
CONTINUOUS
10
131.5
20
-72
11
131.51
21
-72.0975
0
LINE
8
BLACK
6
CONTINUOUS
10
131.51
20
-72.0975
11
131.538
21
-72.1913
0
LINE
8
BLACK
6
CONTINUOUS
10
131.538
20
-72.1913
11
131.584
21
-72.2778
0
LINE
8
BLACK
6
CONTINUOUS
10
131.584
20
-72.2778
11
131.646
21
-72.3536
0
LINE
8
BLACK
6
CONTINUOUS
10
131.646
20
-72.3536
11
131.722
21
-72.4157
0
LINE
8
BLACK
6
CONTINUOUS
10
131.722
20
-72.4157
11
131.809
21
-72.4619
0
LINE
8
BLACK
6
CONTINUOUS
10
131.809
20
-72.4619
11
131.902
21
-72.4904
0
LINE
8
BLACK
6
CONTINUOUS
10
131.902
20
-72.4904
11
132
21
-72.5
0
LINE
8
BLACK
6
CONTINUOUS
10
132
20
-72.5
11
136
21
-72.5
0
LINE
8
BLACK
6
CONTINUOUS
10
140.5
20
-62
11
140.51
21
-62.0975
0
LINE
8
BLACK
6
CONTINUOUS
10
140.51
20
-62.0975
11
140.538
21
-62.1913
0
LINE
8
BLACK
6
CONTINUOUS
10
140.538
20
-62.1913
11
140.584
21
-62.2778
0
LINE
8
BLACK
6
CONTINUOUS
10
140.584
20
-62.2778
11
140.646
21
-62.3536
0
LINE
8
BLACK
6
CONTINUOUS
10
140.646
20
-62.3536
11
140.722
21
-62.4157
0
LINE
8
BLACK
6
CONTINUOUS
10
140.722
20
-62.4157
11
140.809
21
-62.4619
0
LINE
8
BLACK
6
CONTINUOUS
10
140.809
20
-62.4619
11
140.902
21
-62.4904
0
LINE
8
BLACK
6
CONTINUOUS
10
140.902
20
-62.4904
11
141
21
-62.5
0
LINE
8
BLACK
6
CONTINUOUS
10
141
20
-62.5
11
141.098
21
-62.4904
0
LINE
8
BLACK
6
CONTINUOUS
10
141.098
20
-62.4904
11
141.191
21
-62.4619
0
LINE
8
BLACK
6
CONTINUOUS
10
141.191
20
-62.4619
11
141.278
21
-62.4157
0
LINE
8
BLACK
6
CONTINUOUS
10
141.278
20
-62.4157
11
141.354
21
-62.3536
0
LINE
8
BLACK
6
CONTINUOUS
10
141.354
20
-62.3536
11
141.416
21
-62.2778
0
LINE
8
BLACK
6
CONTINUOUS
10
141.416
20
-62.2778
11
141.462
21
-62.1913
0
LINE
8
BLACK
6
CONTINUOUS
10
141.462
20
-62.1913
11
141.49
21
-62.0975
0
LINE
8
BLACK
6
CONTINUOUS
10
141.49
20
-62.0975
11
141.5
21
-62
0
LINE
8
BLACK
6
CONTINUOUS
10
141.5
20
-62
11
141.5
21
-58
0
LINE
8
BLACK
6
CONTINUOUS
10
141.5
20
-58
11
141.49
21
-57.9025
0
LINE
8
BLACK
6
CONTINUOUS
10
141.49
20
-57.9025
11
141.462
21
-57.8087
0
LINE
8
BLACK
6
CONTINUOUS
10
141.462
20
-57.8087
11
141.416
21
-57.7222
0
LINE
8
BLACK
6
CONTINUOUS
10
141.416
20
-57.7222
11
141.354
21
-57.6464
0
LINE
8
BLACK
6
CONTINUOUS
10
141.354
20
-57.6464
11
141.278
21
-57.5843
0
LINE
8
BLACK
6
CONTINUOUS
10
141.278
20
-57.5843
11
141.191
21
-57.5381
0
LINE
8
BLACK
6
CONTINUOUS
10
141.191
20
-57.5381
11
141.098
21
-57.5096
0
LINE
8
BLACK
6
CONTINUOUS
10
141.098
20
-57.5096
11
141
21
-57.5
0
LINE
8
BLACK
6
CONTINUOUS
10
141
20
-57.5
11
140.902
21
-57.5096
0
LINE
8
BLACK
6
CONTINUOUS
10
140.902
20
-57.5096
11
140.809
21
-57.5381
0
LINE
8
BLACK
6
CONTINUOUS
10
140.809
20
-57.5381
11
140.722
21
-57.5843
0
LINE
8
BLACK
6
CONTINUOUS
10
140.722
20
-57.5843
11
140.646
21
-57.6464
0
LINE
8
BLACK
6
CONTINUOUS
10
140.646
20
-57.6464
11
140.584
21
-57.7222
0
LINE
8
BLACK
6
CONTINUOUS
10
140.584
20
-57.7222
11
140.538
21
-57.8087
0
LINE
8
BLACK
6
CONTINUOUS
10
140.538
20
-57.8087
11
140.51
21
-57.9025
0
LINE
8
BLACK
6
CONTINUOUS
10
140.51
20
-57.9025
11
140.5
21
-58
0
LINE
8
BLACK
6
CONTINUOUS
10
140.5
20
-58
11
140.5
21
-62
0
LINE
8
BLACK
6
CONTINUOUS
10
140.5
20
-72
11
140.51
21
-72.0975
0
LINE
8
BLACK
6
CONTINUOUS
10
140.51
20
-72.0975
11
140.538
21
-72.1913
0
LINE
8
BLACK
6
CONTINUOUS
10
140.538
20
-72.1913
11
140.584
21
-72.2778
0
LINE
8
BLACK
6
CONTINUOUS
10
140.584
20
-72.2778
11
140.646
21
-72.3536
0
LINE
8
BLACK
6
CONTINUOUS
10
140.646
20
-72.3536
11
140.722
21
-72.4157
0
LINE
8
BLACK
6
CONTINUOUS
10
140.722
20
-72.4157
11
140.809
21
-72.4619
0
LINE
8
BLACK
6
CONTINUOUS
10
140.809
20
-72.4619
11
140.902
21
-72.4904
0
LINE
8
BLACK
6
CONTINUOUS
10
140.902
20
-72.4904
11
141
21
-72.5
0
LINE
8
BLACK
6
CONTINUOUS
10
141
20
-72.5
11
141.098
21
-72.4904
0
LINE
8
BLACK
6
CONTINUOUS
10
141.098
20
-72.4904
11
141.191
21
-72.4619
0
LINE
8
BLACK
6
CONTINUOUS
10
141.191
20
-72.4619
11
141.278
21
-72.4157
0
LINE
8
BLACK
6
CONTINUOUS
10
141.278
20
-72.4157
11
141.354
21
-72.3536
0
LINE
8
BLACK
6
CONTINUOUS
10
141.354
20
-72.3536
11
141.416
21
-72.2778
0
LINE
8
BLACK
6
CONTINUOUS
10
141.416
20
-72.2778
11
141.462
21
-72.1913
0
LINE
8
BLACK
6
CONTINUOUS
10
141.462
20
-72.1913
11
141.49
21
-72.0975
0
LINE
8
BLACK
6
CONTINUOUS
10
141.49
20
-72.0975
11
141.5
21
-72
0
LINE
8
BLACK
6
CONTINUOUS
10
141.5
20
-72
11
141.5
21
-68
0
LINE
8
BLACK
6
CONTINUOUS
10
141.5
20
-68
11
141.49
21
-67.9025
0
LINE
8
BLACK
6
CONTINUOUS
10
141.49
20
-67.9025
11
141.462
21
-67.8087
0
LINE
8
BLACK
6
CONTINUOUS
10
141.462
20
-67.8087
11
141.416
21
-67.7222
0
LINE
8
BLACK
6
CONTINUOUS
10
141.416
20
-67.7222
11
141.354
21
-67.6464
0
LINE
8
BLACK
6
CONTINUOUS
10
141.354
20
-67.6464
11
141.278
21
-67.5843
0
LINE
8
BLACK
6
CONTINUOUS
10
141.278
20
-67.5843
11
141.191
21
-67.5381
0
LINE
8
BLACK
6
CONTINUOUS
10
141.191
20
-67.5381
11
141.098
21
-67.5096
0
LINE
8
BLACK
6
CONTINUOUS
10
141.098
20
-67.5096
11
141
21
-67.5
0
LINE
8
BLACK
6
CONTINUOUS
10
141
20
-67.5
11
140.902
21
-67.5096
0
LINE
8
BLACK
6
CONTINUOUS
10
140.902
20
-67.5096
11
140.809
21
-67.5381
0
LINE
8
BLACK
6
CONTINUOUS
10
140.809
20
-67.5381
11
140.722
21
-67.5843
0
LINE
8
BLACK
6
CONTINUOUS
10
140.722
20
-67.5843
11
140.646
21
-67.6464
0
LINE
8
BLACK
6
CONTINUOUS
10
140.646
20
-67.6464
11
140.584
21
-67.7222
0
LINE
8
BLACK
6
CONTINUOUS
10
140.584
20
-67.7222
11
140.538
21
-67.8087
0
LINE
8
BLACK
6
CONTINUOUS
10
140.538
20
-67.8087
11
140.51
21
-67.9025
0
LINE
8
BLACK
6
CONTINUOUS
10
140.51
20
-67.9025
11
140.5
21
-68
0
LINE
8
BLACK
6
CONTINUOUS
10
140.5
20
-68
11
140.5
21
-72
0
LINE
8
BLACK
6
CONTINUOUS
10
146.5
20
-72
11
146.51
21
-72.0975
0
LINE
8
BLACK
6
CONTINUOUS
10
146.51
20
-72.0975
11
146.538
21
-72.1913
0
LINE
8
BLACK
6
CONTINUOUS
10
146.538
20
-72.1913
11
146.584
21
-72.2778
0
LINE
8
BLACK
6
CONTINUOUS
10
146.584
20
-72.2778
11
146.646
21
-72.3536
0
LINE
8
BLACK
6
CONTINUOUS
10
146.646
20
-72.3536
11
146.722
21
-72.4157
0
LINE
8
BLACK
6
CONTINUOUS
10
146.722
20
-72.4157
11
146.809
21
-72.4619
0
LINE
8
BLACK
6
CONTINUOUS
10
146.809
20
-72.4619
11
146.902
21
-72.4904
0
LINE
8
BLACK
6
CONTINUOUS
10
146.902
20
-72.4904
11
147
21
-72.5
0
LINE
8
BLACK
6
CONTINUOUS
10
147
20
-72.5
11
147.098
21
-72.4904
0
LINE
8
BLACK
6
CONTINUOUS
10
147.098
20
-72.4904
11
147.191
21
-72.4619
0
LINE
8
BLACK
6
CONTINUOUS
10
147.191
20
-72.4619
11
147.278
21
-72.4157
0
LINE
8
BLACK
6
CONTINUOUS
10
147.278
20
-72.4157
11
147.354
21
-72.3536
0
LINE
8
BLACK
6
CONTINUOUS
10
147.354
20
-72.3536
11
147.416
21
-72.2778
0
LINE
8
BLACK
6
CONTINUOUS
10
147.416
20
-72.2778
11
147.462
21
-72.1913
0
LINE
8
BLACK
6
CONTINUOUS
10
147.462
20
-72.1913
11
147.49
21
-72.0975
0
LINE
8
BLACK
6
CONTINUOUS
10
147.49
20
-72.0975
11
147.5
21
-72
0
LINE
8
BLACK
6
CONTINUOUS
10
147.5
20
-72
11
147.5
21
-68
0
LINE
8
BLACK
6
CONTINUOUS
10
147.5
20
-68
11
147.49
21
-67.9025
0
LINE
8
BLACK
6
CONTINUOUS
10
147.49
20
-67.9025
11
147.462
21
-67.8087
0
LINE
8
BLACK
6
CONTINUOUS
10
147.462
20
-67.8087
11
147.416
21
-67.7222
0
LINE
8
BLACK
6
CONTINUOUS
10
147.416
20
-67.7222
11
147.354
21
-67.6464
0
LINE
8
BLACK
6
CONTINUOUS
10
147.354
20
-67.6464
11
147.278
21
-67.5843
0
LINE
8
BLACK
6
CONTINUOUS
10
147.278
20
-67.5843
11
147.191
21
-67.5381
0
LINE
8
BLACK
6
CONTINUOUS
10
147.191
20
-67.5381
11
147.098
21
-67.5096
0
LINE
8
BLACK
6
CONTINUOUS
10
147.098
20
-67.5096
11
147
21
-67.5
0
LINE
8
BLACK
6
CONTINUOUS
10
147
20
-67.5
11
146.902
21
-67.5096
0
LINE
8
BLACK
6
CONTINUOUS
10
146.902
20
-67.5096
11
146.809
21
-67.5381
0
LINE
8
BLACK
6
CONTINUOUS
10
146.809
20
-67.5381
11
146.722
21
-67.5843
0
LINE
8
BLACK
6
CONTINUOUS
10
146.722
20
-67.5843
11
146.646
21
-67.6464
0
LINE
8
BLACK
6
CONTINUOUS
10
146.646
20
-67.6464
11
146.584
21
-67.7222
0
LINE
8
BLACK
6
CONTINUOUS
10
146.584
20
-67.7222
11
146.538
21
-67.8087
0
LINE
8
BLACK
6
CONTINUOUS
10
146.538
20
-67.8087
11
146.51
21
-67.9025
0
LINE
8
BLACK
6
CONTINUOUS
10
146.51
20
-67.9025
11
146.5
21
-68
0
LINE
8
BLACK
6
CONTINUOUS
10
146.5
20
-68
11
146.5
21
-72
0
LINE
8
BLACK
6
CONTINUOUS
10
146.5
20
-62
11
146.51
21
-62.0975
0
LINE
8
BLACK
6
CONTINUOUS
10
146.51
20
-62.0975
11
146.538
21
-62.1913
0
LINE
8
BLACK
6
CONTINUOUS
10
146.538
20
-62.1913
11
146.584
21
-62.2778
0
LINE
8
BLACK
6
CONTINUOUS
10
146.584
20
-62.2778
11
146.646
21
-62.3536
0
LINE
8
BLACK
6
CONTINUOUS
10
146.646
20
-62.3536
11
146.722
21
-62.4157
0
LINE
8
BLACK
6
CONTINUOUS
10
146.722
20
-62.4157
11
146.809
21
-62.4619
0
LINE
8
BLACK
6
CONTINUOUS
10
146.809
20
-62.4619
11
146.902
21
-62.4904
0
LINE
8
BLACK
6
CONTINUOUS
10
146.902
20
-62.4904
11
147
21
-62.5
0
LINE
8
BLACK
6
CONTINUOUS
10
147
20
-62.5
11
147.098
21
-62.4904
0
LINE
8
BLACK
6
CONTINUOUS
10
147.098
20
-62.4904
11
147.191
21
-62.4619
0
LINE
8
BLACK
6
CONTINUOUS
10
147.191
20
-62.4619
11
147.278
21
-62.4157
0
LINE
8
BLACK
6
CONTINUOUS
10
147.278
20
-62.4157
11
147.354
21
-62.3536
0
LINE
8
BLACK
6
CONTINUOUS
10
147.354
20
-62.3536
11
147.416
21
-62.2778
0
LINE
8
BLACK
6
CONTINUOUS
10
147.416
20
-62.2778
11
147.462
21
-62.1913
0
LINE
8
BLACK
6
CONTINUOUS
10
147.462
20
-62.1913
11
147.49
21
-62.0975
0
LINE
8
BLACK
6
CONTINUOUS
10
147.49
20
-62.0975
11
147.5
21
-62
0
LINE
8
BLACK
6
CONTINUOUS
10
147.5
20
-62
11
147.5
21
-58
0
LINE
8
BLACK
6
CONTINUOUS
10
147.5
20
-58
11
147.49
21
-57.9025
0
LINE
8
BLACK
6
CONTINUOUS
10
147.49
20
-57.9025
11
147.462
21
-57.8087
0
LINE
8
BLACK
6
CONTINUOUS
10
147.462
20
-57.8087
11
147.416
21
-57.7222
0
LINE
8
BLACK
6
CONTINUOUS
10
147.416
20
-57.7222
11
147.354
21
-57.6464
0
LINE
8
BLACK
6
CONTINUOUS
10
147.354
20
-57.6464
11
147.278
21
-57.5843
0
LINE
8
BLACK
6
CONTINUOUS
10
147.278
20
-57.5843
11
147.191
21
-57.5381
0
LINE
8
BLACK
6
CONTINUOUS
10
147.191
20
-57.5381
11
147.098
21
-57.5096
0
LINE
8
BLACK
6
CONTINUOUS
10
147.098
20
-57.5096
11
147
21
-57.5
0
LINE
8
BLACK
6
CONTINUOUS
10
147
20
-57.5
11
146.902
21
-57.5096
0
LINE
8
BLACK
6
CONTINUOUS
10
146.902
20
-57.5096
11
146.809
21
-57.5381
0
LINE
8
BLACK
6
CONTINUOUS
10
146.809
20
-57.5381
11
146.722
21
-57.5843
0
LINE
8
BLACK
6
CONTINUOUS
10
146.722
20
-57.5843
11
146.646
21
-57.6464
0
LINE
8
BLACK
6
CONTINUOUS
10
146.646
20
-57.6464
11
146.584
21
-57.7222
0
LINE
8
BLACK
6
CONTINUOUS
10
146.584
20
-57.7222
11
146.538
21
-57.8087
0
LINE
8
BLACK
6
CONTINUOUS
10
146.538
20
-57.8087
11
146.51
21
-57.9025
0
LINE
8
BLACK
6
CONTINUOUS
10
146.51
20
-57.9025
11
146.5
21
-58
0
LINE
8
BLACK
6
CONTINUOUS
10
146.5
20
-58
11
146.5
21
-62
0
LINE
8
BLACK
6
CONTINUOUS
10
151.5
20
-62
11
151.51
21
-62.0975
0
LINE
8
BLACK
6
CONTINUOUS
10
151.51
20
-62.0975
11
151.538
21
-62.1913
0
LINE
8
BLACK
6
CONTINUOUS
10
151.538
20
-62.1913
11
151.584
21
-62.2778
0
LINE
8
BLACK
6
CONTINUOUS
10
151.584
20
-62.2778
11
151.646
21
-62.3536
0
LINE
8
BLACK
6
CONTINUOUS
10
151.646
20
-62.3536
11
151.722
21
-62.4157
0
LINE
8
BLACK
6
CONTINUOUS
10
151.722
20
-62.4157
11
151.809
21
-62.4619
0
LINE
8
BLACK
6
CONTINUOUS
10
151.809
20
-62.4619
11
151.902
21
-62.4904
0
LINE
8
BLACK
6
CONTINUOUS
10
151.902
20
-62.4904
11
152
21
-62.5
0
LINE
8
BLACK
6
CONTINUOUS
10
152
20
-62.5
11
152.098
21
-62.4904
0
LINE
8
BLACK
6
CONTINUOUS
10
152.098
20
-62.4904
11
152.191
21
-62.4619
0
LINE
8
BLACK
6
CONTINUOUS
10
152.191
20
-62.4619
11
152.278
21
-62.4157
0
LINE
8
BLACK
6
CONTINUOUS
10
152.278
20
-62.4157
11
152.354
21
-62.3536
0
LINE
8
BLACK
6
CONTINUOUS
10
152.354
20
-62.3536
11
152.416
21
-62.2778
0
LINE
8
BLACK
6
CONTINUOUS
10
152.416
20
-62.2778
11
152.462
21
-62.1913
0
LINE
8
BLACK
6
CONTINUOUS
10
152.462
20
-62.1913
11
152.49
21
-62.0975
0
LINE
8
BLACK
6
CONTINUOUS
10
152.49
20
-62.0975
11
152.5
21
-62
0
LINE
8
BLACK
6
CONTINUOUS
10
152.5
20
-62
11
152.5
21
-58
0
LINE
8
BLACK
6
CONTINUOUS
10
152.5
20
-58
11
152.49
21
-57.9025
0
LINE
8
BLACK
6
CONTINUOUS
10
152.49
20
-57.9025
11
152.462
21
-57.8087
0
LINE
8
BLACK
6
CONTINUOUS
10
152.462
20
-57.8087
11
152.416
21
-57.7222
0
LINE
8
BLACK
6
CONTINUOUS
10
152.416
20
-57.7222
11
152.354
21
-57.6464
0
LINE
8
BLACK
6
CONTINUOUS
10
152.354
20
-57.6464
11
152.278
21
-57.5843
0
LINE
8
BLACK
6
CONTINUOUS
10
152.278
20
-57.5843
11
152.191
21
-57.5381
0
LINE
8
BLACK
6
CONTINUOUS
10
152.191
20
-57.5381
11
152.098
21
-57.5096
0
LINE
8
BLACK
6
CONTINUOUS
10
152.098
20
-57.5096
11
152
21
-57.5
0
LINE
8
BLACK
6
CONTINUOUS
10
152
20
-57.5
11
151.902
21
-57.5096
0
LINE
8
BLACK
6
CONTINUOUS
10
151.902
20
-57.5096
11
151.809
21
-57.5381
0
LINE
8
BLACK
6
CONTINUOUS
10
151.809
20
-57.5381
11
151.722
21
-57.5843
0
LINE
8
BLACK
6
CONTINUOUS
10
151.722
20
-57.5843
11
151.646
21
-57.6464
0
LINE
8
BLACK
6
CONTINUOUS
10
151.646
20
-57.6464
11
151.584
21
-57.7222
0
LINE
8
BLACK
6
CONTINUOUS
10
151.584
20
-57.7222
11
151.538
21
-57.8087
0
LINE
8
BLACK
6
CONTINUOUS
10
151.538
20
-57.8087
11
151.51
21
-57.9025
0
LINE
8
BLACK
6
CONTINUOUS
10
151.51
20
-57.9025
11
151.5
21
-58
0
LINE
8
BLACK
6
CONTINUOUS
10
151.5
20
-58
11
151.5
21
-62
0
LINE
8
BLACK
6
CONTINUOUS
10
151.5
20
-72
11
151.51
21
-72.0975
0
LINE
8
BLACK
6
CONTINUOUS
10
151.51
20
-72.0975
11
151.538
21
-72.1913
0
LINE
8
BLACK
6
CONTINUOUS
10
151.538
20
-72.1913
11
151.584
21
-72.2778
0
LINE
8
BLACK
6
CONTINUOUS
10
151.584
20
-72.2778
11
151.646
21
-72.3536
0
LINE
8
BLACK
6
CONTINUOUS
10
151.646
20
-72.3536
11
151.722
21
-72.4157
0
LINE
8
BLACK
6
CONTINUOUS
10
151.722
20
-72.4157
11
151.809
21
-72.4619
0
LINE
8
BLACK
6
CONTINUOUS
10
151.809
20
-72.4619
11
151.902
21
-72.4904
0
LINE
8
BLACK
6
CONTINUOUS
10
151.902
20
-72.4904
11
152
21
-72.5
0
LINE
8
BLACK
6
CONTINUOUS
10
152
20
-72.5
11
152.098
21
-72.4904
0
LINE
8
BLACK
6
CONTINUOUS
10
152.098
20
-72.4904
11
152.191
21
-72.4619
0
LINE
8
BLACK
6
CONTINUOUS
10
152.191
20
-72.4619
11
152.278
21
-72.4157
0
LINE
8
BLACK
6
CONTINUOUS
10
152.278
20
-72.4157
11
152.354
21
-72.3536
0
LINE
8
BLACK
6
CONTINUOUS
10
152.354
20
-72.3536
11
152.416
21
-72.2778
0
LINE
8
BLACK
6
CONTINUOUS
10
152.416
20
-72.2778
11
152.462
21
-72.1913
0
LINE
8
BLACK
6
CONTINUOUS
10
152.462
20
-72.1913
11
152.49
21
-72.0975
0
LINE
8
BLACK
6
CONTINUOUS
10
152.49
20
-72.0975
11
152.5
21
-72
0
LINE
8
BLACK
6
CONTINUOUS
10
152.5
20
-72
11
152.5
21
-68
0
LINE
8
BLACK
6
CONTINUOUS
10
152.5
20
-68
11
152.49
21
-67.9025
0
LINE
8
BLACK
6
CONTINUOUS
10
152.49
20
-67.9025
11
152.462
21
-67.8087
0
LINE
8
BLACK
6
CONTINUOUS
10
152.462
20
-67.8087
11
152.416
21
-67.7222
0
LINE
8
BLACK
6
CONTINUOUS
10
152.416
20
-67.7222
11
152.354
21
-67.6464
0
LINE
8
BLACK
6
CONTINUOUS
10
152.354
20
-67.6464
11
152.278
21
-67.5843
0
LINE
8
BLACK
6
CONTINUOUS
10
152.278
20
-67.5843
11
152.191
21
-67.5381
0
LINE
8
BLACK
6
CONTINUOUS
10
152.191
20
-67.5381
11
152.098
21
-67.5096
0
LINE
8
BLACK
6
CONTINUOUS
10
152.098
20
-67.5096
11
152
21
-67.5
0
LINE
8
BLACK
6
CONTINUOUS
10
152
20
-67.5
11
151.902
21
-67.5096
0
LINE
8
BLACK
6
CONTINUOUS
10
151.902
20
-67.5096
11
151.809
21
-67.5381
0
LINE
8
BLACK
6
CONTINUOUS
10
151.809
20
-67.5381
11
151.722
21
-67.5843
0
LINE
8
BLACK
6
CONTINUOUS
10
151.722
20
-67.5843
11
151.646
21
-67.6464
0
LINE
8
BLACK
6
CONTINUOUS
10
151.646
20
-67.6464
11
151.584
21
-67.7222
0
LINE
8
BLACK
6
CONTINUOUS
10
151.584
20
-67.7222
11
151.538
21
-67.8087
0
LINE
8
BLACK
6
CONTINUOUS
10
151.538
20
-67.8087
11
151.51
21
-67.9025
0
LINE
8
BLACK
6
CONTINUOUS
10
151.51
20
-67.9025
11
151.5
21
-68
0
LINE
8
BLACK
6
CONTINUOUS
10
151.5
20
-68
11
151.5
21
-72
0
LINE
8
BLACK
6
CONTINUOUS
10
151.5
20
-47
11
151.51
21
-47.0975
0
LINE
8
BLACK
6
CONTINUOUS
10
151.51
20
-47.0975
11
151.538
21
-47.1913
0
LINE
8
BLACK
6
CONTINUOUS
10
151.538
20
-47.1913
11
151.584
21
-47.2778
0
LINE
8
BLACK
6
CONTINUOUS
10
151.584
20
-47.2778
11
151.646
21
-47.3536
0
LINE
8
BLACK
6
CONTINUOUS
10
151.646
20
-47.3536
11
151.722
21
-47.4157
0
LINE
8
BLACK
6
CONTINUOUS
10
151.722
20
-47.4157
11
151.809
21
-47.4619
0
LINE
8
BLACK
6
CONTINUOUS
10
151.809
20
-47.4619
11
151.902
21
-47.4904
0
LINE
8
BLACK
6
CONTINUOUS
10
151.902
20
-47.4904
11
152
21
-47.5
0
LINE
8
BLACK
6
CONTINUOUS
10
152
20
-47.5
11
152.098
21
-47.4904
0
LINE
8
BLACK
6
CONTINUOUS
10
152.098
20
-47.4904
11
152.191
21
-47.4619
0
LINE
8
BLACK
6
CONTINUOUS
10
152.191
20
-47.4619
11
152.278
21
-47.4157
0
LINE
8
BLACK
6
CONTINUOUS
10
152.278
20
-47.4157
11
152.354
21
-47.3536
0
LINE
8
BLACK
6
CONTINUOUS
10
152.354
20
-47.3536
11
152.416
21
-47.2778
0
LINE
8
BLACK
6
CONTINUOUS
10
152.416
20
-47.2778
11
152.462
21
-47.1913
0
LINE
8
BLACK
6
CONTINUOUS
10
152.462
20
-47.1913
11
152.49
21
-47.0975
0
LINE
8
BLACK
6
CONTINUOUS
10
152.49
20
-47.0975
11
152.5
21
-47
0
LINE
8
BLACK
6
CONTINUOUS
10
152.5
20
-47
11
152.5
21
-43
0
LINE
8
BLACK
6
CONTINUOUS
10
152.5
20
-43
11
152.49
21
-42.9025
0
LINE
8
BLACK
6
CONTINUOUS
10
152.49
20
-42.9025
11
152.462
21
-42.8087
0
LINE
8
BLACK
6
CONTINUOUS
10
152.462
20
-42.8087
11
152.416
21
-42.7222
0
LINE
8
BLACK
6
CONTINUOUS
10
152.416
20
-42.7222
11
152.354
21
-42.6464
0
LINE
8
BLACK
6
CONTINUOUS
10
152.354
20
-42.6464
11
152.278
21
-42.5843
0
LINE
8
BLACK
6
CONTINUOUS
10
152.278
20
-42.5843
11
152.191
21
-42.5381
0
LINE
8
BLACK
6
CONTINUOUS
10
152.191
20
-42.5381
11
152.098
21
-42.5096
0
LINE
8
BLACK
6
CONTINUOUS
10
152.098
20
-42.5096
11
152
21
-42.5
0
LINE
8
BLACK
6
CONTINUOUS
10
152
20
-42.5
11
151.902
21
-42.5096
0
LINE
8
BLACK
6
CONTINUOUS
10
151.902
20
-42.5096
11
151.809
21
-42.5381
0
LINE
8
BLACK
6
CONTINUOUS
10
151.809
20
-42.5381
11
151.722
21
-42.5843
0
LINE
8
BLACK
6
CONTINUOUS
10
151.722
20
-42.5843
11
151.646
21
-42.6464
0
LINE
8
BLACK
6
CONTINUOUS
10
151.646
20
-42.6464
11
151.584
21
-42.7222
0
LINE
8
BLACK
6
CONTINUOUS
10
151.584
20
-42.7222
11
151.538
21
-42.8087
0
LINE
8
BLACK
6
CONTINUOUS
10
151.538
20
-42.8087
11
151.51
21
-42.9025
0
LINE
8
BLACK
6
CONTINUOUS
10
151.51
20
-42.9025
11
151.5
21
-43
0
LINE
8
BLACK
6
CONTINUOUS
10
151.5
20
-43
11
151.5
21
-47
0
LINE
8
BLACK
6
CONTINUOUS
10
151.5
20
-37
11
151.51
21
-37.0975
0
LINE
8
BLACK
6
CONTINUOUS
10
151.51
20
-37.0975
11
151.538
21
-37.1913
0
LINE
8
BLACK
6
CONTINUOUS
10
151.538
20
-37.1913
11
151.584
21
-37.2778
0
LINE
8
BLACK
6
CONTINUOUS
10
151.584
20
-37.2778
11
151.646
21
-37.3536
0
LINE
8
BLACK
6
CONTINUOUS
10
151.646
20
-37.3536
11
151.722
21
-37.4157
0
LINE
8
BLACK
6
CONTINUOUS
10
151.722
20
-37.4157
11
151.809
21
-37.4619
0
LINE
8
BLACK
6
CONTINUOUS
10
151.809
20
-37.4619
11
151.902
21
-37.4904
0
LINE
8
BLACK
6
CONTINUOUS
10
151.902
20
-37.4904
11
152
21
-37.5
0
LINE
8
BLACK
6
CONTINUOUS
10
152
20
-37.5
11
152.098
21
-37.4904
0
LINE
8
BLACK
6
CONTINUOUS
10
152.098
20
-37.4904
11
152.191
21
-37.4619
0
LINE
8
BLACK
6
CONTINUOUS
10
152.191
20
-37.4619
11
152.278
21
-37.4157
0
LINE
8
BLACK
6
CONTINUOUS
10
152.278
20
-37.4157
11
152.354
21
-37.3536
0
LINE
8
BLACK
6
CONTINUOUS
10
152.354
20
-37.3536
11
152.416
21
-37.2778
0
LINE
8
BLACK
6
CONTINUOUS
10
152.416
20
-37.2778
11
152.462
21
-37.1913
0
LINE
8
BLACK
6
CONTINUOUS
10
152.462
20
-37.1913
11
152.49
21
-37.0975
0
LINE
8
BLACK
6
CONTINUOUS
10
152.49
20
-37.0975
11
152.5
21
-37
0
LINE
8
BLACK
6
CONTINUOUS
10
152.5
20
-37
11
152.5
21
-33
0
LINE
8
BLACK
6
CONTINUOUS
10
152.5
20
-33
11
152.49
21
-32.9025
0
LINE
8
BLACK
6
CONTINUOUS
10
152.49
20
-32.9025
11
152.462
21
-32.8087
0
LINE
8
BLACK
6
CONTINUOUS
10
152.462
20
-32.8087
11
152.416
21
-32.7222
0
LINE
8
BLACK
6
CONTINUOUS
10
152.416
20
-32.7222
11
152.354
21
-32.6464
0
LINE
8
BLACK
6
CONTINUOUS
10
152.354
20
-32.6464
11
152.278
21
-32.5843
0
LINE
8
BLACK
6
CONTINUOUS
10
152.278
20
-32.5843
11
152.191
21
-32.5381
0
LINE
8
BLACK
6
CONTINUOUS
10
152.191
20
-32.5381
11
152.098
21
-32.5096
0
LINE
8
BLACK
6
CONTINUOUS
10
152.098
20
-32.5096
11
152
21
-32.5
0
LINE
8
BLACK
6
CONTINUOUS
10
152
20
-32.5
11
151.902
21
-32.5096
0
LINE
8
BLACK
6
CONTINUOUS
10
151.902
20
-32.5096
11
151.809
21
-32.5381
0
LINE
8
BLACK
6
CONTINUOUS
10
151.809
20
-32.5381
11
151.722
21
-32.5843
0
LINE
8
BLACK
6
CONTINUOUS
10
151.722
20
-32.5843
11
151.646
21
-32.6464
0
LINE
8
BLACK
6
CONTINUOUS
10
151.646
20
-32.6464
11
151.584
21
-32.7222
0
LINE
8
BLACK
6
CONTINUOUS
10
151.584
20
-32.7222
11
151.538
21
-32.8087
0
LINE
8
BLACK
6
CONTINUOUS
10
151.538
20
-32.8087
11
151.51
21
-32.9025
0
LINE
8
BLACK
6
CONTINUOUS
10
151.51
20
-32.9025
11
151.5
21
-33
0
LINE
8
BLACK
6
CONTINUOUS
10
151.5
20
-33
11
151.5
21
-37
0
LINE
8
BLACK
6
CONTINUOUS
10
146.5
20
-37
11
146.51
21
-37.0975
0
LINE
8
BLACK
6
CONTINUOUS
10
146.51
20
-37.0975
11
146.538
21
-37.1913
0
LINE
8
BLACK
6
CONTINUOUS
10
146.538
20
-37.1913
11
146.584
21
-37.2778
0
LINE
8
BLACK
6
CONTINUOUS
10
146.584
20
-37.2778
11
146.646
21
-37.3536
0
LINE
8
BLACK
6
CONTINUOUS
10
146.646
20
-37.3536
11
146.722
21
-37.4157
0
LINE
8
BLACK
6
CONTINUOUS
10
146.722
20
-37.4157
11
146.809
21
-37.4619
0
LINE
8
BLACK
6
CONTINUOUS
10
146.809
20
-37.4619
11
146.902
21
-37.4904
0
LINE
8
BLACK
6
CONTINUOUS
10
146.902
20
-37.4904
11
147
21
-37.5
0
LINE
8
BLACK
6
CONTINUOUS
10
147
20
-37.5
11
147.098
21
-37.4904
0
LINE
8
BLACK
6
CONTINUOUS
10
147.098
20
-37.4904
11
147.191
21
-37.4619
0
LINE
8
BLACK
6
CONTINUOUS
10
147.191
20
-37.4619
11
147.278
21
-37.4157
0
LINE
8
BLACK
6
CONTINUOUS
10
147.278
20
-37.4157
11
147.354
21
-37.3536
0
LINE
8
BLACK
6
CONTINUOUS
10
147.354
20
-37.3536
11
147.416
21
-37.2778
0
LINE
8
BLACK
6
CONTINUOUS
10
147.416
20
-37.2778
11
147.462
21
-37.1913
0
LINE
8
BLACK
6
CONTINUOUS
10
147.462
20
-37.1913
11
147.49
21
-37.0975
0
LINE
8
BLACK
6
CONTINUOUS
10
147.49
20
-37.0975
11
147.5
21
-37
0
LINE
8
BLACK
6
CONTINUOUS
10
147.5
20
-37
11
147.5
21
-33
0
LINE
8
BLACK
6
CONTINUOUS
10
147.5
20
-33
11
147.49
21
-32.9025
0
LINE
8
BLACK
6
CONTINUOUS
10
147.49
20
-32.9025
11
147.462
21
-32.8087
0
LINE
8
BLACK
6
CONTINUOUS
10
147.462
20
-32.8087
11
147.416
21
-32.7222
0
LINE
8
BLACK
6
CONTINUOUS
10
147.416
20
-32.7222
11
147.354
21
-32.6464
0
LINE
8
BLACK
6
CONTINUOUS
10
147.354
20
-32.6464
11
147.278
21
-32.5843
0
LINE
8
BLACK
6
CONTINUOUS
10
147.278
20
-32.5843
11
147.191
21
-32.5381
0
LINE
8
BLACK
6
CONTINUOUS
10
147.191
20
-32.5381
11
147.098
21
-32.5096
0
LINE
8
BLACK
6
CONTINUOUS
10
147.098
20
-32.5096
11
147
21
-32.5
0
LINE
8
BLACK
6
CONTINUOUS
10
147
20
-32.5
11
146.902
21
-32.5096
0
LINE
8
BLACK
6
CONTINUOUS
10
146.902
20
-32.5096
11
146.809
21
-32.5381
0
LINE
8
BLACK
6
CONTINUOUS
10
146.809
20
-32.5381
11
146.722
21
-32.5843
0
LINE
8
BLACK
6
CONTINUOUS
10
146.722
20
-32.5843
11
146.646
21
-32.6464
0
LINE
8
BLACK
6
CONTINUOUS
10
146.646
20
-32.6464
11
146.584
21
-32.7222
0
LINE
8
BLACK
6
CONTINUOUS
10
146.584
20
-32.7222
11
146.538
21
-32.8087
0
LINE
8
BLACK
6
CONTINUOUS
10
146.538
20
-32.8087
11
146.51
21
-32.9025
0
LINE
8
BLACK
6
CONTINUOUS
10
146.51
20
-32.9025
11
146.5
21
-33
0
LINE
8
BLACK
6
CONTINUOUS
10
146.5
20
-33
11
146.5
21
-37
0
LINE
8
BLACK
6
CONTINUOUS
10
146.5
20
-47
11
146.51
21
-47.0975
0
LINE
8
BLACK
6
CONTINUOUS
10
146.51
20
-47.0975
11
146.538
21
-47.1913
0
LINE
8
BLACK
6
CONTINUOUS
10
146.538
20
-47.1913
11
146.584
21
-47.2778
0
LINE
8
BLACK
6
CONTINUOUS
10
146.584
20
-47.2778
11
146.646
21
-47.3536
0
LINE
8
BLACK
6
CONTINUOUS
10
146.646
20
-47.3536
11
146.722
21
-47.4157
0
LINE
8
BLACK
6
CONTINUOUS
10
146.722
20
-47.4157
11
146.809
21
-47.4619
0
LINE
8
BLACK
6
CONTINUOUS
10
146.809
20
-47.4619
11
146.902
21
-47.4904
0
LINE
8
BLACK
6
CONTINUOUS
10
146.902
20
-47.4904
11
147
21
-47.5
0
LINE
8
BLACK
6
CONTINUOUS
10
147
20
-47.5
11
147.098
21
-47.4904
0
LINE
8
BLACK
6
CONTINUOUS
10
147.098
20
-47.4904
11
147.191
21
-47.4619
0
LINE
8
BLACK
6
CONTINUOUS
10
147.191
20
-47.4619
11
147.278
21
-47.4157
0
LINE
8
BLACK
6
CONTINUOUS
10
147.278
20
-47.4157
11
147.354
21
-47.3536
0
LINE
8
BLACK
6
CONTINUOUS
10
147.354
20
-47.3536
11
147.416
21
-47.2778
0
LINE
8
BLACK
6
CONTINUOUS
10
147.416
20
-47.2778
11
147.462
21
-47.1913
0
LINE
8
BLACK
6
CONTINUOUS
10
147.462
20
-47.1913
11
147.49
21
-47.0975
0
LINE
8
BLACK
6
CONTINUOUS
10
147.49
20
-47.0975
11
147.5
21
-47
0
LINE
8
BLACK
6
CONTINUOUS
10
147.5
20
-47
11
147.5
21
-43
0
LINE
8
BLACK
6
CONTINUOUS
10
147.5
20
-43
11
147.49
21
-42.9025
0
LINE
8
BLACK
6
CONTINUOUS
10
147.49
20
-42.9025
11
147.462
21
-42.8087
0
LINE
8
BLACK
6
CONTINUOUS
10
147.462
20
-42.8087
11
147.416
21
-42.7222
0
LINE
8
BLACK
6
CONTINUOUS
10
147.416
20
-42.7222
11
147.354
21
-42.6464
0
LINE
8
BLACK
6
CONTINUOUS
10
147.354
20
-42.6464
11
147.278
21
-42.5843
0
LINE
8
BLACK
6
CONTINUOUS
10
147.278
20
-42.5843
11
147.191
21
-42.5381
0
LINE
8
BLACK
6
CONTINUOUS
10
147.191
20
-42.5381
11
147.098
21
-42.5096
0
LINE
8
BLACK
6
CONTINUOUS
10
147.098
20
-42.5096
11
147
21
-42.5
0
LINE
8
BLACK
6
CONTINUOUS
10
147
20
-42.5
11
146.902
21
-42.5096
0
LINE
8
BLACK
6
CONTINUOUS
10
146.902
20
-42.5096
11
146.809
21
-42.5381
0
LINE
8
BLACK
6
CONTINUOUS
10
146.809
20
-42.5381
11
146.722
21
-42.5843
0
LINE
8
BLACK
6
CONTINUOUS
10
146.722
20
-42.5843
11
146.646
21
-42.6464
0
LINE
8
BLACK
6
CONTINUOUS
10
146.646
20
-42.6464
11
146.584
21
-42.7222
0
LINE
8
BLACK
6
CONTINUOUS
10
146.584
20
-42.7222
11
146.538
21
-42.8087
0
LINE
8
BLACK
6
CONTINUOUS
10
146.538
20
-42.8087
11
146.51
21
-42.9025
0
LINE
8
BLACK
6
CONTINUOUS
10
146.51
20
-42.9025
11
146.5
21
-43
0
LINE
8
BLACK
6
CONTINUOUS
10
146.5
20
-43
11
146.5
21
-47
0
LINE
8
BLACK
6
CONTINUOUS
10
140.5
20
-47
11
140.51
21
-47.0975
0
LINE
8
BLACK
6
CONTINUOUS
10
140.51
20
-47.0975
11
140.538
21
-47.1913
0
LINE
8
BLACK
6
CONTINUOUS
10
140.538
20
-47.1913
11
140.584
21
-47.2778
0
LINE
8
BLACK
6
CONTINUOUS
10
140.584
20
-47.2778
11
140.646
21
-47.3536
0
LINE
8
BLACK
6
CONTINUOUS
10
140.646
20
-47.3536
11
140.722
21
-47.4157
0
LINE
8
BLACK
6
CONTINUOUS
10
140.722
20
-47.4157
11
140.809
21
-47.4619
0
LINE
8
BLACK
6
CONTINUOUS
10
140.809
20
-47.4619
11
140.902
21
-47.4904
0
LINE
8
BLACK
6
CONTINUOUS
10
140.902
20
-47.4904
11
141
21
-47.5
0
LINE
8
BLACK
6
CONTINUOUS
10
141
20
-47.5
11
141.098
21
-47.4904
0
LINE
8
BLACK
6
CONTINUOUS
10
141.098
20
-47.4904
11
141.191
21
-47.4619
0
LINE
8
BLACK
6
CONTINUOUS
10
141.191
20
-47.4619
11
141.278
21
-47.4157
0
LINE
8
BLACK
6
CONTINUOUS
10
141.278
20
-47.4157
11
141.354
21
-47.3536
0
LINE
8
BLACK
6
CONTINUOUS
10
141.354
20
-47.3536
11
141.416
21
-47.2778
0
LINE
8
BLACK
6
CONTINUOUS
10
141.416
20
-47.2778
11
141.462
21
-47.1913
0
LINE
8
BLACK
6
CONTINUOUS
10
141.462
20
-47.1913
11
141.49
21
-47.0975
0
LINE
8
BLACK
6
CONTINUOUS
10
141.49
20
-47.0975
11
141.5
21
-47
0
LINE
8
BLACK
6
CONTINUOUS
10
141.5
20
-47
11
141.5
21
-43
0
LINE
8
BLACK
6
CONTINUOUS
10
141.5
20
-43
11
141.49
21
-42.9025
0
LINE
8
BLACK
6
CONTINUOUS
10
141.49
20
-42.9025
11
141.462
21
-42.8087
0
LINE
8
BLACK
6
CONTINUOUS
10
141.462
20
-42.8087
11
141.416
21
-42.7222
0
LINE
8
BLACK
6
CONTINUOUS
10
141.416
20
-42.7222
11
141.354
21
-42.6464
0
LINE
8
BLACK
6
CONTINUOUS
10
141.354
20
-42.6464
11
141.278
21
-42.5843
0
LINE
8
BLACK
6
CONTINUOUS
10
141.278
20
-42.5843
11
141.191
21
-42.5381
0
LINE
8
BLACK
6
CONTINUOUS
10
141.191
20
-42.5381
11
141.098
21
-42.5096
0
LINE
8
BLACK
6
CONTINUOUS
10
141.098
20
-42.5096
11
141
21
-42.5
0
LINE
8
BLACK
6
CONTINUOUS
10
141
20
-42.5
11
140.902
21
-42.5096
0
LINE
8
BLACK
6
CONTINUOUS
10
140.902
20
-42.5096
11
140.809
21
-42.5381
0
LINE
8
BLACK
6
CONTINUOUS
10
140.809
20
-42.5381
11
140.722
21
-42.5843
0
LINE
8
BLACK
6
CONTINUOUS
10
140.722
20
-42.5843
11
140.646
21
-42.6464
0
LINE
8
BLACK
6
CONTINUOUS
10
140.646
20
-42.6464
11
140.584
21
-42.7222
0
LINE
8
BLACK
6
CONTINUOUS
10
140.584
20
-42.7222
11
140.538
21
-42.8087
0
LINE
8
BLACK
6
CONTINUOUS
10
140.538
20
-42.8087
11
140.51
21
-42.9025
0
LINE
8
BLACK
6
CONTINUOUS
10
140.51
20
-42.9025
11
140.5
21
-43
0
LINE
8
BLACK
6
CONTINUOUS
10
140.5
20
-43
11
140.5
21
-47
0
LINE
8
BLACK
6
CONTINUOUS
10
140.5
20
-37
11
140.51
21
-37.0975
0
LINE
8
BLACK
6
CONTINUOUS
10
140.51
20
-37.0975
11
140.538
21
-37.1913
0
LINE
8
BLACK
6
CONTINUOUS
10
140.538
20
-37.1913
11
140.584
21
-37.2778
0
LINE
8
BLACK
6
CONTINUOUS
10
140.584
20
-37.2778
11
140.646
21
-37.3536
0
LINE
8
BLACK
6
CONTINUOUS
10
140.646
20
-37.3536
11
140.722
21
-37.4157
0
LINE
8
BLACK
6
CONTINUOUS
10
140.722
20
-37.4157
11
140.809
21
-37.4619
0
LINE
8
BLACK
6
CONTINUOUS
10
140.809
20
-37.4619
11
140.902
21
-37.4904
0
LINE
8
BLACK
6
CONTINUOUS
10
140.902
20
-37.4904
11
141
21
-37.5
0
LINE
8
BLACK
6
CONTINUOUS
10
141
20
-37.5
11
141.098
21
-37.4904
0
LINE
8
BLACK
6
CONTINUOUS
10
141.098
20
-37.4904
11
141.191
21
-37.4619
0
LINE
8
BLACK
6
CONTINUOUS
10
141.191
20
-37.4619
11
141.278
21
-37.4157
0
LINE
8
BLACK
6
CONTINUOUS
10
141.278
20
-37.4157
11
141.354
21
-37.3536
0
LINE
8
BLACK
6
CONTINUOUS
10
141.354
20
-37.3536
11
141.416
21
-37.2778
0
LINE
8
BLACK
6
CONTINUOUS
10
141.416
20
-37.2778
11
141.462
21
-37.1913
0
LINE
8
BLACK
6
CONTINUOUS
10
141.462
20
-37.1913
11
141.49
21
-37.0975
0
LINE
8
BLACK
6
CONTINUOUS
10
141.49
20
-37.0975
11
141.5
21
-37
0
LINE
8
BLACK
6
CONTINUOUS
10
141.5
20
-37
11
141.5
21
-33
0
LINE
8
BLACK
6
CONTINUOUS
10
141.5
20
-33
11
141.49
21
-32.9025
0
LINE
8
BLACK
6
CONTINUOUS
10
141.49
20
-32.9025
11
141.462
21
-32.8087
0
LINE
8
BLACK
6
CONTINUOUS
10
141.462
20
-32.8087
11
141.416
21
-32.7222
0
LINE
8
BLACK
6
CONTINUOUS
10
141.416
20
-32.7222
11
141.354
21
-32.6464
0
LINE
8
BLACK
6
CONTINUOUS
10
141.354
20
-32.6464
11
141.278
21
-32.5843
0
LINE
8
BLACK
6
CONTINUOUS
10
141.278
20
-32.5843
11
141.191
21
-32.5381
0
LINE
8
BLACK
6
CONTINUOUS
10
141.191
20
-32.5381
11
141.098
21
-32.5096
0
LINE
8
BLACK
6
CONTINUOUS
10
141.098
20
-32.5096
11
141
21
-32.5
0
LINE
8
BLACK
6
CONTINUOUS
10
141
20
-32.5
11
140.902
21
-32.5096
0
LINE
8
BLACK
6
CONTINUOUS
10
140.902
20
-32.5096
11
140.809
21
-32.5381
0
LINE
8
BLACK
6
CONTINUOUS
10
140.809
20
-32.5381
11
140.722
21
-32.5843
0
LINE
8
BLACK
6
CONTINUOUS
10
140.722
20
-32.5843
11
140.646
21
-32.6464
0
LINE
8
BLACK
6
CONTINUOUS
10
140.646
20
-32.6464
11
140.584
21
-32.7222
0
LINE
8
BLACK
6
CONTINUOUS
10
140.584
20
-32.7222
11
140.538
21
-32.8087
0
LINE
8
BLACK
6
CONTINUOUS
10
140.538
20
-32.8087
11
140.51
21
-32.9025
0
LINE
8
BLACK
6
CONTINUOUS
10
140.51
20
-32.9025
11
140.5
21
-33
0
LINE
8
BLACK
6
CONTINUOUS
10
140.5
20
-33
11
140.5
21
-37
0
LINE
8
BLACK
6
CONTINUOUS
10
136
20
-47.5
11
136.098
21
-47.4904
0
LINE
8
BLACK
6
CONTINUOUS
10
136.098
20
-47.4904
11
136.191
21
-47.4619
0
LINE
8
BLACK
6
CONTINUOUS
10
136.191
20
-47.4619
11
136.278
21
-47.4157
0
LINE
8
BLACK
6
CONTINUOUS
10
136.278
20
-47.4157
11
136.354
21
-47.3536
0
LINE
8
BLACK
6
CONTINUOUS
10
136.354
20
-47.3536
11
136.416
21
-47.2778
0
LINE
8
BLACK
6
CONTINUOUS
10
136.416
20
-47.2778
11
136.462
21
-47.1913
0
LINE
8
BLACK
6
CONTINUOUS
10
136.462
20
-47.1913
11
136.49
21
-47.0975
0
LINE
8
BLACK
6
CONTINUOUS
10
136.49
20
-47.0975
11
136.5
21
-47
0
LINE
8
BLACK
6
CONTINUOUS
10
136.5
20
-47
11
136.49
21
-46.9025
0
LINE
8
BLACK
6
CONTINUOUS
10
136.49
20
-46.9025
11
136.462
21
-46.8087
0
LINE
8
BLACK
6
CONTINUOUS
10
136.462
20
-46.8087
11
136.416
21
-46.7222
0
LINE
8
BLACK
6
CONTINUOUS
10
136.416
20
-46.7222
11
136.354
21
-46.6464
0
LINE
8
BLACK
6
CONTINUOUS
10
136.354
20
-46.6464
11
136.278
21
-46.5843
0
LINE
8
BLACK
6
CONTINUOUS
10
136.278
20
-46.5843
11
136.191
21
-46.5381
0
LINE
8
BLACK
6
CONTINUOUS
10
136.191
20
-46.5381
11
136.098
21
-46.5096
0
LINE
8
BLACK
6
CONTINUOUS
10
136.098
20
-46.5096
11
136
21
-46.5
0
LINE
8
BLACK
6
CONTINUOUS
10
136
20
-46.5
11
132
21
-46.5
0
LINE
8
BLACK
6
CONTINUOUS
10
132
20
-46.5
11
131.902
21
-46.5096
0
LINE
8
BLACK
6
CONTINUOUS
10
131.902
20
-46.5096
11
131.809
21
-46.5381
0
LINE
8
BLACK
6
CONTINUOUS
10
131.809
20
-46.5381
11
131.722
21
-46.5843
0
LINE
8
BLACK
6
CONTINUOUS
10
131.722
20
-46.5843
11
131.646
21
-46.6464
0
LINE
8
BLACK
6
CONTINUOUS
10
131.646
20
-46.6464
11
131.584
21
-46.7222
0
LINE
8
BLACK
6
CONTINUOUS
10
131.584
20
-46.7222
11
131.538
21
-46.8087
0
LINE
8
BLACK
6
CONTINUOUS
10
131.538
20
-46.8087
11
131.51
21
-46.9025
0
LINE
8
BLACK
6
CONTINUOUS
10
131.51
20
-46.9025
11
131.5
21
-47
0
LINE
8
BLACK
6
CONTINUOUS
10
131.5
20
-47
11
131.51
21
-47.0975
0
LINE
8
BLACK
6
CONTINUOUS
10
131.51
20
-47.0975
11
131.538
21
-47.1913
0
LINE
8
BLACK
6
CONTINUOUS
10
131.538
20
-47.1913
11
131.584
21
-47.2778
0
LINE
8
BLACK
6
CONTINUOUS
10
131.584
20
-47.2778
11
131.646
21
-47.3536
0
LINE
8
BLACK
6
CONTINUOUS
10
131.646
20
-47.3536
11
131.722
21
-47.4157
0
LINE
8
BLACK
6
CONTINUOUS
10
131.722
20
-47.4157
11
131.809
21
-47.4619
0
LINE
8
BLACK
6
CONTINUOUS
10
131.809
20
-47.4619
11
131.902
21
-47.4904
0
LINE
8
BLACK
6
CONTINUOUS
10
131.902
20
-47.4904
11
132
21
-47.5
0
LINE
8
BLACK
6
CONTINUOUS
10
132
20
-47.5
11
136
21
-47.5
0
LINE
8
BLACK
6
CONTINUOUS
10
136
20
-33.5
11
136.098
21
-33.4904
0
LINE
8
BLACK
6
CONTINUOUS
10
136.098
20
-33.4904
11
136.191
21
-33.4619
0
LINE
8
BLACK
6
CONTINUOUS
10
136.191
20
-33.4619
11
136.278
21
-33.4157
0
LINE
8
BLACK
6
CONTINUOUS
10
136.278
20
-33.4157
11
136.354
21
-33.3536
0
LINE
8
BLACK
6
CONTINUOUS
10
136.354
20
-33.3536
11
136.416
21
-33.2778
0
LINE
8
BLACK
6
CONTINUOUS
10
136.416
20
-33.2778
11
136.462
21
-33.1913
0
LINE
8
BLACK
6
CONTINUOUS
10
136.462
20
-33.1913
11
136.49
21
-33.0975
0
LINE
8
BLACK
6
CONTINUOUS
10
136.49
20
-33.0975
11
136.5
21
-33
0
LINE
8
BLACK
6
CONTINUOUS
10
136.5
20
-33
11
136.49
21
-32.9025
0
LINE
8
BLACK
6
CONTINUOUS
10
136.49
20
-32.9025
11
136.462
21
-32.8087
0
LINE
8
BLACK
6
CONTINUOUS
10
136.462
20
-32.8087
11
136.416
21
-32.7222
0
LINE
8
BLACK
6
CONTINUOUS
10
136.416
20
-32.7222
11
136.354
21
-32.6464
0
LINE
8
BLACK
6
CONTINUOUS
10
136.354
20
-32.6464
11
136.278
21
-32.5843
0
LINE
8
BLACK
6
CONTINUOUS
10
136.278
20
-32.5843
11
136.191
21
-32.5381
0
LINE
8
BLACK
6
CONTINUOUS
10
136.191
20
-32.5381
11
136.098
21
-32.5096
0
LINE
8
BLACK
6
CONTINUOUS
10
136.098
20
-32.5096
11
136
21
-32.5
0
LINE
8
BLACK
6
CONTINUOUS
10
136
20
-32.5
11
132
21
-32.5
0
LINE
8
BLACK
6
CONTINUOUS
10
132
20
-32.5
11
131.902
21
-32.5096
0
LINE
8
BLACK
6
CONTINUOUS
10
131.902
20
-32.5096
11
131.809
21
-32.5381
0
LINE
8
BLACK
6
CONTINUOUS
10
131.809
20
-32.5381
11
131.722
21
-32.5843
0
LINE
8
BLACK
6
CONTINUOUS
10
131.722
20
-32.5843
11
131.646
21
-32.6464
0
LINE
8
BLACK
6
CONTINUOUS
10
131.646
20
-32.6464
11
131.584
21
-32.7222
0
LINE
8
BLACK
6
CONTINUOUS
10
131.584
20
-32.7222
11
131.538
21
-32.8087
0
LINE
8
BLACK
6
CONTINUOUS
10
131.538
20
-32.8087
11
131.51
21
-32.9025
0
LINE
8
BLACK
6
CONTINUOUS
10
131.51
20
-32.9025
11
131.5
21
-33
0
LINE
8
BLACK
6
CONTINUOUS
10
131.5
20
-33
11
131.51
21
-33.0975
0
LINE
8
BLACK
6
CONTINUOUS
10
131.51
20
-33.0975
11
131.538
21
-33.1913
0
LINE
8
BLACK
6
CONTINUOUS
10
131.538
20
-33.1913
11
131.584
21
-33.2778
0
LINE
8
BLACK
6
CONTINUOUS
10
131.584
20
-33.2778
11
131.646
21
-33.3536
0
LINE
8
BLACK
6
CONTINUOUS
10
131.646
20
-33.3536
11
131.722
21
-33.4157
0
LINE
8
BLACK
6
CONTINUOUS
10
131.722
20
-33.4157
11
131.809
21
-33.4619
0
LINE
8
BLACK
6
CONTINUOUS
10
131.809
20
-33.4619
11
131.902
21
-33.4904
0
LINE
8
BLACK
6
CONTINUOUS
10
131.902
20
-33.4904
11
132
21
-33.5
0
LINE
8
BLACK
6
CONTINUOUS
10
132
20
-33.5
11
136
21
-33.5
0
CIRCLE
8
BLACK
10
159.5
20
-74.82
40
0.6
0
CIRCLE
8
BLACK
10
159.5
20
-54.5
40
0.6
0
CIRCLE
8
BLACK
10
159.5
20
-30
40
0.6
0
CIRCLE
8
BLACK
10
159.5
20
-50.32
40
0.6
  0
ENDSEC
  0
EOF
