  0
SECTION
  2
HEADER
  9
$ACADVER
  1
AC1014
  9
$HANDSEED
  5
FFFF
  9
$MEASUREMENT
 70
     1
  0
ENDSEC
  0
SECTION
  2
TABLES
  0
TABLE
  2
VPORT
  5
8
330
0
100
AcDbSymbolTable
 70
     4
  0
VPORT
  5
2E
330
8
100
AcDbSymbolTableRecord
100
AcDbViewportTableRecord
  2
*ACTIVE
 70
     0
 10
0.0
 20
0.0
 11
1.0
 21
1.0
 12
210.0
 22
148.5
 13
0.0
 23
0.0
 14
10.0
 24
10.0
 15
10.0
 25
10.0
 16
0.0
 26
0.0
 36
1.0
 17
0.0
 27
0.0
 37
0.0
 40
341.0
 41
1.24
 42
50.0
 43
0.0
 44
0.0
 50
0.0
 51
0.0
 71
     0
 72
   100
 73
     1
 74
     3
 75
     0
 76
     0
 77
     0
 78
     0
  0
ENDTAB
  0
TABLE
  2
LTYPE
  5
5
330
0
100
AcDbSymbolTable
 70
     1
  0
LTYPE
  5
14
330
5
100
AcDbSymbolTableRecord
100
AcDbLinetypeTableRecord
  2
BYBLOCK
 70
     0
  3

 72
    65
 73
     0
 40
0.0
  0
LTYPE
  5
15
330
5
100
AcDbSymbolTableRecord
100
AcDbLinetypeTableRecord
  2
BYLAYER
 70
     0
  3

 72
    65
 73
     0
 40
0.0
  0
LTYPE
  5
16
330
5
100
AcDbSymbolTableRecord
100
AcDbLinetypeTableRecord
  2
CONTINUOUS
 70
     0
  3
Solid line
 72
    65
 73
     0
 40
0.0
  0
ENDTAB
  0
TABLE
  2
LAYER
  5
2
100
AcDbSymbolTable
 70
2
  0
LAYER
  5
50
100
AcDbSymbolTableRecord
100
AcDbLayerTableRecord
  2
0
 70
0
  6
CONTINUOUS
  0
LAYER
  5
51
100
AcDbSymbolTableRecord
100
AcDbLayerTableRecord
  2
test
 70
0
  6
CONTINUOUS
  0
ENDTAB
  0
TABLE
  2
STYLE
  5
3
330
0
100
AcDbSymbolTable
 70
     1
  0
STYLE
  5
11
330
3
100
AcDbSymbolTableRecord
100
AcDbTextStyleTableRecord
  2
STANDARD
 70
     0
 40
0.0
 41
1.0
 50
0.0
 71
     0
 42
2.5
  3
txt
  4

  0
ENDTAB
  0
TABLE
  2
VIEW
  5
6
330
0
100
AcDbSymbolTable
 70
     0
  0
ENDTAB
  0
TABLE
  2
UCS
  5
7
330
0
100
AcDbSymbolTable
 70
     0
  0
ENDTAB
  0
TABLE
  2
APPID
  5
9
330
0
100
AcDbSymbolTable
 70
     2
  0
APPID
  5
12
330
9
100
AcDbSymbolTableRecord
100
AcDbRegAppTableRecord
  2
ACAD
 70
     0
  0
ENDTAB
  0
TABLE
  2
DIMSTYLE
  5
A
330
0
100
AcDbSymbolTable
 70
     1
  0
DIMSTYLE
105
27
330
A
100
AcDbSymbolTableRecord
100
AcDbDimStyleTableRecord
  2
ISO-25
 70
     0
  3

  4

  5

  6

  7

 40
1.0
 41
2.5
 42
0.625
 43
3.75
 44
1.25
 45
0.0
 46
0.0
 47
0.0
 48
0.0
140
2.5
141
2.5
142
0.0
143
0.03937007874016
144
1.0
145
0.0
146
1.0
147
0.625
 71
     0
 72
     0
 73
     0
 74
     0
 75
     0
 76
     0
 77
     1
 78
     8
170
     0
171
     3
172
     1
173
     0
174
     0
175
     0
176
     0
177
     0
178
     0
270
     2
271
     2
272
     2
273
     2
274
     3
340
11
275
     0
280
     0
281
     0
282
     0
283
     0
284
     8
285
     0
286
     0
287
     3
288
     0
  0
ENDTAB
  0
TABLE
  2
BLOCK_RECORD
  5
1
330
0
100
AcDbSymbolTable
 70
     1
  0
BLOCK_RECORD
  5
1F
330
1
100
AcDbSymbolTableRecord
100
AcDbBlockTableRecord
  2
*MODEL_SPACE
  0
BLOCK_RECORD
  5
1B
330
1
100
AcDbSymbolTableRecord
100
AcDbBlockTableRecord
  2
*PAPER_SPACE
  0
ENDTAB
  0
ENDSEC
  0
SECTION
  2
BLOCKS
  0
BLOCK
  5
20
330
1F
100
AcDbEntity
  8
0
100
AcDbBlockBegin
  2
*MODEL_SPACE
 70
     0
 10
0.0
 20
0.0
 30
0.0
  3
*MODEL_SPACE
  1

  0
ENDBLK
  5
21
330
1F
100
AcDbEntity
  8
0
100
AcDbBlockEnd
  0
BLOCK
  5
1C
330
1B
100
AcDbEntity
 67
     1
  8
0
100
AcDbBlockBegin
  2
*PAPER_SPACE
  1

  0
ENDBLK
  5
1D
330
1B
100
AcDbEntity
 67
     1
  8
0
100
AcDbBlockEnd
  0
ENDSEC
  0
SECTION
  2
ENTITIES
  0
LWPOLYLINE
  5
100
100
AcDbEntity
  8
test
 62
7
100
AcDbPolyline
 90
17
 70
0
 10
73.914063
 20
4.826089
 30
0.0
 10
70.442732
 20
3.683089
 30
0.0
 10
66.929066
 20
2.667089
 30
0.0
 10
63.373066
 20
1.820422
 30
0.0
 10
59.774730
 20
1.143089
 30
0.0
 10
56.134060
 20
0.635089
 30
0.0
 10
52.493396
 20
0.296422
 30
0.0
 10
48.852730
 20
0.084755
 30
0.0
 10
45.212060
 20
0.084755
 30
0.0
 10
41.529060
 20
0.254089
 30
0.0
 10
37.888396
 20
0.592755
 30
0.0
 10
34.290060
 20
1.100755
 30
0.0
 10
30.691730
 20
1.778115
 30
0.0
 10
27.135730
 20
2.582422
 30
0.0
 10
23.622063
 20
3.598449
 30
0.0
 10
20.150730
 20
4.741422
 30
0.0
 10
19.896730
 20
4.826089
 30
0.0
  0
LWPOLYLINE
  5
101
100
AcDbEntity
  8
test
 62
7
100
AcDbPolyline
 90
16
 70
0
 10
71.162399
 20
12.361449
 30
0.0
 10
67.860396
 20
11.260755
 30
0.0
 10
64.558394
 20
10.329422
 30
0.0
 10
61.171730
 20
9.525089
 30
0.0
 10
57.742732
 20
8.932422
 30
0.0
 10
54.313730
 20
8.466755
 30
0.0
 10
50.842399
 20
8.170422
 30
0.0
 10
47.413396
 20
8.085755
 30
0.0
 10
43.942063
 20
8.128115
 30
0.0
 10
40.470727
 20
8.382089
 30
0.0
 10
37.041730
 20
8.763089
 30
0.0
 10
33.612730
 20
9.313422
 30
0.0
 10
30.226060
 20
10.075422
 30
0.0
 10
26.881727
 20
10.964422
 30
0.0
 10
23.579730
 20
12.022755
 30
0.0
 10
22.606063
 20
12.361449
 30
0.0
  0
LWPOLYLINE
  5
102
100
AcDbEntity
  8
test
 62
7
100
AcDbPolyline
 90
17
 70
0
 10
19.896730
 20
4.826089
 30
0.0
 10
19.134730
 20
5.207089
 30
0.0
 10
18.499730
 20
5.715115
 30
0.0
 10
17.949396
 20
6.307755
 30
0.0
 10
17.568396
 20
7.027422
 30
0.0
 10
17.314396
 20
7.831782
 30
0.0
 10
17.272063
 20
8.636089
 30
0.0
 10
17.356730
 20
9.482755
 30
0.0
 10
17.610730
 20
10.244782
 30
0.0
 10
18.034063
 20
10.964422
 30
0.0
 10
18.584396
 20
11.557089
 30
0.0
 10
19.261730
 20
12.065115
 30
0.0
 10
19.981396
 20
12.403755
 30
0.0
 10
20.785730
 20
12.573089
 30
0.0
 10
21.632396
 20
12.573089
 30
0.0
 10
22.436732
 20
12.446089
 30
0.0
 10
22.606063
 20
12.361449
 30
0.0
  0
LWPOLYLINE
  5
103
100
AcDbEntity
  8
test
 62
7
100
AcDbPolyline
 90
17
 70
0
 10
71.162399
 20
12.361449
 30
0.0
 10
71.966727
 20
12.573089
 30
0.0
 10
72.771063
 20
12.573089
 30
0.0
 10
73.575396
 20
12.446089
 30
0.0
 10
74.337399
 20
12.149755
 30
0.0
 10
75.057066
 20
11.726422
 30
0.0
 10
75.649730
 20
11.133755
 30
0.0
 10
76.073066
 20
10.456422
 30
0.0
 10
76.369396
 20
9.694422
 30
0.0
 10
76.538727
 20
8.847755
 30
0.0
 10
76.496399
 20
8.043422
 30
0.0
 10
76.284730
 20
7.239062
 30
0.0
 10
75.946063
 20
6.519422
 30
0.0
 10
75.438066
 20
5.842089
 30
0.0
 10
74.803060
 20
5.334089
 30
0.0
 10
74.083394
 20
4.910755
 30
0.0
 10
73.914063
 20
4.826089
 30
0.0
  0
ENDSEC
  0
SECTION
  2
OBJECTS
  0
DICTIONARY
  5
C
330
0
100
AcDbDictionary
  3
ACAD_GROUP
350
D
  3
ACAD_MLINESTYLE
350
17
  0
DICTIONARY
  5
D
330
C
100
AcDbDictionary
  0
DICTIONARY
  5
1A
330
C
100
AcDbDictionary
  0
DICTIONARY
  5
17
330
C
100
AcDbDictionary
  3
STANDARD
350
18
  0
DICTIONARY
  5
19
330
C
100
AcDbDictionary
  0
ENDSEC
  0
EOF
