  0
SECTION
  2
HEADER
  9
$ANGBASE
  50
0.0
  9
$ANGDIR
  70
  1
  9
$MEASUREMENT
  70
0
  0
ENDSEC
  0
SECTION
  2
TABLES
  0
TABLE
  2
LTYPE
  70
4
  0
LTYPE
  5
40F
  2
CONTINUOUS
  70
0
  3
Solid line
  72
65
  73
0
  40
0.0
  0
LTYPE
  5
410
  2
DASHDOT
 70
0
  3
Dash Dot ____ _ ____ _
 72
65
 73
4
 40
2.0
 49
1.25
 49
-0.25
 49
0.25
 49
-0.25
  0
LTYPE
  5
411
  2
DASHED
 70
0
  3
Dashed __ __ __ __ __
 72
65
 73
2
 40
0.75
 49
0.5
 49
-0.25
  0
LTYPE
  5
43B
  2
DOTTED
 70
0
  3
Dotted .  .  .  .
 72
65
 73
2
 40
0.2
 49
0.0
 49
-0.2
  0
ENDTAB
  0
TABLE
  2
STYLE
  70
4
  0
STYLE
  2
KICAD
  70
0
  40
0
  41
1
  42
1
  50
0
  71
0
  3
isocp.shx
  0
STYLE
  2
KICADB
  70
0
  40
0
  41
1
  42
1
  50
0
  71
0
  3
isocp.shx
  0
STYLE
  2
KICADI
  70
0
  40
0
  41
1
  42
1
  50
15
  71
0
  3
isocp.shx
  0
STYLE
  2
KICADBI
  70
0
  40
0
  41
1
  42
1
  50
15
  71
0
  3
isocp.shx
  0
ENDTAB
  0
TABLE
  2
LAYER
  70
30
  0
LAYER
  2
BLACK
  70
0
  62
7
  6
CONTINUOUS
  0
LAYER
  2
GRAY1
  70
0
  62
251
  6
CONTINUOUS
  0
LAYER
  2
GRAY2
  70
0
  62
8
  6
CONTINUOUS
  0
LAYER
  2
GRAY3
  70
0
  62
9
  6
CONTINUOUS
  0
LAYER
  2
WHITE
  70
0
  62
7
  6
CONTINUOUS
  0
LAYER
  2
LYELLOW
  70
0
  62
51
  6
CONTINUOUS
  0
LAYER
  2
BLUE1
  70
0
  62
178
  6
CONTINUOUS
  0
LAYER
  2
GREEN1
  70
0
  62
98
  6
CONTINUOUS
  0
LAYER
  2
CYAN1
  70
0
  62
138
  6
CONTINUOUS
  0
LAYER
  2
RED1
  70
0
  62
18
  6
CONTINUOUS
  0
LAYER
  2
MAGENTA1
  70
0
  62
228
  6
CONTINUOUS
  0
LAYER
  2
BROWN1
  70
0
  62
58
  6
CONTINUOUS
  0
LAYER
  2
BLUE2
  70
0
  62
5
  6
CONTINUOUS
  0
LAYER
  2
GREEN2
  70
0
  62
3
  6
CONTINUOUS
  0
LAYER
  2
CYAN2
  70
0
  62
4
  6
CONTINUOUS
  0
LAYER
  2
RED2
  70
0
  62
1
  6
CONTINUOUS
  0
LAYER
  2
MAGENTA2
  70
0
  62
6
  6
CONTINUOUS
  0
LAYER
  2
BROWN2
  70
0
  62
54
  6
CONTINUOUS
  0
LAYER
  2
BLUE3
  70
0
  62
171
  6
CONTINUOUS
  0
LAYER
  2
GREEN3
  70
0
  62
91
  6
CONTINUOUS
  0
LAYER
  2
CYAN3
  70
0
  62
131
  6
CONTINUOUS
  0
LAYER
  2
RED3
  70
0
  62
11
  6
CONTINUOUS
  0
LAYER
  2
MAGENTA3
  70
0
  62
221
  6
CONTINUOUS
  0
LAYER
  2
YELLOW3
  70
0
  62
2
  6
CONTINUOUS
  0
LAYER
  2
BLUE4
  70
0
  62
5
  6
CONTINUOUS
  0
LAYER
  2
GREEN4
  70
0
  62
3
  6
CONTINUOUS
  0
LAYER
  2
CYAN4
  70
0
  62
4
  6
CONTINUOUS
  0
LAYER
  2
RED4
  70
0
  62
1
  6
CONTINUOUS
  0
LAYER
  2
MAGENTA4
  70
0
  62
6
  6
CONTINUOUS
  0
LAYER
  2
YELLOW4
  70
0
  62
2
  6
CONTINUOUS
  0
ENDTAB
  0
ENDSEC
  0
SECTION
  2
ENTITIES
0
LINE
8
BLACK
6
CONTINUOUS
10
156.007
20
-66.425
11
156.013
21
-66.425
0
LINE
8
BLACK
6
CONTINUOUS
10
156.013
20
-66.425
11
156.019
21
-66.4273
0
LINE
8
BLACK
6
CONTINUOUS
10
156.019
20
-66.4273
11
156.026
21
-66.4284
0
LINE
8
BLACK
6
CONTINUOUS
10
156.026
20
-66.4284
11
156.032
21
-66.4318
0
LINE
8
BLACK
6
CONTINUOUS
10
156.032
20
-66.4318
11
156.038
21
-66.434
0
LINE
8
BLACK
6
CONTINUOUS
10
156.038
20
-66.434
11
156.043
21
-66.4383
0
LINE
8
BLACK
6
CONTINUOUS
10
156.043
20
-66.4383
11
156.049
21
-66.4417
0
LINE
8
BLACK
6
CONTINUOUS
10
156.049
20
-66.4417
11
156.053
21
-66.4468
0
LINE
8
BLACK
6
CONTINUOUS
10
156.053
20
-66.4468
11
156.058
21
-66.451
0
LINE
8
BLACK
6
CONTINUOUS
10
156.058
20
-66.451
11
156.062
21
-66.4568
0
LINE
8
BLACK
6
CONTINUOUS
10
156.062
20
-66.4568
11
156.066
21
-66.4619
0
LINE
8
BLACK
6
CONTINUOUS
10
156.066
20
-66.4619
11
156.068
21
-66.4682
0
LINE
8
BLACK
6
CONTINUOUS
10
156.068
20
-66.4682
11
156.072
21
-66.474
0
LINE
8
BLACK
6
CONTINUOUS
10
156.072
20
-66.474
11
156.073
21
-66.4805
0
LINE
8
BLACK
6
CONTINUOUS
10
156.073
20
-66.4805
11
156.075
21
-66.4868
0
LINE
8
BLACK
6
CONTINUOUS
10
156.075
20
-66.4868
11
156.075
21
-66.4934
0
LINE
8
BLACK
6
CONTINUOUS
10
156.075
20
-66.4934
11
156.075
21
-66.4934
0
LINE
8
BLACK
6
CONTINUOUS
10
156.075
20
-66.4934
11
156.075
21
-102.507
0
LINE
8
BLACK
6
CONTINUOUS
10
156.075
20
-102.507
11
156.075
21
-102.507
0
LINE
8
BLACK
6
CONTINUOUS
10
156.075
20
-102.507
11
156.075
21
-102.513
0
LINE
8
BLACK
6
CONTINUOUS
10
156.075
20
-102.513
11
156.073
21
-102.519
0
LINE
8
BLACK
6
CONTINUOUS
10
156.073
20
-102.519
11
156.072
21
-102.526
0
LINE
8
BLACK
6
CONTINUOUS
10
156.072
20
-102.526
11
156.068
21
-102.532
0
LINE
8
BLACK
6
CONTINUOUS
10
156.068
20
-102.532
11
156.066
21
-102.538
0
LINE
8
BLACK
6
CONTINUOUS
10
156.066
20
-102.538
11
156.062
21
-102.543
0
LINE
8
BLACK
6
CONTINUOUS
10
156.062
20
-102.543
11
156.058
21
-102.549
0
LINE
8
BLACK
6
CONTINUOUS
10
156.058
20
-102.549
11
156.053
21
-102.553
0
LINE
8
BLACK
6
CONTINUOUS
10
156.053
20
-102.553
11
156.049
21
-102.558
0
LINE
8
BLACK
6
CONTINUOUS
10
156.049
20
-102.558
11
156.043
21
-102.562
0
LINE
8
BLACK
6
CONTINUOUS
10
156.043
20
-102.562
11
156.038
21
-102.566
0
LINE
8
BLACK
6
CONTINUOUS
10
156.038
20
-102.566
11
156.032
21
-102.568
0
LINE
8
BLACK
6
CONTINUOUS
10
156.032
20
-102.568
11
156.026
21
-102.572
0
LINE
8
BLACK
6
CONTINUOUS
10
156.026
20
-102.572
11
156.019
21
-102.573
0
LINE
8
BLACK
6
CONTINUOUS
10
156.019
20
-102.573
11
156.013
21
-102.575
0
LINE
8
BLACK
6
CONTINUOUS
10
156.013
20
-102.575
11
156.007
21
-102.575
0
LINE
8
BLACK
6
CONTINUOUS
10
156.007
20
-102.575
11
156.007
21
-102.575
0
LINE
8
BLACK
6
CONTINUOUS
10
156.007
20
-102.575
11
91.4934
21
-102.575
0
LINE
8
BLACK
6
CONTINUOUS
10
91.4934
20
-102.575
11
91.4934
21
-102.575
0
LINE
8
BLACK
6
CONTINUOUS
10
91.4934
20
-102.575
11
91.4868
21
-102.575
0
LINE
8
BLACK
6
CONTINUOUS
10
91.4868
20
-102.575
11
91.4805
21
-102.573
0
LINE
8
BLACK
6
CONTINUOUS
10
91.4805
20
-102.573
11
91.474
21
-102.572
0
LINE
8
BLACK
6
CONTINUOUS
10
91.474
20
-102.572
11
91.4682
21
-102.568
0
LINE
8
BLACK
6
CONTINUOUS
10
91.4682
20
-102.568
11
91.4619
21
-102.566
0
LINE
8
BLACK
6
CONTINUOUS
10
91.4619
20
-102.566
11
91.4568
21
-102.562
0
LINE
8
BLACK
6
CONTINUOUS
10
91.4568
20
-102.562
11
91.451
21
-102.558
0
LINE
8
BLACK
6
CONTINUOUS
10
91.451
20
-102.558
11
91.4468
21
-102.553
0
LINE
8
BLACK
6
CONTINUOUS
10
91.4468
20
-102.553
11
91.4417
21
-102.549
0
LINE
8
BLACK
6
CONTINUOUS
10
91.4417
20
-102.549
11
91.4383
21
-102.543
0
LINE
8
BLACK
6
CONTINUOUS
10
91.4383
20
-102.543
11
91.434
21
-102.538
0
LINE
8
BLACK
6
CONTINUOUS
10
91.434
20
-102.538
11
91.4318
21
-102.532
0
LINE
8
BLACK
6
CONTINUOUS
10
91.4318
20
-102.532
11
91.4284
21
-102.526
0
LINE
8
BLACK
6
CONTINUOUS
10
91.4284
20
-102.526
11
91.4273
21
-102.519
0
LINE
8
BLACK
6
CONTINUOUS
10
91.4273
20
-102.519
11
91.425
21
-102.513
0
LINE
8
BLACK
6
CONTINUOUS
10
91.425
20
-102.513
11
91.425
21
-102.487
0
LINE
8
BLACK
6
CONTINUOUS
10
91.425
20
-102.487
11
91.425
21
-66.4934
0
LINE
8
BLACK
6
CONTINUOUS
10
91.425
20
-66.4934
11
91.425
21
-66.4934
0
LINE
8
BLACK
6
CONTINUOUS
10
91.425
20
-66.4934
11
91.425
21
-66.4868
0
LINE
8
BLACK
6
CONTINUOUS
10
91.425
20
-66.4868
11
91.4273
21
-66.4805
0
LINE
8
BLACK
6
CONTINUOUS
10
91.4273
20
-66.4805
11
91.4284
21
-66.474
0
LINE
8
BLACK
6
CONTINUOUS
10
91.4284
20
-66.474
11
91.4318
21
-66.4682
0
LINE
8
BLACK
6
CONTINUOUS
10
91.4318
20
-66.4682
11
91.434
21
-66.4619
0
LINE
8
BLACK
6
CONTINUOUS
10
91.434
20
-66.4619
11
91.4383
21
-66.4568
0
LINE
8
BLACK
6
CONTINUOUS
10
91.4383
20
-66.4568
11
91.4417
21
-66.451
0
LINE
8
BLACK
6
CONTINUOUS
10
91.4417
20
-66.451
11
91.4468
21
-66.4468
0
LINE
8
BLACK
6
CONTINUOUS
10
91.4468
20
-66.4468
11
91.451
21
-66.4417
0
LINE
8
BLACK
6
CONTINUOUS
10
91.451
20
-66.4417
11
91.4568
21
-66.4383
0
LINE
8
BLACK
6
CONTINUOUS
10
91.4568
20
-66.4383
11
91.4619
21
-66.434
0
LINE
8
BLACK
6
CONTINUOUS
10
91.4619
20
-66.434
11
91.4682
21
-66.4318
0
LINE
8
BLACK
6
CONTINUOUS
10
91.4682
20
-66.4318
11
91.474
21
-66.4284
0
LINE
8
BLACK
6
CONTINUOUS
10
91.474
20
-66.4284
11
91.4805
21
-66.4273
0
LINE
8
BLACK
6
CONTINUOUS
10
91.4805
20
-66.4273
11
91.4868
21
-66.425
0
LINE
8
BLACK
6
CONTINUOUS
10
91.4868
20
-66.425
11
91.4934
21
-66.425
0
LINE
8
BLACK
6
CONTINUOUS
10
91.4934
20
-66.425
11
91.4934
21
-66.425
0
LINE
8
BLACK
6
CONTINUOUS
10
91.4934
20
-66.425
11
156.007
21
-66.425
0
LINE
8
BLACK
6
CONTINUOUS
10
156.007
20
-66.425
11
156.007
21
-66.425
0
LINE
8
BLACK
6
CONTINUOUS
10
91.575
20
-66.575
11
91.575
21
-102.425
0
LINE
8
BLACK
6
CONTINUOUS
10
91.575
20
-102.425
11
155.925
21
-102.425
0
LINE
8
BLACK
6
CONTINUOUS
10
155.925
20
-102.425
11
155.925
21
-66.575
0
LINE
8
BLACK
6
CONTINUOUS
10
155.925
20
-66.575
11
91.575
21
-66.575
0
CIRCLE
8
BLACK
10
140.5
20
-90.5
40
0.175
0
CIRCLE
8
BLACK
10
134.5
20
-90.5
40
0.175
0
CIRCLE
8
BLACK
10
140.5
20
-96.5
40
0.175
0
CIRCLE
8
BLACK
10
134.5
20
-96.5
40
0.175
0
CIRCLE
8
BLACK
10
100.5
20
-71.5
40
0.175
0
CIRCLE
8
BLACK
10
106.5
20
-71.5
40
0.175
0
CIRCLE
8
BLACK
10
100.5
20
-77.5
40
0.175
0
CIRCLE
8
BLACK
10
106.5
20
-77.5
40
0.175
0
CIRCLE
8
BLACK
10
95
20
-80.66
40
0.175
0
CIRCLE
8
BLACK
10
95
20
-70.5
40
0.175
0
CIRCLE
8
BLACK
10
127.5
20
-98
40
0.175
0
CIRCLE
8
BLACK
10
127.5
20
-94.5
40
0.175
0
CIRCLE
8
BLACK
10
119
20
-99
40
0.175
0
CIRCLE
8
BLACK
10
108
20
-84
40
0.175
0
CIRCLE
8
BLACK
10
108
20
-99
40
0.175
0
CIRCLE
8
BLACK
10
119
20
-84
40
0.175
0
CIRCLE
8
BLACK
10
115
20
-76.5
40
0.175
0
CIRCLE
8
BLACK
10
115
20
-73
40
0.175
0
CIRCLE
8
BLACK
10
95
20
-88.5
40
0.175
0
CIRCLE
8
BLACK
10
95
20
-98.5
40
0.175
0
CIRCLE
8
BLACK
10
147
20
-70
40
0.175
0
CIRCLE
8
BLACK
10
147.5
20
-98.5
40
0.175
0
CIRCLE
8
BLACK
10
127
20
-77.5
40
0.175
0
CIRCLE
8
BLACK
10
132
20
-77.5
40
0.175
0
CIRCLE
8
BLACK
10
141.5
20
-70
40
0.175
0
CIRCLE
8
BLACK
10
152.5
20
-70
40
0.175
0
CIRCLE
8
BLACK
10
152.5
20
-75.5
40
0.175
0
CIRCLE
8
BLACK
10
153
20
-98.5
40
0.175
0
CIRCLE
8
BLACK
10
153
20
-93
40
0.175
0
CIRCLE
8
BLACK
10
153
20
-87.5
40
0.175
0
LINE
8
BLACK
6
CONTINUOUS
10
135.695
20
-94.5916
11
136.305
21
-94.9443
0
LINE
8
BLACK
6
CONTINUOUS
10
136.305
20
-94.9443
11
136.759
21
-95.4846
0
LINE
8
BLACK
6
CONTINUOUS
10
136.759
20
-95.4846
11
137
21
-96.1473
0
LINE
8
BLACK
6
CONTINUOUS
10
137
20
-96.1473
11
137
21
-96.8527
0
LINE
8
BLACK
6
CONTINUOUS
10
137
20
-96.8527
11
136.759
21
-97.5154
0
LINE
8
BLACK
6
CONTINUOUS
10
136.759
20
-97.5154
11
136.305
21
-98.0557
0
LINE
8
BLACK
6
CONTINUOUS
10
136.305
20
-98.0557
11
136
21
-98.2321
0
LINE
8
BLACK
6
CONTINUOUS
10
136
20
-98.2321
11
136
21
-98.9345
0
LINE
8
BLACK
6
CONTINUOUS
10
136
20
-98.9345
11
136.017
21
-99.1328
0
LINE
8
BLACK
6
CONTINUOUS
10
136.017
20
-99.1328
11
135.966
21
-99.325
0
LINE
8
BLACK
6
CONTINUOUS
10
135.966
20
-99.325
11
135.931
21
-99.5209
0
LINE
8
BLACK
6
CONTINUOUS
10
135.931
20
-99.5209
11
135.898
21
-99.579
0
LINE
8
BLACK
6
CONTINUOUS
10
135.898
20
-99.579
11
135.88
21
-99.6437
0
LINE
8
BLACK
6
CONTINUOUS
10
135.88
20
-99.6437
11
135.766
21
-99.8067
0
LINE
8
BLACK
6
CONTINUOUS
10
135.766
20
-99.8067
11
135.667
21
-99.9791
0
LINE
8
BLACK
6
CONTINUOUS
10
135.667
20
-99.9791
11
135.514
21
-100.107
0
LINE
8
BLACK
6
CONTINUOUS
10
135.514
20
-100.107
11
134.607
21
-101.014
0
LINE
8
BLACK
6
CONTINUOUS
10
134.607
20
-101.014
11
134.479
21
-101.167
0
LINE
8
BLACK
6
CONTINUOUS
10
134.479
20
-101.167
11
134.307
21
-101.266
0
LINE
8
BLACK
6
CONTINUOUS
10
134.307
20
-101.266
11
134.144
21
-101.38
0
LINE
8
BLACK
6
CONTINUOUS
10
134.144
20
-101.38
11
134.079
21
-101.398
0
LINE
8
BLACK
6
CONTINUOUS
10
134.079
20
-101.398
11
134.021
21
-101.431
0
LINE
8
BLACK
6
CONTINUOUS
10
134.021
20
-101.431
11
133.825
21
-101.466
0
LINE
8
BLACK
6
CONTINUOUS
10
133.825
20
-101.466
11
133.633
21
-101.517
0
LINE
8
BLACK
6
CONTINUOUS
10
133.633
20
-101.517
11
133.435
21
-101.5
0
LINE
8
BLACK
6
CONTINUOUS
10
133.435
20
-101.5
11
128.565
21
-101.5
0
LINE
8
BLACK
6
CONTINUOUS
10
128.565
20
-101.5
11
128.367
21
-101.517
0
LINE
8
BLACK
6
CONTINUOUS
10
128.367
20
-101.517
11
128.175
21
-101.466
0
LINE
8
BLACK
6
CONTINUOUS
10
128.175
20
-101.466
11
127.979
21
-101.431
0
LINE
8
BLACK
6
CONTINUOUS
10
127.979
20
-101.431
11
127.921
21
-101.398
0
LINE
8
BLACK
6
CONTINUOUS
10
127.921
20
-101.398
11
127.856
21
-101.38
0
LINE
8
BLACK
6
CONTINUOUS
10
127.856
20
-101.38
11
127.693
21
-101.266
0
LINE
8
BLACK
6
CONTINUOUS
10
127.693
20
-101.266
11
127.521
21
-101.167
0
LINE
8
BLACK
6
CONTINUOUS
10
127.521
20
-101.167
11
127.393
21
-101.014
0
LINE
8
BLACK
6
CONTINUOUS
10
127.393
20
-101.014
11
126.842
21
-100.463
0
LINE
8
BLACK
6
CONTINUOUS
10
126.842
20
-100.463
11
126.825
21
-100.466
0
LINE
8
BLACK
6
CONTINUOUS
10
126.825
20
-100.466
11
126.633
21
-100.517
0
LINE
8
BLACK
6
CONTINUOUS
10
126.633
20
-100.517
11
126.435
21
-100.5
0
LINE
8
BLACK
6
CONTINUOUS
10
126.435
20
-100.5
11
121.309
21
-100.5
0
LINE
8
BLACK
6
CONTINUOUS
10
121.309
20
-100.5
11
120.945
21
-101.132
0
LINE
8
BLACK
6
CONTINUOUS
10
120.945
20
-101.132
11
120.269
21
-101.698
0
LINE
8
BLACK
6
CONTINUOUS
10
120.269
20
-101.698
11
119.441
21
-102
0
LINE
8
BLACK
6
CONTINUOUS
10
119.441
20
-102
11
118.559
21
-102
0
LINE
8
BLACK
6
CONTINUOUS
10
118.559
20
-102
11
117.731
21
-101.698
0
LINE
8
BLACK
6
CONTINUOUS
10
117.731
20
-101.698
11
117.055
21
-101.132
0
LINE
8
BLACK
6
CONTINUOUS
10
117.055
20
-101.132
11
116.615
21
-100.368
0
LINE
8
BLACK
6
CONTINUOUS
10
116.615
20
-100.368
11
116.5
21
-99.7187
0
LINE
8
BLACK
6
CONTINUOUS
10
116.5
20
-99.7187
11
116.5
21
-98.2813
0
LINE
8
BLACK
6
CONTINUOUS
10
116.5
20
-98.2813
11
116.615
21
-97.6318
0
LINE
8
BLACK
6
CONTINUOUS
10
116.615
20
-97.6318
11
117.055
21
-96.8682
0
LINE
8
BLACK
6
CONTINUOUS
10
117.055
20
-96.8682
11
117.731
21
-96.3015
0
LINE
8
BLACK
6
CONTINUOUS
10
117.731
20
-96.3015
11
118.559
21
-96
0
LINE
8
BLACK
6
CONTINUOUS
10
118.559
20
-96
11
119.441
21
-96
0
LINE
8
BLACK
6
CONTINUOUS
10
119.441
20
-96
11
120.269
21
-96.3015
0
LINE
8
BLACK
6
CONTINUOUS
10
120.269
20
-96.3015
11
120.945
21
-96.8682
0
LINE
8
BLACK
6
CONTINUOUS
10
120.945
20
-96.8682
11
121.309
21
-97.5
0
LINE
8
BLACK
6
CONTINUOUS
10
121.309
20
-97.5
11
125.879
21
-97.5
0
LINE
8
BLACK
6
CONTINUOUS
10
125.879
20
-97.5
11
126.3
21
-97.079
0
LINE
8
BLACK
6
CONTINUOUS
10
126.3
20
-97.079
11
126.333
21
-97.0209
0
LINE
8
BLACK
6
CONTINUOUS
10
126.333
20
-97.0209
11
126.486
21
-96.893
0
LINE
8
BLACK
6
CONTINUOUS
10
126.486
20
-96.893
11
126.532
21
-96.8465
0
LINE
8
BLACK
6
CONTINUOUS
10
126.532
20
-96.8465
11
126.586
21
-96.8088
0
LINE
8
BLACK
6
CONTINUOUS
10
126.586
20
-96.8088
11
126.738
21
-96.6809
0
LINE
8
BLACK
6
CONTINUOUS
10
126.738
20
-96.6809
11
126.801
21
-96.658
0
LINE
8
BLACK
6
CONTINUOUS
10
126.801
20
-96.658
11
126.856
21
-96.6196
0
LINE
8
BLACK
6
CONTINUOUS
10
126.856
20
-96.6196
11
127.049
21
-96.5681
0
LINE
8
BLACK
6
CONTINUOUS
10
127.049
20
-96.5681
11
127.236
21
-96.5
0
LINE
8
BLACK
6
CONTINUOUS
10
127.236
20
-96.5
11
127.303
21
-96.5
0
LINE
8
BLACK
6
CONTINUOUS
10
127.303
20
-96.5
11
127.367
21
-96.4827
0
LINE
8
BLACK
6
CONTINUOUS
10
127.367
20
-96.4827
11
127.565
21
-96.5
0
LINE
8
BLACK
6
CONTINUOUS
10
127.565
20
-96.5
11
127.764
21
-96.5
0
LINE
8
BLACK
6
CONTINUOUS
10
127.764
20
-96.5
11
127.827
21
-96.5229
0
LINE
8
BLACK
6
CONTINUOUS
10
127.827
20
-96.5229
11
127.894
21
-96.5288
0
LINE
8
BLACK
6
CONTINUOUS
10
127.894
20
-96.5288
11
128.075
21
-96.6129
0
LINE
8
BLACK
6
CONTINUOUS
10
128.075
20
-96.6129
11
128.262
21
-96.6809
0
LINE
8
BLACK
6
CONTINUOUS
10
128.262
20
-96.6809
11
128.313
21
-96.724
0
LINE
8
BLACK
6
CONTINUOUS
10
128.313
20
-96.724
11
128.374
21
-96.7523
0
LINE
8
BLACK
6
CONTINUOUS
10
128.374
20
-96.7523
11
128.514
21
-96.893
0
LINE
8
BLACK
6
CONTINUOUS
10
128.514
20
-96.893
11
128.667
21
-97.0209
0
LINE
8
BLACK
6
CONTINUOUS
10
128.667
20
-97.0209
11
128.7
21
-97.079
0
LINE
8
BLACK
6
CONTINUOUS
10
128.7
20
-97.079
11
128.748
21
-97.1264
0
LINE
8
BLACK
6
CONTINUOUS
10
128.748
20
-97.1264
11
128.832
21
-97.3067
0
LINE
8
BLACK
6
CONTINUOUS
10
128.832
20
-97.3067
11
128.931
21
-97.4791
0
LINE
8
BLACK
6
CONTINUOUS
10
128.931
20
-97.4791
11
128.943
21
-97.545
0
LINE
8
BLACK
6
CONTINUOUS
10
128.943
20
-97.545
11
128.971
21
-97.6058
0
LINE
8
BLACK
6
CONTINUOUS
10
128.971
20
-97.6058
11
128.989
21
-97.804
0
LINE
8
BLACK
6
CONTINUOUS
10
128.989
20
-97.804
11
129
21
-97.8688
0
LINE
8
BLACK
6
CONTINUOUS
10
129
20
-97.8688
11
129
21
-97.9345
0
LINE
8
BLACK
6
CONTINUOUS
10
129
20
-97.9345
11
129.017
21
-98.1328
0
LINE
8
BLACK
6
CONTINUOUS
10
129.017
20
-98.1328
11
129
21
-98.1975
0
LINE
8
BLACK
6
CONTINUOUS
10
129
20
-98.1975
11
129
21
-98.3787
0
LINE
8
BLACK
6
CONTINUOUS
10
129
20
-98.3787
11
129.121
21
-98.5
0
LINE
8
BLACK
6
CONTINUOUS
10
129.121
20
-98.5
11
132.879
21
-98.5
0
LINE
8
BLACK
6
CONTINUOUS
10
132.879
20
-98.5
11
133
21
-98.3787
0
LINE
8
BLACK
6
CONTINUOUS
10
133
20
-98.3787
11
133
21
-98.2321
0
LINE
8
BLACK
6
CONTINUOUS
10
133
20
-98.2321
11
132.695
21
-98.0557
0
LINE
8
BLACK
6
CONTINUOUS
10
132.695
20
-98.0557
11
132.241
21
-97.5154
0
LINE
8
BLACK
6
CONTINUOUS
10
132.241
20
-97.5154
11
132
21
-96.8527
0
LINE
8
BLACK
6
CONTINUOUS
10
132
20
-96.8527
11
132
21
-96.1473
0
LINE
8
BLACK
6
CONTINUOUS
10
132
20
-96.1473
11
132.241
21
-95.4846
0
LINE
8
BLACK
6
CONTINUOUS
10
132.241
20
-95.4846
11
132.695
21
-94.9443
0
LINE
8
BLACK
6
CONTINUOUS
10
132.695
20
-94.9443
11
133.305
21
-94.5916
0
LINE
8
BLACK
6
CONTINUOUS
10
133.305
20
-94.5916
11
133.825
21
-94.5
0
LINE
8
BLACK
6
CONTINUOUS
10
133.825
20
-94.5
11
135.175
21
-94.5
0
LINE
8
BLACK
6
CONTINUOUS
10
135.175
20
-94.5
11
135.695
21
-94.5916
0
LINE
8
BLACK
6
CONTINUOUS
10
115.394
20
-75.0288
11
115.874
21
-75.2523
0
LINE
8
BLACK
6
CONTINUOUS
10
115.874
20
-75.2523
11
116.248
21
-75.6264
0
LINE
8
BLACK
6
CONTINUOUS
10
116.248
20
-75.6264
11
116.471
21
-76.1058
0
LINE
8
BLACK
6
CONTINUOUS
10
116.471
20
-76.1058
11
116.517
21
-76.6328
0
LINE
8
BLACK
6
CONTINUOUS
10
116.517
20
-76.6328
11
116.38
21
-77.1437
0
LINE
8
BLACK
6
CONTINUOUS
10
116.38
20
-77.1437
11
116.153
21
-77.4679
0
LINE
8
BLACK
6
CONTINUOUS
10
116.153
20
-77.4679
11
115.107
21
-78.5143
0
LINE
8
BLACK
6
CONTINUOUS
10
115.107
20
-78.5143
11
114.979
21
-78.6668
0
LINE
8
BLACK
6
CONTINUOUS
10
114.979
20
-78.6668
11
114.807
21
-78.7663
0
LINE
8
BLACK
6
CONTINUOUS
10
114.807
20
-78.7663
11
114.644
21
-78.8804
0
LINE
8
BLACK
6
CONTINUOUS
10
114.644
20
-78.8804
11
114.579
21
-78.8978
0
LINE
8
BLACK
6
CONTINUOUS
10
114.579
20
-78.8978
11
114.521
21
-78.9313
0
LINE
8
BLACK
6
CONTINUOUS
10
114.521
20
-78.9313
11
114.325
21
-78.9658
0
LINE
8
BLACK
6
CONTINUOUS
10
114.325
20
-78.9658
11
114.133
21
-79.0173
0
LINE
8
BLACK
6
CONTINUOUS
10
114.133
20
-79.0173
11
113.935
21
-79
0
LINE
8
BLACK
6
CONTINUOUS
10
113.935
20
-79
11
108.5
21
-79
0
LINE
8
BLACK
6
CONTINUOUS
10
108.5
20
-79
11
108.5
21
-81.0215
0
LINE
8
BLACK
6
CONTINUOUS
10
108.5
20
-81.0215
11
109.269
21
-81.3015
0
LINE
8
BLACK
6
CONTINUOUS
10
109.269
20
-81.3015
11
109.945
21
-81.8682
0
LINE
8
BLACK
6
CONTINUOUS
10
109.945
20
-81.8682
11
110.385
21
-82.6318
0
LINE
8
BLACK
6
CONTINUOUS
10
110.385
20
-82.6318
11
110.5
21
-83.2813
0
LINE
8
BLACK
6
CONTINUOUS
10
110.5
20
-83.2813
11
110.5
21
-84.7187
0
LINE
8
BLACK
6
CONTINUOUS
10
110.5
20
-84.7187
11
110.385
21
-85.3682
0
LINE
8
BLACK
6
CONTINUOUS
10
110.385
20
-85.3682
11
110.058
21
-85.9362
0
LINE
8
BLACK
6
CONTINUOUS
10
110.058
20
-85.9362
11
114.121
21
-90
0
LINE
8
BLACK
6
CONTINUOUS
10
114.121
20
-90
11
124.435
21
-90
0
LINE
8
BLACK
6
CONTINUOUS
10
124.435
20
-90
11
124.633
21
-89.9827
0
LINE
8
BLACK
6
CONTINUOUS
10
124.633
20
-89.9827
11
124.825
21
-90.0342
0
LINE
8
BLACK
6
CONTINUOUS
10
124.825
20
-90.0342
11
125.021
21
-90.0687
0
LINE
8
BLACK
6
CONTINUOUS
10
125.021
20
-90.0687
11
125.079
21
-90.1022
0
LINE
8
BLACK
6
CONTINUOUS
10
125.079
20
-90.1022
11
125.144
21
-90.1196
0
LINE
8
BLACK
6
CONTINUOUS
10
125.144
20
-90.1196
11
125.307
21
-90.2337
0
LINE
8
BLACK
6
CONTINUOUS
10
125.307
20
-90.2337
11
125.479
21
-90.3332
0
LINE
8
BLACK
6
CONTINUOUS
10
125.479
20
-90.3332
11
125.607
21
-90.4856
0
LINE
8
BLACK
6
CONTINUOUS
10
125.607
20
-90.4856
11
126.75
21
-91.6287
0
LINE
8
BLACK
6
CONTINUOUS
10
126.75
20
-91.6287
11
128.893
21
-89.4856
0
LINE
8
BLACK
6
CONTINUOUS
10
128.893
20
-89.4856
11
129.021
21
-89.3332
0
LINE
8
BLACK
6
CONTINUOUS
10
129.021
20
-89.3332
11
129.193
21
-89.2337
0
LINE
8
BLACK
6
CONTINUOUS
10
129.193
20
-89.2337
11
129.356
21
-89.1196
0
LINE
8
BLACK
6
CONTINUOUS
10
129.356
20
-89.1196
11
129.421
21
-89.1022
0
LINE
8
BLACK
6
CONTINUOUS
10
129.421
20
-89.1022
11
129.479
21
-89.0687
0
LINE
8
BLACK
6
CONTINUOUS
10
129.479
20
-89.0687
11
129.675
21
-89.0342
0
LINE
8
BLACK
6
CONTINUOUS
10
129.675
20
-89.0342
11
129.867
21
-88.9827
0
LINE
8
BLACK
6
CONTINUOUS
10
129.867
20
-88.9827
11
130.065
21
-89
0
LINE
8
BLACK
6
CONTINUOUS
10
130.065
20
-89
11
132.648
21
-89
0
LINE
8
BLACK
6
CONTINUOUS
10
132.648
20
-89
11
132.695
21
-88.9443
0
LINE
8
BLACK
6
CONTINUOUS
10
132.695
20
-88.9443
11
133.305
21
-88.5916
0
LINE
8
BLACK
6
CONTINUOUS
10
133.305
20
-88.5916
11
133.825
21
-88.5
0
LINE
8
BLACK
6
CONTINUOUS
10
133.825
20
-88.5
11
135.175
21
-88.5
0
LINE
8
BLACK
6
CONTINUOUS
10
135.175
20
-88.5
11
135.695
21
-88.5916
0
LINE
8
BLACK
6
CONTINUOUS
10
135.695
20
-88.5916
11
136.305
21
-88.9443
0
LINE
8
BLACK
6
CONTINUOUS
10
136.305
20
-88.9443
11
136.759
21
-89.4846
0
LINE
8
BLACK
6
CONTINUOUS
10
136.759
20
-89.4846
11
137
21
-90.1473
0
LINE
8
BLACK
6
CONTINUOUS
10
137
20
-90.1473
11
137
21
-90.8527
0
LINE
8
BLACK
6
CONTINUOUS
10
137
20
-90.8527
11
136.759
21
-91.5154
0
LINE
8
BLACK
6
CONTINUOUS
10
136.759
20
-91.5154
11
136.305
21
-92.0557
0
LINE
8
BLACK
6
CONTINUOUS
10
136.305
20
-92.0557
11
135.695
21
-92.4084
0
LINE
8
BLACK
6
CONTINUOUS
10
135.695
20
-92.4084
11
135.175
21
-92.5
0
LINE
8
BLACK
6
CONTINUOUS
10
135.175
20
-92.5
11
133.825
21
-92.5
0
LINE
8
BLACK
6
CONTINUOUS
10
133.825
20
-92.5
11
133.305
21
-92.4084
0
LINE
8
BLACK
6
CONTINUOUS
10
133.305
20
-92.4084
11
132.695
21
-92.0557
0
LINE
8
BLACK
6
CONTINUOUS
10
132.695
20
-92.0557
11
132.648
21
-92
0
LINE
8
BLACK
6
CONTINUOUS
10
132.648
20
-92
11
130.621
21
-92
0
LINE
8
BLACK
6
CONTINUOUS
10
130.621
20
-92
11
129
21
-93.6213
0
LINE
8
BLACK
6
CONTINUOUS
10
129
20
-93.6213
11
129
21
-94.3025
0
LINE
8
BLACK
6
CONTINUOUS
10
129
20
-94.3025
11
129.017
21
-94.3672
0
LINE
8
BLACK
6
CONTINUOUS
10
129.017
20
-94.3672
11
129
21
-94.5655
0
LINE
8
BLACK
6
CONTINUOUS
10
129
20
-94.5655
11
129
21
-94.6312
0
LINE
8
BLACK
6
CONTINUOUS
10
129
20
-94.6312
11
128.989
21
-94.696
0
LINE
8
BLACK
6
CONTINUOUS
10
128.989
20
-94.696
11
128.971
21
-94.8942
0
LINE
8
BLACK
6
CONTINUOUS
10
128.971
20
-94.8942
11
128.943
21
-94.955
0
LINE
8
BLACK
6
CONTINUOUS
10
128.943
20
-94.955
11
128.931
21
-95.0209
0
LINE
8
BLACK
6
CONTINUOUS
10
128.931
20
-95.0209
11
128.832
21
-95.1933
0
LINE
8
BLACK
6
CONTINUOUS
10
128.832
20
-95.1933
11
128.748
21
-95.3736
0
LINE
8
BLACK
6
CONTINUOUS
10
128.748
20
-95.3736
11
128.7
21
-95.421
0
LINE
8
BLACK
6
CONTINUOUS
10
128.7
20
-95.421
11
128.667
21
-95.4791
0
LINE
8
BLACK
6
CONTINUOUS
10
128.667
20
-95.4791
11
128.514
21
-95.607
0
LINE
8
BLACK
6
CONTINUOUS
10
128.514
20
-95.607
11
128.374
21
-95.7477
0
LINE
8
BLACK
6
CONTINUOUS
10
128.374
20
-95.7477
11
128.313
21
-95.776
0
LINE
8
BLACK
6
CONTINUOUS
10
128.313
20
-95.776
11
128.262
21
-95.8191
0
LINE
8
BLACK
6
CONTINUOUS
10
128.262
20
-95.8191
11
128.075
21
-95.8871
0
LINE
8
BLACK
6
CONTINUOUS
10
128.075
20
-95.8871
11
127.894
21
-95.9712
0
LINE
8
BLACK
6
CONTINUOUS
10
127.894
20
-95.9712
11
127.827
21
-95.9771
0
LINE
8
BLACK
6
CONTINUOUS
10
127.827
20
-95.9771
11
127.764
21
-96
0
LINE
8
BLACK
6
CONTINUOUS
10
127.764
20
-96
11
127.565
21
-96
0
LINE
8
BLACK
6
CONTINUOUS
10
127.565
20
-96
11
127.367
21
-96.0173
0
LINE
8
BLACK
6
CONTINUOUS
10
127.367
20
-96.0173
11
127.303
21
-96
0
LINE
8
BLACK
6
CONTINUOUS
10
127.303
20
-96
11
127.236
21
-96
0
LINE
8
BLACK
6
CONTINUOUS
10
127.236
20
-96
11
127.049
21
-95.9319
0
LINE
8
BLACK
6
CONTINUOUS
10
127.049
20
-95.9319
11
126.856
21
-95.8804
0
LINE
8
BLACK
6
CONTINUOUS
10
126.856
20
-95.8804
11
126.801
21
-95.842
0
LINE
8
BLACK
6
CONTINUOUS
10
126.801
20
-95.842
11
126.738
21
-95.8191
0
LINE
8
BLACK
6
CONTINUOUS
10
126.738
20
-95.8191
11
126.586
21
-95.6912
0
LINE
8
BLACK
6
CONTINUOUS
10
126.586
20
-95.6912
11
126.532
21
-95.6535
0
LINE
8
BLACK
6
CONTINUOUS
10
126.532
20
-95.6535
11
126.486
21
-95.607
0
LINE
8
BLACK
6
CONTINUOUS
10
126.486
20
-95.607
11
126.333
21
-95.4791
0
LINE
8
BLACK
6
CONTINUOUS
10
126.333
20
-95.4791
11
126.3
21
-95.421
0
LINE
8
BLACK
6
CONTINUOUS
10
126.3
20
-95.421
11
123.879
21
-93
0
LINE
8
BLACK
6
CONTINUOUS
10
123.879
20
-93
11
114.121
21
-93
0
LINE
8
BLACK
6
CONTINUOUS
10
114.121
20
-93
11
110.058
21
-97.0638
0
LINE
8
BLACK
6
CONTINUOUS
10
110.058
20
-97.0638
11
110.385
21
-97.6318
0
LINE
8
BLACK
6
CONTINUOUS
10
110.385
20
-97.6318
11
110.5
21
-98.2813
0
LINE
8
BLACK
6
CONTINUOUS
10
110.5
20
-98.2813
11
110.5
21
-99.7187
0
LINE
8
BLACK
6
CONTINUOUS
10
110.5
20
-99.7187
11
110.385
21
-100.368
0
LINE
8
BLACK
6
CONTINUOUS
10
110.385
20
-100.368
11
109.945
21
-101.132
0
LINE
8
BLACK
6
CONTINUOUS
10
109.945
20
-101.132
11
109.269
21
-101.698
0
LINE
8
BLACK
6
CONTINUOUS
10
109.269
20
-101.698
11
108.441
21
-102
0
LINE
8
BLACK
6
CONTINUOUS
10
108.441
20
-102
11
107.559
21
-102
0
LINE
8
BLACK
6
CONTINUOUS
10
107.559
20
-102
11
106.731
21
-101.698
0
LINE
8
BLACK
6
CONTINUOUS
10
106.731
20
-101.698
11
106.055
21
-101.132
0
LINE
8
BLACK
6
CONTINUOUS
10
106.055
20
-101.132
11
105.615
21
-100.368
0
LINE
8
BLACK
6
CONTINUOUS
10
105.615
20
-100.368
11
105.5
21
-99.7187
0
LINE
8
BLACK
6
CONTINUOUS
10
105.5
20
-99.7187
11
105.5
21
-98.2813
0
LINE
8
BLACK
6
CONTINUOUS
10
105.5
20
-98.2813
11
105.615
21
-97.6318
0
LINE
8
BLACK
6
CONTINUOUS
10
105.615
20
-97.6318
11
106.055
21
-96.8682
0
LINE
8
BLACK
6
CONTINUOUS
10
106.055
20
-96.8682
11
106.606
21
-96.406
0
LINE
8
BLACK
6
CONTINUOUS
10
106.606
20
-96.406
11
106.62
21
-96.3563
0
LINE
8
BLACK
6
CONTINUOUS
10
106.62
20
-96.3563
11
106.734
21
-96.1933
0
LINE
8
BLACK
6
CONTINUOUS
10
106.734
20
-96.1933
11
106.833
21
-96.0209
0
LINE
8
BLACK
6
CONTINUOUS
10
106.833
20
-96.0209
11
106.986
21
-95.893
0
LINE
8
BLACK
6
CONTINUOUS
10
106.986
20
-95.893
11
111.379
21
-91.5
0
LINE
8
BLACK
6
CONTINUOUS
10
111.379
20
-91.5
11
106.986
21
-87.107
0
LINE
8
BLACK
6
CONTINUOUS
10
106.986
20
-87.107
11
106.833
21
-86.9791
0
LINE
8
BLACK
6
CONTINUOUS
10
106.833
20
-86.9791
11
106.734
21
-86.8067
0
LINE
8
BLACK
6
CONTINUOUS
10
106.734
20
-86.8067
11
106.62
21
-86.6437
0
LINE
8
BLACK
6
CONTINUOUS
10
106.62
20
-86.6437
11
106.606
21
-86.594
0
LINE
8
BLACK
6
CONTINUOUS
10
106.606
20
-86.594
11
106.055
21
-86.1318
0
LINE
8
BLACK
6
CONTINUOUS
10
106.055
20
-86.1318
11
105.615
21
-85.3682
0
LINE
8
BLACK
6
CONTINUOUS
10
105.615
20
-85.3682
11
105.5
21
-84.7187
0
LINE
8
BLACK
6
CONTINUOUS
10
105.5
20
-84.7187
11
105.5
21
-84.3284
0
LINE
8
BLACK
6
CONTINUOUS
10
105.5
20
-84.3284
11
105.148
21
-83.976
0
LINE
8
BLACK
6
CONTINUOUS
10
105.148
20
-83.976
11
104.944
21
-83.8054
0
LINE
8
BLACK
6
CONTINUOUS
10
104.944
20
-83.8054
11
104.812
21
-83.5756
0
LINE
8
BLACK
6
CONTINUOUS
10
104.812
20
-83.5756
11
104.659
21
-83.3583
0
LINE
8
BLACK
6
CONTINUOUS
10
104.659
20
-83.3583
11
104.636
21
-83.272
0
LINE
8
BLACK
6
CONTINUOUS
10
104.636
20
-83.272
11
104.592
21
-83.1946
0
LINE
8
BLACK
6
CONTINUOUS
10
104.592
20
-83.1946
11
104.546
21
-82.9333
0
LINE
8
BLACK
6
CONTINUOUS
10
104.546
20
-82.9333
11
104.477
21
-82.677
0
LINE
8
BLACK
6
CONTINUOUS
10
104.477
20
-82.677
11
104.5
21
-82.4127
0
LINE
8
BLACK
6
CONTINUOUS
10
104.5
20
-82.4127
11
104.5
21
-78.8238
0
LINE
8
BLACK
6
CONTINUOUS
10
104.5
20
-78.8238
11
104.241
21
-78.5154
0
LINE
8
BLACK
6
CONTINUOUS
10
104.241
20
-78.5154
11
104
21
-77.8527
0
LINE
8
BLACK
6
CONTINUOUS
10
104
20
-77.8527
11
104
21
-77.1473
0
LINE
8
BLACK
6
CONTINUOUS
10
104
20
-77.1473
11
104.241
21
-76.4846
0
LINE
8
BLACK
6
CONTINUOUS
10
104.241
20
-76.4846
11
104.695
21
-75.9443
0
LINE
8
BLACK
6
CONTINUOUS
10
104.695
20
-75.9443
11
105.305
21
-75.5916
0
LINE
8
BLACK
6
CONTINUOUS
10
105.305
20
-75.5916
11
105.825
21
-75.5
0
LINE
8
BLACK
6
CONTINUOUS
10
105.825
20
-75.5
11
107.175
21
-75.5
0
LINE
8
BLACK
6
CONTINUOUS
10
107.175
20
-75.5
11
107.695
21
-75.5916
0
LINE
8
BLACK
6
CONTINUOUS
10
107.695
20
-75.5916
11
108.305
21
-75.9443
0
LINE
8
BLACK
6
CONTINUOUS
10
108.305
20
-75.9443
11
108.352
21
-76
0
LINE
8
BLACK
6
CONTINUOUS
10
108.352
20
-76
11
113.379
21
-76
0
LINE
8
BLACK
6
CONTINUOUS
10
113.379
20
-76
11
114.032
21
-75.3465
0
LINE
8
BLACK
6
CONTINUOUS
10
114.032
20
-75.3465
11
114.356
21
-75.1196
0
LINE
8
BLACK
6
CONTINUOUS
10
114.356
20
-75.1196
11
114.867
21
-74.9827
0
LINE
8
BLACK
6
CONTINUOUS
10
114.867
20
-74.9827
11
115.394
21
-75.0288
0
LINE
8
BLACK
6
CONTINUOUS
10
101.695
20
-75.5916
11
102.305
21
-75.9443
0
LINE
8
BLACK
6
CONTINUOUS
10
102.305
20
-75.9443
11
102.759
21
-76.4846
0
LINE
8
BLACK
6
CONTINUOUS
10
102.759
20
-76.4846
11
103
21
-77.1473
0
LINE
8
BLACK
6
CONTINUOUS
10
103
20
-77.1473
11
103
21
-77.8527
0
LINE
8
BLACK
6
CONTINUOUS
10
103
20
-77.8527
11
102.759
21
-78.5154
0
LINE
8
BLACK
6
CONTINUOUS
10
102.759
20
-78.5154
11
102.5
21
-78.8238
0
LINE
8
BLACK
6
CONTINUOUS
10
102.5
20
-78.8238
11
102.5
21
-96.4127
0
LINE
8
BLACK
6
CONTINUOUS
10
102.5
20
-96.4127
11
102.523
21
-96.677
0
LINE
8
BLACK
6
CONTINUOUS
10
102.523
20
-96.677
11
102.454
21
-96.9333
0
LINE
8
BLACK
6
CONTINUOUS
10
102.454
20
-96.9333
11
102.408
21
-97.1946
0
LINE
8
BLACK
6
CONTINUOUS
10
102.408
20
-97.1946
11
102.364
21
-97.272
0
LINE
8
BLACK
6
CONTINUOUS
10
102.364
20
-97.272
11
102.341
21
-97.3583
0
LINE
8
BLACK
6
CONTINUOUS
10
102.341
20
-97.3583
11
102.188
21
-97.5756
0
LINE
8
BLACK
6
CONTINUOUS
10
102.188
20
-97.5756
11
102.056
21
-97.8054
0
LINE
8
BLACK
6
CONTINUOUS
10
102.056
20
-97.8054
11
101.852
21
-97.976
0
LINE
8
BLACK
6
CONTINUOUS
10
101.852
20
-97.976
11
99.976
21
-99.8525
0
LINE
8
BLACK
6
CONTINUOUS
10
99.976
20
-99.8525
11
99.8054
21
-100.056
0
LINE
8
BLACK
6
CONTINUOUS
10
99.8054
20
-100.056
11
99.5756
21
-100.188
0
LINE
8
BLACK
6
CONTINUOUS
10
99.5756
20
-100.188
11
99.3583
21
-100.341
0
LINE
8
BLACK
6
CONTINUOUS
10
99.3583
20
-100.341
11
99.272
21
-100.364
0
LINE
8
BLACK
6
CONTINUOUS
10
99.272
20
-100.364
11
99.1946
21
-100.408
0
LINE
8
BLACK
6
CONTINUOUS
10
99.1946
20
-100.408
11
98.9333
21
-100.454
0
LINE
8
BLACK
6
CONTINUOUS
10
98.9333
20
-100.454
11
98.677
21
-100.523
0
LINE
8
BLACK
6
CONTINUOUS
10
98.677
20
-100.523
11
98.4127
21
-100.5
0
LINE
8
BLACK
6
CONTINUOUS
10
98.4127
20
-100.5
11
96.0368
21
-100.5
0
LINE
8
BLACK
6
CONTINUOUS
10
96.0368
20
-100.5
11
95.7816
21
-100.647
0
LINE
8
BLACK
6
CONTINUOUS
10
95.7816
20
-100.647
11
95
21
-100.785
0
LINE
8
BLACK
6
CONTINUOUS
10
95
20
-100.785
11
94.2184
21
-100.647
0
LINE
8
BLACK
6
CONTINUOUS
10
94.2184
20
-100.647
11
93.5311
21
-100.251
0
LINE
8
BLACK
6
CONTINUOUS
10
93.5311
20
-100.251
11
93.021
21
-99.6426
0
LINE
8
BLACK
6
CONTINUOUS
10
93.021
20
-99.6426
11
92.7496
21
-98.8968
0
LINE
8
BLACK
6
CONTINUOUS
10
92.7496
20
-98.8968
11
92.7496
21
-98.1032
0
LINE
8
BLACK
6
CONTINUOUS
10
92.7496
20
-98.1032
11
93.021
21
-97.3574
0
LINE
8
BLACK
6
CONTINUOUS
10
93.021
20
-97.3574
11
93.5311
21
-96.7495
0
LINE
8
BLACK
6
CONTINUOUS
10
93.5311
20
-96.7495
11
94.2184
21
-96.3527
0
LINE
8
BLACK
6
CONTINUOUS
10
94.2184
20
-96.3527
11
95
21
-96.2148
0
LINE
8
BLACK
6
CONTINUOUS
10
95
20
-96.2148
11
95.7816
21
-96.3527
0
LINE
8
BLACK
6
CONTINUOUS
10
95.7816
20
-96.3527
11
96.0368
21
-96.5
0
LINE
8
BLACK
6
CONTINUOUS
10
96.0368
20
-96.5
11
97.6716
21
-96.5
0
LINE
8
BLACK
6
CONTINUOUS
10
97.6716
20
-96.5
11
98.5
21
-95.6716
0
LINE
8
BLACK
6
CONTINUOUS
10
98.5
20
-95.6716
11
98.5
21
-78.8238
0
LINE
8
BLACK
6
CONTINUOUS
10
98.5
20
-78.8238
11
98.2412
21
-78.5154
0
LINE
8
BLACK
6
CONTINUOUS
10
98.2412
20
-78.5154
11
98
21
-77.8527
0
LINE
8
BLACK
6
CONTINUOUS
10
98
20
-77.8527
11
98
21
-77.1473
0
LINE
8
BLACK
6
CONTINUOUS
10
98
20
-77.1473
11
98.2412
21
-76.4846
0
LINE
8
BLACK
6
CONTINUOUS
10
98.2412
20
-76.4846
11
98.6946
21
-75.9443
0
LINE
8
BLACK
6
CONTINUOUS
10
98.6946
20
-75.9443
11
99.3054
21
-75.5916
0
LINE
8
BLACK
6
CONTINUOUS
10
99.3054
20
-75.5916
11
99.825
21
-75.5
0
LINE
8
BLACK
6
CONTINUOUS
10
99.825
20
-75.5
11
101.175
21
-75.5
0
LINE
8
BLACK
6
CONTINUOUS
10
101.175
20
-75.5
11
101.695
21
-75.5916
0
LINE
8
BLACK
6
CONTINUOUS
10
139.305
20
-98.4084
11
138.695
21
-98.0557
0
LINE
8
BLACK
6
CONTINUOUS
10
138.695
20
-98.0557
11
138.241
21
-97.5154
0
LINE
8
BLACK
6
CONTINUOUS
10
138.241
20
-97.5154
11
138
21
-96.8527
0
LINE
8
BLACK
6
CONTINUOUS
10
138
20
-96.8527
11
138
21
-96.1473
0
LINE
8
BLACK
6
CONTINUOUS
10
138
20
-96.1473
11
138.241
21
-95.4846
0
LINE
8
BLACK
6
CONTINUOUS
10
138.241
20
-95.4846
11
138.695
21
-94.9443
0
LINE
8
BLACK
6
CONTINUOUS
10
138.695
20
-94.9443
11
139.305
21
-94.5916
0
LINE
8
BLACK
6
CONTINUOUS
10
139.305
20
-94.5916
11
139.825
21
-94.5
0
LINE
8
BLACK
6
CONTINUOUS
10
139.825
20
-94.5
11
145.413
21
-94.5
0
LINE
8
BLACK
6
CONTINUOUS
10
145.413
20
-94.5
11
145.677
21
-94.4769
0
LINE
8
BLACK
6
CONTINUOUS
10
145.677
20
-94.4769
11
145.933
21
-94.5455
0
LINE
8
BLACK
6
CONTINUOUS
10
145.933
20
-94.5455
11
146.195
21
-94.5916
0
LINE
8
BLACK
6
CONTINUOUS
10
146.195
20
-94.5916
11
146.272
21
-94.6363
0
LINE
8
BLACK
6
CONTINUOUS
10
146.272
20
-94.6363
11
146.358
21
-94.6594
0
LINE
8
BLACK
6
CONTINUOUS
10
146.358
20
-94.6594
11
146.576
21
-94.8116
0
LINE
8
BLACK
6
CONTINUOUS
10
146.576
20
-94.8116
11
146.805
21
-94.9443
0
LINE
8
BLACK
6
CONTINUOUS
10
146.805
20
-94.9443
11
146.976
21
-95.1475
0
LINE
8
BLACK
6
CONTINUOUS
10
146.976
20
-95.1475
11
148.16
21
-96.3311
0
LINE
8
BLACK
6
CONTINUOUS
10
148.16
20
-96.3311
11
148.282
21
-96.3527
0
LINE
8
BLACK
6
CONTINUOUS
10
148.282
20
-96.3527
11
148.537
21
-96.5
0
LINE
8
BLACK
6
CONTINUOUS
10
148.537
20
-96.5
11
151
21
-96.5
0
LINE
8
BLACK
6
CONTINUOUS
10
151
20
-96.5
11
151
21
-94.0849
0
LINE
8
BLACK
6
CONTINUOUS
10
151
20
-94.0849
11
150.75
21
-93.3968
0
LINE
8
BLACK
6
CONTINUOUS
10
150.75
20
-93.3968
11
150.75
21
-92.6032
0
LINE
8
BLACK
6
CONTINUOUS
10
150.75
20
-92.6032
11
151
21
-91.9151
0
LINE
8
BLACK
6
CONTINUOUS
10
151
20
-91.9151
11
151
21
-89.5
0
LINE
8
BLACK
6
CONTINUOUS
10
151
20
-89.5
11
148.587
21
-89.5
0
LINE
8
BLACK
6
CONTINUOUS
10
148.587
20
-89.5
11
148.323
21
-89.5231
0
LINE
8
BLACK
6
CONTINUOUS
10
148.323
20
-89.5231
11
148.067
21
-89.4545
0
LINE
8
BLACK
6
CONTINUOUS
10
148.067
20
-89.4545
11
147.805
21
-89.4084
0
LINE
8
BLACK
6
CONTINUOUS
10
147.805
20
-89.4084
11
147.728
21
-89.3637
0
LINE
8
BLACK
6
CONTINUOUS
10
147.728
20
-89.3637
11
147.642
21
-89.3406
0
LINE
8
BLACK
6
CONTINUOUS
10
147.642
20
-89.3406
11
147.424
21
-89.1884
0
LINE
8
BLACK
6
CONTINUOUS
10
147.424
20
-89.1884
11
147.195
21
-89.0557
0
LINE
8
BLACK
6
CONTINUOUS
10
147.195
20
-89.0557
11
147.024
21
-88.8525
0
LINE
8
BLACK
6
CONTINUOUS
10
147.024
20
-88.8525
11
137.672
21
-79.5
0
LINE
8
BLACK
6
CONTINUOUS
10
137.672
20
-79.5
11
131.825
21
-79.5
0
LINE
8
BLACK
6
CONTINUOUS
10
131.825
20
-79.5
11
131.305
21
-79.4084
0
LINE
8
BLACK
6
CONTINUOUS
10
131.305
20
-79.4084
11
130.695
21
-79.0557
0
LINE
8
BLACK
6
CONTINUOUS
10
130.695
20
-79.0557
11
130.241
21
-78.5154
0
LINE
8
BLACK
6
CONTINUOUS
10
130.241
20
-78.5154
11
130
21
-77.8527
0
LINE
8
BLACK
6
CONTINUOUS
10
130
20
-77.8527
11
130
21
-77.1473
0
LINE
8
BLACK
6
CONTINUOUS
10
130
20
-77.1473
11
130.241
21
-76.4846
0
LINE
8
BLACK
6
CONTINUOUS
10
130.241
20
-76.4846
11
130.695
21
-75.9443
0
LINE
8
BLACK
6
CONTINUOUS
10
130.695
20
-75.9443
11
131.305
21
-75.5916
0
LINE
8
BLACK
6
CONTINUOUS
10
131.305
20
-75.5916
11
131.825
21
-75.5
0
LINE
8
BLACK
6
CONTINUOUS
10
131.825
20
-75.5
11
138.413
21
-75.5
0
LINE
8
BLACK
6
CONTINUOUS
10
138.413
20
-75.5
11
138.677
21
-75.4769
0
LINE
8
BLACK
6
CONTINUOUS
10
138.677
20
-75.4769
11
138.933
21
-75.5455
0
LINE
8
BLACK
6
CONTINUOUS
10
138.933
20
-75.5455
11
139.195
21
-75.5916
0
LINE
8
BLACK
6
CONTINUOUS
10
139.195
20
-75.5916
11
139.272
21
-75.6363
0
LINE
8
BLACK
6
CONTINUOUS
10
139.272
20
-75.6363
11
139.358
21
-75.6594
0
LINE
8
BLACK
6
CONTINUOUS
10
139.358
20
-75.6594
11
139.576
21
-75.8116
0
LINE
8
BLACK
6
CONTINUOUS
10
139.576
20
-75.8116
11
139.805
21
-75.9443
0
LINE
8
BLACK
6
CONTINUOUS
10
139.805
20
-75.9443
11
139.976
21
-76.1475
0
LINE
8
BLACK
6
CONTINUOUS
10
139.976
20
-76.1475
11
149.328
21
-85.5
0
LINE
8
BLACK
6
CONTINUOUS
10
149.328
20
-85.5
11
151.963
21
-85.5
0
LINE
8
BLACK
6
CONTINUOUS
10
151.963
20
-85.5
11
152.218
21
-85.3527
0
LINE
8
BLACK
6
CONTINUOUS
10
152.218
20
-85.3527
11
153
21
-85.2148
0
LINE
8
BLACK
6
CONTINUOUS
10
153
20
-85.2148
11
153.782
21
-85.3527
0
LINE
8
BLACK
6
CONTINUOUS
10
153.782
20
-85.3527
11
154.469
21
-85.7495
0
LINE
8
BLACK
6
CONTINUOUS
10
154.469
20
-85.7495
11
154.979
21
-86.3574
0
LINE
8
BLACK
6
CONTINUOUS
10
154.979
20
-86.3574
11
155.25
21
-87.1032
0
LINE
8
BLACK
6
CONTINUOUS
10
155.25
20
-87.1032
11
155.25
21
-87.8968
0
LINE
8
BLACK
6
CONTINUOUS
10
155.25
20
-87.8968
11
155
21
-88.5849
0
LINE
8
BLACK
6
CONTINUOUS
10
155
20
-88.5849
11
155
21
-91.9151
0
LINE
8
BLACK
6
CONTINUOUS
10
155
20
-91.9151
11
155.25
21
-92.6032
0
LINE
8
BLACK
6
CONTINUOUS
10
155.25
20
-92.6032
11
155.25
21
-93.3968
0
LINE
8
BLACK
6
CONTINUOUS
10
155.25
20
-93.3968
11
155
21
-94.0849
0
LINE
8
BLACK
6
CONTINUOUS
10
155
20
-94.0849
11
155
21
-97.4151
0
LINE
8
BLACK
6
CONTINUOUS
10
155
20
-97.4151
11
155.25
21
-98.1032
0
LINE
8
BLACK
6
CONTINUOUS
10
155.25
20
-98.1032
11
155.25
21
-98.8968
0
LINE
8
BLACK
6
CONTINUOUS
10
155.25
20
-98.8968
11
154.979
21
-99.6426
0
LINE
8
BLACK
6
CONTINUOUS
10
154.979
20
-99.6426
11
154.469
21
-100.251
0
LINE
8
BLACK
6
CONTINUOUS
10
154.469
20
-100.251
11
153.782
21
-100.647
0
LINE
8
BLACK
6
CONTINUOUS
10
153.782
20
-100.647
11
153
21
-100.785
0
LINE
8
BLACK
6
CONTINUOUS
10
153
20
-100.785
11
152.218
21
-100.647
0
LINE
8
BLACK
6
CONTINUOUS
10
152.218
20
-100.647
11
151.963
21
-100.5
0
LINE
8
BLACK
6
CONTINUOUS
10
151.963
20
-100.5
11
148.537
21
-100.5
0
LINE
8
BLACK
6
CONTINUOUS
10
148.537
20
-100.5
11
148.282
21
-100.647
0
LINE
8
BLACK
6
CONTINUOUS
10
148.282
20
-100.647
11
147.5
21
-100.785
0
LINE
8
BLACK
6
CONTINUOUS
10
147.5
20
-100.785
11
146.718
21
-100.647
0
LINE
8
BLACK
6
CONTINUOUS
10
146.718
20
-100.647
11
146.031
21
-100.251
0
LINE
8
BLACK
6
CONTINUOUS
10
146.031
20
-100.251
11
145.521
21
-99.6426
0
LINE
8
BLACK
6
CONTINUOUS
10
145.521
20
-99.6426
11
145.353
21
-99.1817
0
LINE
8
BLACK
6
CONTINUOUS
10
145.353
20
-99.1817
11
144.672
21
-98.5
0
LINE
8
BLACK
6
CONTINUOUS
10
144.672
20
-98.5
11
139.825
21
-98.5
0
LINE
8
BLACK
6
CONTINUOUS
10
139.825
20
-98.5
11
139.305
21
-98.4084
0
LINE
8
BLACK
6
CONTINUOUS
10
130.828
20
-82
11
136.413
21
-82
0
LINE
8
BLACK
6
CONTINUOUS
10
136.413
20
-82
11
136.677
21
-81.9769
0
LINE
8
BLACK
6
CONTINUOUS
10
136.677
20
-81.9769
11
136.933
21
-82.0455
0
LINE
8
BLACK
6
CONTINUOUS
10
136.933
20
-82.0455
11
137.195
21
-82.0916
0
LINE
8
BLACK
6
CONTINUOUS
10
137.195
20
-82.0916
11
137.272
21
-82.1363
0
LINE
8
BLACK
6
CONTINUOUS
10
137.272
20
-82.1363
11
137.358
21
-82.1594
0
LINE
8
BLACK
6
CONTINUOUS
10
137.358
20
-82.1594
11
137.576
21
-82.3116
0
LINE
8
BLACK
6
CONTINUOUS
10
137.576
20
-82.3116
11
137.805
21
-82.4443
0
LINE
8
BLACK
6
CONTINUOUS
10
137.805
20
-82.4443
11
137.976
21
-82.6475
0
LINE
8
BLACK
6
CONTINUOUS
10
137.976
20
-82.6475
11
141.852
21
-86.524
0
LINE
8
BLACK
6
CONTINUOUS
10
141.852
20
-86.524
11
142.056
21
-86.6946
0
LINE
8
BLACK
6
CONTINUOUS
10
142.056
20
-86.6946
11
142.188
21
-86.9244
0
LINE
8
BLACK
6
CONTINUOUS
10
142.188
20
-86.9244
11
142.341
21
-87.1417
0
LINE
8
BLACK
6
CONTINUOUS
10
142.341
20
-87.1417
11
142.364
21
-87.228
0
LINE
8
BLACK
6
CONTINUOUS
10
142.364
20
-87.228
11
142.408
21
-87.3054
0
LINE
8
BLACK
6
CONTINUOUS
10
142.408
20
-87.3054
11
142.454
21
-87.5667
0
LINE
8
BLACK
6
CONTINUOUS
10
142.454
20
-87.5667
11
142.523
21
-87.823
0
LINE
8
BLACK
6
CONTINUOUS
10
142.523
20
-87.823
11
142.5
21
-88.0873
0
LINE
8
BLACK
6
CONTINUOUS
10
142.5
20
-88.0873
11
142.5
21
-89.1762
0
LINE
8
BLACK
6
CONTINUOUS
10
142.5
20
-89.1762
11
142.759
21
-89.4846
0
LINE
8
BLACK
6
CONTINUOUS
10
142.759
20
-89.4846
11
143
21
-90.1473
0
LINE
8
BLACK
6
CONTINUOUS
10
143
20
-90.1473
11
143
21
-90.8527
0
LINE
8
BLACK
6
CONTINUOUS
10
143
20
-90.8527
11
142.759
21
-91.5154
0
LINE
8
BLACK
6
CONTINUOUS
10
142.759
20
-91.5154
11
142.305
21
-92.0557
0
LINE
8
BLACK
6
CONTINUOUS
10
142.305
20
-92.0557
11
141.695
21
-92.4084
0
LINE
8
BLACK
6
CONTINUOUS
10
141.695
20
-92.4084
11
141.175
21
-92.5
0
LINE
8
BLACK
6
CONTINUOUS
10
141.175
20
-92.5
11
139.825
21
-92.5
0
LINE
8
BLACK
6
CONTINUOUS
10
139.825
20
-92.5
11
139.305
21
-92.4084
0
LINE
8
BLACK
6
CONTINUOUS
10
139.305
20
-92.4084
11
138.695
21
-92.0557
0
LINE
8
BLACK
6
CONTINUOUS
10
138.695
20
-92.0557
11
138.241
21
-91.5154
0
LINE
8
BLACK
6
CONTINUOUS
10
138.241
20
-91.5154
11
138
21
-90.8527
0
LINE
8
BLACK
6
CONTINUOUS
10
138
20
-90.8527
11
138
21
-90.1473
0
LINE
8
BLACK
6
CONTINUOUS
10
138
20
-90.1473
11
138.241
21
-89.4846
0
LINE
8
BLACK
6
CONTINUOUS
10
138.241
20
-89.4846
11
138.5
21
-89.1762
0
LINE
8
BLACK
6
CONTINUOUS
10
138.5
20
-89.1762
11
138.5
21
-88.8284
0
LINE
8
BLACK
6
CONTINUOUS
10
138.5
20
-88.8284
11
135.672
21
-86
0
LINE
8
BLACK
6
CONTINUOUS
10
135.672
20
-86
11
130.087
21
-86
0
LINE
8
BLACK
6
CONTINUOUS
10
130.087
20
-86
11
129.823
21
-86.0231
0
LINE
8
BLACK
6
CONTINUOUS
10
129.823
20
-86.0231
11
129.567
21
-85.9545
0
LINE
8
BLACK
6
CONTINUOUS
10
129.567
20
-85.9545
11
129.305
21
-85.9084
0
LINE
8
BLACK
6
CONTINUOUS
10
129.305
20
-85.9084
11
129.228
21
-85.8637
0
LINE
8
BLACK
6
CONTINUOUS
10
129.228
20
-85.8637
11
129.142
21
-85.8406
0
LINE
8
BLACK
6
CONTINUOUS
10
129.142
20
-85.8406
11
128.924
21
-85.6884
0
LINE
8
BLACK
6
CONTINUOUS
10
128.924
20
-85.6884
11
128.695
21
-85.5557
0
LINE
8
BLACK
6
CONTINUOUS
10
128.695
20
-85.5557
11
128.524
21
-85.3525
0
LINE
8
BLACK
6
CONTINUOUS
10
128.524
20
-85.3525
11
125.648
21
-82.476
0
LINE
8
BLACK
6
CONTINUOUS
10
125.648
20
-82.476
11
125.444
21
-82.3054
0
LINE
8
BLACK
6
CONTINUOUS
10
125.444
20
-82.3054
11
125.312
21
-82.0756
0
LINE
8
BLACK
6
CONTINUOUS
10
125.312
20
-82.0756
11
125.159
21
-81.8583
0
LINE
8
BLACK
6
CONTINUOUS
10
125.159
20
-81.8583
11
125.136
21
-81.772
0
LINE
8
BLACK
6
CONTINUOUS
10
125.136
20
-81.772
11
125.092
21
-81.6946
0
LINE
8
BLACK
6
CONTINUOUS
10
125.092
20
-81.6946
11
125.046
21
-81.4333
0
LINE
8
BLACK
6
CONTINUOUS
10
125.046
20
-81.4333
11
124.977
21
-81.177
0
LINE
8
BLACK
6
CONTINUOUS
10
124.977
20
-81.177
11
125
21
-80.9127
0
LINE
8
BLACK
6
CONTINUOUS
10
125
20
-80.9127
11
125
21
-77.325
0
LINE
8
BLACK
6
CONTINUOUS
10
125
20
-77.325
11
125
21
-73.5873
0
LINE
8
BLACK
6
CONTINUOUS
10
125
20
-73.5873
11
124.977
21
-73.323
0
LINE
8
BLACK
6
CONTINUOUS
10
124.977
20
-73.323
11
125.046
21
-73.0667
0
LINE
8
BLACK
6
CONTINUOUS
10
125.046
20
-73.0667
11
125.092
21
-72.8054
0
LINE
8
BLACK
6
CONTINUOUS
10
125.092
20
-72.8054
11
125.136
21
-72.728
0
LINE
8
BLACK
6
CONTINUOUS
10
125.136
20
-72.728
11
125.159
21
-72.6417
0
LINE
8
BLACK
6
CONTINUOUS
10
125.159
20
-72.6417
11
125.312
21
-72.4244
0
LINE
8
BLACK
6
CONTINUOUS
10
125.312
20
-72.4244
11
125.444
21
-72.1946
0
LINE
8
BLACK
6
CONTINUOUS
10
125.444
20
-72.1946
11
125.648
21
-72.024
0
LINE
8
BLACK
6
CONTINUOUS
10
125.648
20
-72.024
11
129.024
21
-68.6475
0
LINE
8
BLACK
6
CONTINUOUS
10
129.024
20
-68.6475
11
129.195
21
-68.4443
0
LINE
8
BLACK
6
CONTINUOUS
10
129.195
20
-68.4443
11
129.424
21
-68.3116
0
LINE
8
BLACK
6
CONTINUOUS
10
129.424
20
-68.3116
11
129.642
21
-68.1594
0
LINE
8
BLACK
6
CONTINUOUS
10
129.642
20
-68.1594
11
129.728
21
-68.1363
0
LINE
8
BLACK
6
CONTINUOUS
10
129.728
20
-68.1363
11
129.805
21
-68.0916
0
LINE
8
BLACK
6
CONTINUOUS
10
129.805
20
-68.0916
11
130.067
21
-68.0455
0
LINE
8
BLACK
6
CONTINUOUS
10
130.067
20
-68.0455
11
130.323
21
-67.9769
0
LINE
8
BLACK
6
CONTINUOUS
10
130.323
20
-67.9769
11
130.587
21
-68
0
LINE
8
BLACK
6
CONTINUOUS
10
130.587
20
-68
11
140.463
21
-68
0
LINE
8
BLACK
6
CONTINUOUS
10
140.463
20
-68
11
140.718
21
-67.8527
0
LINE
8
BLACK
6
CONTINUOUS
10
140.718
20
-67.8527
11
141.5
21
-67.7148
0
LINE
8
BLACK
6
CONTINUOUS
10
141.5
20
-67.7148
11
142.282
21
-67.8527
0
LINE
8
BLACK
6
CONTINUOUS
10
142.282
20
-67.8527
11
142.537
21
-68
0
LINE
8
BLACK
6
CONTINUOUS
10
142.537
20
-68
11
145.963
21
-68
0
LINE
8
BLACK
6
CONTINUOUS
10
145.963
20
-68
11
146.218
21
-67.8527
0
LINE
8
BLACK
6
CONTINUOUS
10
146.218
20
-67.8527
11
147
21
-67.7148
0
LINE
8
BLACK
6
CONTINUOUS
10
147
20
-67.7148
11
147.782
21
-67.8527
0
LINE
8
BLACK
6
CONTINUOUS
10
147.782
20
-67.8527
11
148.037
21
-68
0
LINE
8
BLACK
6
CONTINUOUS
10
148.037
20
-68
11
151.463
21
-68
0
LINE
8
BLACK
6
CONTINUOUS
10
151.463
20
-68
11
151.718
21
-67.8527
0
LINE
8
BLACK
6
CONTINUOUS
10
151.718
20
-67.8527
11
152.5
21
-67.7148
0
LINE
8
BLACK
6
CONTINUOUS
10
152.5
20
-67.7148
11
153.282
21
-67.8527
0
LINE
8
BLACK
6
CONTINUOUS
10
153.282
20
-67.8527
11
153.969
21
-68.2495
0
LINE
8
BLACK
6
CONTINUOUS
10
153.969
20
-68.2495
11
154.479
21
-68.8574
0
LINE
8
BLACK
6
CONTINUOUS
10
154.479
20
-68.8574
11
154.75
21
-69.6032
0
LINE
8
BLACK
6
CONTINUOUS
10
154.75
20
-69.6032
11
154.75
21
-70.3968
0
LINE
8
BLACK
6
CONTINUOUS
10
154.75
20
-70.3968
11
154.5
21
-71.0849
0
LINE
8
BLACK
6
CONTINUOUS
10
154.5
20
-71.0849
11
154.5
21
-74.4151
0
LINE
8
BLACK
6
CONTINUOUS
10
154.5
20
-74.4151
11
154.75
21
-75.1032
0
LINE
8
BLACK
6
CONTINUOUS
10
154.75
20
-75.1032
11
154.75
21
-75.8968
0
LINE
8
BLACK
6
CONTINUOUS
10
154.75
20
-75.8968
11
154.479
21
-76.6426
0
LINE
8
BLACK
6
CONTINUOUS
10
154.479
20
-76.6426
11
153.969
21
-77.2505
0
LINE
8
BLACK
6
CONTINUOUS
10
153.969
20
-77.2505
11
153.282
21
-77.6473
0
LINE
8
BLACK
6
CONTINUOUS
10
153.282
20
-77.6473
11
152.5
21
-77.7852
0
LINE
8
BLACK
6
CONTINUOUS
10
152.5
20
-77.7852
11
151.718
21
-77.6473
0
LINE
8
BLACK
6
CONTINUOUS
10
151.718
20
-77.6473
11
151.031
21
-77.2505
0
LINE
8
BLACK
6
CONTINUOUS
10
151.031
20
-77.2505
11
150.521
21
-76.6426
0
LINE
8
BLACK
6
CONTINUOUS
10
150.521
20
-76.6426
11
150.25
21
-75.8968
0
LINE
8
BLACK
6
CONTINUOUS
10
150.25
20
-75.8968
11
150.25
21
-75.1032
0
LINE
8
BLACK
6
CONTINUOUS
10
150.25
20
-75.1032
11
150.5
21
-74.4151
0
LINE
8
BLACK
6
CONTINUOUS
10
150.5
20
-74.4151
11
150.5
21
-72
0
LINE
8
BLACK
6
CONTINUOUS
10
150.5
20
-72
11
148.037
21
-72
0
LINE
8
BLACK
6
CONTINUOUS
10
148.037
20
-72
11
147.782
21
-72.1473
0
LINE
8
BLACK
6
CONTINUOUS
10
147.782
20
-72.1473
11
147
21
-72.2852
0
LINE
8
BLACK
6
CONTINUOUS
10
147
20
-72.2852
11
146.218
21
-72.1473
0
LINE
8
BLACK
6
CONTINUOUS
10
146.218
20
-72.1473
11
145.963
21
-72
0
LINE
8
BLACK
6
CONTINUOUS
10
145.963
20
-72
11
142.537
21
-72
0
LINE
8
BLACK
6
CONTINUOUS
10
142.537
20
-72
11
142.282
21
-72.1473
0
LINE
8
BLACK
6
CONTINUOUS
10
142.282
20
-72.1473
11
141.5
21
-72.2852
0
LINE
8
BLACK
6
CONTINUOUS
10
141.5
20
-72.2852
11
140.718
21
-72.1473
0
LINE
8
BLACK
6
CONTINUOUS
10
140.718
20
-72.1473
11
140.463
21
-72
0
LINE
8
BLACK
6
CONTINUOUS
10
140.463
20
-72
11
131.328
21
-72
0
LINE
8
BLACK
6
CONTINUOUS
10
131.328
20
-72
11
129
21
-74.3284
0
LINE
8
BLACK
6
CONTINUOUS
10
129
20
-74.3284
11
129
21
-80.1716
0
LINE
8
BLACK
6
CONTINUOUS
10
129
20
-80.1716
11
130.828
21
-82
0
LINE
8
BLACK
6
CONTINUOUS
10
97.2504
20
-88.1032
11
97.2504
21
-88.8968
0
LINE
8
BLACK
6
CONTINUOUS
10
97.2504
20
-88.8968
11
96.979
21
-89.6426
0
LINE
8
BLACK
6
CONTINUOUS
10
96.979
20
-89.6426
11
96.4689
21
-90.2505
0
LINE
8
BLACK
6
CONTINUOUS
10
96.4689
20
-90.2505
11
95.7816
21
-90.6473
0
LINE
8
BLACK
6
CONTINUOUS
10
95.7816
20
-90.6473
11
95
21
-90.7852
0
LINE
8
BLACK
6
CONTINUOUS
10
95
20
-90.7852
11
94.2184
21
-90.6473
0
LINE
8
BLACK
6
CONTINUOUS
10
94.2184
20
-90.6473
11
93.5311
21
-90.2505
0
LINE
8
BLACK
6
CONTINUOUS
10
93.5311
20
-90.2505
11
93.021
21
-89.6426
0
LINE
8
BLACK
6
CONTINUOUS
10
93.021
20
-89.6426
11
92.7496
21
-88.8968
0
LINE
8
BLACK
6
CONTINUOUS
10
92.7496
20
-88.8968
11
92.7496
21
-88.1032
0
LINE
8
BLACK
6
CONTINUOUS
10
92.7496
20
-88.1032
11
93
21
-87.4151
0
LINE
8
BLACK
6
CONTINUOUS
10
93
20
-87.4151
11
93
21
-80.485
0
LINE
8
BLACK
6
CONTINUOUS
10
93
20
-80.485
11
93
21
-80.3073
0
LINE
8
BLACK
6
CONTINUOUS
10
93
20
-80.3073
11
93.0608
21
-80.1404
0
LINE
8
BLACK
6
CONTINUOUS
10
93.0608
20
-80.1404
11
93.0916
21
-79.9654
0
LINE
8
BLACK
6
CONTINUOUS
10
93.0916
20
-79.9654
11
93.1805
21
-79.8115
0
LINE
8
BLACK
6
CONTINUOUS
10
93.1805
20
-79.8115
11
93.2412
21
-79.6446
0
LINE
8
BLACK
6
CONTINUOUS
10
93.2412
20
-79.6446
11
93.3554
21
-79.5085
0
LINE
8
BLACK
6
CONTINUOUS
10
93.3554
20
-79.5085
11
93.4443
21
-79.3546
0
LINE
8
BLACK
6
CONTINUOUS
10
93.4443
20
-79.3546
11
93.5804
21
-79.2404
0
LINE
8
BLACK
6
CONTINUOUS
10
93.5804
20
-79.2404
11
93.6946
21
-79.1043
0
LINE
8
BLACK
6
CONTINUOUS
10
93.6946
20
-79.1043
11
93.8485
21
-79.0154
0
LINE
8
BLACK
6
CONTINUOUS
10
93.8485
20
-79.0154
11
93.9846
21
-78.9012
0
LINE
8
BLACK
6
CONTINUOUS
10
93.9846
20
-78.9012
11
94.1515
21
-78.8405
0
LINE
8
BLACK
6
CONTINUOUS
10
94.1515
20
-78.8405
11
94.3054
21
-78.7516
0
LINE
8
BLACK
6
CONTINUOUS
10
94.3054
20
-78.7516
11
94.4804
21
-78.7208
0
LINE
8
BLACK
6
CONTINUOUS
10
94.4804
20
-78.7208
11
94.6473
21
-78.66
0
LINE
8
BLACK
6
CONTINUOUS
10
94.6473
20
-78.66
11
94.825
21
-78.66
0
LINE
8
BLACK
6
CONTINUOUS
10
94.825
20
-78.66
11
95
21
-78.6291
0
LINE
8
BLACK
6
CONTINUOUS
10
95
20
-78.6291
11
95.175
21
-78.66
0
LINE
8
BLACK
6
CONTINUOUS
10
95.175
20
-78.66
11
95.3527
21
-78.66
0
LINE
8
BLACK
6
CONTINUOUS
10
95.3527
20
-78.66
11
95.5196
21
-78.7208
0
LINE
8
BLACK
6
CONTINUOUS
10
95.5196
20
-78.7208
11
95.6946
21
-78.7516
0
LINE
8
BLACK
6
CONTINUOUS
10
95.6946
20
-78.7516
11
95.8485
21
-78.8405
0
LINE
8
BLACK
6
CONTINUOUS
10
95.8485
20
-78.8405
11
96.0154
21
-78.9012
0
LINE
8
BLACK
6
CONTINUOUS
10
96.0154
20
-78.9012
11
96.1515
21
-79.0154
0
LINE
8
BLACK
6
CONTINUOUS
10
96.1515
20
-79.0154
11
96.3054
21
-79.1043
0
LINE
8
BLACK
6
CONTINUOUS
10
96.3054
20
-79.1043
11
96.4196
21
-79.2404
0
LINE
8
BLACK
6
CONTINUOUS
10
96.4196
20
-79.2404
11
96.5557
21
-79.3546
0
LINE
8
BLACK
6
CONTINUOUS
10
96.5557
20
-79.3546
11
96.6446
21
-79.5085
0
LINE
8
BLACK
6
CONTINUOUS
10
96.6446
20
-79.5085
11
96.7588
21
-79.6446
0
LINE
8
BLACK
6
CONTINUOUS
10
96.7588
20
-79.6446
11
96.8195
21
-79.8115
0
LINE
8
BLACK
6
CONTINUOUS
10
96.8195
20
-79.8115
11
96.9084
21
-79.9654
0
LINE
8
BLACK
6
CONTINUOUS
10
96.9084
20
-79.9654
11
96.9392
21
-80.1404
0
LINE
8
BLACK
6
CONTINUOUS
10
96.9392
20
-80.1404
11
97
21
-80.3073
0
LINE
8
BLACK
6
CONTINUOUS
10
97
20
-80.3073
11
97
21
-87.4151
0
LINE
8
BLACK
6
CONTINUOUS
10
97
20
-87.4151
11
97.2504
21
-88.1032
0
LINE
8
BLACK
6
CONTINUOUS
10
107.695
20
-69.5916
11
108.305
21
-69.9443
0
LINE
8
BLACK
6
CONTINUOUS
10
108.305
20
-69.9443
11
108.352
21
-70
0
LINE
8
BLACK
6
CONTINUOUS
10
108.352
20
-70
11
113.435
21
-70
0
LINE
8
BLACK
6
CONTINUOUS
10
113.435
20
-70
11
113.633
21
-69.9827
0
LINE
8
BLACK
6
CONTINUOUS
10
113.633
20
-69.9827
11
113.825
21
-70.0342
0
LINE
8
BLACK
6
CONTINUOUS
10
113.825
20
-70.0342
11
114.021
21
-70.0687
0
LINE
8
BLACK
6
CONTINUOUS
10
114.021
20
-70.0687
11
114.079
21
-70.1022
0
LINE
8
BLACK
6
CONTINUOUS
10
114.079
20
-70.1022
11
114.144
21
-70.1196
0
LINE
8
BLACK
6
CONTINUOUS
10
114.144
20
-70.1196
11
114.307
21
-70.2337
0
LINE
8
BLACK
6
CONTINUOUS
10
114.307
20
-70.2337
11
114.479
21
-70.3332
0
LINE
8
BLACK
6
CONTINUOUS
10
114.479
20
-70.3332
11
114.607
21
-70.4856
0
LINE
8
BLACK
6
CONTINUOUS
10
114.607
20
-70.4856
11
115.621
21
-71.5
0
LINE
8
BLACK
6
CONTINUOUS
10
115.621
20
-71.5
11
117.435
21
-71.5
0
LINE
8
BLACK
6
CONTINUOUS
10
117.435
20
-71.5
11
117.633
21
-71.4827
0
LINE
8
BLACK
6
CONTINUOUS
10
117.633
20
-71.4827
11
117.825
21
-71.5342
0
LINE
8
BLACK
6
CONTINUOUS
10
117.825
20
-71.5342
11
118.021
21
-71.5687
0
LINE
8
BLACK
6
CONTINUOUS
10
118.021
20
-71.5687
11
118.079
21
-71.6022
0
LINE
8
BLACK
6
CONTINUOUS
10
118.079
20
-71.6022
11
118.144
21
-71.6196
0
LINE
8
BLACK
6
CONTINUOUS
10
118.144
20
-71.6196
11
118.307
21
-71.7337
0
LINE
8
BLACK
6
CONTINUOUS
10
118.307
20
-71.7337
11
118.479
21
-71.8332
0
LINE
8
BLACK
6
CONTINUOUS
10
118.479
20
-71.8332
11
118.607
21
-71.9856
0
LINE
8
BLACK
6
CONTINUOUS
10
118.607
20
-71.9856
11
120.014
21
-73.393
0
LINE
8
BLACK
6
CONTINUOUS
10
120.014
20
-73.393
11
120.167
21
-73.5209
0
LINE
8
BLACK
6
CONTINUOUS
10
120.167
20
-73.5209
11
120.266
21
-73.6933
0
LINE
8
BLACK
6
CONTINUOUS
10
120.266
20
-73.6933
11
120.38
21
-73.8563
0
LINE
8
BLACK
6
CONTINUOUS
10
120.38
20
-73.8563
11
120.398
21
-73.921
0
LINE
8
BLACK
6
CONTINUOUS
10
120.398
20
-73.921
11
120.431
21
-73.9791
0
LINE
8
BLACK
6
CONTINUOUS
10
120.431
20
-73.9791
11
120.466
21
-74.175
0
LINE
8
BLACK
6
CONTINUOUS
10
120.466
20
-74.175
11
120.517
21
-74.3672
0
LINE
8
BLACK
6
CONTINUOUS
10
120.517
20
-74.3672
11
120.5
21
-74.5655
0
LINE
8
BLACK
6
CONTINUOUS
10
120.5
20
-74.5655
11
120.5
21
-81.4951
0
LINE
8
BLACK
6
CONTINUOUS
10
120.5
20
-81.4951
11
120.945
21
-81.8682
0
LINE
8
BLACK
6
CONTINUOUS
10
120.945
20
-81.8682
11
121.385
21
-82.6318
0
LINE
8
BLACK
6
CONTINUOUS
10
121.385
20
-82.6318
11
121.5
21
-83.2813
0
LINE
8
BLACK
6
CONTINUOUS
10
121.5
20
-83.2813
11
121.5
21
-84.7187
0
LINE
8
BLACK
6
CONTINUOUS
10
121.5
20
-84.7187
11
121.385
21
-85.3682
0
LINE
8
BLACK
6
CONTINUOUS
10
121.385
20
-85.3682
11
120.945
21
-86.1318
0
LINE
8
BLACK
6
CONTINUOUS
10
120.945
20
-86.1318
11
120.269
21
-86.6985
0
LINE
8
BLACK
6
CONTINUOUS
10
120.269
20
-86.6985
11
119.441
21
-87
0
LINE
8
BLACK
6
CONTINUOUS
10
119.441
20
-87
11
118.559
21
-87
0
LINE
8
BLACK
6
CONTINUOUS
10
118.559
20
-87
11
117.731
21
-86.6985
0
LINE
8
BLACK
6
CONTINUOUS
10
117.731
20
-86.6985
11
117.055
21
-86.1318
0
LINE
8
BLACK
6
CONTINUOUS
10
117.055
20
-86.1318
11
116.615
21
-85.3682
0
LINE
8
BLACK
6
CONTINUOUS
10
116.615
20
-85.3682
11
116.5
21
-84.7187
0
LINE
8
BLACK
6
CONTINUOUS
10
116.5
20
-84.7187
11
116.5
21
-83.2813
0
LINE
8
BLACK
6
CONTINUOUS
10
116.5
20
-83.2813
11
116.615
21
-82.6318
0
LINE
8
BLACK
6
CONTINUOUS
10
116.615
20
-82.6318
11
117.055
21
-81.8682
0
LINE
8
BLACK
6
CONTINUOUS
10
117.055
20
-81.8682
11
117.5
21
-81.4951
0
LINE
8
BLACK
6
CONTINUOUS
10
117.5
20
-81.4951
11
117.5
21
-75.1213
0
LINE
8
BLACK
6
CONTINUOUS
10
117.5
20
-75.1213
11
116.879
21
-74.5
0
LINE
8
BLACK
6
CONTINUOUS
10
116.879
20
-74.5
11
115.065
21
-74.5
0
LINE
8
BLACK
6
CONTINUOUS
10
115.065
20
-74.5
11
114.867
21
-74.5173
0
LINE
8
BLACK
6
CONTINUOUS
10
114.867
20
-74.5173
11
114.675
21
-74.4658
0
LINE
8
BLACK
6
CONTINUOUS
10
114.675
20
-74.4658
11
114.479
21
-74.4313
0
LINE
8
BLACK
6
CONTINUOUS
10
114.479
20
-74.4313
11
114.421
21
-74.3978
0
LINE
8
BLACK
6
CONTINUOUS
10
114.421
20
-74.3978
11
114.356
21
-74.3804
0
LINE
8
BLACK
6
CONTINUOUS
10
114.356
20
-74.3804
11
114.193
21
-74.2663
0
LINE
8
BLACK
6
CONTINUOUS
10
114.193
20
-74.2663
11
114.021
21
-74.1668
0
LINE
8
BLACK
6
CONTINUOUS
10
114.021
20
-74.1668
11
113.893
21
-74.0144
0
LINE
8
BLACK
6
CONTINUOUS
10
113.893
20
-74.0144
11
112.879
21
-73
0
LINE
8
BLACK
6
CONTINUOUS
10
112.879
20
-73
11
108.352
21
-73
0
LINE
8
BLACK
6
CONTINUOUS
10
108.352
20
-73
11
108.305
21
-73.0557
0
LINE
8
BLACK
6
CONTINUOUS
10
108.305
20
-73.0557
11
107.695
21
-73.4084
0
LINE
8
BLACK
6
CONTINUOUS
10
107.695
20
-73.4084
11
107.175
21
-73.5
0
LINE
8
BLACK
6
CONTINUOUS
10
107.175
20
-73.5
11
105.825
21
-73.5
0
LINE
8
BLACK
6
CONTINUOUS
10
105.825
20
-73.5
11
105.305
21
-73.4084
0
LINE
8
BLACK
6
CONTINUOUS
10
105.305
20
-73.4084
11
104.695
21
-73.0557
0
LINE
8
BLACK
6
CONTINUOUS
10
104.695
20
-73.0557
11
104.241
21
-72.5154
0
LINE
8
BLACK
6
CONTINUOUS
10
104.241
20
-72.5154
11
104
21
-71.8527
0
LINE
8
BLACK
6
CONTINUOUS
10
104
20
-71.8527
11
104
21
-71.1473
0
LINE
8
BLACK
6
CONTINUOUS
10
104
20
-71.1473
11
104.241
21
-70.4846
0
LINE
8
BLACK
6
CONTINUOUS
10
104.241
20
-70.4846
11
104.695
21
-69.9443
0
LINE
8
BLACK
6
CONTINUOUS
10
104.695
20
-69.9443
11
105.305
21
-69.5916
0
LINE
8
BLACK
6
CONTINUOUS
10
105.305
20
-69.5916
11
105.825
21
-69.5
0
LINE
8
BLACK
6
CONTINUOUS
10
105.825
20
-69.5
11
107.175
21
-69.5
0
LINE
8
BLACK
6
CONTINUOUS
10
107.175
20
-69.5
11
107.695
21
-69.5916
0
LINE
8
BLACK
6
CONTINUOUS
10
95.175
20
-68.5
11
99.4127
21
-68.5
0
LINE
8
BLACK
6
CONTINUOUS
10
99.4127
20
-68.5
11
99.677
21
-68.4769
0
LINE
8
BLACK
6
CONTINUOUS
10
99.677
20
-68.4769
11
99.9333
21
-68.5455
0
LINE
8
BLACK
6
CONTINUOUS
10
99.9333
20
-68.5455
11
100.195
21
-68.5916
0
LINE
8
BLACK
6
CONTINUOUS
10
100.195
20
-68.5916
11
100.272
21
-68.6363
0
LINE
8
BLACK
6
CONTINUOUS
10
100.272
20
-68.6363
11
100.358
21
-68.6594
0
LINE
8
BLACK
6
CONTINUOUS
10
100.358
20
-68.6594
11
100.576
21
-68.8116
0
LINE
8
BLACK
6
CONTINUOUS
10
100.576
20
-68.8116
11
100.805
21
-68.9443
0
LINE
8
BLACK
6
CONTINUOUS
10
100.805
20
-68.9443
11
100.976
21
-69.1475
0
LINE
8
BLACK
6
CONTINUOUS
10
100.976
20
-69.1475
11
101.361
21
-69.5328
0
LINE
8
BLACK
6
CONTINUOUS
10
101.361
20
-69.5328
11
101.695
21
-69.5916
0
LINE
8
BLACK
6
CONTINUOUS
10
101.695
20
-69.5916
11
102.305
21
-69.9443
0
LINE
8
BLACK
6
CONTINUOUS
10
102.305
20
-69.9443
11
102.759
21
-70.4846
0
LINE
8
BLACK
6
CONTINUOUS
10
102.759
20
-70.4846
11
103
21
-71.1473
0
LINE
8
BLACK
6
CONTINUOUS
10
103
20
-71.1473
11
103
21
-71.8527
0
LINE
8
BLACK
6
CONTINUOUS
10
103
20
-71.8527
11
102.759
21
-72.5154
0
LINE
8
BLACK
6
CONTINUOUS
10
102.759
20
-72.5154
11
102.305
21
-73.0557
0
LINE
8
BLACK
6
CONTINUOUS
10
102.305
20
-73.0557
11
101.695
21
-73.4084
0
LINE
8
BLACK
6
CONTINUOUS
10
101.695
20
-73.4084
11
101.175
21
-73.5
0
LINE
8
BLACK
6
CONTINUOUS
10
101.175
20
-73.5
11
100.587
21
-73.5
0
LINE
8
BLACK
6
CONTINUOUS
10
100.587
20
-73.5
11
100.323
21
-73.5231
0
LINE
8
BLACK
6
CONTINUOUS
10
100.323
20
-73.5231
11
100.237
21
-73.5
0
LINE
8
BLACK
6
CONTINUOUS
10
100.237
20
-73.5
11
99.825
21
-73.5
0
LINE
8
BLACK
6
CONTINUOUS
10
99.825
20
-73.5
11
99.3054
21
-73.4084
0
LINE
8
BLACK
6
CONTINUOUS
10
99.3054
20
-73.4084
11
98.6946
21
-73.0557
0
LINE
8
BLACK
6
CONTINUOUS
10
98.6946
20
-73.0557
11
98.2412
21
-72.5154
0
LINE
8
BLACK
6
CONTINUOUS
10
98.2412
20
-72.5154
11
98.2356
21
-72.5
0
LINE
8
BLACK
6
CONTINUOUS
10
98.2356
20
-72.5
11
95.175
21
-72.5
0
LINE
8
BLACK
6
CONTINUOUS
10
95.175
20
-72.5
11
95
21
-72.5309
0
LINE
8
BLACK
6
CONTINUOUS
10
95
20
-72.5309
11
94.3054
21
-72.4084
0
LINE
8
BLACK
6
CONTINUOUS
10
94.3054
20
-72.4084
11
93.6946
21
-72.0557
0
LINE
8
BLACK
6
CONTINUOUS
10
93.6946
20
-72.0557
11
93.2412
21
-71.5154
0
LINE
8
BLACK
6
CONTINUOUS
10
93.2412
20
-71.5154
11
93
21
-70.8527
0
LINE
8
BLACK
6
CONTINUOUS
10
93
20
-70.8527
11
93
21
-70.1473
0
LINE
8
BLACK
6
CONTINUOUS
10
93
20
-70.1473
11
93.0286
21
-70.0687
0
LINE
8
BLACK
6
CONTINUOUS
10
93.0286
20
-70.0687
11
93.2412
21
-69.4846
0
LINE
8
BLACK
6
CONTINUOUS
10
93.2412
20
-69.4846
11
93.6946
21
-68.9443
0
LINE
8
BLACK
6
CONTINUOUS
10
93.6946
20
-68.9443
11
94.3054
21
-68.5916
0
LINE
8
BLACK
6
CONTINUOUS
10
94.3054
20
-68.5916
11
94.825
21
-68.5
0
LINE
8
BLACK
6
CONTINUOUS
10
94.825
20
-68.5
11
95
21
-68.4691
0
LINE
8
BLACK
6
CONTINUOUS
10
95
20
-68.4691
11
95.175
21
-68.5
0
CIRCLE
8
BLACK
10
140.5
20
-90.5
40
0.175
0
CIRCLE
8
BLACK
10
134.5
20
-90.5
40
0.175
0
CIRCLE
8
BLACK
10
140.5
20
-96.5
40
0.175
0
CIRCLE
8
BLACK
10
134.5
20
-96.5
40
0.175
0
CIRCLE
8
BLACK
10
100.5
20
-71.5
40
0.175
0
CIRCLE
8
BLACK
10
106.5
20
-71.5
40
0.175
0
CIRCLE
8
BLACK
10
100.5
20
-77.5
40
0.175
0
CIRCLE
8
BLACK
10
106.5
20
-77.5
40
0.175
0
CIRCLE
8
BLACK
10
95
20
-80.66
40
0.175
0
CIRCLE
8
BLACK
10
95
20
-70.5
40
0.175
0
CIRCLE
8
BLACK
10
127.5
20
-98
40
0.175
0
CIRCLE
8
BLACK
10
127.5
20
-94.5
40
0.175
0
CIRCLE
8
BLACK
10
119
20
-99
40
0.175
0
CIRCLE
8
BLACK
10
108
20
-84
40
0.175
0
CIRCLE
8
BLACK
10
108
20
-99
40
0.175
0
CIRCLE
8
BLACK
10
119
20
-84
40
0.175
0
CIRCLE
8
BLACK
10
115
20
-76.5
40
0.175
0
CIRCLE
8
BLACK
10
115
20
-73
40
0.175
0
CIRCLE
8
BLACK
10
95
20
-88.5
40
0.175
0
CIRCLE
8
BLACK
10
95
20
-98.5
40
0.175
0
CIRCLE
8
BLACK
10
147
20
-70
40
0.175
0
CIRCLE
8
BLACK
10
147.5
20
-98.5
40
0.175
0
CIRCLE
8
BLACK
10
127
20
-77.5
40
0.175
0
CIRCLE
8
BLACK
10
132
20
-77.5
40
0.175
0
CIRCLE
8
BLACK
10
141.5
20
-70
40
0.175
0
CIRCLE
8
BLACK
10
152.5
20
-70
40
0.175
0
CIRCLE
8
BLACK
10
152.5
20
-75.5
40
0.175
0
CIRCLE
8
BLACK
10
153
20
-98.5
40
0.175
0
CIRCLE
8
BLACK
10
153
20
-93
40
0.175
0
CIRCLE
8
BLACK
10
153
20
-87.5
40
0.175
  0
ENDSEC
  0
EOF
