  0
SECTION
  2
HEADER
  9
$ANGBASE
  50
0.0
  9
$ANGDIR
  70
  1
  9
$MEASUREMENT
  70
0
  0
ENDSEC
  0
SECTION
  2
TABLES
  0
TABLE
  2
LTYPE
  70
4
  0
LTYPE
  5
40F
  2
CONTINUOUS
  70
0
  3
Solid line
  72
65
  73
0
  40
0.0
  0
LTYPE
  5
410
  2
DASHDOT
 70
0
  3
Dash Dot ____ _ ____ _
 72
65
 73
4
 40
2.0
 49
1.25
 49
-0.25
 49
0.25
 49
-0.25
  0
LTYPE
  5
411
  2
DASHED
 70
0
  3
Dashed __ __ __ __ __
 72
65
 73
2
 40
0.75
 49
0.5
 49
-0.25
  0
LTYPE
  5
43B
  2
DOTTED
 70
0
  3
Dotted .  .  .  .
 72
65
 73
2
 40
0.2
 49
0.0
 49
-0.2
  0
ENDTAB
  0
TABLE
  2
STYLE
  70
4
  0
STYLE
  2
KICAD
  70
0
  40
0
  41
1
  42
1
  50
0
  71
0
  3
isocp.shx
  0
STYLE
  2
KICADB
  70
0
  40
0
  41
1
  42
1
  50
0
  71
0
  3
isocp.shx
  0
STYLE
  2
KICADI
  70
0
  40
0
  41
1
  42
1
  50
15
  71
0
  3
isocp.shx
  0
STYLE
  2
KICADBI
  70
0
  40
0
  41
1
  42
1
  50
15
  71
0
  3
isocp.shx
  0
ENDTAB
  0
TABLE
  2
LAYER
  70
30
  0
LAYER
  2
BLACK
  70
0
  62
7
  6
CONTINUOUS
  0
LAYER
  2
GRAY1
  70
0
  62
251
  6
CONTINUOUS
  0
LAYER
  2
GRAY2
  70
0
  62
8
  6
CONTINUOUS
  0
LAYER
  2
GRAY3
  70
0
  62
9
  6
CONTINUOUS
  0
LAYER
  2
WHITE
  70
0
  62
7
  6
CONTINUOUS
  0
LAYER
  2
LYELLOW
  70
0
  62
51
  6
CONTINUOUS
  0
LAYER
  2
BLUE1
  70
0
  62
178
  6
CONTINUOUS
  0
LAYER
  2
GREEN1
  70
0
  62
98
  6
CONTINUOUS
  0
LAYER
  2
CYAN1
  70
0
  62
138
  6
CONTINUOUS
  0
LAYER
  2
RED1
  70
0
  62
18
  6
CONTINUOUS
  0
LAYER
  2
MAGENTA1
  70
0
  62
228
  6
CONTINUOUS
  0
LAYER
  2
BROWN1
  70
0
  62
58
  6
CONTINUOUS
  0
LAYER
  2
BLUE2
  70
0
  62
5
  6
CONTINUOUS
  0
LAYER
  2
GREEN2
  70
0
  62
3
  6
CONTINUOUS
  0
LAYER
  2
CYAN2
  70
0
  62
4
  6
CONTINUOUS
  0
LAYER
  2
RED2
  70
0
  62
1
  6
CONTINUOUS
  0
LAYER
  2
MAGENTA2
  70
0
  62
6
  6
CONTINUOUS
  0
LAYER
  2
BROWN2
  70
0
  62
54
  6
CONTINUOUS
  0
LAYER
  2
BLUE3
  70
0
  62
171
  6
CONTINUOUS
  0
LAYER
  2
GREEN3
  70
0
  62
91
  6
CONTINUOUS
  0
LAYER
  2
CYAN3
  70
0
  62
131
  6
CONTINUOUS
  0
LAYER
  2
RED3
  70
0
  62
11
  6
CONTINUOUS
  0
LAYER
  2
MAGENTA3
  70
0
  62
221
  6
CONTINUOUS
  0
LAYER
  2
YELLOW3
  70
0
  62
2
  6
CONTINUOUS
  0
LAYER
  2
BLUE4
  70
0
  62
5
  6
CONTINUOUS
  0
LAYER
  2
GREEN4
  70
0
  62
3
  6
CONTINUOUS
  0
LAYER
  2
CYAN4
  70
0
  62
4
  6
CONTINUOUS
  0
LAYER
  2
RED4
  70
0
  62
1
  6
CONTINUOUS
  0
LAYER
  2
MAGENTA4
  70
0
  62
6
  6
CONTINUOUS
  0
LAYER
  2
YELLOW4
  70
0
  62
2
  6
CONTINUOUS
  0
ENDTAB
  0
ENDSEC
  0
SECTION
  2
ENTITIES
0
LINE
8
BLACK
6
CONTINUOUS
10
83
20
-44
11
97
21
-44
0
LINE
8
BLACK
6
CONTINUOUS
10
82.5
20
-36.5
11
82.5
21
-43.5
0
LINE
8
BLACK
6
CONTINUOUS
10
97
20
-36
11
83
21
-36
0
LINE
8
BLACK
6
CONTINUOUS
10
65
20
-36
11
79
21
-36
0
LINE
8
BLACK
6
CONTINUOUS
10
64.5
20
-43.5
11
64.5
21
-36.5
0
LINE
8
BLACK
6
CONTINUOUS
10
79
20
-44
11
65
21
-44
0
LINE
8
BLACK
6
CONTINUOUS
10
79.5
20
-36.5
11
79.5
21
-43.5
0
ARC
8
BLACK
10
65
20
-36.5
40
0.5
50
90
51
180
0
ARC
8
BLACK
10
65
20
-43.5
40
0.5
50
180
51
270
0
ARC
8
BLACK
10
79
20
-43.5
40
0.5
50
-90
51
-0
0
ARC
8
BLACK
10
83
20
-43.5
40
0.5
50
180
51
270
0
ARC
8
BLACK
10
79
20
-36.5
40
0.5
50
-0
51
90
0
ARC
8
BLACK
10
83
20
-36.5
40
0.5
50
90
51
180
0
ARC
8
BLACK
10
61.5
20
-81.5
40
0.5
50
180
51
270
0
ARC
8
BLACK
10
61.5
20
-85.5
40
0.5
50
90
51
180
0
ARC
8
BLACK
10
61.5
20
-125.5
40
0.5
50
180
51
270
0
ARC
8
BLACK
10
115.5
20
-105.5
40
0.5
50
90
51
180
0
ARC
8
BLACK
10
111.5
20
-125.5
40
0.5
50
-90
51
-0
0
ARC
8
BLACK
10
115.5
20
-125.5
40
0.5
50
180
51
270
0
ARC
8
BLACK
10
151.5
20
-125.5
40
0.5
50
-90
51
-0
0
LINE
8
BLACK
6
CONTINUOUS
10
145
20
-102
11
152
21
-102
0
ARC
8
BLACK
10
145
20
-101.5
40
0.5
50
180
51
270
0
ARC
8
BLACK
10
151.5
20
-105.5
40
0.5
50
-0
51
90
0
ARC
8
BLACK
10
152
20
-101.5
40
0.5
50
-90
51
-0
0
LINE
8
BLACK
6
CONTINUOUS
10
152
20
-87
11
145
21
-87
0
LINE
8
BLACK
6
CONTINUOUS
10
152
20
-83
11
145
21
-83
0
ARC
8
BLACK
10
145
20
-87.5
40
0.5
50
90
51
180
0
ARC
8
BLACK
10
152
20
-87.5
40
0.5
50
-0
51
90
0
ARC
8
BLACK
10
152
20
-82.5
40
0.5
50
-90
51
-0
0
ARC
8
BLACK
10
145
20
-82.5
40
0.5
50
180
51
270
0
ARC
8
BLACK
10
114.5
20
-81.5
40
0.5
50
-90
51
-0
0
ARC
8
BLACK
10
111.5
20
-85.5
40
0.5
50
-0
51
90
0
LINE
8
BLACK
6
CONTINUOUS
10
140.5
20
-69
11
118.5
21
-69
0
ARC
8
BLACK
10
118.5
20
-68.5
40
0.5
50
180
51
270
0
ARC
8
BLACK
10
140.5
20
-68.5
40
0.5
50
-90
51
-0
0
ARC
8
BLACK
10
145
20
-50.5
40
0.5
50
90
51
180
0
ARC
8
BLACK
10
140.5
20
-50.5
40
0.5
50
-0
51
90
0
ARC
8
BLACK
10
152
20
-50.5
40
0.5
50
-0
51
90
0
ARC
8
BLACK
10
151
20
-36.5
40
0.5
50
-0
51
90
0
ARC
8
BLACK
10
151
20
-43.5
40
0.5
50
-90
51
-0
0
ARC
8
BLACK
10
115
20
-36.5
40
0.5
50
-0
51
90
0
ARC
8
BLACK
10
119
20
-36.5
40
0.5
50
90
51
180
0
ARC
8
BLACK
10
101
20
-36.5
40
0.5
50
90
51
180
0
ARC
8
BLACK
10
97
20
-36.5
40
0.5
50
-0
51
90
0
ARC
8
BLACK
10
97
20
-43.5
40
0.5
50
-90
51
-0
0
ARC
8
BLACK
10
101
20
-43.5
40
0.5
50
180
51
270
0
ARC
8
BLACK
10
119
20
-43.5
40
0.5
50
180
51
270
0
ARC
8
BLACK
10
115
20
-43.5
40
0.5
50
-90
51
-0
0
ARC
8
BLACK
10
118.5
20
-50.5
40
0.5
50
90
51
180
0
ARC
8
BLACK
10
114.5
20
-47.5
40
0.5
50
-0
51
90
0
ARC
8
BLACK
10
61.5
20
-47.5
40
0.5
50
90
51
180
0
CIRCLE
8
BLACK
10
143
20
-103
40
1
0
CIRCLE
8
BLACK
10
143
20
-47
40
1
0
LINE
8
BLACK
6
CONTINUOUS
10
130
20
-44
11
151
21
-44
0
LINE
8
BLACK
6
CONTINUOUS
10
140.5
20
-50
11
126
21
-50
0
LINE
8
BLACK
6
CONTINUOUS
10
119
20
-44
11
130
21
-44
0
LINE
8
BLACK
6
CONTINUOUS
10
101
20
-44
11
115
21
-44
0
LINE
8
BLACK
6
CONTINUOUS
10
144.5
20
-82.5
11
144.5
21
-61.5
0
LINE
8
BLACK
6
CONTINUOUS
10
141
20
-57.5
11
141
21
-68.5
0
LINE
8
BLACK
6
CONTINUOUS
10
141
20
-50.5
11
141
21
-57.5
0
LINE
8
BLACK
6
CONTINUOUS
10
144.5
20
-50.5
11
144.5
21
-61.5
0
LINE
8
BLACK
6
CONTINUOUS
10
118
20
-68.5
11
118
21
-64
0
LINE
8
BLACK
6
CONTINUOUS
10
118
20
-56
11
118
21
-64
0
LINE
8
BLACK
6
CONTINUOUS
10
118
20
-50.5
11
118
21
-56
0
LINE
8
BLACK
6
CONTINUOUS
10
118.5
20
-36.5
11
118.5
21
-43.5
0
LINE
8
BLACK
6
CONTINUOUS
10
115.5
20
-36.5
11
115.5
21
-43.5
0
LINE
8
BLACK
6
CONTINUOUS
10
118.5
20
-50
11
126
21
-50
0
LINE
8
BLACK
6
CONTINUOUS
10
102
20
-47
11
114.5
21
-47
0
LINE
8
BLACK
6
CONTINUOUS
10
84
20
-47
11
102
21
-47
0
LINE
8
BLACK
6
CONTINUOUS
10
70
20
-47
11
84
21
-47
0
LINE
8
BLACK
6
CONTINUOUS
10
61.5
20
-47
11
70
21
-47
0
LINE
8
BLACK
6
CONTINUOUS
10
145
20
-50
11
152
21
-50
0
LINE
8
BLACK
6
CONTINUOUS
10
151.5
20
-38
11
151.5
21
-42
0
LINE
8
BLACK
6
CONTINUOUS
10
151.5
20
-36.5
11
151.5
21
-38
0
LINE
8
BLACK
6
CONTINUOUS
10
151.5
20
-43.5
11
151.5
21
-42
0
LINE
8
BLACK
6
CONTINUOUS
10
119
20
-36
11
151
21
-36
0
LINE
8
BLACK
6
CONTINUOUS
10
100.5
20
-38
11
100.5
21
-36.5
0
LINE
8
BLACK
6
CONTINUOUS
10
101
20
-36
11
115
21
-36
0
LINE
8
BLACK
6
CONTINUOUS
10
100.5
20
-38
11
100.5
21
-43.5
0
LINE
8
BLACK
6
CONTINUOUS
10
97.5
20
-43.5
11
97.5
21
-42
0
LINE
8
BLACK
6
CONTINUOUS
10
97.5
20
-42
11
97.5
21
-36.5
0
LINE
8
BLACK
6
CONTINUOUS
10
141.5
20
-88.5
11
141.5
21
-93
0
LINE
8
BLACK
6
CONTINUOUS
10
144.5
20
-101.5
11
144.5
21
-92.5
0
LINE
8
BLACK
6
CONTINUOUS
10
141.5
20
-88.5
11
141.5
21
-85
0
LINE
8
BLACK
6
CONTINUOUS
10
144.5
20
-87.5
11
144.5
21
-92.5
0
LINE
8
BLACK
6
CONTINUOUS
10
151.5
20
-105
11
132
21
-105
0
LINE
8
BLACK
6
CONTINUOUS
10
132
20
-105
11
128
21
-105
0
LINE
8
BLACK
6
CONTINUOUS
10
112
20
-85.5
11
112
21
-108.5
0
LINE
8
BLACK
6
CONTINUOUS
10
118
20
-93
11
118
21
-88.5
0
LINE
8
BLACK
6
CONTINUOUS
10
118
20
-85.5
11
118
21
-88.5
0
LINE
8
BLACK
6
CONTINUOUS
10
152.5
20
-50.5
11
152.5
21
-82.5
0
LINE
8
BLACK
6
CONTINUOUS
10
118
20
-81.5
11
118
21
-85.5
0
LINE
8
BLACK
6
CONTINUOUS
10
115
20
-47.5
11
115
21
-56
0
LINE
8
BLACK
6
CONTINUOUS
10
115
20
-56
11
115
21
-64
0
LINE
8
BLACK
6
CONTINUOUS
10
115
20
-81.5
11
115
21
-64
0
LINE
8
BLACK
6
CONTINUOUS
10
141.5
20
-85
11
141.5
21
-81.5
0
LINE
8
BLACK
6
CONTINUOUS
10
115.5
20
-105
11
128
21
-105
0
LINE
8
BLACK
6
CONTINUOUS
10
115
20
-105.5
11
115
21
-108.5
0
LINE
8
BLACK
6
CONTINUOUS
10
115
20
-125.5
11
115
21
-108.5
0
LINE
8
BLACK
6
CONTINUOUS
10
112
20
-125.5
11
112
21
-108.5
0
LINE
8
BLACK
6
CONTINUOUS
10
96
20
-85
11
111.5
21
-85
0
LINE
8
BLACK
6
CONTINUOUS
10
114.5
20
-82
11
100
21
-82
0
LINE
8
BLACK
6
CONTINUOUS
10
100
20
-82
11
74
21
-82
0
LINE
8
BLACK
6
CONTINUOUS
10
96
20
-85
11
70
21
-85
0
LINE
8
BLACK
6
CONTINUOUS
10
70
20
-85
11
61.5
21
-85
0
LINE
8
BLACK
6
CONTINUOUS
10
74
20
-82
11
61.5
21
-82
0
LINE
8
BLACK
6
CONTINUOUS
10
61
20
-85.5
11
61
21
-125.5
0
LINE
8
BLACK
6
CONTINUOUS
10
61.5
20
-126
11
111.5
21
-126
0
LINE
8
BLACK
6
CONTINUOUS
10
152
20
-125.5
11
152
21
-105.5
0
LINE
8
BLACK
6
CONTINUOUS
10
115.5
20
-126
11
151.5
21
-126
0
LINE
8
BLACK
6
CONTINUOUS
10
139.5
20
-95
11
133.25
21
-95
0
LINE
8
BLACK
6
CONTINUOUS
10
139.5
20
-79.5
11
133.25
21
-79.5
0
LINE
8
BLACK
6
CONTINUOUS
10
126.25
20
-79.5
11
120
21
-79.5
0
LINE
8
BLACK
6
CONTINUOUS
10
126.25
20
-95
11
120
21
-95
0
ARC
8
BLACK
10
120
20
-81.5
40
2
50
90
51
180
0
ARC
8
BLACK
10
120
20
-93
40
2
50
180
51
270
0
ARC
8
BLACK
10
139.5
20
-81.5
40
2
50
-0
51
90
0
ARC
8
BLACK
10
139.5
20
-93
40
2
50
-90
51
-0
0
LINE
8
BLACK
6
CONTINUOUS
10
133.25
20
-76.25
11
133.25
21
-79.5
0
LINE
8
BLACK
6
CONTINUOUS
10
126.25
20
-76.25
11
126.25
21
-79.5
0
LINE
8
BLACK
6
CONTINUOUS
10
133.25
20
-98.25
11
133.25
21
-95
0
LINE
8
BLACK
6
CONTINUOUS
10
126.25
20
-98.25
11
126.25
21
-95
0
ARC
8
BLACK
10
129.75
20
-76.25
40
3.5
50
-0
51
180
0
ARC
8
BLACK
10
129.75
20
-98.25
40
3.5
50
180
51
360
0
LINE
8
BLACK
6
CONTINUOUS
10
61
20
-81.5
11
61
21
-47.5
0
LINE
8
BLACK
6
CONTINUOUS
10
152.5
20
-87.5
11
152.5
21
-101.5
  0
ENDSEC
  0
EOF
