G04 #@! TF.GenerationSoftware,KiCad,Pcbnew,(5.0.0)*
G04 #@! TF.CreationDate,2019-04-09T21:19:39+02:00*
G04 #@! TF.ProjectId,AudioProcessor,417564696F50726F636573736F722E6B,rev?*
G04 #@! TF.SameCoordinates,Original*
G04 #@! TF.FileFunction,Copper,L1,Top,Signal*
G04 #@! TF.FilePolarity,Positive*
%FSLAX46Y46*%
G04 Gerber Fmt 4.6, Leading zero omitted, Abs format (unit mm)*
G04 Created by KiCad (PCBNEW (5.0.0)) date 04/09/19 21:19:39*
%MOMM*%
%LPD*%
G01*
G04 APERTURE LIST*
G04 #@! TA.AperFunction,ComponentPad*
%ADD10C,2.000000*%
G04 #@! TD*
G04 #@! TA.AperFunction,ComponentPad*
%ADD11O,1.700000X1.700000*%
G04 #@! TD*
G04 #@! TA.AperFunction,ComponentPad*
%ADD12R,1.700000X1.700000*%
G04 #@! TD*
G04 #@! TA.AperFunction,ComponentPad*
%ADD13C,1.600000*%
G04 #@! TD*
G04 #@! TA.AperFunction,SMDPad,CuDef*
%ADD14R,0.500000X0.900000*%
G04 #@! TD*
G04 #@! TA.AperFunction,SMDPad,CuDef*
%ADD15R,2.000000X0.600000*%
G04 #@! TD*
G04 #@! TA.AperFunction,SMDPad,CuDef*
%ADD16R,1.200000X0.750000*%
G04 #@! TD*
G04 #@! TA.AperFunction,SMDPad,CuDef*
%ADD17R,0.750000X1.200000*%
G04 #@! TD*
G04 #@! TA.AperFunction,ViaPad*
%ADD18C,2.000000*%
G04 #@! TD*
G04 #@! TA.AperFunction,Conductor*
%ADD19C,0.500000*%
G04 #@! TD*
G04 APERTURE END LIST*
D10*
G04 #@! TO.P,J3,2*
G04 #@! TO.N,GNDA*
X93700000Y-57770000D03*
G04 #@! TO.P,J3,1*
G04 #@! TO.N,/IN2*
X93700000Y-55230000D03*
G04 #@! TD*
D11*
G04 #@! TO.P,J5,3*
G04 #@! TO.N,Net-(C6-Pad2)*
X93700000Y-84060000D03*
G04 #@! TO.P,J5,2*
G04 #@! TO.N,GNDA*
X93700000Y-86600000D03*
D12*
G04 #@! TO.P,J5,1*
G04 #@! TO.N,Net-(C7-Pad2)*
X93700000Y-89140000D03*
G04 #@! TD*
D10*
G04 #@! TO.P,J4,1*
G04 #@! TO.N,/IN1*
X93700000Y-62300000D03*
G04 #@! TO.P,J4,2*
G04 #@! TO.N,GNDA*
X93700000Y-64840000D03*
G04 #@! TD*
G04 #@! TO.P,J1,2*
G04 #@! TO.N,GNDA*
X93700000Y-78500000D03*
G04 #@! TO.P,J1,1*
G04 #@! TO.N,/IN4*
X93700000Y-75960000D03*
G04 #@! TD*
G04 #@! TO.P,J2,1*
G04 #@! TO.N,/IN3*
X93700000Y-69100000D03*
G04 #@! TO.P,J2,2*
G04 #@! TO.N,GNDA*
X93700000Y-71640000D03*
G04 #@! TD*
D13*
G04 #@! TO.P,C13,1*
G04 #@! TO.N,GNDA*
X136500000Y-71300000D03*
G04 #@! TO.P,C13,2*
G04 #@! TO.N,Net-(C13-Pad2)*
X131500000Y-71300000D03*
G04 #@! TD*
G04 #@! TO.P,C1,2*
G04 #@! TO.N,/IN4*
X98600000Y-72100000D03*
G04 #@! TO.P,C1,1*
G04 #@! TO.N,Net-(C1-Pad1)*
X103600000Y-72100000D03*
G04 #@! TD*
G04 #@! TO.P,C2,2*
G04 #@! TO.N,/IN3*
X98600000Y-67700000D03*
G04 #@! TO.P,C2,1*
G04 #@! TO.N,Net-(C2-Pad1)*
X103600000Y-67700000D03*
G04 #@! TD*
G04 #@! TO.P,C3,2*
G04 #@! TO.N,/IN2*
X98500000Y-58600000D03*
G04 #@! TO.P,C3,1*
G04 #@! TO.N,Net-(C3-Pad1)*
X103500000Y-58600000D03*
G04 #@! TD*
G04 #@! TO.P,C4,1*
G04 #@! TO.N,Net-(C4-Pad1)*
X103500000Y-63200000D03*
G04 #@! TO.P,C4,2*
G04 #@! TO.N,/IN1*
X98500000Y-63200000D03*
G04 #@! TD*
G04 #@! TO.P,C5,1*
G04 #@! TO.N,Net-(C5-Pad1)*
X113700000Y-90600000D03*
G04 #@! TO.P,C5,2*
G04 #@! TO.N,Net-(C5-Pad2)*
X113700000Y-85600000D03*
G04 #@! TD*
G04 #@! TO.P,C6,1*
G04 #@! TO.N,Net-(C6-Pad1)*
X108300000Y-78400000D03*
G04 #@! TO.P,C6,2*
G04 #@! TO.N,Net-(C6-Pad2)*
X103300000Y-78400000D03*
G04 #@! TD*
G04 #@! TO.P,C7,1*
G04 #@! TO.N,Net-(C7-Pad1)*
X108300000Y-82600000D03*
G04 #@! TO.P,C7,2*
G04 #@! TO.N,Net-(C7-Pad2)*
X103300000Y-82600000D03*
G04 #@! TD*
G04 #@! TO.P,C8,2*
G04 #@! TO.N,Net-(C5-Pad1)*
X117400000Y-90600000D03*
G04 #@! TO.P,C8,1*
G04 #@! TO.N,Net-(C8-Pad1)*
X117400000Y-85600000D03*
G04 #@! TD*
G04 #@! TO.P,C9,1*
G04 #@! TO.N,Net-(C10-Pad2)*
X121200000Y-90600000D03*
G04 #@! TO.P,C9,2*
G04 #@! TO.N,Net-(C9-Pad2)*
X121200000Y-85600000D03*
G04 #@! TD*
G04 #@! TO.P,C10,2*
G04 #@! TO.N,Net-(C10-Pad2)*
X125100000Y-90600000D03*
G04 #@! TO.P,C10,1*
G04 #@! TO.N,Net-(C10-Pad1)*
X125100000Y-85600000D03*
G04 #@! TD*
G04 #@! TO.P,C11,2*
G04 #@! TO.N,Net-(C11-Pad2)*
X135200000Y-81200000D03*
G04 #@! TO.P,C11,1*
G04 #@! TO.N,GNDA*
X135200000Y-86200000D03*
G04 #@! TD*
G04 #@! TO.P,C12,2*
G04 #@! TO.N,Net-(C12-Pad2)*
X131200000Y-81200000D03*
G04 #@! TO.P,C12,1*
G04 #@! TO.N,GNDA*
X131200000Y-86200000D03*
G04 #@! TD*
D12*
G04 #@! TO.P,J6,1*
G04 #@! TO.N,/SDA*
X141200000Y-78020000D03*
D11*
G04 #@! TO.P,J6,2*
G04 #@! TO.N,/SCL*
X141200000Y-80560000D03*
G04 #@! TO.P,J6,3*
G04 #@! TO.N,GND*
X141200000Y-83100000D03*
G04 #@! TD*
D10*
G04 #@! TO.P,J7,1*
G04 #@! TO.N,/LOUT*
X141300000Y-55960000D03*
G04 #@! TO.P,J7,2*
G04 #@! TO.N,GNDA*
X141300000Y-58500000D03*
G04 #@! TD*
G04 #@! TO.P,J8,2*
G04 #@! TO.N,GNDA*
X141300000Y-62460000D03*
G04 #@! TO.P,J8,1*
G04 #@! TO.N,/ROUT*
X141300000Y-65000000D03*
G04 #@! TD*
G04 #@! TO.P,J9,1*
G04 #@! TO.N,+9V*
X141300000Y-69860000D03*
G04 #@! TO.P,J9,2*
G04 #@! TO.N,GNDA*
X141300000Y-72400000D03*
G04 #@! TD*
D14*
G04 #@! TO.P,R1,2*
G04 #@! TO.N,Net-(C1-Pad1)*
X108850000Y-56600000D03*
G04 #@! TO.P,R1,1*
G04 #@! TO.N,Net-(R1-Pad1)*
X110350000Y-56600000D03*
G04 #@! TD*
G04 #@! TO.P,R2,2*
G04 #@! TO.N,Net-(C2-Pad1)*
X108850000Y-58800000D03*
G04 #@! TO.P,R2,1*
G04 #@! TO.N,Net-(R2-Pad1)*
X110350000Y-58800000D03*
G04 #@! TD*
G04 #@! TO.P,R3,1*
G04 #@! TO.N,Net-(R3-Pad1)*
X110350000Y-61000000D03*
G04 #@! TO.P,R3,2*
G04 #@! TO.N,Net-(C3-Pad1)*
X108850000Y-61000000D03*
G04 #@! TD*
G04 #@! TO.P,R4,1*
G04 #@! TO.N,Net-(R4-Pad1)*
X110300000Y-63200000D03*
G04 #@! TO.P,R4,2*
G04 #@! TO.N,Net-(C4-Pad1)*
X108800000Y-63200000D03*
G04 #@! TD*
G04 #@! TO.P,R5,2*
G04 #@! TO.N,Net-(C4-Pad1)*
X108800000Y-65400000D03*
G04 #@! TO.P,R5,1*
G04 #@! TO.N,Net-(R5-Pad1)*
X110300000Y-65400000D03*
G04 #@! TD*
G04 #@! TO.P,R6,2*
G04 #@! TO.N,Net-(C3-Pad1)*
X108800000Y-67500000D03*
G04 #@! TO.P,R6,1*
G04 #@! TO.N,Net-(R6-Pad1)*
X110300000Y-67500000D03*
G04 #@! TD*
G04 #@! TO.P,R7,1*
G04 #@! TO.N,Net-(R7-Pad1)*
X110300000Y-69700000D03*
G04 #@! TO.P,R7,2*
G04 #@! TO.N,Net-(C2-Pad1)*
X108800000Y-69700000D03*
G04 #@! TD*
G04 #@! TO.P,R8,1*
G04 #@! TO.N,Net-(R8-Pad1)*
X110350000Y-72000000D03*
G04 #@! TO.P,R8,2*
G04 #@! TO.N,Net-(C1-Pad1)*
X108850000Y-72000000D03*
G04 #@! TD*
G04 #@! TO.P,R9,1*
G04 #@! TO.N,Net-(C5-Pad1)*
X110600000Y-90600000D03*
G04 #@! TO.P,R9,2*
G04 #@! TO.N,GNDA*
X109100000Y-90600000D03*
G04 #@! TD*
G04 #@! TO.P,R10,2*
G04 #@! TO.N,GNDA*
X129900000Y-90600000D03*
G04 #@! TO.P,R10,1*
G04 #@! TO.N,Net-(C10-Pad2)*
X128400000Y-90600000D03*
G04 #@! TD*
D15*
G04 #@! TO.P,U1,28*
G04 #@! TO.N,Net-(R1-Pad1)*
X125800000Y-64945000D03*
G04 #@! TO.P,U1,27*
G04 #@! TO.N,/LOUT*
X125800000Y-66215000D03*
G04 #@! TO.P,U1,26*
G04 #@! TO.N,/ROUT*
X125800000Y-67485000D03*
G04 #@! TO.P,U1,25*
G04 #@! TO.N,GNDA*
X125800000Y-68755000D03*
G04 #@! TO.P,U1,24*
G04 #@! TO.N,+9V*
X125800000Y-70025000D03*
G04 #@! TO.P,U1,23*
G04 #@! TO.N,Net-(C13-Pad2)*
X125800000Y-71295000D03*
G04 #@! TO.P,U1,22*
G04 #@! TO.N,/SDA*
X125800000Y-72565000D03*
G04 #@! TO.P,U1,21*
G04 #@! TO.N,/SCL*
X125800000Y-73835000D03*
G04 #@! TO.P,U1,20*
G04 #@! TO.N,GND*
X125800000Y-75105000D03*
G04 #@! TO.P,U1,19*
G04 #@! TO.N,Net-(C11-Pad2)*
X125800000Y-76375000D03*
G04 #@! TO.P,U1,18*
G04 #@! TO.N,Net-(C12-Pad2)*
X125800000Y-77645000D03*
G04 #@! TO.P,U1,17*
G04 #@! TO.N,Net-(U1-Pad17)*
X125800000Y-78915000D03*
G04 #@! TO.P,U1,16*
G04 #@! TO.N,Net-(U1-Pad16)*
X125800000Y-80185000D03*
G04 #@! TO.P,U1,15*
G04 #@! TO.N,Net-(C10-Pad1)*
X125800000Y-81455000D03*
G04 #@! TO.P,U1,14*
G04 #@! TO.N,Net-(C9-Pad2)*
X116400000Y-81455000D03*
G04 #@! TO.P,U1,13*
G04 #@! TO.N,Net-(C8-Pad1)*
X116400000Y-80185000D03*
G04 #@! TO.P,U1,12*
G04 #@! TO.N,Net-(C5-Pad2)*
X116400000Y-78915000D03*
G04 #@! TO.P,U1,11*
G04 #@! TO.N,Net-(C7-Pad1)*
X116400000Y-77645000D03*
G04 #@! TO.P,U1,10*
G04 #@! TO.N,Net-(C7-Pad2)*
X116400000Y-76375000D03*
G04 #@! TO.P,U1,9*
G04 #@! TO.N,Net-(C6-Pad1)*
X116400000Y-75105000D03*
G04 #@! TO.P,U1,8*
G04 #@! TO.N,Net-(C6-Pad2)*
X116400000Y-73835000D03*
G04 #@! TO.P,U1,7*
G04 #@! TO.N,Net-(R8-Pad1)*
X116400000Y-72565000D03*
G04 #@! TO.P,U1,6*
G04 #@! TO.N,Net-(R7-Pad1)*
X116400000Y-71295000D03*
G04 #@! TO.P,U1,5*
G04 #@! TO.N,Net-(R6-Pad1)*
X116400000Y-70025000D03*
G04 #@! TO.P,U1,4*
G04 #@! TO.N,Net-(R5-Pad1)*
X116400000Y-68755000D03*
G04 #@! TO.P,U1,3*
G04 #@! TO.N,Net-(R4-Pad1)*
X116400000Y-67485000D03*
G04 #@! TO.P,U1,2*
G04 #@! TO.N,Net-(R3-Pad1)*
X116400000Y-66215000D03*
G04 #@! TO.P,U1,1*
G04 #@! TO.N,Net-(R2-Pad1)*
X116400000Y-64945000D03*
G04 #@! TD*
D16*
G04 #@! TO.P,REF\002A\002A,1*
G04 #@! TO.N,N/C*
X133050000Y-71300000D03*
G04 #@! TO.P,REF\002A\002A,2*
X134950000Y-71300000D03*
G04 #@! TD*
D17*
G04 #@! TO.P,REF\002A\002A,1*
G04 #@! TO.N,N/C*
X135200000Y-84650000D03*
G04 #@! TO.P,REF\002A\002A,2*
X135200000Y-82750000D03*
G04 #@! TD*
G04 #@! TO.P,REF\002A\002A,1*
G04 #@! TO.N,N/C*
X131200000Y-84650000D03*
G04 #@! TO.P,REF\002A\002A,2*
X131200000Y-82750000D03*
G04 #@! TD*
G04 #@! TO.P,REF\002A\002A,1*
G04 #@! TO.N,N/C*
X125100000Y-89050000D03*
G04 #@! TO.P,REF\002A\002A,2*
X125100000Y-87150000D03*
G04 #@! TD*
G04 #@! TO.P,REF\002A\002A,1*
G04 #@! TO.N,N/C*
X121200000Y-89050000D03*
G04 #@! TO.P,REF\002A\002A,2*
X121200000Y-87150000D03*
G04 #@! TD*
G04 #@! TO.P,REF\002A\002A,1*
G04 #@! TO.N,N/C*
X117400000Y-89050000D03*
G04 #@! TO.P,REF\002A\002A,2*
X117400000Y-87150000D03*
G04 #@! TD*
G04 #@! TO.P,REF\002A\002A,1*
G04 #@! TO.N,N/C*
X113700000Y-89050000D03*
G04 #@! TO.P,REF\002A\002A,2*
X113700000Y-87150000D03*
G04 #@! TD*
D16*
G04 #@! TO.P,REF\002A\002A,1*
G04 #@! TO.N,N/C*
X104850000Y-82600000D03*
G04 #@! TO.P,REF\002A\002A,2*
X106750000Y-82600000D03*
G04 #@! TD*
G04 #@! TO.P,REF\002A\002A,1*
G04 #@! TO.N,N/C*
X104850000Y-78400000D03*
G04 #@! TO.P,REF\002A\002A,2*
X106750000Y-78400000D03*
G04 #@! TD*
G04 #@! TO.P,REF\002A\002A,1*
G04 #@! TO.N,N/C*
X100150000Y-72100000D03*
G04 #@! TO.P,REF\002A\002A,2*
X102050000Y-72100000D03*
G04 #@! TD*
G04 #@! TO.P,REF\002A\002A,1*
G04 #@! TO.N,N/C*
X100150000Y-67700000D03*
G04 #@! TO.P,REF\002A\002A,2*
X102050000Y-67700000D03*
G04 #@! TD*
G04 #@! TO.P,REF\002A\002A,1*
G04 #@! TO.N,N/C*
X100050000Y-63200000D03*
G04 #@! TO.P,REF\002A\002A,2*
X101950000Y-63200000D03*
G04 #@! TD*
G04 #@! TO.P,REF\002A\002A,1*
G04 #@! TO.N,N/C*
X100050000Y-58600000D03*
G04 #@! TO.P,REF\002A\002A,2*
X101950000Y-58600000D03*
G04 #@! TD*
D18*
G04 #@! TO.N,Net-(C1-Pad1)*
X105900000Y-73400000D03*
X106800000Y-55300000D03*
G04 #@! TO.N,Net-(C2-Pad1)*
X101100000Y-65500000D03*
X101100000Y-56300000D03*
G04 #@! TO.N,Net-(C3-Pad1)*
X106700000Y-67500000D03*
X106700000Y-61200000D03*
G04 #@! TO.N,GNDA*
X136600000Y-67500000D03*
X106600000Y-90600000D03*
G04 #@! TD*
D19*
G04 #@! TO.N,/IN4*
X93700000Y-75960000D02*
X96640000Y-75960000D01*
X98600000Y-74000000D02*
X98600000Y-72100000D01*
X96640000Y-75960000D02*
X98600000Y-74000000D01*
X98600000Y-72100000D02*
X100150000Y-72100000D01*
G04 #@! TO.N,Net-(C1-Pad1)*
X103900000Y-71800000D02*
X103600000Y-72100000D01*
X108850000Y-72000000D02*
X107300000Y-72000000D01*
X107300000Y-72000000D02*
X105900000Y-73400000D01*
X104900000Y-73400000D02*
X103600000Y-72100000D01*
X105900000Y-73400000D02*
X104900000Y-73400000D01*
X108100000Y-56600000D02*
X106800000Y-55300000D01*
X108850000Y-56600000D02*
X108100000Y-56600000D01*
X103600000Y-72100000D02*
X102050000Y-72100000D01*
G04 #@! TO.N,/IN3*
X93700000Y-69100000D02*
X95200000Y-69100000D01*
X96600000Y-67700000D02*
X98600000Y-67700000D01*
X95200000Y-69100000D02*
X96600000Y-67700000D01*
X98600000Y-67700000D02*
X100150000Y-67700000D01*
G04 #@! TO.N,Net-(C2-Pad1)*
X108850000Y-58800000D02*
X108300000Y-58800000D01*
X105600000Y-69700000D02*
X103600000Y-67700000D01*
X108800000Y-69700000D02*
X105600000Y-69700000D01*
X107200000Y-58800000D02*
X108850000Y-58800000D01*
X101100000Y-56300000D02*
X104700000Y-56300000D01*
X104700000Y-56300000D02*
X107200000Y-58800000D01*
X103600000Y-67700000D02*
X102050000Y-67700000D01*
X103600000Y-66300000D02*
X103600000Y-67700000D01*
X101100000Y-65500000D02*
X102800000Y-65500000D01*
X102800000Y-65500000D02*
X103600000Y-66300000D01*
G04 #@! TO.N,/IN2*
X95130000Y-55230000D02*
X98500000Y-58600000D01*
X93700000Y-55230000D02*
X95130000Y-55230000D01*
X98500000Y-58600000D02*
X100050000Y-58600000D01*
G04 #@! TO.N,Net-(C3-Pad1)*
X108800000Y-67500000D02*
X106700000Y-67500000D01*
X106700000Y-61200000D02*
X107300000Y-61200000D01*
X107500000Y-61000000D02*
X108850000Y-61000000D01*
X107300000Y-61200000D02*
X107500000Y-61000000D01*
X106700000Y-61200000D02*
X106700000Y-60600000D01*
X104700000Y-58600000D02*
X103500000Y-58600000D01*
X106700000Y-60600000D02*
X104700000Y-58600000D01*
X101950000Y-58600000D02*
X103500000Y-58600000D01*
G04 #@! TO.N,Net-(C4-Pad1)*
X108800000Y-63200000D02*
X108800000Y-65400000D01*
X103700000Y-63000000D02*
X103500000Y-63200000D01*
X108800000Y-63200000D02*
X103500000Y-63200000D01*
X101950000Y-63200000D02*
X103500000Y-63200000D01*
G04 #@! TO.N,/IN1*
X98500000Y-63200000D02*
X97400000Y-63200000D01*
X96500000Y-62300000D02*
X93700000Y-62300000D01*
X97400000Y-63200000D02*
X96500000Y-62300000D01*
X98500000Y-63200000D02*
X100050000Y-63200000D01*
G04 #@! TO.N,Net-(C5-Pad1)*
X117400000Y-90600000D02*
X113700000Y-90600000D01*
X113700000Y-90600000D02*
X110600000Y-90600000D01*
X113700000Y-90600000D02*
X113700000Y-89050000D01*
X117400000Y-90600000D02*
X117400000Y-89050000D01*
G04 #@! TO.N,Net-(C5-Pad2)*
X116400000Y-78915000D02*
X113985000Y-78915000D01*
X113985000Y-78915000D02*
X112800000Y-80100000D01*
X112800000Y-84700000D02*
X113700000Y-85600000D01*
X112800000Y-80100000D02*
X112800000Y-84700000D01*
X113700000Y-85600000D02*
X113700000Y-87150000D01*
G04 #@! TO.N,Net-(C6-Pad1)*
X108300000Y-78400000D02*
X108400000Y-78400000D01*
X111695000Y-75105000D02*
X116400000Y-75105000D01*
X108400000Y-78400000D02*
X111695000Y-75105000D01*
X108300000Y-78400000D02*
X106750000Y-78400000D01*
G04 #@! TO.N,Net-(C6-Pad2)*
X103300000Y-78400000D02*
X102300000Y-78400000D01*
X102300000Y-78400000D02*
X96840000Y-83860000D01*
X93900000Y-83860000D02*
X93700000Y-84060000D01*
X96840000Y-83860000D02*
X93900000Y-83860000D01*
X103300000Y-77200000D02*
X103300000Y-78400000D01*
X104600000Y-75900000D02*
X103300000Y-77200000D01*
X108500000Y-75900000D02*
X104600000Y-75900000D01*
X116400000Y-73835000D02*
X110565000Y-73835000D01*
X110565000Y-73835000D02*
X108500000Y-75900000D01*
X103300000Y-78400000D02*
X104850000Y-78400000D01*
G04 #@! TO.N,Net-(C7-Pad1)*
X108300000Y-82600000D02*
X110000000Y-82600000D01*
X110000000Y-82600000D02*
X111300000Y-81300000D01*
X111300000Y-81300000D02*
X111300000Y-79700000D01*
X113355000Y-77645000D02*
X116400000Y-77645000D01*
X111300000Y-79700000D02*
X113355000Y-77645000D01*
X108300000Y-82600000D02*
X106750000Y-82600000D01*
G04 #@! TO.N,Net-(C7-Pad2)*
X103300000Y-81400000D02*
X103300000Y-82600000D01*
X112725000Y-76375000D02*
X110200000Y-78900000D01*
X116400000Y-76375000D02*
X112725000Y-76375000D01*
X110200000Y-79900000D02*
X109400000Y-80700000D01*
X109400000Y-80700000D02*
X104000000Y-80700000D01*
X110200000Y-78900000D02*
X110200000Y-79900000D01*
X104000000Y-80700000D02*
X103300000Y-81400000D01*
X103300000Y-82600000D02*
X104850000Y-82600000D01*
X101700000Y-82600000D02*
X103300000Y-82600000D01*
X95360000Y-88940000D02*
X101700000Y-82600000D01*
X93700000Y-89140000D02*
X93900000Y-88940000D01*
X93900000Y-88940000D02*
X95360000Y-88940000D01*
G04 #@! TO.N,Net-(C8-Pad1)*
X116400000Y-80185000D02*
X115015000Y-80185000D01*
X115015000Y-80185000D02*
X114100000Y-81100000D01*
X114100000Y-81100000D02*
X114100000Y-82300000D01*
X114100000Y-82300000D02*
X115900000Y-84100000D01*
X115900000Y-84100000D02*
X117400000Y-85600000D01*
X117400000Y-85600000D02*
X117400000Y-87150000D01*
G04 #@! TO.N,Net-(C10-Pad2)*
X125100000Y-90600000D02*
X128400000Y-90600000D01*
X121200000Y-90600000D02*
X125100000Y-90600000D01*
X121200000Y-90600000D02*
X121200000Y-89050000D01*
X125100000Y-90600000D02*
X125100000Y-89050000D01*
G04 #@! TO.N,Net-(C9-Pad2)*
X116400000Y-81455000D02*
X118955000Y-81455000D01*
X121200000Y-83700000D02*
X121200000Y-85600000D01*
X118955000Y-81455000D02*
X121200000Y-83700000D01*
X121200000Y-85600000D02*
X121200000Y-87150000D01*
G04 #@! TO.N,Net-(C10-Pad1)*
X125100000Y-85600000D02*
X125100000Y-83600000D01*
X125800000Y-82900000D02*
X125800000Y-81455000D01*
X125100000Y-83600000D02*
X125800000Y-82900000D01*
X125100000Y-85600000D02*
X125100000Y-87150000D01*
G04 #@! TO.N,Net-(C11-Pad2)*
X135200000Y-80200000D02*
X135200000Y-81200000D01*
X134000000Y-79000000D02*
X135200000Y-80200000D01*
X130500000Y-79000000D02*
X134000000Y-79000000D01*
X125800000Y-76375000D02*
X127875000Y-76375000D01*
X127875000Y-76375000D02*
X130500000Y-79000000D01*
X135200000Y-81200000D02*
X135200000Y-82750000D01*
G04 #@! TO.N,GNDA*
X131200000Y-86200000D02*
X135200000Y-86200000D01*
X131200000Y-89300000D02*
X129900000Y-90600000D01*
X131200000Y-86200000D02*
X131200000Y-89300000D01*
X141300000Y-72400000D02*
X139500000Y-72400000D01*
X138400000Y-71300000D02*
X136500000Y-71300000D01*
X139500000Y-72400000D02*
X138400000Y-71300000D01*
X125800000Y-68755000D02*
X128645000Y-68755000D01*
X128645000Y-68755000D02*
X129900000Y-67500000D01*
X129900000Y-67500000D02*
X136600000Y-67500000D01*
X109100000Y-90600000D02*
X106600000Y-90600000D01*
X136500000Y-71300000D02*
X134950000Y-71300000D01*
X131200000Y-86200000D02*
X131200000Y-84650000D01*
X135200000Y-86200000D02*
X135200000Y-84650000D01*
G04 #@! TO.N,Net-(C12-Pad2)*
X127445000Y-77645000D02*
X125800000Y-77645000D01*
X131200000Y-81200000D02*
X131000000Y-81200000D01*
X131000000Y-81200000D02*
X127445000Y-77645000D01*
X131200000Y-81200000D02*
X131200000Y-82750000D01*
G04 #@! TO.N,Net-(C13-Pad2)*
X131495000Y-71295000D02*
X131500000Y-71300000D01*
X125800000Y-71295000D02*
X131495000Y-71295000D01*
X131500000Y-71300000D02*
X133050000Y-71300000D01*
G04 #@! TO.N,/SDA*
X137980000Y-74800000D02*
X141200000Y-78020000D01*
X132400000Y-74800000D02*
X137980000Y-74800000D01*
X125800000Y-72565000D02*
X130165000Y-72565000D01*
X130165000Y-72565000D02*
X132400000Y-74800000D01*
G04 #@! TO.N,/SCL*
X129635000Y-73835000D02*
X125800000Y-73835000D01*
X132000000Y-76200000D02*
X129635000Y-73835000D01*
X136600000Y-76200000D02*
X132000000Y-76200000D01*
X141200000Y-80560000D02*
X140960000Y-80560000D01*
X140960000Y-80560000D02*
X136600000Y-76200000D01*
G04 #@! TO.N,GND*
X129105000Y-75105000D02*
X131400000Y-77400000D01*
X125800000Y-75105000D02*
X129105000Y-75105000D01*
X131400000Y-77400000D02*
X135600000Y-77400000D01*
X139800000Y-83100000D02*
X141200000Y-83100000D01*
X139300000Y-81100000D02*
X139300000Y-82600000D01*
X135600000Y-77400000D02*
X139300000Y-81100000D01*
X139300000Y-82600000D02*
X139800000Y-83100000D01*
G04 #@! TO.N,/LOUT*
X125800000Y-66215000D02*
X127585000Y-66215000D01*
X137840000Y-55960000D02*
X141300000Y-55960000D01*
X127585000Y-66215000D02*
X137840000Y-55960000D01*
G04 #@! TO.N,/ROUT*
X125800000Y-67485000D02*
X128215000Y-67485000D01*
X130700000Y-65000000D02*
X141300000Y-65000000D01*
X128215000Y-67485000D02*
X130700000Y-65000000D01*
G04 #@! TO.N,+9V*
X140740000Y-69300000D02*
X141300000Y-69860000D01*
X129600000Y-69300000D02*
X140740000Y-69300000D01*
X125800000Y-70025000D02*
X128875000Y-70025000D01*
X128875000Y-70025000D02*
X129600000Y-69300000D01*
G04 #@! TO.N,Net-(R1-Pad1)*
X111600000Y-56600000D02*
X110350000Y-56600000D01*
X125800000Y-64945000D02*
X119945000Y-64945000D01*
X119945000Y-64945000D02*
X111600000Y-56600000D01*
G04 #@! TO.N,Net-(R2-Pad1)*
X116400000Y-64945000D02*
X116400000Y-64000000D01*
X111200000Y-58800000D02*
X110350000Y-58800000D01*
X116400000Y-64000000D02*
X111200000Y-58800000D01*
G04 #@! TO.N,Net-(R3-Pad1)*
X116400000Y-66215000D02*
X115315000Y-66215000D01*
X110350000Y-61250000D02*
X110350000Y-61000000D01*
X115315000Y-66215000D02*
X110350000Y-61250000D01*
G04 #@! TO.N,Net-(R4-Pad1)*
X116400000Y-67485000D02*
X115085000Y-67485000D01*
X110800000Y-63200000D02*
X110300000Y-63200000D01*
X115085000Y-67485000D02*
X110800000Y-63200000D01*
G04 #@! TO.N,Net-(R5-Pad1)*
X116400000Y-68755000D02*
X114555000Y-68755000D01*
X111200000Y-65400000D02*
X110300000Y-65400000D01*
X114555000Y-68755000D02*
X111200000Y-65400000D01*
G04 #@! TO.N,Net-(R6-Pad1)*
X111200000Y-67500000D02*
X110300000Y-67500000D01*
X116400000Y-70025000D02*
X113725000Y-70025000D01*
X113725000Y-70025000D02*
X111200000Y-67500000D01*
G04 #@! TO.N,Net-(R7-Pad1)*
X111400000Y-69700000D02*
X110300000Y-69700000D01*
X116400000Y-71295000D02*
X112995000Y-71295000D01*
X112995000Y-71295000D02*
X111400000Y-69700000D01*
G04 #@! TO.N,Net-(R8-Pad1)*
X111800000Y-72000000D02*
X110350000Y-72000000D01*
X116400000Y-72565000D02*
X112365000Y-72565000D01*
X112365000Y-72565000D02*
X111800000Y-72000000D01*
G04 #@! TD*
M02*
