M48
;DRILL file {KiCad (5.0.0)} date 04/09/19 21:23:00
;FORMAT={-:-/ absolute / metric / decimal}
FMAT,2
METRIC,TZ
T1C0.800
T2C1.000
T3C3.200
%
G90
G05
M71
T1
X101.1Y-56.3
X101.1Y-65.5
X105.9Y-73.4
X106.6Y-90.6
X106.7Y-61.2
X106.7Y-67.5
X106.8Y-55.3
X136.6Y-67.5
X131.5Y-71.3
X136.5Y-71.3
X98.6Y-72.1
X103.6Y-72.1
X113.7Y-85.6
X113.7Y-90.6
X103.3Y-78.4
X108.3Y-78.4
X135.2Y-81.2
X135.2Y-86.2
X125.1Y-85.6
X125.1Y-90.6
X98.5Y-63.2
X103.5Y-63.2
X121.2Y-85.6
X121.2Y-90.6
X98.6Y-67.7
X103.6Y-67.7
X98.5Y-58.6
X103.5Y-58.6
X117.4Y-85.6
X117.4Y-90.6
X131.2Y-81.2
X131.2Y-86.2
X103.3Y-82.6
X108.3Y-82.6
T2
X93.7Y-69.1
X93.7Y-71.64
X93.7Y-75.96
X93.7Y-78.5
X141.2Y-78.02
X141.2Y-80.56
X141.2Y-83.1
X93.7Y-84.06
X93.7Y-86.6
X93.7Y-89.14
X141.3Y-62.46
X141.3Y-65.
X93.7Y-62.3
X93.7Y-64.84
X93.7Y-55.23
X93.7Y-57.77
X141.3Y-55.96
X141.3Y-58.5
X141.3Y-69.86
X141.3Y-72.4
T3
X142.6Y-90.5
X100.9Y-90.6
X118.2Y-54.6
T0
M30
