  0
SECTION
  2
HEADER
  9
$ANGBASE
  50
0.0
  9
$ANGDIR
  70
  1
  9
$MEASUREMENT
  70
0
  0
ENDSEC
  0
SECTION
  2
TABLES
  0
TABLE
  2
LTYPE
  70
4
  0
LTYPE
  5
40F
  2
CONTINUOUS
  70
0
  3
Solid line
  72
65
  73
0
  40
0.0
  0
LTYPE
  5
410
  2
DASHDOT
 70
0
  3
Dash Dot ____ _ ____ _
 72
65
 73
4
 40
2.0
 49
1.25
 49
-0.25
 49
0.25
 49
-0.25
  0
LTYPE
  5
411
  2
DASHED
 70
0
  3
Dashed __ __ __ __ __
 72
65
 73
2
 40
0.75
 49
0.5
 49
-0.25
  0
LTYPE
  5
43B
  2
DOTTED
 70
0
  3
Dotted .  .  .  .
 72
65
 73
2
 40
0.2
 49
0.0
 49
-0.2
  0
ENDTAB
  0
TABLE
  2
STYLE
  70
4
  0
STYLE
  2
KICAD
  70
0
  40
0
  41
1
  42
1
  50
0
  71
0
  3
isocp.shx
  0
STYLE
  2
KICADB
  70
0
  40
0
  41
1
  42
1
  50
0
  71
0
  3
isocp.shx
  0
STYLE
  2
KICADI
  70
0
  40
0
  41
1
  42
1
  50
15
  71
0
  3
isocp.shx
  0
STYLE
  2
KICADBI
  70
0
  40
0
  41
1
  42
1
  50
15
  71
0
  3
isocp.shx
  0
ENDTAB
  0
TABLE
  2
LAYER
  70
30
  0
LAYER
  2
BLACK
  70
0
  62
7
  6
CONTINUOUS
  0
LAYER
  2
GRAY1
  70
0
  62
251
  6
CONTINUOUS
  0
LAYER
  2
GRAY2
  70
0
  62
8
  6
CONTINUOUS
  0
LAYER
  2
GRAY3
  70
0
  62
9
  6
CONTINUOUS
  0
LAYER
  2
WHITE
  70
0
  62
7
  6
CONTINUOUS
  0
LAYER
  2
LYELLOW
  70
0
  62
51
  6
CONTINUOUS
  0
LAYER
  2
BLUE1
  70
0
  62
178
  6
CONTINUOUS
  0
LAYER
  2
GREEN1
  70
0
  62
98
  6
CONTINUOUS
  0
LAYER
  2
CYAN1
  70
0
  62
138
  6
CONTINUOUS
  0
LAYER
  2
RED1
  70
0
  62
18
  6
CONTINUOUS
  0
LAYER
  2
MAGENTA1
  70
0
  62
228
  6
CONTINUOUS
  0
LAYER
  2
BROWN1
  70
0
  62
58
  6
CONTINUOUS
  0
LAYER
  2
BLUE2
  70
0
  62
5
  6
CONTINUOUS
  0
LAYER
  2
GREEN2
  70
0
  62
3
  6
CONTINUOUS
  0
LAYER
  2
CYAN2
  70
0
  62
4
  6
CONTINUOUS
  0
LAYER
  2
RED2
  70
0
  62
1
  6
CONTINUOUS
  0
LAYER
  2
MAGENTA2
  70
0
  62
6
  6
CONTINUOUS
  0
LAYER
  2
BROWN2
  70
0
  62
54
  6
CONTINUOUS
  0
LAYER
  2
BLUE3
  70
0
  62
171
  6
CONTINUOUS
  0
LAYER
  2
GREEN3
  70
0
  62
91
  6
CONTINUOUS
  0
LAYER
  2
CYAN3
  70
0
  62
131
  6
CONTINUOUS
  0
LAYER
  2
RED3
  70
0
  62
11
  6
CONTINUOUS
  0
LAYER
  2
MAGENTA3
  70
0
  62
221
  6
CONTINUOUS
  0
LAYER
  2
YELLOW3
  70
0
  62
2
  6
CONTINUOUS
  0
LAYER
  2
BLUE4
  70
0
  62
5
  6
CONTINUOUS
  0
LAYER
  2
GREEN4
  70
0
  62
3
  6
CONTINUOUS
  0
LAYER
  2
CYAN4
  70
0
  62
4
  6
CONTINUOUS
  0
LAYER
  2
RED4
  70
0
  62
1
  6
CONTINUOUS
  0
LAYER
  2
MAGENTA4
  70
0
  62
6
  6
CONTINUOUS
  0
LAYER
  2
YELLOW4
  70
0
  62
2
  6
CONTINUOUS
  0
ENDTAB
  0
ENDSEC
  0
SECTION
  2
ENTITIES
0
LINE
8
BLACK
6
CONTINUOUS
10
146.007
20
-50.925
11
146.013
21
-50.925
0
LINE
8
BLACK
6
CONTINUOUS
10
146.013
20
-50.925
11
146.019
21
-50.9273
0
LINE
8
BLACK
6
CONTINUOUS
10
146.019
20
-50.9273
11
146.026
21
-50.9284
0
LINE
8
BLACK
6
CONTINUOUS
10
146.026
20
-50.9284
11
146.032
21
-50.9318
0
LINE
8
BLACK
6
CONTINUOUS
10
146.032
20
-50.9318
11
146.038
21
-50.934
0
LINE
8
BLACK
6
CONTINUOUS
10
146.038
20
-50.934
11
146.043
21
-50.9383
0
LINE
8
BLACK
6
CONTINUOUS
10
146.043
20
-50.9383
11
146.049
21
-50.9417
0
LINE
8
BLACK
6
CONTINUOUS
10
146.049
20
-50.9417
11
146.053
21
-50.9468
0
LINE
8
BLACK
6
CONTINUOUS
10
146.053
20
-50.9468
11
146.058
21
-50.951
0
LINE
8
BLACK
6
CONTINUOUS
10
146.058
20
-50.951
11
146.062
21
-50.9568
0
LINE
8
BLACK
6
CONTINUOUS
10
146.062
20
-50.9568
11
146.066
21
-50.9619
0
LINE
8
BLACK
6
CONTINUOUS
10
146.066
20
-50.9619
11
146.068
21
-50.9682
0
LINE
8
BLACK
6
CONTINUOUS
10
146.068
20
-50.9682
11
146.072
21
-50.974
0
LINE
8
BLACK
6
CONTINUOUS
10
146.072
20
-50.974
11
146.073
21
-50.9805
0
LINE
8
BLACK
6
CONTINUOUS
10
146.073
20
-50.9805
11
146.075
21
-50.9868
0
LINE
8
BLACK
6
CONTINUOUS
10
146.075
20
-50.9868
11
146.075
21
-50.9934
0
LINE
8
BLACK
6
CONTINUOUS
10
146.075
20
-50.9934
11
146.075
21
-50.9934
0
LINE
8
BLACK
6
CONTINUOUS
10
146.075
20
-50.9934
11
146.075
21
-94.0066
0
LINE
8
BLACK
6
CONTINUOUS
10
146.075
20
-94.0066
11
146.075
21
-94.0066
0
LINE
8
BLACK
6
CONTINUOUS
10
146.075
20
-94.0066
11
146.075
21
-94.0132
0
LINE
8
BLACK
6
CONTINUOUS
10
146.075
20
-94.0132
11
146.073
21
-94.0195
0
LINE
8
BLACK
6
CONTINUOUS
10
146.073
20
-94.0195
11
146.072
21
-94.026
0
LINE
8
BLACK
6
CONTINUOUS
10
146.072
20
-94.026
11
146.068
21
-94.0318
0
LINE
8
BLACK
6
CONTINUOUS
10
146.068
20
-94.0318
11
146.066
21
-94.0381
0
LINE
8
BLACK
6
CONTINUOUS
10
146.066
20
-94.0381
11
146.062
21
-94.0432
0
LINE
8
BLACK
6
CONTINUOUS
10
146.062
20
-94.0432
11
146.058
21
-94.049
0
LINE
8
BLACK
6
CONTINUOUS
10
146.058
20
-94.049
11
146.053
21
-94.0532
0
LINE
8
BLACK
6
CONTINUOUS
10
146.053
20
-94.0532
11
146.049
21
-94.0583
0
LINE
8
BLACK
6
CONTINUOUS
10
146.049
20
-94.0583
11
146.043
21
-94.0617
0
LINE
8
BLACK
6
CONTINUOUS
10
146.043
20
-94.0617
11
146.038
21
-94.066
0
LINE
8
BLACK
6
CONTINUOUS
10
146.038
20
-94.066
11
146.032
21
-94.0682
0
LINE
8
BLACK
6
CONTINUOUS
10
146.032
20
-94.0682
11
146.026
21
-94.0716
0
LINE
8
BLACK
6
CONTINUOUS
10
146.026
20
-94.0716
11
146.019
21
-94.0727
0
LINE
8
BLACK
6
CONTINUOUS
10
146.019
20
-94.0727
11
146.013
21
-94.075
0
LINE
8
BLACK
6
CONTINUOUS
10
146.013
20
-94.075
11
146.007
21
-94.075
0
LINE
8
BLACK
6
CONTINUOUS
10
146.007
20
-94.075
11
146.007
21
-94.075
0
LINE
8
BLACK
6
CONTINUOUS
10
146.007
20
-94.075
11
89.9934
21
-94.075
0
LINE
8
BLACK
6
CONTINUOUS
10
89.9934
20
-94.075
11
89.9934
21
-94.075
0
LINE
8
BLACK
6
CONTINUOUS
10
89.9934
20
-94.075
11
89.9868
21
-94.075
0
LINE
8
BLACK
6
CONTINUOUS
10
89.9868
20
-94.075
11
89.9805
21
-94.0727
0
LINE
8
BLACK
6
CONTINUOUS
10
89.9805
20
-94.0727
11
89.974
21
-94.0716
0
LINE
8
BLACK
6
CONTINUOUS
10
89.974
20
-94.0716
11
89.9682
21
-94.0682
0
LINE
8
BLACK
6
CONTINUOUS
10
89.9682
20
-94.0682
11
89.9619
21
-94.066
0
LINE
8
BLACK
6
CONTINUOUS
10
89.9619
20
-94.066
11
89.9568
21
-94.0617
0
LINE
8
BLACK
6
CONTINUOUS
10
89.9568
20
-94.0617
11
89.951
21
-94.0583
0
LINE
8
BLACK
6
CONTINUOUS
10
89.951
20
-94.0583
11
89.9468
21
-94.0532
0
LINE
8
BLACK
6
CONTINUOUS
10
89.9468
20
-94.0532
11
89.9417
21
-94.049
0
LINE
8
BLACK
6
CONTINUOUS
10
89.9417
20
-94.049
11
89.9383
21
-94.0432
0
LINE
8
BLACK
6
CONTINUOUS
10
89.9383
20
-94.0432
11
89.934
21
-94.0381
0
LINE
8
BLACK
6
CONTINUOUS
10
89.934
20
-94.0381
11
89.9318
21
-94.0318
0
LINE
8
BLACK
6
CONTINUOUS
10
89.9318
20
-94.0318
11
89.9284
21
-94.026
0
LINE
8
BLACK
6
CONTINUOUS
10
89.9284
20
-94.026
11
89.9273
21
-94.0195
0
LINE
8
BLACK
6
CONTINUOUS
10
89.9273
20
-94.0195
11
89.925
21
-94.0132
0
LINE
8
BLACK
6
CONTINUOUS
10
89.925
20
-94.0132
11
89.925
21
-93.9868
0
LINE
8
BLACK
6
CONTINUOUS
10
89.925
20
-93.9868
11
89.925
21
-50.9934
0
LINE
8
BLACK
6
CONTINUOUS
10
89.925
20
-50.9934
11
89.925
21
-50.9934
0
LINE
8
BLACK
6
CONTINUOUS
10
89.925
20
-50.9934
11
89.925
21
-50.9868
0
LINE
8
BLACK
6
CONTINUOUS
10
89.925
20
-50.9868
11
89.9273
21
-50.9805
0
LINE
8
BLACK
6
CONTINUOUS
10
89.9273
20
-50.9805
11
89.9284
21
-50.974
0
LINE
8
BLACK
6
CONTINUOUS
10
89.9284
20
-50.974
11
89.9318
21
-50.9682
0
LINE
8
BLACK
6
CONTINUOUS
10
89.9318
20
-50.9682
11
89.934
21
-50.9619
0
LINE
8
BLACK
6
CONTINUOUS
10
89.934
20
-50.9619
11
89.9383
21
-50.9568
0
LINE
8
BLACK
6
CONTINUOUS
10
89.9383
20
-50.9568
11
89.9417
21
-50.951
0
LINE
8
BLACK
6
CONTINUOUS
10
89.9417
20
-50.951
11
89.9468
21
-50.9468
0
LINE
8
BLACK
6
CONTINUOUS
10
89.9468
20
-50.9468
11
89.951
21
-50.9417
0
LINE
8
BLACK
6
CONTINUOUS
10
89.951
20
-50.9417
11
89.9568
21
-50.9383
0
LINE
8
BLACK
6
CONTINUOUS
10
89.9568
20
-50.9383
11
89.9619
21
-50.934
0
LINE
8
BLACK
6
CONTINUOUS
10
89.9619
20
-50.934
11
89.9682
21
-50.9318
0
LINE
8
BLACK
6
CONTINUOUS
10
89.9682
20
-50.9318
11
89.974
21
-50.9284
0
LINE
8
BLACK
6
CONTINUOUS
10
89.974
20
-50.9284
11
89.9805
21
-50.9273
0
LINE
8
BLACK
6
CONTINUOUS
10
89.9805
20
-50.9273
11
89.9868
21
-50.925
0
LINE
8
BLACK
6
CONTINUOUS
10
89.9868
20
-50.925
11
89.9934
21
-50.925
0
LINE
8
BLACK
6
CONTINUOUS
10
89.9934
20
-50.925
11
89.9934
21
-50.925
0
LINE
8
BLACK
6
CONTINUOUS
10
89.9934
20
-50.925
11
146.007
21
-50.925
0
LINE
8
BLACK
6
CONTINUOUS
10
146.007
20
-50.925
11
146.007
21
-50.925
0
LINE
8
BLACK
6
CONTINUOUS
10
90.075
20
-51.075
11
90.075
21
-93.925
0
LINE
8
BLACK
6
CONTINUOUS
10
90.075
20
-93.925
11
145.925
21
-93.925
0
LINE
8
BLACK
6
CONTINUOUS
10
145.925
20
-93.925
11
145.925
21
-51.075
0
LINE
8
BLACK
6
CONTINUOUS
10
145.925
20
-51.075
11
90.075
21
-51.075
0
LINE
8
BLACK
6
CONTINUOUS
10
101.456
20
-89.0733
11
101.944
21
-89.3554
0
LINE
8
BLACK
6
CONTINUOUS
10
101.944
20
-89.3554
11
102.307
21
-89.7877
0
LINE
8
BLACK
6
CONTINUOUS
10
102.307
20
-89.7877
11
102.5
21
-90.3179
0
LINE
8
BLACK
6
CONTINUOUS
10
102.5
20
-90.3179
11
102.5
21
-90.8821
0
LINE
8
BLACK
6
CONTINUOUS
10
102.5
20
-90.8821
11
102.307
21
-91.4123
0
LINE
8
BLACK
6
CONTINUOUS
10
102.307
20
-91.4123
11
101.944
21
-91.8446
0
LINE
8
BLACK
6
CONTINUOUS
10
101.944
20
-91.8446
11
101.456
21
-92.1267
0
LINE
8
BLACK
6
CONTINUOUS
10
101.456
20
-92.1267
11
100.9
21
-92.2247
0
LINE
8
BLACK
6
CONTINUOUS
10
100.9
20
-92.2247
11
100.344
21
-92.1267
0
LINE
8
BLACK
6
CONTINUOUS
10
100.344
20
-92.1267
11
99.8557
21
-91.8446
0
LINE
8
BLACK
6
CONTINUOUS
10
99.8557
20
-91.8446
11
99.493
21
-91.4123
0
LINE
8
BLACK
6
CONTINUOUS
10
99.493
20
-91.4123
11
99.3
21
-90.8821
0
LINE
8
BLACK
6
CONTINUOUS
10
99.3
20
-90.8821
11
99.3
21
-90.3179
0
LINE
8
BLACK
6
CONTINUOUS
10
99.3
20
-90.3179
11
99.493
21
-89.7877
0
LINE
8
BLACK
6
CONTINUOUS
10
99.493
20
-89.7877
11
99.8557
21
-89.3554
0
LINE
8
BLACK
6
CONTINUOUS
10
99.8557
20
-89.3554
11
100.344
21
-89.0733
0
LINE
8
BLACK
6
CONTINUOUS
10
100.344
20
-89.0733
11
100.9
21
-88.9753
0
LINE
8
BLACK
6
CONTINUOUS
10
100.9
20
-88.9753
11
101.456
21
-89.0733
0
LINE
8
BLACK
6
CONTINUOUS
10
143.156
20
-88.9733
11
143.644
21
-89.2554
0
LINE
8
BLACK
6
CONTINUOUS
10
143.644
20
-89.2554
11
144.007
21
-89.6877
0
LINE
8
BLACK
6
CONTINUOUS
10
144.007
20
-89.6877
11
144.2
21
-90.2179
0
LINE
8
BLACK
6
CONTINUOUS
10
144.2
20
-90.2179
11
144.2
21
-90.7821
0
LINE
8
BLACK
6
CONTINUOUS
10
144.2
20
-90.7821
11
144.007
21
-91.3123
0
LINE
8
BLACK
6
CONTINUOUS
10
144.007
20
-91.3123
11
143.644
21
-91.7446
0
LINE
8
BLACK
6
CONTINUOUS
10
143.644
20
-91.7446
11
143.156
21
-92.0267
0
LINE
8
BLACK
6
CONTINUOUS
10
143.156
20
-92.0267
11
142.6
21
-92.1247
0
LINE
8
BLACK
6
CONTINUOUS
10
142.6
20
-92.1247
11
142.044
21
-92.0267
0
LINE
8
BLACK
6
CONTINUOUS
10
142.044
20
-92.0267
11
141.556
21
-91.7446
0
LINE
8
BLACK
6
CONTINUOUS
10
141.556
20
-91.7446
11
141.193
21
-91.3123
0
LINE
8
BLACK
6
CONTINUOUS
10
141.193
20
-91.3123
11
141
21
-90.7821
0
LINE
8
BLACK
6
CONTINUOUS
10
141
20
-90.7821
11
141
21
-90.2179
0
LINE
8
BLACK
6
CONTINUOUS
10
141
20
-90.2179
11
141.193
21
-89.6877
0
LINE
8
BLACK
6
CONTINUOUS
10
141.193
20
-89.6877
11
141.556
21
-89.2554
0
LINE
8
BLACK
6
CONTINUOUS
10
141.556
20
-89.2554
11
142.044
21
-88.9733
0
LINE
8
BLACK
6
CONTINUOUS
10
142.044
20
-88.9733
11
142.6
21
-88.8753
0
LINE
8
BLACK
6
CONTINUOUS
10
142.6
20
-88.8753
11
143.156
21
-88.9733
0
LINE
8
BLACK
6
CONTINUOUS
10
106.947
20
-89.6458
11
107.253
21
-89.8221
0
LINE
8
BLACK
6
CONTINUOUS
10
107.253
20
-89.8221
11
107.479
21
-90.0923
0
LINE
8
BLACK
6
CONTINUOUS
10
107.479
20
-90.0923
11
107.573
21
-90.35
0
LINE
8
BLACK
6
CONTINUOUS
10
107.573
20
-90.35
11
108.85
21
-90.35
0
LINE
8
BLACK
6
CONTINUOUS
10
108.85
20
-90.35
11
108.85
21
-90.15
0
LINE
8
BLACK
6
CONTINUOUS
10
108.85
20
-90.15
11
109.35
21
-90.15
0
LINE
8
BLACK
6
CONTINUOUS
10
109.35
20
-90.15
11
109.35
21
-91.05
0
LINE
8
BLACK
6
CONTINUOUS
10
109.35
20
-91.05
11
108.85
21
-91.05
0
LINE
8
BLACK
6
CONTINUOUS
10
108.85
20
-91.05
11
108.85
21
-90.85
0
LINE
8
BLACK
6
CONTINUOUS
10
108.85
20
-90.85
11
107.573
21
-90.85
0
LINE
8
BLACK
6
CONTINUOUS
10
107.573
20
-90.85
11
107.479
21
-91.1077
0
LINE
8
BLACK
6
CONTINUOUS
10
107.479
20
-91.1077
11
107.253
21
-91.3779
0
LINE
8
BLACK
6
CONTINUOUS
10
107.253
20
-91.3779
11
106.947
21
-91.5542
0
LINE
8
BLACK
6
CONTINUOUS
10
106.947
20
-91.5542
11
106.6
21
-91.6154
0
LINE
8
BLACK
6
CONTINUOUS
10
106.6
20
-91.6154
11
106.253
21
-91.5542
0
LINE
8
BLACK
6
CONTINUOUS
10
106.253
20
-91.5542
11
105.947
21
-91.3779
0
LINE
8
BLACK
6
CONTINUOUS
10
105.947
20
-91.3779
11
105.721
21
-91.1077
0
LINE
8
BLACK
6
CONTINUOUS
10
105.721
20
-91.1077
11
105.6
21
-90.7763
0
LINE
8
BLACK
6
CONTINUOUS
10
105.6
20
-90.7763
11
105.6
21
-90.4237
0
LINE
8
BLACK
6
CONTINUOUS
10
105.6
20
-90.4237
11
105.721
21
-90.0923
0
LINE
8
BLACK
6
CONTINUOUS
10
105.721
20
-90.0923
11
105.947
21
-89.8221
0
LINE
8
BLACK
6
CONTINUOUS
10
105.947
20
-89.8221
11
106.253
21
-89.6458
0
LINE
8
BLACK
6
CONTINUOUS
10
106.253
20
-89.6458
11
106.6
21
-89.5846
0
LINE
8
BLACK
6
CONTINUOUS
10
106.6
20
-89.5846
11
106.947
21
-89.6458
0
LINE
8
BLACK
6
CONTINUOUS
10
114.075
20
-89.65
11
113.95
21
-89.65
0
LINE
8
BLACK
6
CONTINUOUS
10
113.95
20
-89.65
11
113.95
21
-89.8317
0
LINE
8
BLACK
6
CONTINUOUS
10
113.95
20
-89.8317
11
113.978
21
-89.8366
0
LINE
8
BLACK
6
CONTINUOUS
10
113.978
20
-89.8366
11
114.222
21
-89.9777
0
LINE
8
BLACK
6
CONTINUOUS
10
114.222
20
-89.9777
11
114.404
21
-90.1938
0
LINE
8
BLACK
6
CONTINUOUS
10
114.404
20
-90.1938
11
114.46
21
-90.35
0
LINE
8
BLACK
6
CONTINUOUS
10
114.46
20
-90.35
11
116.64
21
-90.35
0
LINE
8
BLACK
6
CONTINUOUS
10
116.64
20
-90.35
11
116.696
21
-90.1938
0
LINE
8
BLACK
6
CONTINUOUS
10
116.696
20
-90.1938
11
116.878
21
-89.9777
0
LINE
8
BLACK
6
CONTINUOUS
10
116.878
20
-89.9777
11
117.122
21
-89.8366
0
LINE
8
BLACK
6
CONTINUOUS
10
117.122
20
-89.8366
11
117.15
21
-89.8317
0
LINE
8
BLACK
6
CONTINUOUS
10
117.15
20
-89.8317
11
117.15
21
-89.65
0
LINE
8
BLACK
6
CONTINUOUS
10
117.15
20
-89.65
11
117.025
21
-89.65
0
LINE
8
BLACK
6
CONTINUOUS
10
117.025
20
-89.65
11
117.025
21
-88.45
0
LINE
8
BLACK
6
CONTINUOUS
10
117.025
20
-88.45
11
117.775
21
-88.45
0
LINE
8
BLACK
6
CONTINUOUS
10
117.775
20
-88.45
11
117.775
21
-89.65
0
LINE
8
BLACK
6
CONTINUOUS
10
117.775
20
-89.65
11
117.65
21
-89.65
0
LINE
8
BLACK
6
CONTINUOUS
10
117.65
20
-89.65
11
117.65
21
-89.8317
0
LINE
8
BLACK
6
CONTINUOUS
10
117.65
20
-89.8317
11
117.678
21
-89.8366
0
LINE
8
BLACK
6
CONTINUOUS
10
117.678
20
-89.8366
11
117.922
21
-89.9777
0
LINE
8
BLACK
6
CONTINUOUS
10
117.922
20
-89.9777
11
118.104
21
-90.1938
0
LINE
8
BLACK
6
CONTINUOUS
10
118.104
20
-90.1938
11
118.2
21
-90.4589
0
LINE
8
BLACK
6
CONTINUOUS
10
118.2
20
-90.4589
11
118.2
21
-90.7411
0
LINE
8
BLACK
6
CONTINUOUS
10
118.2
20
-90.7411
11
118.104
21
-91.0062
0
LINE
8
BLACK
6
CONTINUOUS
10
118.104
20
-91.0062
11
117.922
21
-91.2223
0
LINE
8
BLACK
6
CONTINUOUS
10
117.922
20
-91.2223
11
117.678
21
-91.3634
0
LINE
8
BLACK
6
CONTINUOUS
10
117.678
20
-91.3634
11
117.4
21
-91.4123
0
LINE
8
BLACK
6
CONTINUOUS
10
117.4
20
-91.4123
11
117.122
21
-91.3634
0
LINE
8
BLACK
6
CONTINUOUS
10
117.122
20
-91.3634
11
116.878
21
-91.2223
0
LINE
8
BLACK
6
CONTINUOUS
10
116.878
20
-91.2223
11
116.696
21
-91.0062
0
LINE
8
BLACK
6
CONTINUOUS
10
116.696
20
-91.0062
11
116.64
21
-90.85
0
LINE
8
BLACK
6
CONTINUOUS
10
116.64
20
-90.85
11
114.46
21
-90.85
0
LINE
8
BLACK
6
CONTINUOUS
10
114.46
20
-90.85
11
114.404
21
-91.0062
0
LINE
8
BLACK
6
CONTINUOUS
10
114.404
20
-91.0062
11
114.222
21
-91.2223
0
LINE
8
BLACK
6
CONTINUOUS
10
114.222
20
-91.2223
11
113.978
21
-91.3634
0
LINE
8
BLACK
6
CONTINUOUS
10
113.978
20
-91.3634
11
113.7
21
-91.4123
0
LINE
8
BLACK
6
CONTINUOUS
10
113.7
20
-91.4123
11
113.422
21
-91.3634
0
LINE
8
BLACK
6
CONTINUOUS
10
113.422
20
-91.3634
11
113.178
21
-91.2223
0
LINE
8
BLACK
6
CONTINUOUS
10
113.178
20
-91.2223
11
112.996
21
-91.0062
0
LINE
8
BLACK
6
CONTINUOUS
10
112.996
20
-91.0062
11
112.94
21
-90.85
0
LINE
8
BLACK
6
CONTINUOUS
10
112.94
20
-90.85
11
110.85
21
-90.85
0
LINE
8
BLACK
6
CONTINUOUS
10
110.85
20
-90.85
11
110.85
21
-91.05
0
LINE
8
BLACK
6
CONTINUOUS
10
110.85
20
-91.05
11
110.35
21
-91.05
0
LINE
8
BLACK
6
CONTINUOUS
10
110.35
20
-91.05
11
110.35
21
-90.15
0
LINE
8
BLACK
6
CONTINUOUS
10
110.35
20
-90.15
11
110.85
21
-90.15
0
LINE
8
BLACK
6
CONTINUOUS
10
110.85
20
-90.15
11
110.85
21
-90.35
0
LINE
8
BLACK
6
CONTINUOUS
10
110.85
20
-90.35
11
112.94
21
-90.35
0
LINE
8
BLACK
6
CONTINUOUS
10
112.94
20
-90.35
11
112.996
21
-90.1938
0
LINE
8
BLACK
6
CONTINUOUS
10
112.996
20
-90.1938
11
113.178
21
-89.9777
0
LINE
8
BLACK
6
CONTINUOUS
10
113.178
20
-89.9777
11
113.422
21
-89.8366
0
LINE
8
BLACK
6
CONTINUOUS
10
113.422
20
-89.8366
11
113.45
21
-89.8317
0
LINE
8
BLACK
6
CONTINUOUS
10
113.45
20
-89.8317
11
113.45
21
-89.65
0
LINE
8
BLACK
6
CONTINUOUS
10
113.45
20
-89.65
11
113.325
21
-89.65
0
LINE
8
BLACK
6
CONTINUOUS
10
113.325
20
-89.65
11
113.325
21
-88.45
0
LINE
8
BLACK
6
CONTINUOUS
10
113.325
20
-88.45
11
114.075
21
-88.45
0
LINE
8
BLACK
6
CONTINUOUS
10
114.075
20
-88.45
11
114.075
21
-89.65
0
LINE
8
BLACK
6
CONTINUOUS
10
121.575
20
-89.65
11
121.45
21
-89.65
0
LINE
8
BLACK
6
CONTINUOUS
10
121.45
20
-89.65
11
121.45
21
-89.8317
0
LINE
8
BLACK
6
CONTINUOUS
10
121.45
20
-89.8317
11
121.478
21
-89.8366
0
LINE
8
BLACK
6
CONTINUOUS
10
121.478
20
-89.8366
11
121.722
21
-89.9777
0
LINE
8
BLACK
6
CONTINUOUS
10
121.722
20
-89.9777
11
121.904
21
-90.1938
0
LINE
8
BLACK
6
CONTINUOUS
10
121.904
20
-90.1938
11
121.96
21
-90.35
0
LINE
8
BLACK
6
CONTINUOUS
10
121.96
20
-90.35
11
124.34
21
-90.35
0
LINE
8
BLACK
6
CONTINUOUS
10
124.34
20
-90.35
11
124.396
21
-90.1938
0
LINE
8
BLACK
6
CONTINUOUS
10
124.396
20
-90.1938
11
124.578
21
-89.9777
0
LINE
8
BLACK
6
CONTINUOUS
10
124.578
20
-89.9777
11
124.822
21
-89.8366
0
LINE
8
BLACK
6
CONTINUOUS
10
124.822
20
-89.8366
11
124.85
21
-89.8317
0
LINE
8
BLACK
6
CONTINUOUS
10
124.85
20
-89.8317
11
124.85
21
-89.65
0
LINE
8
BLACK
6
CONTINUOUS
10
124.85
20
-89.65
11
124.725
21
-89.65
0
LINE
8
BLACK
6
CONTINUOUS
10
124.725
20
-89.65
11
124.725
21
-88.45
0
LINE
8
BLACK
6
CONTINUOUS
10
124.725
20
-88.45
11
125.475
21
-88.45
0
LINE
8
BLACK
6
CONTINUOUS
10
125.475
20
-88.45
11
125.475
21
-89.65
0
LINE
8
BLACK
6
CONTINUOUS
10
125.475
20
-89.65
11
125.35
21
-89.65
0
LINE
8
BLACK
6
CONTINUOUS
10
125.35
20
-89.65
11
125.35
21
-89.8317
0
LINE
8
BLACK
6
CONTINUOUS
10
125.35
20
-89.8317
11
125.378
21
-89.8366
0
LINE
8
BLACK
6
CONTINUOUS
10
125.378
20
-89.8366
11
125.622
21
-89.9777
0
LINE
8
BLACK
6
CONTINUOUS
10
125.622
20
-89.9777
11
125.804
21
-90.1938
0
LINE
8
BLACK
6
CONTINUOUS
10
125.804
20
-90.1938
11
125.86
21
-90.35
0
LINE
8
BLACK
6
CONTINUOUS
10
125.86
20
-90.35
11
128.15
21
-90.35
0
LINE
8
BLACK
6
CONTINUOUS
10
128.15
20
-90.35
11
128.15
21
-90.15
0
LINE
8
BLACK
6
CONTINUOUS
10
128.15
20
-90.15
11
128.65
21
-90.15
0
LINE
8
BLACK
6
CONTINUOUS
10
128.65
20
-90.15
11
128.65
21
-91.05
0
LINE
8
BLACK
6
CONTINUOUS
10
128.65
20
-91.05
11
128.15
21
-91.05
0
LINE
8
BLACK
6
CONTINUOUS
10
128.15
20
-91.05
11
128.15
21
-90.85
0
LINE
8
BLACK
6
CONTINUOUS
10
128.15
20
-90.85
11
125.86
21
-90.85
0
LINE
8
BLACK
6
CONTINUOUS
10
125.86
20
-90.85
11
125.804
21
-91.0062
0
LINE
8
BLACK
6
CONTINUOUS
10
125.804
20
-91.0062
11
125.622
21
-91.2223
0
LINE
8
BLACK
6
CONTINUOUS
10
125.622
20
-91.2223
11
125.378
21
-91.3634
0
LINE
8
BLACK
6
CONTINUOUS
10
125.378
20
-91.3634
11
125.1
21
-91.4123
0
LINE
8
BLACK
6
CONTINUOUS
10
125.1
20
-91.4123
11
124.822
21
-91.3634
0
LINE
8
BLACK
6
CONTINUOUS
10
124.822
20
-91.3634
11
124.578
21
-91.2223
0
LINE
8
BLACK
6
CONTINUOUS
10
124.578
20
-91.2223
11
124.396
21
-91.0062
0
LINE
8
BLACK
6
CONTINUOUS
10
124.396
20
-91.0062
11
124.34
21
-90.85
0
LINE
8
BLACK
6
CONTINUOUS
10
124.34
20
-90.85
11
121.96
21
-90.85
0
LINE
8
BLACK
6
CONTINUOUS
10
121.96
20
-90.85
11
121.904
21
-91.0062
0
LINE
8
BLACK
6
CONTINUOUS
10
121.904
20
-91.0062
11
121.722
21
-91.2223
0
LINE
8
BLACK
6
CONTINUOUS
10
121.722
20
-91.2223
11
121.478
21
-91.3634
0
LINE
8
BLACK
6
CONTINUOUS
10
121.478
20
-91.3634
11
121.2
21
-91.4123
0
LINE
8
BLACK
6
CONTINUOUS
10
121.2
20
-91.4123
11
120.922
21
-91.3634
0
LINE
8
BLACK
6
CONTINUOUS
10
120.922
20
-91.3634
11
120.678
21
-91.2223
0
LINE
8
BLACK
6
CONTINUOUS
10
120.678
20
-91.2223
11
120.496
21
-91.0062
0
LINE
8
BLACK
6
CONTINUOUS
10
120.496
20
-91.0062
11
120.4
21
-90.7411
0
LINE
8
BLACK
6
CONTINUOUS
10
120.4
20
-90.7411
11
120.4
21
-90.4589
0
LINE
8
BLACK
6
CONTINUOUS
10
120.4
20
-90.4589
11
120.496
21
-90.1938
0
LINE
8
BLACK
6
CONTINUOUS
10
120.496
20
-90.1938
11
120.678
21
-89.9777
0
LINE
8
BLACK
6
CONTINUOUS
10
120.678
20
-89.9777
11
120.922
21
-89.8366
0
LINE
8
BLACK
6
CONTINUOUS
10
120.922
20
-89.8366
11
120.95
21
-89.8317
0
LINE
8
BLACK
6
CONTINUOUS
10
120.95
20
-89.8317
11
120.95
21
-89.65
0
LINE
8
BLACK
6
CONTINUOUS
10
120.95
20
-89.65
11
120.825
21
-89.65
0
LINE
8
BLACK
6
CONTINUOUS
10
120.825
20
-89.65
11
120.825
21
-88.45
0
LINE
8
BLACK
6
CONTINUOUS
10
120.825
20
-88.45
11
121.575
21
-88.45
0
LINE
8
BLACK
6
CONTINUOUS
10
121.575
20
-88.45
11
121.575
21
-89.65
0
LINE
8
BLACK
6
CONTINUOUS
10
131.575
20
-85.25
11
131.45
21
-85.25
0
LINE
8
BLACK
6
CONTINUOUS
10
131.45
20
-85.25
11
131.45
21
-85.4317
0
LINE
8
BLACK
6
CONTINUOUS
10
131.45
20
-85.4317
11
131.478
21
-85.4366
0
LINE
8
BLACK
6
CONTINUOUS
10
131.478
20
-85.4366
11
131.722
21
-85.5777
0
LINE
8
BLACK
6
CONTINUOUS
10
131.722
20
-85.5777
11
131.904
21
-85.7938
0
LINE
8
BLACK
6
CONTINUOUS
10
131.904
20
-85.7938
11
131.96
21
-85.95
0
LINE
8
BLACK
6
CONTINUOUS
10
131.96
20
-85.95
11
134.44
21
-85.95
0
LINE
8
BLACK
6
CONTINUOUS
10
134.44
20
-85.95
11
134.496
21
-85.7938
0
LINE
8
BLACK
6
CONTINUOUS
10
134.496
20
-85.7938
11
134.678
21
-85.5777
0
LINE
8
BLACK
6
CONTINUOUS
10
134.678
20
-85.5777
11
134.922
21
-85.4366
0
LINE
8
BLACK
6
CONTINUOUS
10
134.922
20
-85.4366
11
134.95
21
-85.4317
0
LINE
8
BLACK
6
CONTINUOUS
10
134.95
20
-85.4317
11
134.95
21
-85.25
0
LINE
8
BLACK
6
CONTINUOUS
10
134.95
20
-85.25
11
134.825
21
-85.25
0
LINE
8
BLACK
6
CONTINUOUS
10
134.825
20
-85.25
11
134.825
21
-84.05
0
LINE
8
BLACK
6
CONTINUOUS
10
134.825
20
-84.05
11
135.575
21
-84.05
0
LINE
8
BLACK
6
CONTINUOUS
10
135.575
20
-84.05
11
135.575
21
-85.25
0
LINE
8
BLACK
6
CONTINUOUS
10
135.575
20
-85.25
11
135.45
21
-85.25
0
LINE
8
BLACK
6
CONTINUOUS
10
135.45
20
-85.25
11
135.45
21
-85.4317
0
LINE
8
BLACK
6
CONTINUOUS
10
135.45
20
-85.4317
11
135.478
21
-85.4366
0
LINE
8
BLACK
6
CONTINUOUS
10
135.478
20
-85.4366
11
135.722
21
-85.5777
0
LINE
8
BLACK
6
CONTINUOUS
10
135.722
20
-85.5777
11
135.904
21
-85.7938
0
LINE
8
BLACK
6
CONTINUOUS
10
135.904
20
-85.7938
11
136
21
-86.0589
0
LINE
8
BLACK
6
CONTINUOUS
10
136
20
-86.0589
11
136
21
-86.3411
0
LINE
8
BLACK
6
CONTINUOUS
10
136
20
-86.3411
11
135.904
21
-86.6062
0
LINE
8
BLACK
6
CONTINUOUS
10
135.904
20
-86.6062
11
135.722
21
-86.8223
0
LINE
8
BLACK
6
CONTINUOUS
10
135.722
20
-86.8223
11
135.478
21
-86.9634
0
LINE
8
BLACK
6
CONTINUOUS
10
135.478
20
-86.9634
11
135.2
21
-87.0123
0
LINE
8
BLACK
6
CONTINUOUS
10
135.2
20
-87.0123
11
134.922
21
-86.9634
0
LINE
8
BLACK
6
CONTINUOUS
10
134.922
20
-86.9634
11
134.678
21
-86.8223
0
LINE
8
BLACK
6
CONTINUOUS
10
134.678
20
-86.8223
11
134.496
21
-86.6062
0
LINE
8
BLACK
6
CONTINUOUS
10
134.496
20
-86.6062
11
134.44
21
-86.45
0
LINE
8
BLACK
6
CONTINUOUS
10
134.44
20
-86.45
11
131.96
21
-86.45
0
LINE
8
BLACK
6
CONTINUOUS
10
131.96
20
-86.45
11
131.904
21
-86.6062
0
LINE
8
BLACK
6
CONTINUOUS
10
131.904
20
-86.6062
11
131.722
21
-86.8223
0
LINE
8
BLACK
6
CONTINUOUS
10
131.722
20
-86.8223
11
131.478
21
-86.9634
0
LINE
8
BLACK
6
CONTINUOUS
10
131.478
20
-86.9634
11
131.45
21
-86.9683
0
LINE
8
BLACK
6
CONTINUOUS
10
131.45
20
-86.9683
11
131.45
21
-89.2891
0
LINE
8
BLACK
6
CONTINUOUS
10
131.45
20
-89.2891
11
131.453
21
-89.3221
0
LINE
8
BLACK
6
CONTINUOUS
10
131.453
20
-89.3221
11
131.444
21
-89.3542
0
LINE
8
BLACK
6
CONTINUOUS
10
131.444
20
-89.3542
11
131.439
21
-89.3868
0
LINE
8
BLACK
6
CONTINUOUS
10
131.439
20
-89.3868
11
131.433
21
-89.3965
0
LINE
8
BLACK
6
CONTINUOUS
10
131.433
20
-89.3965
11
131.43
21
-89.4073
0
LINE
8
BLACK
6
CONTINUOUS
10
131.43
20
-89.4073
11
131.411
21
-89.4345
0
LINE
8
BLACK
6
CONTINUOUS
10
131.411
20
-89.4345
11
131.394
21
-89.4632
0
LINE
8
BLACK
6
CONTINUOUS
10
131.394
20
-89.4632
11
131.369
21
-89.4845
0
LINE
8
BLACK
6
CONTINUOUS
10
131.369
20
-89.4845
11
130.15
21
-90.7036
0
LINE
8
BLACK
6
CONTINUOUS
10
130.15
20
-90.7036
11
130.15
21
-91.05
0
LINE
8
BLACK
6
CONTINUOUS
10
130.15
20
-91.05
11
129.65
21
-91.05
0
LINE
8
BLACK
6
CONTINUOUS
10
129.65
20
-91.05
11
129.65
21
-90.6109
0
LINE
8
BLACK
6
CONTINUOUS
10
129.65
20
-90.6109
11
129.647
21
-90.5779
0
LINE
8
BLACK
6
CONTINUOUS
10
129.647
20
-90.5779
11
129.65
21
-90.5671
0
LINE
8
BLACK
6
CONTINUOUS
10
129.65
20
-90.5671
11
129.65
21
-90.15
0
LINE
8
BLACK
6
CONTINUOUS
10
129.65
20
-90.15
11
129.996
21
-90.15
0
LINE
8
BLACK
6
CONTINUOUS
10
129.996
20
-90.15
11
130.95
21
-89.1964
0
LINE
8
BLACK
6
CONTINUOUS
10
130.95
20
-89.1964
11
130.95
21
-86.9683
0
LINE
8
BLACK
6
CONTINUOUS
10
130.95
20
-86.9683
11
130.922
21
-86.9634
0
LINE
8
BLACK
6
CONTINUOUS
10
130.922
20
-86.9634
11
130.678
21
-86.8223
0
LINE
8
BLACK
6
CONTINUOUS
10
130.678
20
-86.8223
11
130.496
21
-86.6062
0
LINE
8
BLACK
6
CONTINUOUS
10
130.496
20
-86.6062
11
130.4
21
-86.3411
0
LINE
8
BLACK
6
CONTINUOUS
10
130.4
20
-86.3411
11
130.4
21
-86.0589
0
LINE
8
BLACK
6
CONTINUOUS
10
130.4
20
-86.0589
11
130.496
21
-85.7938
0
LINE
8
BLACK
6
CONTINUOUS
10
130.496
20
-85.7938
11
130.678
21
-85.5777
0
LINE
8
BLACK
6
CONTINUOUS
10
130.678
20
-85.5777
11
130.922
21
-85.4366
0
LINE
8
BLACK
6
CONTINUOUS
10
130.922
20
-85.4366
11
130.95
21
-85.4317
0
LINE
8
BLACK
6
CONTINUOUS
10
130.95
20
-85.4317
11
130.95
21
-85.25
0
LINE
8
BLACK
6
CONTINUOUS
10
130.95
20
-85.25
11
130.825
21
-85.25
0
LINE
8
BLACK
6
CONTINUOUS
10
130.825
20
-85.25
11
130.825
21
-84.05
0
LINE
8
BLACK
6
CONTINUOUS
10
130.825
20
-84.05
11
131.575
21
-84.05
0
LINE
8
BLACK
6
CONTINUOUS
10
131.575
20
-84.05
11
131.575
21
-85.25
0
LINE
8
BLACK
6
CONTINUOUS
10
117.4
20
-76.675
11
115.4
21
-76.675
0
LINE
8
BLACK
6
CONTINUOUS
10
115.4
20
-76.675
11
115.4
21
-76.625
0
LINE
8
BLACK
6
CONTINUOUS
10
115.4
20
-76.625
11
112.829
21
-76.625
0
LINE
8
BLACK
6
CONTINUOUS
10
112.829
20
-76.625
11
110.45
21
-79.0036
0
LINE
8
BLACK
6
CONTINUOUS
10
110.45
20
-79.0036
11
110.45
21
-79.8891
0
LINE
8
BLACK
6
CONTINUOUS
10
110.45
20
-79.8891
11
110.453
21
-79.9221
0
LINE
8
BLACK
6
CONTINUOUS
10
110.453
20
-79.9221
11
110.444
21
-79.9542
0
LINE
8
BLACK
6
CONTINUOUS
10
110.444
20
-79.9542
11
110.439
21
-79.9868
0
LINE
8
BLACK
6
CONTINUOUS
10
110.439
20
-79.9868
11
110.433
21
-79.9965
0
LINE
8
BLACK
6
CONTINUOUS
10
110.433
20
-79.9965
11
110.43
21
-80.0073
0
LINE
8
BLACK
6
CONTINUOUS
10
110.43
20
-80.0073
11
110.411
21
-80.0345
0
LINE
8
BLACK
6
CONTINUOUS
10
110.411
20
-80.0345
11
110.394
21
-80.0632
0
LINE
8
BLACK
6
CONTINUOUS
10
110.394
20
-80.0632
11
110.369
21
-80.0845
0
LINE
8
BLACK
6
CONTINUOUS
10
110.369
20
-80.0845
11
109.584
21
-80.8691
0
LINE
8
BLACK
6
CONTINUOUS
10
109.584
20
-80.8691
11
109.563
21
-80.8945
0
LINE
8
BLACK
6
CONTINUOUS
10
109.563
20
-80.8945
11
109.534
21
-80.9111
0
LINE
8
BLACK
6
CONTINUOUS
10
109.534
20
-80.9111
11
109.507
21
-80.9301
0
LINE
8
BLACK
6
CONTINUOUS
10
109.507
20
-80.9301
11
109.496
21
-80.933
0
LINE
8
BLACK
6
CONTINUOUS
10
109.496
20
-80.933
11
109.487
21
-80.9385
0
LINE
8
BLACK
6
CONTINUOUS
10
109.487
20
-80.9385
11
109.454
21
-80.9443
0
LINE
8
BLACK
6
CONTINUOUS
10
109.454
20
-80.9443
11
109.422
21
-80.9529
0
LINE
8
BLACK
6
CONTINUOUS
10
109.422
20
-80.9529
11
109.389
21
-80.95
0
LINE
8
BLACK
6
CONTINUOUS
10
109.389
20
-80.95
11
104.104
21
-80.95
0
LINE
8
BLACK
6
CONTINUOUS
10
104.104
20
-80.95
11
103.55
21
-81.5036
0
LINE
8
BLACK
6
CONTINUOUS
10
103.55
20
-81.5036
11
103.55
21
-81.8317
0
LINE
8
BLACK
6
CONTINUOUS
10
103.55
20
-81.8317
11
103.578
21
-81.8366
0
LINE
8
BLACK
6
CONTINUOUS
10
103.578
20
-81.8366
11
103.822
21
-81.9777
0
LINE
8
BLACK
6
CONTINUOUS
10
103.822
20
-81.9777
11
104.004
21
-82.1938
0
LINE
8
BLACK
6
CONTINUOUS
10
104.004
20
-82.1938
11
104.06
21
-82.35
0
LINE
8
BLACK
6
CONTINUOUS
10
104.06
20
-82.35
11
104.25
21
-82.35
0
LINE
8
BLACK
6
CONTINUOUS
10
104.25
20
-82.35
11
104.25
21
-82.225
0
LINE
8
BLACK
6
CONTINUOUS
10
104.25
20
-82.225
11
105.45
21
-82.225
0
LINE
8
BLACK
6
CONTINUOUS
10
105.45
20
-82.225
11
105.45
21
-82.975
0
LINE
8
BLACK
6
CONTINUOUS
10
105.45
20
-82.975
11
104.25
21
-82.975
0
LINE
8
BLACK
6
CONTINUOUS
10
104.25
20
-82.975
11
104.25
21
-82.85
0
LINE
8
BLACK
6
CONTINUOUS
10
104.25
20
-82.85
11
104.06
21
-82.85
0
LINE
8
BLACK
6
CONTINUOUS
10
104.06
20
-82.85
11
104.004
21
-83.0062
0
LINE
8
BLACK
6
CONTINUOUS
10
104.004
20
-83.0062
11
103.822
21
-83.2223
0
LINE
8
BLACK
6
CONTINUOUS
10
103.822
20
-83.2223
11
103.578
21
-83.3634
0
LINE
8
BLACK
6
CONTINUOUS
10
103.578
20
-83.3634
11
103.3
21
-83.4123
0
LINE
8
BLACK
6
CONTINUOUS
10
103.3
20
-83.4123
11
103.022
21
-83.3634
0
LINE
8
BLACK
6
CONTINUOUS
10
103.022
20
-83.3634
11
102.778
21
-83.2223
0
LINE
8
BLACK
6
CONTINUOUS
10
102.778
20
-83.2223
11
102.596
21
-83.0062
0
LINE
8
BLACK
6
CONTINUOUS
10
102.596
20
-83.0062
11
102.54
21
-82.85
0
LINE
8
BLACK
6
CONTINUOUS
10
102.54
20
-82.85
11
101.804
21
-82.85
0
LINE
8
BLACK
6
CONTINUOUS
10
101.804
20
-82.85
11
95.5445
21
-89.1091
0
LINE
8
BLACK
6
CONTINUOUS
10
95.5445
20
-89.1091
11
95.5232
21
-89.1345
0
LINE
8
BLACK
6
CONTINUOUS
10
95.5232
20
-89.1345
11
95.4944
21
-89.151
0
LINE
8
BLACK
6
CONTINUOUS
10
95.4944
20
-89.151
11
95.4673
21
-89.1701
0
LINE
8
BLACK
6
CONTINUOUS
10
95.4673
20
-89.1701
11
95.4565
21
-89.173
0
LINE
8
BLACK
6
CONTINUOUS
10
95.4565
20
-89.173
11
95.4468
21
-89.1785
0
LINE
8
BLACK
6
CONTINUOUS
10
95.4468
20
-89.1785
11
95.4142
21
-89.1843
0
LINE
8
BLACK
6
CONTINUOUS
10
95.4142
20
-89.1843
11
95.3821
21
-89.1929
0
LINE
8
BLACK
6
CONTINUOUS
10
95.3821
20
-89.1929
11
95.3491
21
-89.19
0
LINE
8
BLACK
6
CONTINUOUS
10
95.3491
20
-89.19
11
94.55
21
-89.19
0
LINE
8
BLACK
6
CONTINUOUS
10
94.55
20
-89.19
11
94.55
21
-89.99
0
LINE
8
BLACK
6
CONTINUOUS
10
94.55
20
-89.99
11
92.85
21
-89.99
0
LINE
8
BLACK
6
CONTINUOUS
10
92.85
20
-89.99
11
92.85
21
-88.29
0
LINE
8
BLACK
6
CONTINUOUS
10
92.85
20
-88.29
11
94.55
21
-88.29
0
LINE
8
BLACK
6
CONTINUOUS
10
94.55
20
-88.29
11
94.55
21
-88.69
0
LINE
8
BLACK
6
CONTINUOUS
10
94.55
20
-88.69
11
95.2564
21
-88.69
0
LINE
8
BLACK
6
CONTINUOUS
10
95.2564
20
-88.69
11
101.516
21
-82.4309
0
LINE
8
BLACK
6
CONTINUOUS
10
101.516
20
-82.4309
11
101.537
21
-82.4055
0
LINE
8
BLACK
6
CONTINUOUS
10
101.537
20
-82.4055
11
101.566
21
-82.389
0
LINE
8
BLACK
6
CONTINUOUS
10
101.566
20
-82.389
11
101.593
21
-82.3699
0
LINE
8
BLACK
6
CONTINUOUS
10
101.593
20
-82.3699
11
101.604
21
-82.367
0
LINE
8
BLACK
6
CONTINUOUS
10
101.604
20
-82.367
11
101.613
21
-82.3615
0
LINE
8
BLACK
6
CONTINUOUS
10
101.613
20
-82.3615
11
101.646
21
-82.3557
0
LINE
8
BLACK
6
CONTINUOUS
10
101.646
20
-82.3557
11
101.678
21
-82.3471
0
LINE
8
BLACK
6
CONTINUOUS
10
101.678
20
-82.3471
11
101.711
21
-82.35
0
LINE
8
BLACK
6
CONTINUOUS
10
101.711
20
-82.35
11
102.54
21
-82.35
0
LINE
8
BLACK
6
CONTINUOUS
10
102.54
20
-82.35
11
102.596
21
-82.1938
0
LINE
8
BLACK
6
CONTINUOUS
10
102.596
20
-82.1938
11
102.778
21
-81.9777
0
LINE
8
BLACK
6
CONTINUOUS
10
102.778
20
-81.9777
11
103.022
21
-81.8366
0
LINE
8
BLACK
6
CONTINUOUS
10
103.022
20
-81.8366
11
103.05
21
-81.8317
0
LINE
8
BLACK
6
CONTINUOUS
10
103.05
20
-81.8317
11
103.05
21
-81.4109
0
LINE
8
BLACK
6
CONTINUOUS
10
103.05
20
-81.4109
11
103.047
21
-81.3779
0
LINE
8
BLACK
6
CONTINUOUS
10
103.047
20
-81.3779
11
103.056
21
-81.3458
0
LINE
8
BLACK
6
CONTINUOUS
10
103.056
20
-81.3458
11
103.061
21
-81.3132
0
LINE
8
BLACK
6
CONTINUOUS
10
103.061
20
-81.3132
11
103.067
21
-81.3035
0
LINE
8
BLACK
6
CONTINUOUS
10
103.067
20
-81.3035
11
103.07
21
-81.2927
0
LINE
8
BLACK
6
CONTINUOUS
10
103.07
20
-81.2927
11
103.089
21
-81.2655
0
LINE
8
BLACK
6
CONTINUOUS
10
103.089
20
-81.2655
11
103.106
21
-81.2368
0
LINE
8
BLACK
6
CONTINUOUS
10
103.106
20
-81.2368
11
103.131
21
-81.2155
0
LINE
8
BLACK
6
CONTINUOUS
10
103.131
20
-81.2155
11
103.816
21
-80.5309
0
LINE
8
BLACK
6
CONTINUOUS
10
103.816
20
-80.5309
11
103.837
21
-80.5055
0
LINE
8
BLACK
6
CONTINUOUS
10
103.837
20
-80.5055
11
103.866
21
-80.489
0
LINE
8
BLACK
6
CONTINUOUS
10
103.866
20
-80.489
11
103.893
21
-80.4699
0
LINE
8
BLACK
6
CONTINUOUS
10
103.893
20
-80.4699
11
103.904
21
-80.467
0
LINE
8
BLACK
6
CONTINUOUS
10
103.904
20
-80.467
11
103.913
21
-80.4615
0
LINE
8
BLACK
6
CONTINUOUS
10
103.913
20
-80.4615
11
103.946
21
-80.4557
0
LINE
8
BLACK
6
CONTINUOUS
10
103.946
20
-80.4557
11
103.978
21
-80.4471
0
LINE
8
BLACK
6
CONTINUOUS
10
103.978
20
-80.4471
11
104.011
21
-80.45
0
LINE
8
BLACK
6
CONTINUOUS
10
104.011
20
-80.45
11
109.296
21
-80.45
0
LINE
8
BLACK
6
CONTINUOUS
10
109.296
20
-80.45
11
109.95
21
-79.7964
0
LINE
8
BLACK
6
CONTINUOUS
10
109.95
20
-79.7964
11
109.95
21
-78.9109
0
LINE
8
BLACK
6
CONTINUOUS
10
109.95
20
-78.9109
11
109.947
21
-78.8779
0
LINE
8
BLACK
6
CONTINUOUS
10
109.947
20
-78.8779
11
109.956
21
-78.8458
0
LINE
8
BLACK
6
CONTINUOUS
10
109.956
20
-78.8458
11
109.961
21
-78.8132
0
LINE
8
BLACK
6
CONTINUOUS
10
109.961
20
-78.8132
11
109.967
21
-78.8035
0
LINE
8
BLACK
6
CONTINUOUS
10
109.967
20
-78.8035
11
109.97
21
-78.7927
0
LINE
8
BLACK
6
CONTINUOUS
10
109.97
20
-78.7927
11
109.989
21
-78.7655
0
LINE
8
BLACK
6
CONTINUOUS
10
109.989
20
-78.7655
11
110.006
21
-78.7368
0
LINE
8
BLACK
6
CONTINUOUS
10
110.006
20
-78.7368
11
110.031
21
-78.7155
0
LINE
8
BLACK
6
CONTINUOUS
10
110.031
20
-78.7155
11
112.541
21
-76.2059
0
LINE
8
BLACK
6
CONTINUOUS
10
112.541
20
-76.2059
11
112.562
21
-76.1805
0
LINE
8
BLACK
6
CONTINUOUS
10
112.562
20
-76.1805
11
112.591
21
-76.164
0
LINE
8
BLACK
6
CONTINUOUS
10
112.591
20
-76.164
11
112.618
21
-76.1449
0
LINE
8
BLACK
6
CONTINUOUS
10
112.618
20
-76.1449
11
112.629
21
-76.142
0
LINE
8
BLACK
6
CONTINUOUS
10
112.629
20
-76.142
11
112.638
21
-76.1365
0
LINE
8
BLACK
6
CONTINUOUS
10
112.638
20
-76.1365
11
112.671
21
-76.1307
0
LINE
8
BLACK
6
CONTINUOUS
10
112.671
20
-76.1307
11
112.703
21
-76.1221
0
LINE
8
BLACK
6
CONTINUOUS
10
112.703
20
-76.1221
11
112.736
21
-76.125
0
LINE
8
BLACK
6
CONTINUOUS
10
112.736
20
-76.125
11
115.4
21
-76.125
0
LINE
8
BLACK
6
CONTINUOUS
10
115.4
20
-76.125
11
115.4
21
-76.075
0
LINE
8
BLACK
6
CONTINUOUS
10
115.4
20
-76.075
11
117.4
21
-76.075
0
LINE
8
BLACK
6
CONTINUOUS
10
117.4
20
-76.075
11
117.4
21
-76.675
0
LINE
8
BLACK
6
CONTINUOUS
10
117.4
20
-79.215
11
115.4
21
-79.215
0
LINE
8
BLACK
6
CONTINUOUS
10
115.4
20
-79.215
11
115.4
21
-79.165
0
LINE
8
BLACK
6
CONTINUOUS
10
115.4
20
-79.165
11
114.089
21
-79.165
0
LINE
8
BLACK
6
CONTINUOUS
10
114.089
20
-79.165
11
113.05
21
-80.2036
0
LINE
8
BLACK
6
CONTINUOUS
10
113.05
20
-80.2036
11
113.05
21
-84.5964
0
LINE
8
BLACK
6
CONTINUOUS
10
113.05
20
-84.5964
11
113.339
21
-84.8849
0
LINE
8
BLACK
6
CONTINUOUS
10
113.339
20
-84.8849
11
113.422
21
-84.8366
0
LINE
8
BLACK
6
CONTINUOUS
10
113.422
20
-84.8366
11
113.7
21
-84.7877
0
LINE
8
BLACK
6
CONTINUOUS
10
113.7
20
-84.7877
11
113.978
21
-84.8366
0
LINE
8
BLACK
6
CONTINUOUS
10
113.978
20
-84.8366
11
114.222
21
-84.9777
0
LINE
8
BLACK
6
CONTINUOUS
10
114.222
20
-84.9777
11
114.404
21
-85.1938
0
LINE
8
BLACK
6
CONTINUOUS
10
114.404
20
-85.1938
11
114.5
21
-85.4589
0
LINE
8
BLACK
6
CONTINUOUS
10
114.5
20
-85.4589
11
114.5
21
-85.7411
0
LINE
8
BLACK
6
CONTINUOUS
10
114.5
20
-85.7411
11
114.404
21
-86.0062
0
LINE
8
BLACK
6
CONTINUOUS
10
114.404
20
-86.0062
11
114.222
21
-86.2223
0
LINE
8
BLACK
6
CONTINUOUS
10
114.222
20
-86.2223
11
113.978
21
-86.3634
0
LINE
8
BLACK
6
CONTINUOUS
10
113.978
20
-86.3634
11
113.95
21
-86.3683
0
LINE
8
BLACK
6
CONTINUOUS
10
113.95
20
-86.3683
11
113.95
21
-86.55
0
LINE
8
BLACK
6
CONTINUOUS
10
113.95
20
-86.55
11
114.075
21
-86.55
0
LINE
8
BLACK
6
CONTINUOUS
10
114.075
20
-86.55
11
114.075
21
-87.75
0
LINE
8
BLACK
6
CONTINUOUS
10
114.075
20
-87.75
11
113.325
21
-87.75
0
LINE
8
BLACK
6
CONTINUOUS
10
113.325
20
-87.75
11
113.325
21
-86.55
0
LINE
8
BLACK
6
CONTINUOUS
10
113.325
20
-86.55
11
113.45
21
-86.55
0
LINE
8
BLACK
6
CONTINUOUS
10
113.45
20
-86.55
11
113.45
21
-86.3683
0
LINE
8
BLACK
6
CONTINUOUS
10
113.45
20
-86.3683
11
113.422
21
-86.3634
0
LINE
8
BLACK
6
CONTINUOUS
10
113.422
20
-86.3634
11
113.178
21
-86.2223
0
LINE
8
BLACK
6
CONTINUOUS
10
113.178
20
-86.2223
11
112.996
21
-86.0062
0
LINE
8
BLACK
6
CONTINUOUS
10
112.996
20
-86.0062
11
112.9
21
-85.7411
0
LINE
8
BLACK
6
CONTINUOUS
10
112.9
20
-85.7411
11
112.9
21
-85.4589
0
LINE
8
BLACK
6
CONTINUOUS
10
112.9
20
-85.4589
11
112.981
21
-85.235
0
LINE
8
BLACK
6
CONTINUOUS
10
112.981
20
-85.235
11
112.631
21
-84.8845
0
LINE
8
BLACK
6
CONTINUOUS
10
112.631
20
-84.8845
11
112.606
21
-84.8632
0
LINE
8
BLACK
6
CONTINUOUS
10
112.606
20
-84.8632
11
112.589
21
-84.8345
0
LINE
8
BLACK
6
CONTINUOUS
10
112.589
20
-84.8345
11
112.57
21
-84.8073
0
LINE
8
BLACK
6
CONTINUOUS
10
112.57
20
-84.8073
11
112.567
21
-84.7965
0
LINE
8
BLACK
6
CONTINUOUS
10
112.567
20
-84.7965
11
112.561
21
-84.7868
0
LINE
8
BLACK
6
CONTINUOUS
10
112.561
20
-84.7868
11
112.556
21
-84.7542
0
LINE
8
BLACK
6
CONTINUOUS
10
112.556
20
-84.7542
11
112.547
21
-84.7221
0
LINE
8
BLACK
6
CONTINUOUS
10
112.547
20
-84.7221
11
112.55
21
-84.6891
0
LINE
8
BLACK
6
CONTINUOUS
10
112.55
20
-84.6891
11
112.55
21
-80.1109
0
LINE
8
BLACK
6
CONTINUOUS
10
112.55
20
-80.1109
11
112.547
21
-80.0779
0
LINE
8
BLACK
6
CONTINUOUS
10
112.547
20
-80.0779
11
112.556
21
-80.0458
0
LINE
8
BLACK
6
CONTINUOUS
10
112.556
20
-80.0458
11
112.561
21
-80.0132
0
LINE
8
BLACK
6
CONTINUOUS
10
112.561
20
-80.0132
11
112.567
21
-80.0035
0
LINE
8
BLACK
6
CONTINUOUS
10
112.567
20
-80.0035
11
112.57
21
-79.9927
0
LINE
8
BLACK
6
CONTINUOUS
10
112.57
20
-79.9927
11
112.589
21
-79.9655
0
LINE
8
BLACK
6
CONTINUOUS
10
112.589
20
-79.9655
11
112.606
21
-79.9368
0
LINE
8
BLACK
6
CONTINUOUS
10
112.606
20
-79.9368
11
112.631
21
-79.9155
0
LINE
8
BLACK
6
CONTINUOUS
10
112.631
20
-79.9155
11
113.801
21
-78.7459
0
LINE
8
BLACK
6
CONTINUOUS
10
113.801
20
-78.7459
11
113.822
21
-78.7205
0
LINE
8
BLACK
6
CONTINUOUS
10
113.822
20
-78.7205
11
113.851
21
-78.704
0
LINE
8
BLACK
6
CONTINUOUS
10
113.851
20
-78.704
11
113.878
21
-78.6849
0
LINE
8
BLACK
6
CONTINUOUS
10
113.878
20
-78.6849
11
113.889
21
-78.682
0
LINE
8
BLACK
6
CONTINUOUS
10
113.889
20
-78.682
11
113.898
21
-78.6765
0
LINE
8
BLACK
6
CONTINUOUS
10
113.898
20
-78.6765
11
113.931
21
-78.6707
0
LINE
8
BLACK
6
CONTINUOUS
10
113.931
20
-78.6707
11
113.963
21
-78.6621
0
LINE
8
BLACK
6
CONTINUOUS
10
113.963
20
-78.6621
11
113.996
21
-78.665
0
LINE
8
BLACK
6
CONTINUOUS
10
113.996
20
-78.665
11
115.4
21
-78.665
0
LINE
8
BLACK
6
CONTINUOUS
10
115.4
20
-78.665
11
115.4
21
-78.615
0
LINE
8
BLACK
6
CONTINUOUS
10
115.4
20
-78.615
11
117.4
21
-78.615
0
LINE
8
BLACK
6
CONTINUOUS
10
117.4
20
-78.615
11
117.4
21
-79.215
0
LINE
8
BLACK
6
CONTINUOUS
10
126.8
20
-81.755
11
126.05
21
-81.755
0
LINE
8
BLACK
6
CONTINUOUS
10
126.05
20
-81.755
11
126.05
21
-82.8891
0
LINE
8
BLACK
6
CONTINUOUS
10
126.05
20
-82.8891
11
126.053
21
-82.9221
0
LINE
8
BLACK
6
CONTINUOUS
10
126.053
20
-82.9221
11
126.044
21
-82.9542
0
LINE
8
BLACK
6
CONTINUOUS
10
126.044
20
-82.9542
11
126.039
21
-82.9868
0
LINE
8
BLACK
6
CONTINUOUS
10
126.039
20
-82.9868
11
126.033
21
-82.9965
0
LINE
8
BLACK
6
CONTINUOUS
10
126.033
20
-82.9965
11
126.03
21
-83.0073
0
LINE
8
BLACK
6
CONTINUOUS
10
126.03
20
-83.0073
11
126.011
21
-83.0345
0
LINE
8
BLACK
6
CONTINUOUS
10
126.011
20
-83.0345
11
125.994
21
-83.0632
0
LINE
8
BLACK
6
CONTINUOUS
10
125.994
20
-83.0632
11
125.969
21
-83.0845
0
LINE
8
BLACK
6
CONTINUOUS
10
125.969
20
-83.0845
11
125.35
21
-83.7036
0
LINE
8
BLACK
6
CONTINUOUS
10
125.35
20
-83.7036
11
125.35
21
-84.8317
0
LINE
8
BLACK
6
CONTINUOUS
10
125.35
20
-84.8317
11
125.378
21
-84.8366
0
LINE
8
BLACK
6
CONTINUOUS
10
125.378
20
-84.8366
11
125.622
21
-84.9777
0
LINE
8
BLACK
6
CONTINUOUS
10
125.622
20
-84.9777
11
125.804
21
-85.1938
0
LINE
8
BLACK
6
CONTINUOUS
10
125.804
20
-85.1938
11
125.9
21
-85.4589
0
LINE
8
BLACK
6
CONTINUOUS
10
125.9
20
-85.4589
11
125.9
21
-85.7411
0
LINE
8
BLACK
6
CONTINUOUS
10
125.9
20
-85.7411
11
125.804
21
-86.0062
0
LINE
8
BLACK
6
CONTINUOUS
10
125.804
20
-86.0062
11
125.622
21
-86.2223
0
LINE
8
BLACK
6
CONTINUOUS
10
125.622
20
-86.2223
11
125.378
21
-86.3634
0
LINE
8
BLACK
6
CONTINUOUS
10
125.378
20
-86.3634
11
125.35
21
-86.3683
0
LINE
8
BLACK
6
CONTINUOUS
10
125.35
20
-86.3683
11
125.35
21
-86.55
0
LINE
8
BLACK
6
CONTINUOUS
10
125.35
20
-86.55
11
125.475
21
-86.55
0
LINE
8
BLACK
6
CONTINUOUS
10
125.475
20
-86.55
11
125.475
21
-87.75
0
LINE
8
BLACK
6
CONTINUOUS
10
125.475
20
-87.75
11
124.725
21
-87.75
0
LINE
8
BLACK
6
CONTINUOUS
10
124.725
20
-87.75
11
124.725
21
-86.55
0
LINE
8
BLACK
6
CONTINUOUS
10
124.725
20
-86.55
11
124.85
21
-86.55
0
LINE
8
BLACK
6
CONTINUOUS
10
124.85
20
-86.55
11
124.85
21
-86.3683
0
LINE
8
BLACK
6
CONTINUOUS
10
124.85
20
-86.3683
11
124.822
21
-86.3634
0
LINE
8
BLACK
6
CONTINUOUS
10
124.822
20
-86.3634
11
124.578
21
-86.2223
0
LINE
8
BLACK
6
CONTINUOUS
10
124.578
20
-86.2223
11
124.396
21
-86.0062
0
LINE
8
BLACK
6
CONTINUOUS
10
124.396
20
-86.0062
11
124.3
21
-85.7411
0
LINE
8
BLACK
6
CONTINUOUS
10
124.3
20
-85.7411
11
124.3
21
-85.4589
0
LINE
8
BLACK
6
CONTINUOUS
10
124.3
20
-85.4589
11
124.396
21
-85.1938
0
LINE
8
BLACK
6
CONTINUOUS
10
124.396
20
-85.1938
11
124.578
21
-84.9777
0
LINE
8
BLACK
6
CONTINUOUS
10
124.578
20
-84.9777
11
124.822
21
-84.8366
0
LINE
8
BLACK
6
CONTINUOUS
10
124.822
20
-84.8366
11
124.85
21
-84.8317
0
LINE
8
BLACK
6
CONTINUOUS
10
124.85
20
-84.8317
11
124.85
21
-83.6109
0
LINE
8
BLACK
6
CONTINUOUS
10
124.85
20
-83.6109
11
124.847
21
-83.5779
0
LINE
8
BLACK
6
CONTINUOUS
10
124.847
20
-83.5779
11
124.856
21
-83.5458
0
LINE
8
BLACK
6
CONTINUOUS
10
124.856
20
-83.5458
11
124.861
21
-83.5132
0
LINE
8
BLACK
6
CONTINUOUS
10
124.861
20
-83.5132
11
124.867
21
-83.5035
0
LINE
8
BLACK
6
CONTINUOUS
10
124.867
20
-83.5035
11
124.87
21
-83.4927
0
LINE
8
BLACK
6
CONTINUOUS
10
124.87
20
-83.4927
11
124.889
21
-83.4655
0
LINE
8
BLACK
6
CONTINUOUS
10
124.889
20
-83.4655
11
124.906
21
-83.4368
0
LINE
8
BLACK
6
CONTINUOUS
10
124.906
20
-83.4368
11
124.931
21
-83.4155
0
LINE
8
BLACK
6
CONTINUOUS
10
124.931
20
-83.4155
11
125.55
21
-82.7964
0
LINE
8
BLACK
6
CONTINUOUS
10
125.55
20
-82.7964
11
125.55
21
-81.755
0
LINE
8
BLACK
6
CONTINUOUS
10
125.55
20
-81.755
11
124.8
21
-81.755
0
LINE
8
BLACK
6
CONTINUOUS
10
124.8
20
-81.755
11
124.8
21
-81.155
0
LINE
8
BLACK
6
CONTINUOUS
10
124.8
20
-81.155
11
126.8
21
-81.155
0
LINE
8
BLACK
6
CONTINUOUS
10
126.8
20
-81.155
11
126.8
21
-81.755
0
LINE
8
BLACK
6
CONTINUOUS
10
117.4
20
-81.205
11
118.944
21
-81.205
0
LINE
8
BLACK
6
CONTINUOUS
10
118.944
20
-81.205
11
118.977
21
-81.2021
0
LINE
8
BLACK
6
CONTINUOUS
10
118.977
20
-81.2021
11
119.009
21
-81.2107
0
LINE
8
BLACK
6
CONTINUOUS
10
119.009
20
-81.2107
11
119.042
21
-81.2165
0
LINE
8
BLACK
6
CONTINUOUS
10
119.042
20
-81.2165
11
119.051
21
-81.222
0
LINE
8
BLACK
6
CONTINUOUS
10
119.051
20
-81.222
11
119.062
21
-81.2249
0
LINE
8
BLACK
6
CONTINUOUS
10
119.062
20
-81.2249
11
119.089
21
-81.2439
0
LINE
8
BLACK
6
CONTINUOUS
10
119.089
20
-81.2439
11
119.118
21
-81.2605
0
LINE
8
BLACK
6
CONTINUOUS
10
119.118
20
-81.2605
11
119.139
21
-81.2859
0
LINE
8
BLACK
6
CONTINUOUS
10
119.139
20
-81.2859
11
121.369
21
-83.5155
0
LINE
8
BLACK
6
CONTINUOUS
10
121.369
20
-83.5155
11
121.394
21
-83.5368
0
LINE
8
BLACK
6
CONTINUOUS
10
121.394
20
-83.5368
11
121.411
21
-83.5655
0
LINE
8
BLACK
6
CONTINUOUS
10
121.411
20
-83.5655
11
121.43
21
-83.5927
0
LINE
8
BLACK
6
CONTINUOUS
10
121.43
20
-83.5927
11
121.433
21
-83.6035
0
LINE
8
BLACK
6
CONTINUOUS
10
121.433
20
-83.6035
11
121.439
21
-83.6132
0
LINE
8
BLACK
6
CONTINUOUS
10
121.439
20
-83.6132
11
121.444
21
-83.6458
0
LINE
8
BLACK
6
CONTINUOUS
10
121.444
20
-83.6458
11
121.453
21
-83.6779
0
LINE
8
BLACK
6
CONTINUOUS
10
121.453
20
-83.6779
11
121.45
21
-83.7109
0
LINE
8
BLACK
6
CONTINUOUS
10
121.45
20
-83.7109
11
121.45
21
-84.8317
0
LINE
8
BLACK
6
CONTINUOUS
10
121.45
20
-84.8317
11
121.478
21
-84.8366
0
LINE
8
BLACK
6
CONTINUOUS
10
121.478
20
-84.8366
11
121.722
21
-84.9777
0
LINE
8
BLACK
6
CONTINUOUS
10
121.722
20
-84.9777
11
121.904
21
-85.1938
0
LINE
8
BLACK
6
CONTINUOUS
10
121.904
20
-85.1938
11
122
21
-85.4589
0
LINE
8
BLACK
6
CONTINUOUS
10
122
20
-85.4589
11
122
21
-85.7411
0
LINE
8
BLACK
6
CONTINUOUS
10
122
20
-85.7411
11
121.904
21
-86.0062
0
LINE
8
BLACK
6
CONTINUOUS
10
121.904
20
-86.0062
11
121.722
21
-86.2223
0
LINE
8
BLACK
6
CONTINUOUS
10
121.722
20
-86.2223
11
121.478
21
-86.3634
0
LINE
8
BLACK
6
CONTINUOUS
10
121.478
20
-86.3634
11
121.45
21
-86.3683
0
LINE
8
BLACK
6
CONTINUOUS
10
121.45
20
-86.3683
11
121.45
21
-86.55
0
LINE
8
BLACK
6
CONTINUOUS
10
121.45
20
-86.55
11
121.575
21
-86.55
0
LINE
8
BLACK
6
CONTINUOUS
10
121.575
20
-86.55
11
121.575
21
-87.75
0
LINE
8
BLACK
6
CONTINUOUS
10
121.575
20
-87.75
11
120.825
21
-87.75
0
LINE
8
BLACK
6
CONTINUOUS
10
120.825
20
-87.75
11
120.825
21
-86.55
0
LINE
8
BLACK
6
CONTINUOUS
10
120.825
20
-86.55
11
120.95
21
-86.55
0
LINE
8
BLACK
6
CONTINUOUS
10
120.95
20
-86.55
11
120.95
21
-86.3683
0
LINE
8
BLACK
6
CONTINUOUS
10
120.95
20
-86.3683
11
120.922
21
-86.3634
0
LINE
8
BLACK
6
CONTINUOUS
10
120.922
20
-86.3634
11
120.678
21
-86.2223
0
LINE
8
BLACK
6
CONTINUOUS
10
120.678
20
-86.2223
11
120.496
21
-86.0062
0
LINE
8
BLACK
6
CONTINUOUS
10
120.496
20
-86.0062
11
120.4
21
-85.7411
0
LINE
8
BLACK
6
CONTINUOUS
10
120.4
20
-85.7411
11
120.4
21
-85.4589
0
LINE
8
BLACK
6
CONTINUOUS
10
120.4
20
-85.4589
11
120.496
21
-85.1938
0
LINE
8
BLACK
6
CONTINUOUS
10
120.496
20
-85.1938
11
120.678
21
-84.9777
0
LINE
8
BLACK
6
CONTINUOUS
10
120.678
20
-84.9777
11
120.922
21
-84.8366
0
LINE
8
BLACK
6
CONTINUOUS
10
120.922
20
-84.8366
11
120.95
21
-84.8317
0
LINE
8
BLACK
6
CONTINUOUS
10
120.95
20
-84.8317
11
120.95
21
-83.8036
0
LINE
8
BLACK
6
CONTINUOUS
10
120.95
20
-83.8036
11
118.851
21
-81.705
0
LINE
8
BLACK
6
CONTINUOUS
10
118.851
20
-81.705
11
117.4
21
-81.705
0
LINE
8
BLACK
6
CONTINUOUS
10
117.4
20
-81.705
11
117.4
21
-81.755
0
LINE
8
BLACK
6
CONTINUOUS
10
117.4
20
-81.755
11
115.4
21
-81.755
0
LINE
8
BLACK
6
CONTINUOUS
10
115.4
20
-81.755
11
115.4
21
-81.155
0
LINE
8
BLACK
6
CONTINUOUS
10
115.4
20
-81.155
11
117.4
21
-81.155
0
LINE
8
BLACK
6
CONTINUOUS
10
117.4
20
-81.155
11
117.4
21
-81.205
0
LINE
8
BLACK
6
CONTINUOUS
10
117.4
20
-80.485
11
115.4
21
-80.485
0
LINE
8
BLACK
6
CONTINUOUS
10
115.4
20
-80.485
11
115.4
21
-80.435
0
LINE
8
BLACK
6
CONTINUOUS
10
115.4
20
-80.435
11
115.119
21
-80.435
0
LINE
8
BLACK
6
CONTINUOUS
10
115.119
20
-80.435
11
114.35
21
-81.2036
0
LINE
8
BLACK
6
CONTINUOUS
10
114.35
20
-81.2036
11
114.35
21
-82.1964
0
LINE
8
BLACK
6
CONTINUOUS
10
114.35
20
-82.1964
11
116.092
21
-83.9387
0
LINE
8
BLACK
6
CONTINUOUS
10
116.092
20
-83.9387
11
116.092
21
-83.9387
0
LINE
8
BLACK
6
CONTINUOUS
10
116.092
20
-83.9387
11
117.039
21
-84.8849
0
LINE
8
BLACK
6
CONTINUOUS
10
117.039
20
-84.8849
11
117.122
21
-84.8366
0
LINE
8
BLACK
6
CONTINUOUS
10
117.122
20
-84.8366
11
117.4
21
-84.7877
0
LINE
8
BLACK
6
CONTINUOUS
10
117.4
20
-84.7877
11
117.678
21
-84.8366
0
LINE
8
BLACK
6
CONTINUOUS
10
117.678
20
-84.8366
11
117.922
21
-84.9777
0
LINE
8
BLACK
6
CONTINUOUS
10
117.922
20
-84.9777
11
118.104
21
-85.1938
0
LINE
8
BLACK
6
CONTINUOUS
10
118.104
20
-85.1938
11
118.2
21
-85.4589
0
LINE
8
BLACK
6
CONTINUOUS
10
118.2
20
-85.4589
11
118.2
21
-85.7411
0
LINE
8
BLACK
6
CONTINUOUS
10
118.2
20
-85.7411
11
118.104
21
-86.0062
0
LINE
8
BLACK
6
CONTINUOUS
10
118.104
20
-86.0062
11
117.922
21
-86.2223
0
LINE
8
BLACK
6
CONTINUOUS
10
117.922
20
-86.2223
11
117.678
21
-86.3634
0
LINE
8
BLACK
6
CONTINUOUS
10
117.678
20
-86.3634
11
117.65
21
-86.3683
0
LINE
8
BLACK
6
CONTINUOUS
10
117.65
20
-86.3683
11
117.65
21
-86.55
0
LINE
8
BLACK
6
CONTINUOUS
10
117.65
20
-86.55
11
117.775
21
-86.55
0
LINE
8
BLACK
6
CONTINUOUS
10
117.775
20
-86.55
11
117.775
21
-87.75
0
LINE
8
BLACK
6
CONTINUOUS
10
117.775
20
-87.75
11
117.025
21
-87.75
0
LINE
8
BLACK
6
CONTINUOUS
10
117.025
20
-87.75
11
117.025
21
-86.55
0
LINE
8
BLACK
6
CONTINUOUS
10
117.025
20
-86.55
11
117.15
21
-86.55
0
LINE
8
BLACK
6
CONTINUOUS
10
117.15
20
-86.55
11
117.15
21
-86.3683
0
LINE
8
BLACK
6
CONTINUOUS
10
117.15
20
-86.3683
11
117.122
21
-86.3634
0
LINE
8
BLACK
6
CONTINUOUS
10
117.122
20
-86.3634
11
116.878
21
-86.2223
0
LINE
8
BLACK
6
CONTINUOUS
10
116.878
20
-86.2223
11
116.696
21
-86.0062
0
LINE
8
BLACK
6
CONTINUOUS
10
116.696
20
-86.0062
11
116.6
21
-85.7411
0
LINE
8
BLACK
6
CONTINUOUS
10
116.6
20
-85.7411
11
116.6
21
-85.4589
0
LINE
8
BLACK
6
CONTINUOUS
10
116.6
20
-85.4589
11
116.681
21
-85.235
0
LINE
8
BLACK
6
CONTINUOUS
10
116.681
20
-85.235
11
115.739
21
-84.2922
0
LINE
8
BLACK
6
CONTINUOUS
10
115.739
20
-84.2922
11
115.739
21
-84.2922
0
LINE
8
BLACK
6
CONTINUOUS
10
115.739
20
-84.2922
11
113.931
21
-82.4845
0
LINE
8
BLACK
6
CONTINUOUS
10
113.931
20
-82.4845
11
113.906
21
-82.4632
0
LINE
8
BLACK
6
CONTINUOUS
10
113.906
20
-82.4632
11
113.889
21
-82.4345
0
LINE
8
BLACK
6
CONTINUOUS
10
113.889
20
-82.4345
11
113.87
21
-82.4073
0
LINE
8
BLACK
6
CONTINUOUS
10
113.87
20
-82.4073
11
113.867
21
-82.3965
0
LINE
8
BLACK
6
CONTINUOUS
10
113.867
20
-82.3965
11
113.861
21
-82.3868
0
LINE
8
BLACK
6
CONTINUOUS
10
113.861
20
-82.3868
11
113.856
21
-82.3542
0
LINE
8
BLACK
6
CONTINUOUS
10
113.856
20
-82.3542
11
113.847
21
-82.3221
0
LINE
8
BLACK
6
CONTINUOUS
10
113.847
20
-82.3221
11
113.85
21
-82.2891
0
LINE
8
BLACK
6
CONTINUOUS
10
113.85
20
-82.2891
11
113.85
21
-81.1109
0
LINE
8
BLACK
6
CONTINUOUS
10
113.85
20
-81.1109
11
113.847
21
-81.0779
0
LINE
8
BLACK
6
CONTINUOUS
10
113.847
20
-81.0779
11
113.856
21
-81.0458
0
LINE
8
BLACK
6
CONTINUOUS
10
113.856
20
-81.0458
11
113.861
21
-81.0132
0
LINE
8
BLACK
6
CONTINUOUS
10
113.861
20
-81.0132
11
113.867
21
-81.0035
0
LINE
8
BLACK
6
CONTINUOUS
10
113.867
20
-81.0035
11
113.87
21
-80.9927
0
LINE
8
BLACK
6
CONTINUOUS
10
113.87
20
-80.9927
11
113.889
21
-80.9655
0
LINE
8
BLACK
6
CONTINUOUS
10
113.889
20
-80.9655
11
113.906
21
-80.9368
0
LINE
8
BLACK
6
CONTINUOUS
10
113.906
20
-80.9368
11
113.931
21
-80.9155
0
LINE
8
BLACK
6
CONTINUOUS
10
113.931
20
-80.9155
11
114.831
21
-80.0159
0
LINE
8
BLACK
6
CONTINUOUS
10
114.831
20
-80.0159
11
114.852
21
-79.9905
0
LINE
8
BLACK
6
CONTINUOUS
10
114.852
20
-79.9905
11
114.881
21
-79.974
0
LINE
8
BLACK
6
CONTINUOUS
10
114.881
20
-79.974
11
114.908
21
-79.9549
0
LINE
8
BLACK
6
CONTINUOUS
10
114.908
20
-79.9549
11
114.919
21
-79.952
0
LINE
8
BLACK
6
CONTINUOUS
10
114.919
20
-79.952
11
114.928
21
-79.9465
0
LINE
8
BLACK
6
CONTINUOUS
10
114.928
20
-79.9465
11
114.961
21
-79.9407
0
LINE
8
BLACK
6
CONTINUOUS
10
114.961
20
-79.9407
11
114.993
21
-79.9321
0
LINE
8
BLACK
6
CONTINUOUS
10
114.993
20
-79.9321
11
115.026
21
-79.935
0
LINE
8
BLACK
6
CONTINUOUS
10
115.026
20
-79.935
11
115.4
21
-79.935
0
LINE
8
BLACK
6
CONTINUOUS
10
115.4
20
-79.935
11
115.4
21
-79.885
0
LINE
8
BLACK
6
CONTINUOUS
10
115.4
20
-79.885
11
117.4
21
-79.885
0
LINE
8
BLACK
6
CONTINUOUS
10
117.4
20
-79.885
11
117.4
21
-80.485
0
LINE
8
BLACK
6
CONTINUOUS
10
93.9952
20
-85.7889
11
94.2548
21
-85.9388
0
LINE
8
BLACK
6
CONTINUOUS
10
94.2548
20
-85.9388
11
94.4475
21
-86.1684
0
LINE
8
BLACK
6
CONTINUOUS
10
94.4475
20
-86.1684
11
94.55
21
-86.4501
0
LINE
8
BLACK
6
CONTINUOUS
10
94.55
20
-86.4501
11
94.55
21
-86.7499
0
LINE
8
BLACK
6
CONTINUOUS
10
94.55
20
-86.7499
11
94.4475
21
-87.0316
0
LINE
8
BLACK
6
CONTINUOUS
10
94.4475
20
-87.0316
11
94.2548
21
-87.2612
0
LINE
8
BLACK
6
CONTINUOUS
10
94.2548
20
-87.2612
11
93.9952
21
-87.4111
0
LINE
8
BLACK
6
CONTINUOUS
10
93.9952
20
-87.4111
11
93.7744
21
-87.45
0
LINE
8
BLACK
6
CONTINUOUS
10
93.7744
20
-87.45
11
93.6256
21
-87.45
0
LINE
8
BLACK
6
CONTINUOUS
10
93.6256
20
-87.45
11
93.4048
21
-87.4111
0
LINE
8
BLACK
6
CONTINUOUS
10
93.4048
20
-87.4111
11
93.1452
21
-87.2612
0
LINE
8
BLACK
6
CONTINUOUS
10
93.1452
20
-87.2612
11
92.9525
21
-87.0316
0
LINE
8
BLACK
6
CONTINUOUS
10
92.9525
20
-87.0316
11
92.85
21
-86.7499
0
LINE
8
BLACK
6
CONTINUOUS
10
92.85
20
-86.7499
11
92.85
21
-86.4501
0
LINE
8
BLACK
6
CONTINUOUS
10
92.85
20
-86.4501
11
92.9525
21
-86.1684
0
LINE
8
BLACK
6
CONTINUOUS
10
92.9525
20
-86.1684
11
93.1452
21
-85.9388
0
LINE
8
BLACK
6
CONTINUOUS
10
93.1452
20
-85.9388
11
93.4048
21
-85.7889
0
LINE
8
BLACK
6
CONTINUOUS
10
93.4048
20
-85.7889
11
93.6256
21
-85.75
0
LINE
8
BLACK
6
CONTINUOUS
10
93.6256
20
-85.75
11
93.7744
21
-85.75
0
LINE
8
BLACK
6
CONTINUOUS
10
93.7744
20
-85.75
11
93.9952
21
-85.7889
0
LINE
8
BLACK
6
CONTINUOUS
10
117.4
20
-74.135
11
115.4
21
-74.135
0
LINE
8
BLACK
6
CONTINUOUS
10
115.4
20
-74.135
11
115.4
21
-74.085
0
LINE
8
BLACK
6
CONTINUOUS
10
115.4
20
-74.085
11
110.669
21
-74.085
0
LINE
8
BLACK
6
CONTINUOUS
10
110.669
20
-74.085
11
108.684
21
-76.0691
0
LINE
8
BLACK
6
CONTINUOUS
10
108.684
20
-76.0691
11
108.663
21
-76.0945
0
LINE
8
BLACK
6
CONTINUOUS
10
108.663
20
-76.0945
11
108.634
21
-76.111
0
LINE
8
BLACK
6
CONTINUOUS
10
108.634
20
-76.111
11
108.607
21
-76.1301
0
LINE
8
BLACK
6
CONTINUOUS
10
108.607
20
-76.1301
11
108.596
21
-76.133
0
LINE
8
BLACK
6
CONTINUOUS
10
108.596
20
-76.133
11
108.587
21
-76.1385
0
LINE
8
BLACK
6
CONTINUOUS
10
108.587
20
-76.1385
11
108.554
21
-76.1443
0
LINE
8
BLACK
6
CONTINUOUS
10
108.554
20
-76.1443
11
108.522
21
-76.1529
0
LINE
8
BLACK
6
CONTINUOUS
10
108.522
20
-76.1529
11
108.489
21
-76.15
0
LINE
8
BLACK
6
CONTINUOUS
10
108.489
20
-76.15
11
104.704
21
-76.15
0
LINE
8
BLACK
6
CONTINUOUS
10
104.704
20
-76.15
11
103.55
21
-77.3036
0
LINE
8
BLACK
6
CONTINUOUS
10
103.55
20
-77.3036
11
103.55
21
-77.6317
0
LINE
8
BLACK
6
CONTINUOUS
10
103.55
20
-77.6317
11
103.578
21
-77.6366
0
LINE
8
BLACK
6
CONTINUOUS
10
103.578
20
-77.6366
11
103.822
21
-77.7777
0
LINE
8
BLACK
6
CONTINUOUS
10
103.822
20
-77.7777
11
104.004
21
-77.9938
0
LINE
8
BLACK
6
CONTINUOUS
10
104.004
20
-77.9938
11
104.06
21
-78.15
0
LINE
8
BLACK
6
CONTINUOUS
10
104.06
20
-78.15
11
104.25
21
-78.15
0
LINE
8
BLACK
6
CONTINUOUS
10
104.25
20
-78.15
11
104.25
21
-78.025
0
LINE
8
BLACK
6
CONTINUOUS
10
104.25
20
-78.025
11
105.45
21
-78.025
0
LINE
8
BLACK
6
CONTINUOUS
10
105.45
20
-78.025
11
105.45
21
-78.775
0
LINE
8
BLACK
6
CONTINUOUS
10
105.45
20
-78.775
11
104.25
21
-78.775
0
LINE
8
BLACK
6
CONTINUOUS
10
104.25
20
-78.775
11
104.25
21
-78.65
0
LINE
8
BLACK
6
CONTINUOUS
10
104.25
20
-78.65
11
104.06
21
-78.65
0
LINE
8
BLACK
6
CONTINUOUS
10
104.06
20
-78.65
11
104.004
21
-78.8062
0
LINE
8
BLACK
6
CONTINUOUS
10
104.004
20
-78.8062
11
103.822
21
-79.0223
0
LINE
8
BLACK
6
CONTINUOUS
10
103.822
20
-79.0223
11
103.578
21
-79.1634
0
LINE
8
BLACK
6
CONTINUOUS
10
103.578
20
-79.1634
11
103.3
21
-79.2123
0
LINE
8
BLACK
6
CONTINUOUS
10
103.3
20
-79.2123
11
103.022
21
-79.1634
0
LINE
8
BLACK
6
CONTINUOUS
10
103.022
20
-79.1634
11
102.778
21
-79.0223
0
LINE
8
BLACK
6
CONTINUOUS
10
102.778
20
-79.0223
11
102.596
21
-78.8062
0
LINE
8
BLACK
6
CONTINUOUS
10
102.596
20
-78.8062
11
102.54
21
-78.65
0
LINE
8
BLACK
6
CONTINUOUS
10
102.54
20
-78.65
11
102.404
21
-78.65
0
LINE
8
BLACK
6
CONTINUOUS
10
102.404
20
-78.65
11
97.0245
21
-84.0291
0
LINE
8
BLACK
6
CONTINUOUS
10
97.0245
20
-84.0291
11
97.0032
21
-84.0545
0
LINE
8
BLACK
6
CONTINUOUS
10
97.0032
20
-84.0545
11
96.9744
21
-84.071
0
LINE
8
BLACK
6
CONTINUOUS
10
96.9744
20
-84.071
11
96.9473
21
-84.0901
0
LINE
8
BLACK
6
CONTINUOUS
10
96.9473
20
-84.0901
11
96.9365
21
-84.093
0
LINE
8
BLACK
6
CONTINUOUS
10
96.9365
20
-84.093
11
96.9268
21
-84.0985
0
LINE
8
BLACK
6
CONTINUOUS
10
96.9268
20
-84.0985
11
96.8942
21
-84.1043
0
LINE
8
BLACK
6
CONTINUOUS
10
96.8942
20
-84.1043
11
96.8621
21
-84.1129
0
LINE
8
BLACK
6
CONTINUOUS
10
96.8621
20
-84.1129
11
96.8291
21
-84.11
0
LINE
8
BLACK
6
CONTINUOUS
10
96.8291
20
-84.11
11
94.55
21
-84.11
0
LINE
8
BLACK
6
CONTINUOUS
10
94.55
20
-84.11
11
94.55
21
-84.2099
0
LINE
8
BLACK
6
CONTINUOUS
10
94.55
20
-84.2099
11
94.4475
21
-84.4916
0
LINE
8
BLACK
6
CONTINUOUS
10
94.4475
20
-84.4916
11
94.2548
21
-84.7212
0
LINE
8
BLACK
6
CONTINUOUS
10
94.2548
20
-84.7212
11
93.9952
21
-84.8711
0
LINE
8
BLACK
6
CONTINUOUS
10
93.9952
20
-84.8711
11
93.7744
21
-84.91
0
LINE
8
BLACK
6
CONTINUOUS
10
93.7744
20
-84.91
11
93.6256
21
-84.91
0
LINE
8
BLACK
6
CONTINUOUS
10
93.6256
20
-84.91
11
93.4048
21
-84.8711
0
LINE
8
BLACK
6
CONTINUOUS
10
93.4048
20
-84.8711
11
93.1452
21
-84.7212
0
LINE
8
BLACK
6
CONTINUOUS
10
93.1452
20
-84.7212
11
92.9525
21
-84.4916
0
LINE
8
BLACK
6
CONTINUOUS
10
92.9525
20
-84.4916
11
92.85
21
-84.2099
0
LINE
8
BLACK
6
CONTINUOUS
10
92.85
20
-84.2099
11
92.85
21
-83.9101
0
LINE
8
BLACK
6
CONTINUOUS
10
92.85
20
-83.9101
11
92.9525
21
-83.6284
0
LINE
8
BLACK
6
CONTINUOUS
10
92.9525
20
-83.6284
11
93.1452
21
-83.3988
0
LINE
8
BLACK
6
CONTINUOUS
10
93.1452
20
-83.3988
11
93.4048
21
-83.2489
0
LINE
8
BLACK
6
CONTINUOUS
10
93.4048
20
-83.2489
11
93.6256
21
-83.21
0
LINE
8
BLACK
6
CONTINUOUS
10
93.6256
20
-83.21
11
93.7744
21
-83.21
0
LINE
8
BLACK
6
CONTINUOUS
10
93.7744
20
-83.21
11
93.9952
21
-83.2489
0
LINE
8
BLACK
6
CONTINUOUS
10
93.9952
20
-83.2489
11
94.2548
21
-83.3988
0
LINE
8
BLACK
6
CONTINUOUS
10
94.2548
20
-83.3988
11
94.432
21
-83.61
0
LINE
8
BLACK
6
CONTINUOUS
10
94.432
20
-83.61
11
96.7364
21
-83.61
0
LINE
8
BLACK
6
CONTINUOUS
10
96.7364
20
-83.61
11
102.116
21
-78.2309
0
LINE
8
BLACK
6
CONTINUOUS
10
102.116
20
-78.2309
11
102.137
21
-78.2055
0
LINE
8
BLACK
6
CONTINUOUS
10
102.137
20
-78.2055
11
102.166
21
-78.189
0
LINE
8
BLACK
6
CONTINUOUS
10
102.166
20
-78.189
11
102.193
21
-78.1699
0
LINE
8
BLACK
6
CONTINUOUS
10
102.193
20
-78.1699
11
102.204
21
-78.167
0
LINE
8
BLACK
6
CONTINUOUS
10
102.204
20
-78.167
11
102.213
21
-78.1615
0
LINE
8
BLACK
6
CONTINUOUS
10
102.213
20
-78.1615
11
102.246
21
-78.1557
0
LINE
8
BLACK
6
CONTINUOUS
10
102.246
20
-78.1557
11
102.278
21
-78.1471
0
LINE
8
BLACK
6
CONTINUOUS
10
102.278
20
-78.1471
11
102.311
21
-78.15
0
LINE
8
BLACK
6
CONTINUOUS
10
102.311
20
-78.15
11
102.54
21
-78.15
0
LINE
8
BLACK
6
CONTINUOUS
10
102.54
20
-78.15
11
102.596
21
-77.9938
0
LINE
8
BLACK
6
CONTINUOUS
10
102.596
20
-77.9938
11
102.778
21
-77.7777
0
LINE
8
BLACK
6
CONTINUOUS
10
102.778
20
-77.7777
11
103.022
21
-77.6366
0
LINE
8
BLACK
6
CONTINUOUS
10
103.022
20
-77.6366
11
103.05
21
-77.6317
0
LINE
8
BLACK
6
CONTINUOUS
10
103.05
20
-77.6317
11
103.05
21
-77.2109
0
LINE
8
BLACK
6
CONTINUOUS
10
103.05
20
-77.2109
11
103.047
21
-77.1779
0
LINE
8
BLACK
6
CONTINUOUS
10
103.047
20
-77.1779
11
103.056
21
-77.1458
0
LINE
8
BLACK
6
CONTINUOUS
10
103.056
20
-77.1458
11
103.061
21
-77.1132
0
LINE
8
BLACK
6
CONTINUOUS
10
103.061
20
-77.1132
11
103.067
21
-77.1035
0
LINE
8
BLACK
6
CONTINUOUS
10
103.067
20
-77.1035
11
103.07
21
-77.0927
0
LINE
8
BLACK
6
CONTINUOUS
10
103.07
20
-77.0927
11
103.089
21
-77.0655
0
LINE
8
BLACK
6
CONTINUOUS
10
103.089
20
-77.0655
11
103.106
21
-77.0368
0
LINE
8
BLACK
6
CONTINUOUS
10
103.106
20
-77.0368
11
103.131
21
-77.0155
0
LINE
8
BLACK
6
CONTINUOUS
10
103.131
20
-77.0155
11
104.416
21
-75.7309
0
LINE
8
BLACK
6
CONTINUOUS
10
104.416
20
-75.7309
11
104.437
21
-75.7055
0
LINE
8
BLACK
6
CONTINUOUS
10
104.437
20
-75.7055
11
104.466
21
-75.689
0
LINE
8
BLACK
6
CONTINUOUS
10
104.466
20
-75.689
11
104.493
21
-75.6699
0
LINE
8
BLACK
6
CONTINUOUS
10
104.493
20
-75.6699
11
104.504
21
-75.667
0
LINE
8
BLACK
6
CONTINUOUS
10
104.504
20
-75.667
11
104.513
21
-75.6615
0
LINE
8
BLACK
6
CONTINUOUS
10
104.513
20
-75.6615
11
104.546
21
-75.6557
0
LINE
8
BLACK
6
CONTINUOUS
10
104.546
20
-75.6557
11
104.578
21
-75.6471
0
LINE
8
BLACK
6
CONTINUOUS
10
104.578
20
-75.6471
11
104.611
21
-75.65
0
LINE
8
BLACK
6
CONTINUOUS
10
104.611
20
-75.65
11
108.396
21
-75.65
0
LINE
8
BLACK
6
CONTINUOUS
10
108.396
20
-75.65
11
110.381
21
-73.6659
0
LINE
8
BLACK
6
CONTINUOUS
10
110.381
20
-73.6659
11
110.402
21
-73.6405
0
LINE
8
BLACK
6
CONTINUOUS
10
110.402
20
-73.6405
11
110.431
21
-73.624
0
LINE
8
BLACK
6
CONTINUOUS
10
110.431
20
-73.624
11
110.458
21
-73.6049
0
LINE
8
BLACK
6
CONTINUOUS
10
110.458
20
-73.6049
11
110.469
21
-73.602
0
LINE
8
BLACK
6
CONTINUOUS
10
110.469
20
-73.602
11
110.478
21
-73.5965
0
LINE
8
BLACK
6
CONTINUOUS
10
110.478
20
-73.5965
11
110.511
21
-73.5907
0
LINE
8
BLACK
6
CONTINUOUS
10
110.511
20
-73.5907
11
110.543
21
-73.5821
0
LINE
8
BLACK
6
CONTINUOUS
10
110.543
20
-73.5821
11
110.576
21
-73.585
0
LINE
8
BLACK
6
CONTINUOUS
10
110.576
20
-73.585
11
115.4
21
-73.585
0
LINE
8
BLACK
6
CONTINUOUS
10
115.4
20
-73.585
11
115.4
21
-73.535
0
LINE
8
BLACK
6
CONTINUOUS
10
115.4
20
-73.535
11
117.4
21
-73.535
0
LINE
8
BLACK
6
CONTINUOUS
10
117.4
20
-73.535
11
117.4
21
-74.135
0
LINE
8
BLACK
6
CONTINUOUS
10
126.8
20
-74.855
11
129.094
21
-74.855
0
LINE
8
BLACK
6
CONTINUOUS
10
129.094
20
-74.855
11
129.127
21
-74.8521
0
LINE
8
BLACK
6
CONTINUOUS
10
129.127
20
-74.8521
11
129.159
21
-74.8607
0
LINE
8
BLACK
6
CONTINUOUS
10
129.159
20
-74.8607
11
129.192
21
-74.8665
0
LINE
8
BLACK
6
CONTINUOUS
10
129.192
20
-74.8665
11
129.201
21
-74.872
0
LINE
8
BLACK
6
CONTINUOUS
10
129.201
20
-74.872
11
129.212
21
-74.8749
0
LINE
8
BLACK
6
CONTINUOUS
10
129.212
20
-74.8749
11
129.239
21
-74.8939
0
LINE
8
BLACK
6
CONTINUOUS
10
129.239
20
-74.8939
11
129.268
21
-74.9105
0
LINE
8
BLACK
6
CONTINUOUS
10
129.268
20
-74.9105
11
129.289
21
-74.9359
0
LINE
8
BLACK
6
CONTINUOUS
10
129.289
20
-74.9359
11
131.504
21
-77.15
0
LINE
8
BLACK
6
CONTINUOUS
10
131.504
20
-77.15
11
135.589
21
-77.15
0
LINE
8
BLACK
6
CONTINUOUS
10
135.589
20
-77.15
11
135.622
21
-77.1471
0
LINE
8
BLACK
6
CONTINUOUS
10
135.622
20
-77.1471
11
135.654
21
-77.1557
0
LINE
8
BLACK
6
CONTINUOUS
10
135.654
20
-77.1557
11
135.687
21
-77.1615
0
LINE
8
BLACK
6
CONTINUOUS
10
135.687
20
-77.1615
11
135.696
21
-77.167
0
LINE
8
BLACK
6
CONTINUOUS
10
135.696
20
-77.167
11
135.707
21
-77.1699
0
LINE
8
BLACK
6
CONTINUOUS
10
135.707
20
-77.1699
11
135.734
21
-77.1889
0
LINE
8
BLACK
6
CONTINUOUS
10
135.734
20
-77.1889
11
135.763
21
-77.2055
0
LINE
8
BLACK
6
CONTINUOUS
10
135.763
20
-77.2055
11
135.784
21
-77.2309
0
LINE
8
BLACK
6
CONTINUOUS
10
135.784
20
-77.2309
11
139.469
21
-80.9155
0
LINE
8
BLACK
6
CONTINUOUS
10
139.469
20
-80.9155
11
139.494
21
-80.9368
0
LINE
8
BLACK
6
CONTINUOUS
10
139.494
20
-80.9368
11
139.511
21
-80.9655
0
LINE
8
BLACK
6
CONTINUOUS
10
139.511
20
-80.9655
11
139.53
21
-80.9927
0
LINE
8
BLACK
6
CONTINUOUS
10
139.53
20
-80.9927
11
139.533
21
-81.0035
0
LINE
8
BLACK
6
CONTINUOUS
10
139.533
20
-81.0035
11
139.539
21
-81.0132
0
LINE
8
BLACK
6
CONTINUOUS
10
139.539
20
-81.0132
11
139.544
21
-81.0458
0
LINE
8
BLACK
6
CONTINUOUS
10
139.544
20
-81.0458
11
139.553
21
-81.0779
0
LINE
8
BLACK
6
CONTINUOUS
10
139.553
20
-81.0779
11
139.55
21
-81.1109
0
LINE
8
BLACK
6
CONTINUOUS
10
139.55
20
-81.1109
11
139.55
21
-82.4964
0
LINE
8
BLACK
6
CONTINUOUS
10
139.55
20
-82.4964
11
139.904
21
-82.85
0
LINE
8
BLACK
6
CONTINUOUS
10
139.904
20
-82.85
11
140.386
21
-82.85
0
LINE
8
BLACK
6
CONTINUOUS
10
140.386
20
-82.85
11
140.453
21
-82.6684
0
LINE
8
BLACK
6
CONTINUOUS
10
140.453
20
-82.6684
11
140.645
21
-82.4388
0
LINE
8
BLACK
6
CONTINUOUS
10
140.645
20
-82.4388
11
140.905
21
-82.2889
0
LINE
8
BLACK
6
CONTINUOUS
10
140.905
20
-82.2889
11
141.126
21
-82.25
0
LINE
8
BLACK
6
CONTINUOUS
10
141.126
20
-82.25
11
141.274
21
-82.25
0
LINE
8
BLACK
6
CONTINUOUS
10
141.274
20
-82.25
11
141.495
21
-82.2889
0
LINE
8
BLACK
6
CONTINUOUS
10
141.495
20
-82.2889
11
141.755
21
-82.4388
0
LINE
8
BLACK
6
CONTINUOUS
10
141.755
20
-82.4388
11
141.947
21
-82.6684
0
LINE
8
BLACK
6
CONTINUOUS
10
141.947
20
-82.6684
11
142.05
21
-82.9501
0
LINE
8
BLACK
6
CONTINUOUS
10
142.05
20
-82.9501
11
142.05
21
-83.2499
0
LINE
8
BLACK
6
CONTINUOUS
10
142.05
20
-83.2499
11
141.947
21
-83.5316
0
LINE
8
BLACK
6
CONTINUOUS
10
141.947
20
-83.5316
11
141.755
21
-83.7612
0
LINE
8
BLACK
6
CONTINUOUS
10
141.755
20
-83.7612
11
141.495
21
-83.9111
0
LINE
8
BLACK
6
CONTINUOUS
10
141.495
20
-83.9111
11
141.274
21
-83.95
0
LINE
8
BLACK
6
CONTINUOUS
10
141.274
20
-83.95
11
141.126
21
-83.95
0
LINE
8
BLACK
6
CONTINUOUS
10
141.126
20
-83.95
11
140.905
21
-83.9111
0
LINE
8
BLACK
6
CONTINUOUS
10
140.905
20
-83.9111
11
140.645
21
-83.7612
0
LINE
8
BLACK
6
CONTINUOUS
10
140.645
20
-83.7612
11
140.453
21
-83.5316
0
LINE
8
BLACK
6
CONTINUOUS
10
140.453
20
-83.5316
11
140.386
21
-83.35
0
LINE
8
BLACK
6
CONTINUOUS
10
140.386
20
-83.35
11
139.811
21
-83.35
0
LINE
8
BLACK
6
CONTINUOUS
10
139.811
20
-83.35
11
139.778
21
-83.3529
0
LINE
8
BLACK
6
CONTINUOUS
10
139.778
20
-83.3529
11
139.746
21
-83.3443
0
LINE
8
BLACK
6
CONTINUOUS
10
139.746
20
-83.3443
11
139.713
21
-83.3385
0
LINE
8
BLACK
6
CONTINUOUS
10
139.713
20
-83.3385
11
139.704
21
-83.333
0
LINE
8
BLACK
6
CONTINUOUS
10
139.704
20
-83.333
11
139.693
21
-83.3301
0
LINE
8
BLACK
6
CONTINUOUS
10
139.693
20
-83.3301
11
139.666
21
-83.311
0
LINE
8
BLACK
6
CONTINUOUS
10
139.666
20
-83.311
11
139.637
21
-83.2945
0
LINE
8
BLACK
6
CONTINUOUS
10
139.637
20
-83.2945
11
139.616
21
-83.2691
0
LINE
8
BLACK
6
CONTINUOUS
10
139.616
20
-83.2691
11
139.131
21
-82.7845
0
LINE
8
BLACK
6
CONTINUOUS
10
139.131
20
-82.7845
11
139.106
21
-82.7632
0
LINE
8
BLACK
6
CONTINUOUS
10
139.106
20
-82.7632
11
139.089
21
-82.7345
0
LINE
8
BLACK
6
CONTINUOUS
10
139.089
20
-82.7345
11
139.07
21
-82.7073
0
LINE
8
BLACK
6
CONTINUOUS
10
139.07
20
-82.7073
11
139.067
21
-82.6965
0
LINE
8
BLACK
6
CONTINUOUS
10
139.067
20
-82.6965
11
139.061
21
-82.6868
0
LINE
8
BLACK
6
CONTINUOUS
10
139.061
20
-82.6868
11
139.056
21
-82.6542
0
LINE
8
BLACK
6
CONTINUOUS
10
139.056
20
-82.6542
11
139.047
21
-82.6221
0
LINE
8
BLACK
6
CONTINUOUS
10
139.047
20
-82.6221
11
139.05
21
-82.5891
0
LINE
8
BLACK
6
CONTINUOUS
10
139.05
20
-82.5891
11
139.05
21
-81.2036
0
LINE
8
BLACK
6
CONTINUOUS
10
139.05
20
-81.2036
11
135.496
21
-77.65
0
LINE
8
BLACK
6
CONTINUOUS
10
135.496
20
-77.65
11
131.411
21
-77.65
0
LINE
8
BLACK
6
CONTINUOUS
10
131.411
20
-77.65
11
131.378
21
-77.6529
0
LINE
8
BLACK
6
CONTINUOUS
10
131.378
20
-77.6529
11
131.346
21
-77.6443
0
LINE
8
BLACK
6
CONTINUOUS
10
131.346
20
-77.6443
11
131.313
21
-77.6385
0
LINE
8
BLACK
6
CONTINUOUS
10
131.313
20
-77.6385
11
131.304
21
-77.633
0
LINE
8
BLACK
6
CONTINUOUS
10
131.304
20
-77.633
11
131.293
21
-77.6301
0
LINE
8
BLACK
6
CONTINUOUS
10
131.293
20
-77.6301
11
131.266
21
-77.611
0
LINE
8
BLACK
6
CONTINUOUS
10
131.266
20
-77.611
11
131.237
21
-77.5945
0
LINE
8
BLACK
6
CONTINUOUS
10
131.237
20
-77.5945
11
131.216
21
-77.5691
0
LINE
8
BLACK
6
CONTINUOUS
10
131.216
20
-77.5691
11
129.001
21
-75.355
0
LINE
8
BLACK
6
CONTINUOUS
10
129.001
20
-75.355
11
126.8
21
-75.355
0
LINE
8
BLACK
6
CONTINUOUS
10
126.8
20
-75.355
11
126.8
21
-75.405
0
LINE
8
BLACK
6
CONTINUOUS
10
126.8
20
-75.405
11
124.8
21
-75.405
0
LINE
8
BLACK
6
CONTINUOUS
10
124.8
20
-75.405
11
124.8
21
-74.805
0
LINE
8
BLACK
6
CONTINUOUS
10
124.8
20
-74.805
11
126.8
21
-74.805
0
LINE
8
BLACK
6
CONTINUOUS
10
126.8
20
-74.805
11
126.8
21
-74.855
0
LINE
8
BLACK
6
CONTINUOUS
10
117.4
20
-77.945
11
115.4
21
-77.945
0
LINE
8
BLACK
6
CONTINUOUS
10
115.4
20
-77.945
11
115.4
21
-77.895
0
LINE
8
BLACK
6
CONTINUOUS
10
115.4
20
-77.895
11
113.459
21
-77.895
0
LINE
8
BLACK
6
CONTINUOUS
10
113.459
20
-77.895
11
111.55
21
-79.8036
0
LINE
8
BLACK
6
CONTINUOUS
10
111.55
20
-79.8036
11
111.55
21
-81.2891
0
LINE
8
BLACK
6
CONTINUOUS
10
111.55
20
-81.2891
11
111.553
21
-81.3221
0
LINE
8
BLACK
6
CONTINUOUS
10
111.553
20
-81.3221
11
111.544
21
-81.3542
0
LINE
8
BLACK
6
CONTINUOUS
10
111.544
20
-81.3542
11
111.539
21
-81.3868
0
LINE
8
BLACK
6
CONTINUOUS
10
111.539
20
-81.3868
11
111.533
21
-81.3965
0
LINE
8
BLACK
6
CONTINUOUS
10
111.533
20
-81.3965
11
111.53
21
-81.4073
0
LINE
8
BLACK
6
CONTINUOUS
10
111.53
20
-81.4073
11
111.511
21
-81.4345
0
LINE
8
BLACK
6
CONTINUOUS
10
111.511
20
-81.4345
11
111.494
21
-81.4632
0
LINE
8
BLACK
6
CONTINUOUS
10
111.494
20
-81.4632
11
111.469
21
-81.4845
0
LINE
8
BLACK
6
CONTINUOUS
10
111.469
20
-81.4845
11
110.184
21
-82.7691
0
LINE
8
BLACK
6
CONTINUOUS
10
110.184
20
-82.7691
11
110.163
21
-82.7945
0
LINE
8
BLACK
6
CONTINUOUS
10
110.163
20
-82.7945
11
110.134
21
-82.811
0
LINE
8
BLACK
6
CONTINUOUS
10
110.134
20
-82.811
11
110.107
21
-82.8301
0
LINE
8
BLACK
6
CONTINUOUS
10
110.107
20
-82.8301
11
110.096
21
-82.833
0
LINE
8
BLACK
6
CONTINUOUS
10
110.096
20
-82.833
11
110.087
21
-82.8385
0
LINE
8
BLACK
6
CONTINUOUS
10
110.087
20
-82.8385
11
110.054
21
-82.8443
0
LINE
8
BLACK
6
CONTINUOUS
10
110.054
20
-82.8443
11
110.022
21
-82.8529
0
LINE
8
BLACK
6
CONTINUOUS
10
110.022
20
-82.8529
11
109.989
21
-82.85
0
LINE
8
BLACK
6
CONTINUOUS
10
109.989
20
-82.85
11
109.06
21
-82.85
0
LINE
8
BLACK
6
CONTINUOUS
10
109.06
20
-82.85
11
109.004
21
-83.0062
0
LINE
8
BLACK
6
CONTINUOUS
10
109.004
20
-83.0062
11
108.822
21
-83.2223
0
LINE
8
BLACK
6
CONTINUOUS
10
108.822
20
-83.2223
11
108.578
21
-83.3634
0
LINE
8
BLACK
6
CONTINUOUS
10
108.578
20
-83.3634
11
108.3
21
-83.4123
0
LINE
8
BLACK
6
CONTINUOUS
10
108.3
20
-83.4123
11
108.022
21
-83.3634
0
LINE
8
BLACK
6
CONTINUOUS
10
108.022
20
-83.3634
11
107.778
21
-83.2223
0
LINE
8
BLACK
6
CONTINUOUS
10
107.778
20
-83.2223
11
107.596
21
-83.0062
0
LINE
8
BLACK
6
CONTINUOUS
10
107.596
20
-83.0062
11
107.54
21
-82.85
0
LINE
8
BLACK
6
CONTINUOUS
10
107.54
20
-82.85
11
107.35
21
-82.85
0
LINE
8
BLACK
6
CONTINUOUS
10
107.35
20
-82.85
11
107.35
21
-82.975
0
LINE
8
BLACK
6
CONTINUOUS
10
107.35
20
-82.975
11
106.15
21
-82.975
0
LINE
8
BLACK
6
CONTINUOUS
10
106.15
20
-82.975
11
106.15
21
-82.225
0
LINE
8
BLACK
6
CONTINUOUS
10
106.15
20
-82.225
11
107.35
21
-82.225
0
LINE
8
BLACK
6
CONTINUOUS
10
107.35
20
-82.225
11
107.35
21
-82.35
0
LINE
8
BLACK
6
CONTINUOUS
10
107.35
20
-82.35
11
107.54
21
-82.35
0
LINE
8
BLACK
6
CONTINUOUS
10
107.54
20
-82.35
11
107.596
21
-82.1938
0
LINE
8
BLACK
6
CONTINUOUS
10
107.596
20
-82.1938
11
107.778
21
-81.9777
0
LINE
8
BLACK
6
CONTINUOUS
10
107.778
20
-81.9777
11
108.022
21
-81.8366
0
LINE
8
BLACK
6
CONTINUOUS
10
108.022
20
-81.8366
11
108.3
21
-81.7877
0
LINE
8
BLACK
6
CONTINUOUS
10
108.3
20
-81.7877
11
108.578
21
-81.8366
0
LINE
8
BLACK
6
CONTINUOUS
10
108.578
20
-81.8366
11
108.822
21
-81.9777
0
LINE
8
BLACK
6
CONTINUOUS
10
108.822
20
-81.9777
11
109.004
21
-82.1938
0
LINE
8
BLACK
6
CONTINUOUS
10
109.004
20
-82.1938
11
109.06
21
-82.35
0
LINE
8
BLACK
6
CONTINUOUS
10
109.06
20
-82.35
11
109.896
21
-82.35
0
LINE
8
BLACK
6
CONTINUOUS
10
109.896
20
-82.35
11
111.05
21
-81.1964
0
LINE
8
BLACK
6
CONTINUOUS
10
111.05
20
-81.1964
11
111.05
21
-79.7109
0
LINE
8
BLACK
6
CONTINUOUS
10
111.05
20
-79.7109
11
111.047
21
-79.6779
0
LINE
8
BLACK
6
CONTINUOUS
10
111.047
20
-79.6779
11
111.056
21
-79.6458
0
LINE
8
BLACK
6
CONTINUOUS
10
111.056
20
-79.6458
11
111.061
21
-79.6132
0
LINE
8
BLACK
6
CONTINUOUS
10
111.061
20
-79.6132
11
111.067
21
-79.6035
0
LINE
8
BLACK
6
CONTINUOUS
10
111.067
20
-79.6035
11
111.07
21
-79.5927
0
LINE
8
BLACK
6
CONTINUOUS
10
111.07
20
-79.5927
11
111.089
21
-79.5655
0
LINE
8
BLACK
6
CONTINUOUS
10
111.089
20
-79.5655
11
111.106
21
-79.5368
0
LINE
8
BLACK
6
CONTINUOUS
10
111.106
20
-79.5368
11
111.131
21
-79.5155
0
LINE
8
BLACK
6
CONTINUOUS
10
111.131
20
-79.5155
11
113.171
21
-77.4759
0
LINE
8
BLACK
6
CONTINUOUS
10
113.171
20
-77.4759
11
113.192
21
-77.4505
0
LINE
8
BLACK
6
CONTINUOUS
10
113.192
20
-77.4505
11
113.221
21
-77.434
0
LINE
8
BLACK
6
CONTINUOUS
10
113.221
20
-77.434
11
113.248
21
-77.4149
0
LINE
8
BLACK
6
CONTINUOUS
10
113.248
20
-77.4149
11
113.259
21
-77.412
0
LINE
8
BLACK
6
CONTINUOUS
10
113.259
20
-77.412
11
113.268
21
-77.4065
0
LINE
8
BLACK
6
CONTINUOUS
10
113.268
20
-77.4065
11
113.301
21
-77.4007
0
LINE
8
BLACK
6
CONTINUOUS
10
113.301
20
-77.4007
11
113.333
21
-77.3921
0
LINE
8
BLACK
6
CONTINUOUS
10
113.333
20
-77.3921
11
113.366
21
-77.395
0
LINE
8
BLACK
6
CONTINUOUS
10
113.366
20
-77.395
11
115.4
21
-77.395
0
LINE
8
BLACK
6
CONTINUOUS
10
115.4
20
-77.395
11
115.4
21
-77.345
0
LINE
8
BLACK
6
CONTINUOUS
10
115.4
20
-77.345
11
117.4
21
-77.345
0
LINE
8
BLACK
6
CONTINUOUS
10
117.4
20
-77.345
11
117.4
21
-77.945
0
LINE
8
BLACK
6
CONTINUOUS
10
126.8
20
-76.125
11
127.864
21
-76.125
0
LINE
8
BLACK
6
CONTINUOUS
10
127.864
20
-76.125
11
127.897
21
-76.1221
0
LINE
8
BLACK
6
CONTINUOUS
10
127.897
20
-76.1221
11
127.929
21
-76.1307
0
LINE
8
BLACK
6
CONTINUOUS
10
127.929
20
-76.1307
11
127.962
21
-76.1365
0
LINE
8
BLACK
6
CONTINUOUS
10
127.962
20
-76.1365
11
127.971
21
-76.142
0
LINE
8
BLACK
6
CONTINUOUS
10
127.971
20
-76.142
11
127.982
21
-76.1449
0
LINE
8
BLACK
6
CONTINUOUS
10
127.982
20
-76.1449
11
128.009
21
-76.1639
0
LINE
8
BLACK
6
CONTINUOUS
10
128.009
20
-76.1639
11
128.038
21
-76.1805
0
LINE
8
BLACK
6
CONTINUOUS
10
128.038
20
-76.1805
11
128.059
21
-76.2059
0
LINE
8
BLACK
6
CONTINUOUS
10
128.059
20
-76.2059
11
130.604
21
-78.75
0
LINE
8
BLACK
6
CONTINUOUS
10
130.604
20
-78.75
11
133.989
21
-78.75
0
LINE
8
BLACK
6
CONTINUOUS
10
133.989
20
-78.75
11
134.022
21
-78.7471
0
LINE
8
BLACK
6
CONTINUOUS
10
134.022
20
-78.7471
11
134.054
21
-78.7557
0
LINE
8
BLACK
6
CONTINUOUS
10
134.054
20
-78.7557
11
134.087
21
-78.7615
0
LINE
8
BLACK
6
CONTINUOUS
10
134.087
20
-78.7615
11
134.096
21
-78.767
0
LINE
8
BLACK
6
CONTINUOUS
10
134.096
20
-78.767
11
134.107
21
-78.7699
0
LINE
8
BLACK
6
CONTINUOUS
10
134.107
20
-78.7699
11
134.134
21
-78.7889
0
LINE
8
BLACK
6
CONTINUOUS
10
134.134
20
-78.7889
11
134.163
21
-78.8055
0
LINE
8
BLACK
6
CONTINUOUS
10
134.163
20
-78.8055
11
134.184
21
-78.8309
0
LINE
8
BLACK
6
CONTINUOUS
10
134.184
20
-78.8309
11
135.369
21
-80.0155
0
LINE
8
BLACK
6
CONTINUOUS
10
135.369
20
-80.0155
11
135.394
21
-80.0368
0
LINE
8
BLACK
6
CONTINUOUS
10
135.394
20
-80.0368
11
135.411
21
-80.0655
0
LINE
8
BLACK
6
CONTINUOUS
10
135.411
20
-80.0655
11
135.43
21
-80.0927
0
LINE
8
BLACK
6
CONTINUOUS
10
135.43
20
-80.0927
11
135.433
21
-80.1035
0
LINE
8
BLACK
6
CONTINUOUS
10
135.433
20
-80.1035
11
135.439
21
-80.1132
0
LINE
8
BLACK
6
CONTINUOUS
10
135.439
20
-80.1132
11
135.444
21
-80.1458
0
LINE
8
BLACK
6
CONTINUOUS
10
135.444
20
-80.1458
11
135.453
21
-80.1779
0
LINE
8
BLACK
6
CONTINUOUS
10
135.453
20
-80.1779
11
135.45
21
-80.2109
0
LINE
8
BLACK
6
CONTINUOUS
10
135.45
20
-80.2109
11
135.45
21
-80.4317
0
LINE
8
BLACK
6
CONTINUOUS
10
135.45
20
-80.4317
11
135.478
21
-80.4366
0
LINE
8
BLACK
6
CONTINUOUS
10
135.478
20
-80.4366
11
135.722
21
-80.5777
0
LINE
8
BLACK
6
CONTINUOUS
10
135.722
20
-80.5777
11
135.904
21
-80.7938
0
LINE
8
BLACK
6
CONTINUOUS
10
135.904
20
-80.7938
11
136
21
-81.0589
0
LINE
8
BLACK
6
CONTINUOUS
10
136
20
-81.0589
11
136
21
-81.3411
0
LINE
8
BLACK
6
CONTINUOUS
10
136
20
-81.3411
11
135.904
21
-81.6062
0
LINE
8
BLACK
6
CONTINUOUS
10
135.904
20
-81.6062
11
135.722
21
-81.8223
0
LINE
8
BLACK
6
CONTINUOUS
10
135.722
20
-81.8223
11
135.478
21
-81.9634
0
LINE
8
BLACK
6
CONTINUOUS
10
135.478
20
-81.9634
11
135.45
21
-81.9683
0
LINE
8
BLACK
6
CONTINUOUS
10
135.45
20
-81.9683
11
135.45
21
-82.15
0
LINE
8
BLACK
6
CONTINUOUS
10
135.45
20
-82.15
11
135.575
21
-82.15
0
LINE
8
BLACK
6
CONTINUOUS
10
135.575
20
-82.15
11
135.575
21
-83.35
0
LINE
8
BLACK
6
CONTINUOUS
10
135.575
20
-83.35
11
134.825
21
-83.35
0
LINE
8
BLACK
6
CONTINUOUS
10
134.825
20
-83.35
11
134.825
21
-82.15
0
LINE
8
BLACK
6
CONTINUOUS
10
134.825
20
-82.15
11
134.95
21
-82.15
0
LINE
8
BLACK
6
CONTINUOUS
10
134.95
20
-82.15
11
134.95
21
-81.9683
0
LINE
8
BLACK
6
CONTINUOUS
10
134.95
20
-81.9683
11
134.922
21
-81.9634
0
LINE
8
BLACK
6
CONTINUOUS
10
134.922
20
-81.9634
11
134.678
21
-81.8223
0
LINE
8
BLACK
6
CONTINUOUS
10
134.678
20
-81.8223
11
134.496
21
-81.6062
0
LINE
8
BLACK
6
CONTINUOUS
10
134.496
20
-81.6062
11
134.4
21
-81.3411
0
LINE
8
BLACK
6
CONTINUOUS
10
134.4
20
-81.3411
11
134.4
21
-81.0589
0
LINE
8
BLACK
6
CONTINUOUS
10
134.4
20
-81.0589
11
134.496
21
-80.7938
0
LINE
8
BLACK
6
CONTINUOUS
10
134.496
20
-80.7938
11
134.678
21
-80.5777
0
LINE
8
BLACK
6
CONTINUOUS
10
134.678
20
-80.5777
11
134.922
21
-80.4366
0
LINE
8
BLACK
6
CONTINUOUS
10
134.922
20
-80.4366
11
134.95
21
-80.4317
0
LINE
8
BLACK
6
CONTINUOUS
10
134.95
20
-80.4317
11
134.95
21
-80.3036
0
LINE
8
BLACK
6
CONTINUOUS
10
134.95
20
-80.3036
11
133.896
21
-79.25
0
LINE
8
BLACK
6
CONTINUOUS
10
133.896
20
-79.25
11
130.511
21
-79.25
0
LINE
8
BLACK
6
CONTINUOUS
10
130.511
20
-79.25
11
130.478
21
-79.2529
0
LINE
8
BLACK
6
CONTINUOUS
10
130.478
20
-79.2529
11
130.446
21
-79.2443
0
LINE
8
BLACK
6
CONTINUOUS
10
130.446
20
-79.2443
11
130.413
21
-79.2385
0
LINE
8
BLACK
6
CONTINUOUS
10
130.413
20
-79.2385
11
130.404
21
-79.233
0
LINE
8
BLACK
6
CONTINUOUS
10
130.404
20
-79.233
11
130.393
21
-79.2301
0
LINE
8
BLACK
6
CONTINUOUS
10
130.393
20
-79.2301
11
130.366
21
-79.211
0
LINE
8
BLACK
6
CONTINUOUS
10
130.366
20
-79.211
11
130.337
21
-79.1945
0
LINE
8
BLACK
6
CONTINUOUS
10
130.337
20
-79.1945
11
130.316
21
-79.1691
0
LINE
8
BLACK
6
CONTINUOUS
10
130.316
20
-79.1691
11
127.771
21
-76.625
0
LINE
8
BLACK
6
CONTINUOUS
10
127.771
20
-76.625
11
126.8
21
-76.625
0
LINE
8
BLACK
6
CONTINUOUS
10
126.8
20
-76.625
11
126.8
21
-76.675
0
LINE
8
BLACK
6
CONTINUOUS
10
126.8
20
-76.675
11
124.8
21
-76.675
0
LINE
8
BLACK
6
CONTINUOUS
10
124.8
20
-76.675
11
124.8
21
-76.075
0
LINE
8
BLACK
6
CONTINUOUS
10
124.8
20
-76.075
11
126.8
21
-76.075
0
LINE
8
BLACK
6
CONTINUOUS
10
126.8
20
-76.075
11
126.8
21
-76.125
0
LINE
8
BLACK
6
CONTINUOUS
10
126.8
20
-77.395
11
127.434
21
-77.395
0
LINE
8
BLACK
6
CONTINUOUS
10
127.434
20
-77.395
11
127.467
21
-77.3921
0
LINE
8
BLACK
6
CONTINUOUS
10
127.467
20
-77.3921
11
127.499
21
-77.4007
0
LINE
8
BLACK
6
CONTINUOUS
10
127.499
20
-77.4007
11
127.532
21
-77.4065
0
LINE
8
BLACK
6
CONTINUOUS
10
127.532
20
-77.4065
11
127.541
21
-77.412
0
LINE
8
BLACK
6
CONTINUOUS
10
127.541
20
-77.412
11
127.552
21
-77.4149
0
LINE
8
BLACK
6
CONTINUOUS
10
127.552
20
-77.4149
11
127.579
21
-77.4339
0
LINE
8
BLACK
6
CONTINUOUS
10
127.579
20
-77.4339
11
127.608
21
-77.4505
0
LINE
8
BLACK
6
CONTINUOUS
10
127.608
20
-77.4505
11
127.629
21
-77.4759
0
LINE
8
BLACK
6
CONTINUOUS
10
127.629
20
-77.4759
11
130.712
21
-80.5582
0
LINE
8
BLACK
6
CONTINUOUS
10
130.712
20
-80.5582
11
130.922
21
-80.4366
0
LINE
8
BLACK
6
CONTINUOUS
10
130.922
20
-80.4366
11
131.2
21
-80.3877
0
LINE
8
BLACK
6
CONTINUOUS
10
131.2
20
-80.3877
11
131.478
21
-80.4366
0
LINE
8
BLACK
6
CONTINUOUS
10
131.478
20
-80.4366
11
131.722
21
-80.5777
0
LINE
8
BLACK
6
CONTINUOUS
10
131.722
20
-80.5777
11
131.904
21
-80.7938
0
LINE
8
BLACK
6
CONTINUOUS
10
131.904
20
-80.7938
11
132
21
-81.0589
0
LINE
8
BLACK
6
CONTINUOUS
10
132
20
-81.0589
11
132
21
-81.3411
0
LINE
8
BLACK
6
CONTINUOUS
10
132
20
-81.3411
11
131.904
21
-81.6062
0
LINE
8
BLACK
6
CONTINUOUS
10
131.904
20
-81.6062
11
131.722
21
-81.8223
0
LINE
8
BLACK
6
CONTINUOUS
10
131.722
20
-81.8223
11
131.478
21
-81.9634
0
LINE
8
BLACK
6
CONTINUOUS
10
131.478
20
-81.9634
11
131.45
21
-81.9683
0
LINE
8
BLACK
6
CONTINUOUS
10
131.45
20
-81.9683
11
131.45
21
-82.15
0
LINE
8
BLACK
6
CONTINUOUS
10
131.45
20
-82.15
11
131.575
21
-82.15
0
LINE
8
BLACK
6
CONTINUOUS
10
131.575
20
-82.15
11
131.575
21
-83.35
0
LINE
8
BLACK
6
CONTINUOUS
10
131.575
20
-83.35
11
130.825
21
-83.35
0
LINE
8
BLACK
6
CONTINUOUS
10
130.825
20
-83.35
11
130.825
21
-82.15
0
LINE
8
BLACK
6
CONTINUOUS
10
130.825
20
-82.15
11
130.95
21
-82.15
0
LINE
8
BLACK
6
CONTINUOUS
10
130.95
20
-82.15
11
130.95
21
-81.9683
0
LINE
8
BLACK
6
CONTINUOUS
10
130.95
20
-81.9683
11
130.922
21
-81.9634
0
LINE
8
BLACK
6
CONTINUOUS
10
130.922
20
-81.9634
11
130.678
21
-81.8223
0
LINE
8
BLACK
6
CONTINUOUS
10
130.678
20
-81.8223
11
130.496
21
-81.6062
0
LINE
8
BLACK
6
CONTINUOUS
10
130.496
20
-81.6062
11
130.4
21
-81.3411
0
LINE
8
BLACK
6
CONTINUOUS
10
130.4
20
-81.3411
11
130.4
21
-81.0589
0
LINE
8
BLACK
6
CONTINUOUS
10
130.4
20
-81.0589
11
130.428
21
-80.9817
0
LINE
8
BLACK
6
CONTINUOUS
10
130.428
20
-80.9817
11
127.341
21
-77.895
0
LINE
8
BLACK
6
CONTINUOUS
10
127.341
20
-77.895
11
126.8
21
-77.895
0
LINE
8
BLACK
6
CONTINUOUS
10
126.8
20
-77.895
11
126.8
21
-77.945
0
LINE
8
BLACK
6
CONTINUOUS
10
126.8
20
-77.945
11
124.8
21
-77.945
0
LINE
8
BLACK
6
CONTINUOUS
10
124.8
20
-77.945
11
124.8
21
-77.345
0
LINE
8
BLACK
6
CONTINUOUS
10
124.8
20
-77.345
11
126.8
21
-77.345
0
LINE
8
BLACK
6
CONTINUOUS
10
126.8
20
-77.345
11
126.8
21
-77.395
0
LINE
8
BLACK
6
CONTINUOUS
10
126.8
20
-73.585
11
129.624
21
-73.585
0
LINE
8
BLACK
6
CONTINUOUS
10
129.624
20
-73.585
11
129.657
21
-73.5821
0
LINE
8
BLACK
6
CONTINUOUS
10
129.657
20
-73.5821
11
129.689
21
-73.5907
0
LINE
8
BLACK
6
CONTINUOUS
10
129.689
20
-73.5907
11
129.722
21
-73.5965
0
LINE
8
BLACK
6
CONTINUOUS
10
129.722
20
-73.5965
11
129.731
21
-73.602
0
LINE
8
BLACK
6
CONTINUOUS
10
129.731
20
-73.602
11
129.742
21
-73.6049
0
LINE
8
BLACK
6
CONTINUOUS
10
129.742
20
-73.6049
11
129.769
21
-73.6239
0
LINE
8
BLACK
6
CONTINUOUS
10
129.769
20
-73.6239
11
129.798
21
-73.6405
0
LINE
8
BLACK
6
CONTINUOUS
10
129.798
20
-73.6405
11
129.819
21
-73.6659
0
LINE
8
BLACK
6
CONTINUOUS
10
129.819
20
-73.6659
11
132.104
21
-75.95
0
LINE
8
BLACK
6
CONTINUOUS
10
132.104
20
-75.95
11
136.589
21
-75.95
0
LINE
8
BLACK
6
CONTINUOUS
10
136.589
20
-75.95
11
136.622
21
-75.9471
0
LINE
8
BLACK
6
CONTINUOUS
10
136.622
20
-75.9471
11
136.654
21
-75.9557
0
LINE
8
BLACK
6
CONTINUOUS
10
136.654
20
-75.9557
11
136.687
21
-75.9615
0
LINE
8
BLACK
6
CONTINUOUS
10
136.687
20
-75.9615
11
136.696
21
-75.967
0
LINE
8
BLACK
6
CONTINUOUS
10
136.696
20
-75.967
11
136.707
21
-75.9699
0
LINE
8
BLACK
6
CONTINUOUS
10
136.707
20
-75.9699
11
136.734
21
-75.989
0
LINE
8
BLACK
6
CONTINUOUS
10
136.734
20
-75.989
11
136.763
21
-76.0055
0
LINE
8
BLACK
6
CONTINUOUS
10
136.763
20
-76.0055
11
136.784
21
-76.0309
0
LINE
8
BLACK
6
CONTINUOUS
10
136.784
20
-76.0309
11
140.65
21
-79.8962
0
LINE
8
BLACK
6
CONTINUOUS
10
140.65
20
-79.8962
11
140.905
21
-79.7489
0
LINE
8
BLACK
6
CONTINUOUS
10
140.905
20
-79.7489
11
141.126
21
-79.71
0
LINE
8
BLACK
6
CONTINUOUS
10
141.126
20
-79.71
11
141.274
21
-79.71
0
LINE
8
BLACK
6
CONTINUOUS
10
141.274
20
-79.71
11
141.495
21
-79.7489
0
LINE
8
BLACK
6
CONTINUOUS
10
141.495
20
-79.7489
11
141.755
21
-79.8988
0
LINE
8
BLACK
6
CONTINUOUS
10
141.755
20
-79.8988
11
141.947
21
-80.1284
0
LINE
8
BLACK
6
CONTINUOUS
10
141.947
20
-80.1284
11
142.05
21
-80.4101
0
LINE
8
BLACK
6
CONTINUOUS
10
142.05
20
-80.4101
11
142.05
21
-80.7099
0
LINE
8
BLACK
6
CONTINUOUS
10
142.05
20
-80.7099
11
141.947
21
-80.9916
0
LINE
8
BLACK
6
CONTINUOUS
10
141.947
20
-80.9916
11
141.755
21
-81.2212
0
LINE
8
BLACK
6
CONTINUOUS
10
141.755
20
-81.2212
11
141.495
21
-81.3711
0
LINE
8
BLACK
6
CONTINUOUS
10
141.495
20
-81.3711
11
141.274
21
-81.41
0
LINE
8
BLACK
6
CONTINUOUS
10
141.274
20
-81.41
11
141.126
21
-81.41
0
LINE
8
BLACK
6
CONTINUOUS
10
141.126
20
-81.41
11
140.905
21
-81.3711
0
LINE
8
BLACK
6
CONTINUOUS
10
140.905
20
-81.3711
11
140.645
21
-81.2212
0
LINE
8
BLACK
6
CONTINUOUS
10
140.645
20
-81.2212
11
140.453
21
-80.9916
0
LINE
8
BLACK
6
CONTINUOUS
10
140.453
20
-80.9916
11
140.35
21
-80.7099
0
LINE
8
BLACK
6
CONTINUOUS
10
140.35
20
-80.7099
11
140.35
21
-80.4101
0
LINE
8
BLACK
6
CONTINUOUS
10
140.35
20
-80.4101
11
140.378
21
-80.332
0
LINE
8
BLACK
6
CONTINUOUS
10
140.378
20
-80.332
11
136.496
21
-76.45
0
LINE
8
BLACK
6
CONTINUOUS
10
136.496
20
-76.45
11
132.011
21
-76.45
0
LINE
8
BLACK
6
CONTINUOUS
10
132.011
20
-76.45
11
131.978
21
-76.4529
0
LINE
8
BLACK
6
CONTINUOUS
10
131.978
20
-76.4529
11
131.946
21
-76.4443
0
LINE
8
BLACK
6
CONTINUOUS
10
131.946
20
-76.4443
11
131.913
21
-76.4385
0
LINE
8
BLACK
6
CONTINUOUS
10
131.913
20
-76.4385
11
131.904
21
-76.433
0
LINE
8
BLACK
6
CONTINUOUS
10
131.904
20
-76.433
11
131.893
21
-76.4301
0
LINE
8
BLACK
6
CONTINUOUS
10
131.893
20
-76.4301
11
131.866
21
-76.411
0
LINE
8
BLACK
6
CONTINUOUS
10
131.866
20
-76.411
11
131.837
21
-76.3945
0
LINE
8
BLACK
6
CONTINUOUS
10
131.837
20
-76.3945
11
131.816
21
-76.3691
0
LINE
8
BLACK
6
CONTINUOUS
10
131.816
20
-76.3691
11
129.531
21
-74.085
0
LINE
8
BLACK
6
CONTINUOUS
10
129.531
20
-74.085
11
126.8
21
-74.085
0
LINE
8
BLACK
6
CONTINUOUS
10
126.8
20
-74.085
11
126.8
21
-74.135
0
LINE
8
BLACK
6
CONTINUOUS
10
126.8
20
-74.135
11
124.8
21
-74.135
0
LINE
8
BLACK
6
CONTINUOUS
10
124.8
20
-74.135
11
124.8
21
-73.535
0
LINE
8
BLACK
6
CONTINUOUS
10
124.8
20
-73.535
11
126.8
21
-73.535
0
LINE
8
BLACK
6
CONTINUOUS
10
126.8
20
-73.535
11
126.8
21
-73.585
0
LINE
8
BLACK
6
CONTINUOUS
10
126.8
20
-80.485
11
124.8
21
-80.485
0
LINE
8
BLACK
6
CONTINUOUS
10
124.8
20
-80.485
11
124.8
21
-79.885
0
LINE
8
BLACK
6
CONTINUOUS
10
124.8
20
-79.885
11
126.8
21
-79.885
0
LINE
8
BLACK
6
CONTINUOUS
10
126.8
20
-79.885
11
126.8
21
-80.485
0
LINE
8
BLACK
6
CONTINUOUS
10
94.0473
20
-77.5458
11
94.3527
21
-77.7221
0
LINE
8
BLACK
6
CONTINUOUS
10
94.3527
20
-77.7221
11
94.5794
21
-77.9923
0
LINE
8
BLACK
6
CONTINUOUS
10
94.5794
20
-77.9923
11
94.7
21
-78.3237
0
LINE
8
BLACK
6
CONTINUOUS
10
94.7
20
-78.3237
11
94.7
21
-78.6763
0
LINE
8
BLACK
6
CONTINUOUS
10
94.7
20
-78.6763
11
94.5794
21
-79.0077
0
LINE
8
BLACK
6
CONTINUOUS
10
94.5794
20
-79.0077
11
94.3527
21
-79.2779
0
LINE
8
BLACK
6
CONTINUOUS
10
94.3527
20
-79.2779
11
94.0473
21
-79.4542
0
LINE
8
BLACK
6
CONTINUOUS
10
94.0473
20
-79.4542
11
93.7
21
-79.5154
0
LINE
8
BLACK
6
CONTINUOUS
10
93.7
20
-79.5154
11
93.3527
21
-79.4542
0
LINE
8
BLACK
6
CONTINUOUS
10
93.3527
20
-79.4542
11
93.0473
21
-79.2779
0
LINE
8
BLACK
6
CONTINUOUS
10
93.0473
20
-79.2779
11
92.8206
21
-79.0077
0
LINE
8
BLACK
6
CONTINUOUS
10
92.8206
20
-79.0077
11
92.7
21
-78.6763
0
LINE
8
BLACK
6
CONTINUOUS
10
92.7
20
-78.6763
11
92.7
21
-78.3237
0
LINE
8
BLACK
6
CONTINUOUS
10
92.7
20
-78.3237
11
92.8206
21
-77.9923
0
LINE
8
BLACK
6
CONTINUOUS
10
92.8206
20
-77.9923
11
93.0473
21
-77.7221
0
LINE
8
BLACK
6
CONTINUOUS
10
93.0473
20
-77.7221
11
93.3527
21
-77.5458
0
LINE
8
BLACK
6
CONTINUOUS
10
93.3527
20
-77.5458
11
93.7
21
-77.4846
0
LINE
8
BLACK
6
CONTINUOUS
10
93.7
20
-77.4846
11
94.0473
21
-77.5458
0
LINE
8
BLACK
6
CONTINUOUS
10
126.8
20
-79.215
11
124.8
21
-79.215
0
LINE
8
BLACK
6
CONTINUOUS
10
124.8
20
-79.215
11
124.8
21
-78.615
0
LINE
8
BLACK
6
CONTINUOUS
10
124.8
20
-78.615
11
126.8
21
-78.615
0
LINE
8
BLACK
6
CONTINUOUS
10
126.8
20
-78.615
11
126.8
21
-79.215
0
LINE
8
BLACK
6
CONTINUOUS
10
117.4
20
-75.405
11
115.4
21
-75.405
0
LINE
8
BLACK
6
CONTINUOUS
10
115.4
20
-75.405
11
115.4
21
-75.355
0
LINE
8
BLACK
6
CONTINUOUS
10
115.4
20
-75.355
11
111.799
21
-75.355
0
LINE
8
BLACK
6
CONTINUOUS
10
111.799
20
-75.355
11
109.045
21
-78.1084
0
LINE
8
BLACK
6
CONTINUOUS
10
109.045
20
-78.1084
11
109.1
21
-78.2589
0
LINE
8
BLACK
6
CONTINUOUS
10
109.1
20
-78.2589
11
109.1
21
-78.5411
0
LINE
8
BLACK
6
CONTINUOUS
10
109.1
20
-78.5411
11
109.004
21
-78.8062
0
LINE
8
BLACK
6
CONTINUOUS
10
109.004
20
-78.8062
11
108.822
21
-79.0223
0
LINE
8
BLACK
6
CONTINUOUS
10
108.822
20
-79.0223
11
108.578
21
-79.1634
0
LINE
8
BLACK
6
CONTINUOUS
10
108.578
20
-79.1634
11
108.3
21
-79.2123
0
LINE
8
BLACK
6
CONTINUOUS
10
108.3
20
-79.2123
11
108.022
21
-79.1634
0
LINE
8
BLACK
6
CONTINUOUS
10
108.022
20
-79.1634
11
107.778
21
-79.0223
0
LINE
8
BLACK
6
CONTINUOUS
10
107.778
20
-79.0223
11
107.596
21
-78.8062
0
LINE
8
BLACK
6
CONTINUOUS
10
107.596
20
-78.8062
11
107.54
21
-78.65
0
LINE
8
BLACK
6
CONTINUOUS
10
107.54
20
-78.65
11
107.35
21
-78.65
0
LINE
8
BLACK
6
CONTINUOUS
10
107.35
20
-78.65
11
107.35
21
-78.775
0
LINE
8
BLACK
6
CONTINUOUS
10
107.35
20
-78.775
11
106.15
21
-78.775
0
LINE
8
BLACK
6
CONTINUOUS
10
106.15
20
-78.775
11
106.15
21
-78.025
0
LINE
8
BLACK
6
CONTINUOUS
10
106.15
20
-78.025
11
107.35
21
-78.025
0
LINE
8
BLACK
6
CONTINUOUS
10
107.35
20
-78.025
11
107.35
21
-78.15
0
LINE
8
BLACK
6
CONTINUOUS
10
107.35
20
-78.15
11
107.54
21
-78.15
0
LINE
8
BLACK
6
CONTINUOUS
10
107.54
20
-78.15
11
107.596
21
-77.9938
0
LINE
8
BLACK
6
CONTINUOUS
10
107.596
20
-77.9938
11
107.778
21
-77.7777
0
LINE
8
BLACK
6
CONTINUOUS
10
107.778
20
-77.7777
11
108.022
21
-77.6366
0
LINE
8
BLACK
6
CONTINUOUS
10
108.022
20
-77.6366
11
108.3
21
-77.5877
0
LINE
8
BLACK
6
CONTINUOUS
10
108.3
20
-77.5877
11
108.578
21
-77.6366
0
LINE
8
BLACK
6
CONTINUOUS
10
108.578
20
-77.6366
11
108.725
21
-77.7216
0
LINE
8
BLACK
6
CONTINUOUS
10
108.725
20
-77.7216
11
111.511
21
-74.9359
0
LINE
8
BLACK
6
CONTINUOUS
10
111.511
20
-74.9359
11
111.532
21
-74.9105
0
LINE
8
BLACK
6
CONTINUOUS
10
111.532
20
-74.9105
11
111.561
21
-74.894
0
LINE
8
BLACK
6
CONTINUOUS
10
111.561
20
-74.894
11
111.588
21
-74.8749
0
LINE
8
BLACK
6
CONTINUOUS
10
111.588
20
-74.8749
11
111.599
21
-74.872
0
LINE
8
BLACK
6
CONTINUOUS
10
111.599
20
-74.872
11
111.608
21
-74.8665
0
LINE
8
BLACK
6
CONTINUOUS
10
111.608
20
-74.8665
11
111.641
21
-74.8607
0
LINE
8
BLACK
6
CONTINUOUS
10
111.641
20
-74.8607
11
111.673
21
-74.8521
0
LINE
8
BLACK
6
CONTINUOUS
10
111.673
20
-74.8521
11
111.706
21
-74.855
0
LINE
8
BLACK
6
CONTINUOUS
10
111.706
20
-74.855
11
115.4
21
-74.855
0
LINE
8
BLACK
6
CONTINUOUS
10
115.4
20
-74.855
11
115.4
21
-74.805
0
LINE
8
BLACK
6
CONTINUOUS
10
115.4
20
-74.805
11
117.4
21
-74.805
0
LINE
8
BLACK
6
CONTINUOUS
10
117.4
20
-74.805
11
117.4
21
-75.405
0
LINE
8
BLACK
6
CONTINUOUS
10
126.8
20
-72.315
11
130.154
21
-72.315
0
LINE
8
BLACK
6
CONTINUOUS
10
130.154
20
-72.315
11
130.187
21
-72.3121
0
LINE
8
BLACK
6
CONTINUOUS
10
130.187
20
-72.3121
11
130.219
21
-72.3207
0
LINE
8
BLACK
6
CONTINUOUS
10
130.219
20
-72.3207
11
130.252
21
-72.3265
0
LINE
8
BLACK
6
CONTINUOUS
10
130.252
20
-72.3265
11
130.261
21
-72.332
0
LINE
8
BLACK
6
CONTINUOUS
10
130.261
20
-72.332
11
130.272
21
-72.3349
0
LINE
8
BLACK
6
CONTINUOUS
10
130.272
20
-72.3349
11
130.299
21
-72.3539
0
LINE
8
BLACK
6
CONTINUOUS
10
130.299
20
-72.3539
11
130.328
21
-72.3705
0
LINE
8
BLACK
6
CONTINUOUS
10
130.328
20
-72.3705
11
130.349
21
-72.3959
0
LINE
8
BLACK
6
CONTINUOUS
10
130.349
20
-72.3959
11
132.504
21
-74.55
0
LINE
8
BLACK
6
CONTINUOUS
10
132.504
20
-74.55
11
137.969
21
-74.55
0
LINE
8
BLACK
6
CONTINUOUS
10
137.969
20
-74.55
11
138.002
21
-74.5471
0
LINE
8
BLACK
6
CONTINUOUS
10
138.002
20
-74.5471
11
138.034
21
-74.5557
0
LINE
8
BLACK
6
CONTINUOUS
10
138.034
20
-74.5557
11
138.067
21
-74.5615
0
LINE
8
BLACK
6
CONTINUOUS
10
138.067
20
-74.5615
11
138.076
21
-74.567
0
LINE
8
BLACK
6
CONTINUOUS
10
138.076
20
-74.567
11
138.087
21
-74.5699
0
LINE
8
BLACK
6
CONTINUOUS
10
138.087
20
-74.5699
11
138.114
21
-74.5889
0
LINE
8
BLACK
6
CONTINUOUS
10
138.114
20
-74.5889
11
138.143
21
-74.6055
0
LINE
8
BLACK
6
CONTINUOUS
10
138.143
20
-74.6055
11
138.164
21
-74.6309
0
LINE
8
BLACK
6
CONTINUOUS
10
138.164
20
-74.6309
11
140.704
21
-77.17
0
LINE
8
BLACK
6
CONTINUOUS
10
140.704
20
-77.17
11
142.05
21
-77.17
0
LINE
8
BLACK
6
CONTINUOUS
10
142.05
20
-77.17
11
142.05
21
-78.87
0
LINE
8
BLACK
6
CONTINUOUS
10
142.05
20
-78.87
11
140.35
21
-78.87
0
LINE
8
BLACK
6
CONTINUOUS
10
140.35
20
-78.87
11
140.35
21
-77.5236
0
LINE
8
BLACK
6
CONTINUOUS
10
140.35
20
-77.5236
11
137.876
21
-75.05
0
LINE
8
BLACK
6
CONTINUOUS
10
137.876
20
-75.05
11
132.411
21
-75.05
0
LINE
8
BLACK
6
CONTINUOUS
10
132.411
20
-75.05
11
132.378
21
-75.0529
0
LINE
8
BLACK
6
CONTINUOUS
10
132.378
20
-75.0529
11
132.346
21
-75.0443
0
LINE
8
BLACK
6
CONTINUOUS
10
132.346
20
-75.0443
11
132.313
21
-75.0385
0
LINE
8
BLACK
6
CONTINUOUS
10
132.313
20
-75.0385
11
132.304
21
-75.033
0
LINE
8
BLACK
6
CONTINUOUS
10
132.304
20
-75.033
11
132.293
21
-75.0301
0
LINE
8
BLACK
6
CONTINUOUS
10
132.293
20
-75.0301
11
132.266
21
-75.011
0
LINE
8
BLACK
6
CONTINUOUS
10
132.266
20
-75.011
11
132.237
21
-74.9945
0
LINE
8
BLACK
6
CONTINUOUS
10
132.237
20
-74.9945
11
132.216
21
-74.9691
0
LINE
8
BLACK
6
CONTINUOUS
10
132.216
20
-74.9691
11
130.061
21
-72.815
0
LINE
8
BLACK
6
CONTINUOUS
10
130.061
20
-72.815
11
126.8
21
-72.815
0
LINE
8
BLACK
6
CONTINUOUS
10
126.8
20
-72.815
11
126.8
21
-72.865
0
LINE
8
BLACK
6
CONTINUOUS
10
126.8
20
-72.865
11
124.8
21
-72.865
0
LINE
8
BLACK
6
CONTINUOUS
10
124.8
20
-72.865
11
124.8
21
-72.265
0
LINE
8
BLACK
6
CONTINUOUS
10
124.8
20
-72.265
11
126.8
21
-72.265
0
LINE
8
BLACK
6
CONTINUOUS
10
126.8
20
-72.265
11
126.8
21
-72.315
0
LINE
8
BLACK
6
CONTINUOUS
10
98.8778
20
-71.3366
11
99.1222
21
-71.4777
0
LINE
8
BLACK
6
CONTINUOUS
10
99.1222
20
-71.4777
11
99.3035
21
-71.6938
0
LINE
8
BLACK
6
CONTINUOUS
10
99.3035
20
-71.6938
11
99.3603
21
-71.85
0
LINE
8
BLACK
6
CONTINUOUS
10
99.3603
20
-71.85
11
99.55
21
-71.85
0
LINE
8
BLACK
6
CONTINUOUS
10
99.55
20
-71.85
11
99.55
21
-71.725
0
LINE
8
BLACK
6
CONTINUOUS
10
99.55
20
-71.725
11
100.75
21
-71.725
0
LINE
8
BLACK
6
CONTINUOUS
10
100.75
20
-71.725
11
100.75
21
-72.475
0
LINE
8
BLACK
6
CONTINUOUS
10
100.75
20
-72.475
11
99.55
21
-72.475
0
LINE
8
BLACK
6
CONTINUOUS
10
99.55
20
-72.475
11
99.55
21
-72.35
0
LINE
8
BLACK
6
CONTINUOUS
10
99.55
20
-72.35
11
99.3603
21
-72.35
0
LINE
8
BLACK
6
CONTINUOUS
10
99.3603
20
-72.35
11
99.3035
21
-72.5062
0
LINE
8
BLACK
6
CONTINUOUS
10
99.3035
20
-72.5062
11
99.1222
21
-72.7223
0
LINE
8
BLACK
6
CONTINUOUS
10
99.1222
20
-72.7223
11
98.8778
21
-72.8634
0
LINE
8
BLACK
6
CONTINUOUS
10
98.8778
20
-72.8634
11
98.85
21
-72.8683
0
LINE
8
BLACK
6
CONTINUOUS
10
98.85
20
-72.8683
11
98.85
21
-73.9891
0
LINE
8
BLACK
6
CONTINUOUS
10
98.85
20
-73.9891
11
98.8529
21
-74.0221
0
LINE
8
BLACK
6
CONTINUOUS
10
98.8529
20
-74.0221
11
98.8443
21
-74.0542
0
LINE
8
BLACK
6
CONTINUOUS
10
98.8443
20
-74.0542
11
98.8385
21
-74.0868
0
LINE
8
BLACK
6
CONTINUOUS
10
98.8385
20
-74.0868
11
98.833
21
-74.0965
0
LINE
8
BLACK
6
CONTINUOUS
10
98.833
20
-74.0965
11
98.8301
21
-74.1073
0
LINE
8
BLACK
6
CONTINUOUS
10
98.8301
20
-74.1073
11
98.811
21
-74.1345
0
LINE
8
BLACK
6
CONTINUOUS
10
98.811
20
-74.1345
11
98.7945
21
-74.1632
0
LINE
8
BLACK
6
CONTINUOUS
10
98.7945
20
-74.1632
11
98.7691
21
-74.1845
0
LINE
8
BLACK
6
CONTINUOUS
10
98.7691
20
-74.1845
11
96.8245
21
-76.1291
0
LINE
8
BLACK
6
CONTINUOUS
10
96.8245
20
-76.1291
11
96.8032
21
-76.1545
0
LINE
8
BLACK
6
CONTINUOUS
10
96.8032
20
-76.1545
11
96.7744
21
-76.171
0
LINE
8
BLACK
6
CONTINUOUS
10
96.7744
20
-76.171
11
96.7473
21
-76.1901
0
LINE
8
BLACK
6
CONTINUOUS
10
96.7473
20
-76.1901
11
96.7365
21
-76.193
0
LINE
8
BLACK
6
CONTINUOUS
10
96.7365
20
-76.193
11
96.7268
21
-76.1985
0
LINE
8
BLACK
6
CONTINUOUS
10
96.7268
20
-76.1985
11
96.6942
21
-76.2043
0
LINE
8
BLACK
6
CONTINUOUS
10
96.6942
20
-76.2043
11
96.6621
21
-76.2129
0
LINE
8
BLACK
6
CONTINUOUS
10
96.6621
20
-76.2129
11
96.6291
21
-76.21
0
LINE
8
BLACK
6
CONTINUOUS
10
96.6291
20
-76.21
11
94.6732
21
-76.21
0
LINE
8
BLACK
6
CONTINUOUS
10
94.6732
20
-76.21
11
94.5794
21
-76.4677
0
LINE
8
BLACK
6
CONTINUOUS
10
94.5794
20
-76.4677
11
94.3527
21
-76.7379
0
LINE
8
BLACK
6
CONTINUOUS
10
94.3527
20
-76.7379
11
94.0473
21
-76.9142
0
LINE
8
BLACK
6
CONTINUOUS
10
94.0473
20
-76.9142
11
93.7
21
-76.9754
0
LINE
8
BLACK
6
CONTINUOUS
10
93.7
20
-76.9754
11
93.3527
21
-76.9142
0
LINE
8
BLACK
6
CONTINUOUS
10
93.3527
20
-76.9142
11
93.0473
21
-76.7379
0
LINE
8
BLACK
6
CONTINUOUS
10
93.0473
20
-76.7379
11
92.8206
21
-76.4677
0
LINE
8
BLACK
6
CONTINUOUS
10
92.8206
20
-76.4677
11
92.7
21
-76.1363
0
LINE
8
BLACK
6
CONTINUOUS
10
92.7
20
-76.1363
11
92.7
21
-75.7837
0
LINE
8
BLACK
6
CONTINUOUS
10
92.7
20
-75.7837
11
92.8206
21
-75.4523
0
LINE
8
BLACK
6
CONTINUOUS
10
92.8206
20
-75.4523
11
93.0473
21
-75.1821
0
LINE
8
BLACK
6
CONTINUOUS
10
93.0473
20
-75.1821
11
93.3527
21
-75.0058
0
LINE
8
BLACK
6
CONTINUOUS
10
93.3527
20
-75.0058
11
93.7
21
-74.9446
0
LINE
8
BLACK
6
CONTINUOUS
10
93.7
20
-74.9446
11
94.0473
21
-75.0058
0
LINE
8
BLACK
6
CONTINUOUS
10
94.0473
20
-75.0058
11
94.3527
21
-75.1821
0
LINE
8
BLACK
6
CONTINUOUS
10
94.3527
20
-75.1821
11
94.5794
21
-75.4523
0
LINE
8
BLACK
6
CONTINUOUS
10
94.5794
20
-75.4523
11
94.6732
21
-75.71
0
LINE
8
BLACK
6
CONTINUOUS
10
94.6732
20
-75.71
11
96.5364
21
-75.71
0
LINE
8
BLACK
6
CONTINUOUS
10
96.5364
20
-75.71
11
98.35
21
-73.8964
0
LINE
8
BLACK
6
CONTINUOUS
10
98.35
20
-73.8964
11
98.35
21
-72.8683
0
LINE
8
BLACK
6
CONTINUOUS
10
98.35
20
-72.8683
11
98.3222
21
-72.8634
0
LINE
8
BLACK
6
CONTINUOUS
10
98.3222
20
-72.8634
11
98.0778
21
-72.7223
0
LINE
8
BLACK
6
CONTINUOUS
10
98.0778
20
-72.7223
11
97.8965
21
-72.5062
0
LINE
8
BLACK
6
CONTINUOUS
10
97.8965
20
-72.5062
11
97.8
21
-72.2411
0
LINE
8
BLACK
6
CONTINUOUS
10
97.8
20
-72.2411
11
97.8
21
-71.9589
0
LINE
8
BLACK
6
CONTINUOUS
10
97.8
20
-71.9589
11
97.8965
21
-71.6938
0
LINE
8
BLACK
6
CONTINUOUS
10
97.8965
20
-71.6938
11
98.0778
21
-71.4777
0
LINE
8
BLACK
6
CONTINUOUS
10
98.0778
20
-71.4777
11
98.3222
21
-71.3366
0
LINE
8
BLACK
6
CONTINUOUS
10
98.3222
20
-71.3366
11
98.6
21
-71.2877
0
LINE
8
BLACK
6
CONTINUOUS
10
98.6
20
-71.2877
11
98.8778
21
-71.3366
0
LINE
8
BLACK
6
CONTINUOUS
10
103.878
20
-71.3366
11
104.122
21
-71.4777
0
LINE
8
BLACK
6
CONTINUOUS
10
104.122
20
-71.4777
11
104.304
21
-71.6938
0
LINE
8
BLACK
6
CONTINUOUS
10
104.304
20
-71.6938
11
104.4
21
-71.9589
0
LINE
8
BLACK
6
CONTINUOUS
10
104.4
20
-71.9589
11
104.4
21
-72.2411
0
LINE
8
BLACK
6
CONTINUOUS
10
104.4
20
-72.2411
11
104.319
21
-72.465
0
LINE
8
BLACK
6
CONTINUOUS
10
104.319
20
-72.465
11
104.947
21
-73.0937
0
LINE
8
BLACK
6
CONTINUOUS
10
104.947
20
-73.0937
11
105.021
21
-72.8923
0
LINE
8
BLACK
6
CONTINUOUS
10
105.021
20
-72.8923
11
105.247
21
-72.6221
0
LINE
8
BLACK
6
CONTINUOUS
10
105.247
20
-72.6221
11
105.553
21
-72.4458
0
LINE
8
BLACK
6
CONTINUOUS
10
105.553
20
-72.4458
11
105.9
21
-72.3846
0
LINE
8
BLACK
6
CONTINUOUS
10
105.9
20
-72.3846
11
106.247
21
-72.4458
0
LINE
8
BLACK
6
CONTINUOUS
10
106.247
20
-72.4458
11
106.408
21
-72.5385
0
LINE
8
BLACK
6
CONTINUOUS
10
106.408
20
-72.5385
11
107.116
21
-71.8309
0
LINE
8
BLACK
6
CONTINUOUS
10
107.116
20
-71.8309
11
107.137
21
-71.8055
0
LINE
8
BLACK
6
CONTINUOUS
10
107.137
20
-71.8055
11
107.166
21
-71.789
0
LINE
8
BLACK
6
CONTINUOUS
10
107.166
20
-71.789
11
107.193
21
-71.7699
0
LINE
8
BLACK
6
CONTINUOUS
10
107.193
20
-71.7699
11
107.204
21
-71.767
0
LINE
8
BLACK
6
CONTINUOUS
10
107.204
20
-71.767
11
107.213
21
-71.7615
0
LINE
8
BLACK
6
CONTINUOUS
10
107.213
20
-71.7615
11
107.246
21
-71.7557
0
LINE
8
BLACK
6
CONTINUOUS
10
107.246
20
-71.7557
11
107.278
21
-71.7471
0
LINE
8
BLACK
6
CONTINUOUS
10
107.278
20
-71.7471
11
107.311
21
-71.75
0
LINE
8
BLACK
6
CONTINUOUS
10
107.311
20
-71.75
11
108.6
21
-71.75
0
LINE
8
BLACK
6
CONTINUOUS
10
108.6
20
-71.75
11
108.6
21
-71.55
0
LINE
8
BLACK
6
CONTINUOUS
10
108.6
20
-71.55
11
109.1
21
-71.55
0
LINE
8
BLACK
6
CONTINUOUS
10
109.1
20
-71.55
11
109.1
21
-72.45
0
LINE
8
BLACK
6
CONTINUOUS
10
109.1
20
-72.45
11
108.6
21
-72.45
0
LINE
8
BLACK
6
CONTINUOUS
10
108.6
20
-72.45
11
108.6
21
-72.25
0
LINE
8
BLACK
6
CONTINUOUS
10
108.6
20
-72.25
11
107.404
21
-72.25
0
LINE
8
BLACK
6
CONTINUOUS
10
107.404
20
-72.25
11
106.771
21
-72.8824
0
LINE
8
BLACK
6
CONTINUOUS
10
106.771
20
-72.8824
11
106.779
21
-72.8923
0
LINE
8
BLACK
6
CONTINUOUS
10
106.779
20
-72.8923
11
106.9
21
-73.2237
0
LINE
8
BLACK
6
CONTINUOUS
10
106.9
20
-73.2237
11
106.9
21
-73.5763
0
LINE
8
BLACK
6
CONTINUOUS
10
106.9
20
-73.5763
11
106.779
21
-73.9077
0
LINE
8
BLACK
6
CONTINUOUS
10
106.779
20
-73.9077
11
106.553
21
-74.1779
0
LINE
8
BLACK
6
CONTINUOUS
10
106.553
20
-74.1779
11
106.247
21
-74.3542
0
LINE
8
BLACK
6
CONTINUOUS
10
106.247
20
-74.3542
11
105.9
21
-74.4154
0
LINE
8
BLACK
6
CONTINUOUS
10
105.9
20
-74.4154
11
105.553
21
-74.3542
0
LINE
8
BLACK
6
CONTINUOUS
10
105.553
20
-74.3542
11
105.247
21
-74.1779
0
LINE
8
BLACK
6
CONTINUOUS
10
105.247
20
-74.1779
11
105.021
21
-73.9077
0
LINE
8
BLACK
6
CONTINUOUS
10
105.021
20
-73.9077
11
104.927
21
-73.65
0
LINE
8
BLACK
6
CONTINUOUS
10
104.927
20
-73.65
11
104.911
21
-73.65
0
LINE
8
BLACK
6
CONTINUOUS
10
104.911
20
-73.65
11
104.878
21
-73.6529
0
LINE
8
BLACK
6
CONTINUOUS
10
104.878
20
-73.6529
11
104.846
21
-73.6443
0
LINE
8
BLACK
6
CONTINUOUS
10
104.846
20
-73.6443
11
104.813
21
-73.6385
0
LINE
8
BLACK
6
CONTINUOUS
10
104.813
20
-73.6385
11
104.804
21
-73.633
0
LINE
8
BLACK
6
CONTINUOUS
10
104.804
20
-73.633
11
104.793
21
-73.6301
0
LINE
8
BLACK
6
CONTINUOUS
10
104.793
20
-73.6301
11
104.766
21
-73.611
0
LINE
8
BLACK
6
CONTINUOUS
10
104.766
20
-73.611
11
104.737
21
-73.5945
0
LINE
8
BLACK
6
CONTINUOUS
10
104.737
20
-73.5945
11
104.716
21
-73.5691
0
LINE
8
BLACK
6
CONTINUOUS
10
104.716
20
-73.5691
11
103.961
21
-72.815
0
LINE
8
BLACK
6
CONTINUOUS
10
103.961
20
-72.815
11
103.878
21
-72.8634
0
LINE
8
BLACK
6
CONTINUOUS
10
103.878
20
-72.8634
11
103.6
21
-72.9123
0
LINE
8
BLACK
6
CONTINUOUS
10
103.6
20
-72.9123
11
103.322
21
-72.8634
0
LINE
8
BLACK
6
CONTINUOUS
10
103.322
20
-72.8634
11
103.078
21
-72.7223
0
LINE
8
BLACK
6
CONTINUOUS
10
103.078
20
-72.7223
11
102.896
21
-72.5062
0
LINE
8
BLACK
6
CONTINUOUS
10
102.896
20
-72.5062
11
102.84
21
-72.35
0
LINE
8
BLACK
6
CONTINUOUS
10
102.84
20
-72.35
11
102.65
21
-72.35
0
LINE
8
BLACK
6
CONTINUOUS
10
102.65
20
-72.35
11
102.65
21
-72.475
0
LINE
8
BLACK
6
CONTINUOUS
10
102.65
20
-72.475
11
101.45
21
-72.475
0
LINE
8
BLACK
6
CONTINUOUS
10
101.45
20
-72.475
11
101.45
21
-71.725
0
LINE
8
BLACK
6
CONTINUOUS
10
101.45
20
-71.725
11
102.65
21
-71.725
0
LINE
8
BLACK
6
CONTINUOUS
10
102.65
20
-71.725
11
102.65
21
-71.85
0
LINE
8
BLACK
6
CONTINUOUS
10
102.65
20
-71.85
11
102.84
21
-71.85
0
LINE
8
BLACK
6
CONTINUOUS
10
102.84
20
-71.85
11
102.896
21
-71.6938
0
LINE
8
BLACK
6
CONTINUOUS
10
102.896
20
-71.6938
11
103.078
21
-71.4777
0
LINE
8
BLACK
6
CONTINUOUS
10
103.078
20
-71.4777
11
103.322
21
-71.3366
0
LINE
8
BLACK
6
CONTINUOUS
10
103.322
20
-71.3366
11
103.6
21
-71.2877
0
LINE
8
BLACK
6
CONTINUOUS
10
103.6
20
-71.2877
11
103.878
21
-71.3366
0
LINE
8
BLACK
6
CONTINUOUS
10
136.778
20
-70.5366
11
137.022
21
-70.6777
0
LINE
8
BLACK
6
CONTINUOUS
10
137.022
20
-70.6777
11
137.204
21
-70.8938
0
LINE
8
BLACK
6
CONTINUOUS
10
137.204
20
-70.8938
11
137.26
21
-71.05
0
LINE
8
BLACK
6
CONTINUOUS
10
137.26
20
-71.05
11
138.389
21
-71.05
0
LINE
8
BLACK
6
CONTINUOUS
10
138.389
20
-71.05
11
138.422
21
-71.0471
0
LINE
8
BLACK
6
CONTINUOUS
10
138.422
20
-71.0471
11
138.454
21
-71.0557
0
LINE
8
BLACK
6
CONTINUOUS
10
138.454
20
-71.0557
11
138.487
21
-71.0615
0
LINE
8
BLACK
6
CONTINUOUS
10
138.487
20
-71.0615
11
138.496
21
-71.067
0
LINE
8
BLACK
6
CONTINUOUS
10
138.496
20
-71.067
11
138.507
21
-71.0699
0
LINE
8
BLACK
6
CONTINUOUS
10
138.507
20
-71.0699
11
138.534
21
-71.0889
0
LINE
8
BLACK
6
CONTINUOUS
10
138.534
20
-71.0889
11
138.563
21
-71.1055
0
LINE
8
BLACK
6
CONTINUOUS
10
138.563
20
-71.1055
11
138.584
21
-71.1309
0
LINE
8
BLACK
6
CONTINUOUS
10
138.584
20
-71.1309
11
139.604
21
-72.15
0
LINE
8
BLACK
6
CONTINUOUS
10
139.604
20
-72.15
11
140.327
21
-72.15
0
LINE
8
BLACK
6
CONTINUOUS
10
140.327
20
-72.15
11
140.421
21
-71.8923
0
LINE
8
BLACK
6
CONTINUOUS
10
140.421
20
-71.8923
11
140.647
21
-71.6221
0
LINE
8
BLACK
6
CONTINUOUS
10
140.647
20
-71.6221
11
140.953
21
-71.4458
0
LINE
8
BLACK
6
CONTINUOUS
10
140.953
20
-71.4458
11
141.3
21
-71.3846
0
LINE
8
BLACK
6
CONTINUOUS
10
141.3
20
-71.3846
11
141.647
21
-71.4458
0
LINE
8
BLACK
6
CONTINUOUS
10
141.647
20
-71.4458
11
141.953
21
-71.6221
0
LINE
8
BLACK
6
CONTINUOUS
10
141.953
20
-71.6221
11
142.179
21
-71.8923
0
LINE
8
BLACK
6
CONTINUOUS
10
142.179
20
-71.8923
11
142.3
21
-72.2237
0
LINE
8
BLACK
6
CONTINUOUS
10
142.3
20
-72.2237
11
142.3
21
-72.5763
0
LINE
8
BLACK
6
CONTINUOUS
10
142.3
20
-72.5763
11
142.179
21
-72.9077
0
LINE
8
BLACK
6
CONTINUOUS
10
142.179
20
-72.9077
11
141.953
21
-73.1779
0
LINE
8
BLACK
6
CONTINUOUS
10
141.953
20
-73.1779
11
141.647
21
-73.3542
0
LINE
8
BLACK
6
CONTINUOUS
10
141.647
20
-73.3542
11
141.3
21
-73.4154
0
LINE
8
BLACK
6
CONTINUOUS
10
141.3
20
-73.4154
11
140.953
21
-73.3542
0
LINE
8
BLACK
6
CONTINUOUS
10
140.953
20
-73.3542
11
140.647
21
-73.1779
0
LINE
8
BLACK
6
CONTINUOUS
10
140.647
20
-73.1779
11
140.421
21
-72.9077
0
LINE
8
BLACK
6
CONTINUOUS
10
140.421
20
-72.9077
11
140.327
21
-72.65
0
LINE
8
BLACK
6
CONTINUOUS
10
140.327
20
-72.65
11
139.511
21
-72.65
0
LINE
8
BLACK
6
CONTINUOUS
10
139.511
20
-72.65
11
139.478
21
-72.6529
0
LINE
8
BLACK
6
CONTINUOUS
10
139.478
20
-72.6529
11
139.446
21
-72.6443
0
LINE
8
BLACK
6
CONTINUOUS
10
139.446
20
-72.6443
11
139.413
21
-72.6385
0
LINE
8
BLACK
6
CONTINUOUS
10
139.413
20
-72.6385
11
139.404
21
-72.633
0
LINE
8
BLACK
6
CONTINUOUS
10
139.404
20
-72.633
11
139.393
21
-72.6301
0
LINE
8
BLACK
6
CONTINUOUS
10
139.393
20
-72.6301
11
139.366
21
-72.611
0
LINE
8
BLACK
6
CONTINUOUS
10
139.366
20
-72.611
11
139.337
21
-72.5945
0
LINE
8
BLACK
6
CONTINUOUS
10
139.337
20
-72.5945
11
139.316
21
-72.5691
0
LINE
8
BLACK
6
CONTINUOUS
10
139.316
20
-72.5691
11
138.296
21
-71.55
0
LINE
8
BLACK
6
CONTINUOUS
10
138.296
20
-71.55
11
137.26
21
-71.55
0
LINE
8
BLACK
6
CONTINUOUS
10
137.26
20
-71.55
11
137.204
21
-71.7062
0
LINE
8
BLACK
6
CONTINUOUS
10
137.204
20
-71.7062
11
137.022
21
-71.9223
0
LINE
8
BLACK
6
CONTINUOUS
10
137.022
20
-71.9223
11
136.778
21
-72.0634
0
LINE
8
BLACK
6
CONTINUOUS
10
136.778
20
-72.0634
11
136.5
21
-72.1123
0
LINE
8
BLACK
6
CONTINUOUS
10
136.5
20
-72.1123
11
136.222
21
-72.0634
0
LINE
8
BLACK
6
CONTINUOUS
10
136.222
20
-72.0634
11
135.978
21
-71.9223
0
LINE
8
BLACK
6
CONTINUOUS
10
135.978
20
-71.9223
11
135.796
21
-71.7062
0
LINE
8
BLACK
6
CONTINUOUS
10
135.796
20
-71.7062
11
135.74
21
-71.55
0
LINE
8
BLACK
6
CONTINUOUS
10
135.74
20
-71.55
11
135.55
21
-71.55
0
LINE
8
BLACK
6
CONTINUOUS
10
135.55
20
-71.55
11
135.55
21
-71.675
0
LINE
8
BLACK
6
CONTINUOUS
10
135.55
20
-71.675
11
134.35
21
-71.675
0
LINE
8
BLACK
6
CONTINUOUS
10
134.35
20
-71.675
11
134.35
21
-70.925
0
LINE
8
BLACK
6
CONTINUOUS
10
134.35
20
-70.925
11
135.55
21
-70.925
0
LINE
8
BLACK
6
CONTINUOUS
10
135.55
20
-70.925
11
135.55
21
-71.05
0
LINE
8
BLACK
6
CONTINUOUS
10
135.55
20
-71.05
11
135.74
21
-71.05
0
LINE
8
BLACK
6
CONTINUOUS
10
135.74
20
-71.05
11
135.796
21
-70.8938
0
LINE
8
BLACK
6
CONTINUOUS
10
135.796
20
-70.8938
11
135.978
21
-70.6777
0
LINE
8
BLACK
6
CONTINUOUS
10
135.978
20
-70.6777
11
136.222
21
-70.5366
0
LINE
8
BLACK
6
CONTINUOUS
10
136.222
20
-70.5366
11
136.5
21
-70.4877
0
LINE
8
BLACK
6
CONTINUOUS
10
136.5
20
-70.4877
11
136.778
21
-70.5366
0
LINE
8
BLACK
6
CONTINUOUS
10
110.6
20
-71.75
11
111.789
21
-71.75
0
LINE
8
BLACK
6
CONTINUOUS
10
111.789
20
-71.75
11
111.822
21
-71.7471
0
LINE
8
BLACK
6
CONTINUOUS
10
111.822
20
-71.7471
11
111.854
21
-71.7557
0
LINE
8
BLACK
6
CONTINUOUS
10
111.854
20
-71.7557
11
111.887
21
-71.7615
0
LINE
8
BLACK
6
CONTINUOUS
10
111.887
20
-71.7615
11
111.896
21
-71.767
0
LINE
8
BLACK
6
CONTINUOUS
10
111.896
20
-71.767
11
111.907
21
-71.7699
0
LINE
8
BLACK
6
CONTINUOUS
10
111.907
20
-71.7699
11
111.934
21
-71.7889
0
LINE
8
BLACK
6
CONTINUOUS
10
111.934
20
-71.7889
11
111.963
21
-71.8055
0
LINE
8
BLACK
6
CONTINUOUS
10
111.963
20
-71.8055
11
111.984
21
-71.8309
0
LINE
8
BLACK
6
CONTINUOUS
10
111.984
20
-71.8309
11
112.469
21
-72.315
0
LINE
8
BLACK
6
CONTINUOUS
10
112.469
20
-72.315
11
115.4
21
-72.315
0
LINE
8
BLACK
6
CONTINUOUS
10
115.4
20
-72.315
11
115.4
21
-72.265
0
LINE
8
BLACK
6
CONTINUOUS
10
115.4
20
-72.265
11
117.4
21
-72.265
0
LINE
8
BLACK
6
CONTINUOUS
10
117.4
20
-72.265
11
117.4
21
-72.865
0
LINE
8
BLACK
6
CONTINUOUS
10
117.4
20
-72.865
11
115.4
21
-72.865
0
LINE
8
BLACK
6
CONTINUOUS
10
115.4
20
-72.865
11
115.4
21
-72.815
0
LINE
8
BLACK
6
CONTINUOUS
10
115.4
20
-72.815
11
112.376
21
-72.815
0
LINE
8
BLACK
6
CONTINUOUS
10
112.376
20
-72.815
11
112.343
21
-72.8179
0
LINE
8
BLACK
6
CONTINUOUS
10
112.343
20
-72.8179
11
112.311
21
-72.8093
0
LINE
8
BLACK
6
CONTINUOUS
10
112.311
20
-72.8093
11
112.278
21
-72.8035
0
LINE
8
BLACK
6
CONTINUOUS
10
112.278
20
-72.8035
11
112.269
21
-72.798
0
LINE
8
BLACK
6
CONTINUOUS
10
112.269
20
-72.798
11
112.258
21
-72.7951
0
LINE
8
BLACK
6
CONTINUOUS
10
112.258
20
-72.7951
11
112.231
21
-72.776
0
LINE
8
BLACK
6
CONTINUOUS
10
112.231
20
-72.776
11
112.202
21
-72.7595
0
LINE
8
BLACK
6
CONTINUOUS
10
112.202
20
-72.7595
11
112.181
21
-72.7341
0
LINE
8
BLACK
6
CONTINUOUS
10
112.181
20
-72.7341
11
111.696
21
-72.25
0
LINE
8
BLACK
6
CONTINUOUS
10
111.696
20
-72.25
11
110.6
21
-72.25
0
LINE
8
BLACK
6
CONTINUOUS
10
110.6
20
-72.25
11
110.6
21
-72.45
0
LINE
8
BLACK
6
CONTINUOUS
10
110.6
20
-72.45
11
110.1
21
-72.45
0
LINE
8
BLACK
6
CONTINUOUS
10
110.1
20
-72.45
11
110.1
21
-71.55
0
LINE
8
BLACK
6
CONTINUOUS
10
110.1
20
-71.55
11
110.6
21
-71.55
0
LINE
8
BLACK
6
CONTINUOUS
10
110.6
20
-71.55
11
110.6
21
-71.75
0
LINE
8
BLACK
6
CONTINUOUS
10
94.0473
20
-70.6858
11
94.3527
21
-70.8621
0
LINE
8
BLACK
6
CONTINUOUS
10
94.3527
20
-70.8621
11
94.5794
21
-71.1323
0
LINE
8
BLACK
6
CONTINUOUS
10
94.5794
20
-71.1323
11
94.7
21
-71.4637
0
LINE
8
BLACK
6
CONTINUOUS
10
94.7
20
-71.4637
11
94.7
21
-71.8163
0
LINE
8
BLACK
6
CONTINUOUS
10
94.7
20
-71.8163
11
94.5794
21
-72.1477
0
LINE
8
BLACK
6
CONTINUOUS
10
94.5794
20
-72.1477
11
94.3527
21
-72.4179
0
LINE
8
BLACK
6
CONTINUOUS
10
94.3527
20
-72.4179
11
94.0473
21
-72.5942
0
LINE
8
BLACK
6
CONTINUOUS
10
94.0473
20
-72.5942
11
93.7
21
-72.6554
0
LINE
8
BLACK
6
CONTINUOUS
10
93.7
20
-72.6554
11
93.3527
21
-72.5942
0
LINE
8
BLACK
6
CONTINUOUS
10
93.3527
20
-72.5942
11
93.0473
21
-72.4179
0
LINE
8
BLACK
6
CONTINUOUS
10
93.0473
20
-72.4179
11
92.8206
21
-72.1477
0
LINE
8
BLACK
6
CONTINUOUS
10
92.8206
20
-72.1477
11
92.7
21
-71.8163
0
LINE
8
BLACK
6
CONTINUOUS
10
92.7
20
-71.8163
11
92.7
21
-71.4637
0
LINE
8
BLACK
6
CONTINUOUS
10
92.7
20
-71.4637
11
92.8206
21
-71.1323
0
LINE
8
BLACK
6
CONTINUOUS
10
92.8206
20
-71.1323
11
93.0473
21
-70.8621
0
LINE
8
BLACK
6
CONTINUOUS
10
93.0473
20
-70.8621
11
93.3527
21
-70.6858
0
LINE
8
BLACK
6
CONTINUOUS
10
93.3527
20
-70.6858
11
93.7
21
-70.6246
0
LINE
8
BLACK
6
CONTINUOUS
10
93.7
20
-70.6246
11
94.0473
21
-70.6858
0
LINE
8
BLACK
6
CONTINUOUS
10
131.778
20
-70.5366
11
132.022
21
-70.6777
0
LINE
8
BLACK
6
CONTINUOUS
10
132.022
20
-70.6777
11
132.204
21
-70.8938
0
LINE
8
BLACK
6
CONTINUOUS
10
132.204
20
-70.8938
11
132.26
21
-71.05
0
LINE
8
BLACK
6
CONTINUOUS
10
132.26
20
-71.05
11
132.45
21
-71.05
0
LINE
8
BLACK
6
CONTINUOUS
10
132.45
20
-71.05
11
132.45
21
-70.925
0
LINE
8
BLACK
6
CONTINUOUS
10
132.45
20
-70.925
11
133.65
21
-70.925
0
LINE
8
BLACK
6
CONTINUOUS
10
133.65
20
-70.925
11
133.65
21
-71.675
0
LINE
8
BLACK
6
CONTINUOUS
10
133.65
20
-71.675
11
132.45
21
-71.675
0
LINE
8
BLACK
6
CONTINUOUS
10
132.45
20
-71.675
11
132.45
21
-71.55
0
LINE
8
BLACK
6
CONTINUOUS
10
132.45
20
-71.55
11
132.26
21
-71.55
0
LINE
8
BLACK
6
CONTINUOUS
10
132.26
20
-71.55
11
132.204
21
-71.7062
0
LINE
8
BLACK
6
CONTINUOUS
10
132.204
20
-71.7062
11
132.022
21
-71.9223
0
LINE
8
BLACK
6
CONTINUOUS
10
132.022
20
-71.9223
11
131.778
21
-72.0634
0
LINE
8
BLACK
6
CONTINUOUS
10
131.778
20
-72.0634
11
131.5
21
-72.1123
0
LINE
8
BLACK
6
CONTINUOUS
10
131.5
20
-72.1123
11
131.222
21
-72.0634
0
LINE
8
BLACK
6
CONTINUOUS
10
131.222
20
-72.0634
11
130.978
21
-71.9223
0
LINE
8
BLACK
6
CONTINUOUS
10
130.978
20
-71.9223
11
130.796
21
-71.7062
0
LINE
8
BLACK
6
CONTINUOUS
10
130.796
20
-71.7062
11
130.738
21
-71.545
0
LINE
8
BLACK
6
CONTINUOUS
10
130.738
20
-71.545
11
126.8
21
-71.545
0
LINE
8
BLACK
6
CONTINUOUS
10
126.8
20
-71.545
11
126.8
21
-71.595
0
LINE
8
BLACK
6
CONTINUOUS
10
126.8
20
-71.595
11
124.8
21
-71.595
0
LINE
8
BLACK
6
CONTINUOUS
10
124.8
20
-71.595
11
124.8
21
-70.995
0
LINE
8
BLACK
6
CONTINUOUS
10
124.8
20
-70.995
11
126.8
21
-70.995
0
LINE
8
BLACK
6
CONTINUOUS
10
126.8
20
-70.995
11
126.8
21
-71.045
0
LINE
8
BLACK
6
CONTINUOUS
10
126.8
20
-71.045
11
130.741
21
-71.045
0
LINE
8
BLACK
6
CONTINUOUS
10
130.741
20
-71.045
11
130.796
21
-70.8938
0
LINE
8
BLACK
6
CONTINUOUS
10
130.796
20
-70.8938
11
130.978
21
-70.6777
0
LINE
8
BLACK
6
CONTINUOUS
10
130.978
20
-70.6777
11
131.222
21
-70.5366
0
LINE
8
BLACK
6
CONTINUOUS
10
131.222
20
-70.5366
11
131.5
21
-70.4877
0
LINE
8
BLACK
6
CONTINUOUS
10
131.5
20
-70.4877
11
131.778
21
-70.5366
0
LINE
8
BLACK
6
CONTINUOUS
10
110.55
20
-69.45
11
111.389
21
-69.45
0
LINE
8
BLACK
6
CONTINUOUS
10
111.389
20
-69.45
11
111.422
21
-69.4471
0
LINE
8
BLACK
6
CONTINUOUS
10
111.422
20
-69.4471
11
111.454
21
-69.4557
0
LINE
8
BLACK
6
CONTINUOUS
10
111.454
20
-69.4557
11
111.487
21
-69.4615
0
LINE
8
BLACK
6
CONTINUOUS
10
111.487
20
-69.4615
11
111.496
21
-69.467
0
LINE
8
BLACK
6
CONTINUOUS
10
111.496
20
-69.467
11
111.507
21
-69.4699
0
LINE
8
BLACK
6
CONTINUOUS
10
111.507
20
-69.4699
11
111.534
21
-69.489
0
LINE
8
BLACK
6
CONTINUOUS
10
111.534
20
-69.489
11
111.563
21
-69.5055
0
LINE
8
BLACK
6
CONTINUOUS
10
111.563
20
-69.5055
11
111.584
21
-69.5309
0
LINE
8
BLACK
6
CONTINUOUS
10
111.584
20
-69.5309
11
113.099
21
-71.045
0
LINE
8
BLACK
6
CONTINUOUS
10
113.099
20
-71.045
11
115.4
21
-71.045
0
LINE
8
BLACK
6
CONTINUOUS
10
115.4
20
-71.045
11
115.4
21
-70.995
0
LINE
8
BLACK
6
CONTINUOUS
10
115.4
20
-70.995
11
117.4
21
-70.995
0
LINE
8
BLACK
6
CONTINUOUS
10
117.4
20
-70.995
11
117.4
21
-71.595
0
LINE
8
BLACK
6
CONTINUOUS
10
117.4
20
-71.595
11
115.4
21
-71.595
0
LINE
8
BLACK
6
CONTINUOUS
10
115.4
20
-71.595
11
115.4
21
-71.545
0
LINE
8
BLACK
6
CONTINUOUS
10
115.4
20
-71.545
11
113.006
21
-71.545
0
LINE
8
BLACK
6
CONTINUOUS
10
113.006
20
-71.545
11
112.973
21
-71.5479
0
LINE
8
BLACK
6
CONTINUOUS
10
112.973
20
-71.5479
11
112.941
21
-71.5393
0
LINE
8
BLACK
6
CONTINUOUS
10
112.941
20
-71.5393
11
112.908
21
-71.5335
0
LINE
8
BLACK
6
CONTINUOUS
10
112.908
20
-71.5335
11
112.899
21
-71.528
0
LINE
8
BLACK
6
CONTINUOUS
10
112.899
20
-71.528
11
112.888
21
-71.5251
0
LINE
8
BLACK
6
CONTINUOUS
10
112.888
20
-71.5251
11
112.861
21
-71.506
0
LINE
8
BLACK
6
CONTINUOUS
10
112.861
20
-71.506
11
112.832
21
-71.4895
0
LINE
8
BLACK
6
CONTINUOUS
10
112.832
20
-71.4895
11
112.811
21
-71.4641
0
LINE
8
BLACK
6
CONTINUOUS
10
112.811
20
-71.4641
11
111.296
21
-69.95
0
LINE
8
BLACK
6
CONTINUOUS
10
111.296
20
-69.95
11
110.55
21
-69.95
0
LINE
8
BLACK
6
CONTINUOUS
10
110.55
20
-69.95
11
110.55
21
-70.15
0
LINE
8
BLACK
6
CONTINUOUS
10
110.55
20
-70.15
11
110.05
21
-70.15
0
LINE
8
BLACK
6
CONTINUOUS
10
110.05
20
-70.15
11
110.05
21
-69.25
0
LINE
8
BLACK
6
CONTINUOUS
10
110.05
20
-69.25
11
110.55
21
-69.25
0
LINE
8
BLACK
6
CONTINUOUS
10
110.55
20
-69.25
11
110.55
21
-69.45
0
LINE
8
BLACK
6
CONTINUOUS
10
141.647
20
-68.9058
11
141.953
21
-69.0821
0
LINE
8
BLACK
6
CONTINUOUS
10
141.953
20
-69.0821
11
142.179
21
-69.3523
0
LINE
8
BLACK
6
CONTINUOUS
10
142.179
20
-69.3523
11
142.3
21
-69.6837
0
LINE
8
BLACK
6
CONTINUOUS
10
142.3
20
-69.6837
11
142.3
21
-70.0363
0
LINE
8
BLACK
6
CONTINUOUS
10
142.3
20
-70.0363
11
142.179
21
-70.3677
0
LINE
8
BLACK
6
CONTINUOUS
10
142.179
20
-70.3677
11
141.953
21
-70.6379
0
LINE
8
BLACK
6
CONTINUOUS
10
141.953
20
-70.6379
11
141.647
21
-70.8142
0
LINE
8
BLACK
6
CONTINUOUS
10
141.647
20
-70.8142
11
141.3
21
-70.8754
0
LINE
8
BLACK
6
CONTINUOUS
10
141.3
20
-70.8754
11
140.953
21
-70.8142
0
LINE
8
BLACK
6
CONTINUOUS
10
140.953
20
-70.8142
11
140.647
21
-70.6379
0
LINE
8
BLACK
6
CONTINUOUS
10
140.647
20
-70.6379
11
140.421
21
-70.3677
0
LINE
8
BLACK
6
CONTINUOUS
10
140.421
20
-70.3677
11
140.3
21
-70.0363
0
LINE
8
BLACK
6
CONTINUOUS
10
140.3
20
-70.0363
11
140.3
21
-69.6837
0
LINE
8
BLACK
6
CONTINUOUS
10
140.3
20
-69.6837
11
140.349
21
-69.55
0
LINE
8
BLACK
6
CONTINUOUS
10
140.349
20
-69.55
11
129.704
21
-69.55
0
LINE
8
BLACK
6
CONTINUOUS
10
129.704
20
-69.55
11
129.059
21
-70.1941
0
LINE
8
BLACK
6
CONTINUOUS
10
129.059
20
-70.1941
11
129.038
21
-70.2195
0
LINE
8
BLACK
6
CONTINUOUS
10
129.038
20
-70.2195
11
129.009
21
-70.236
0
LINE
8
BLACK
6
CONTINUOUS
10
129.009
20
-70.236
11
128.982
21
-70.2551
0
LINE
8
BLACK
6
CONTINUOUS
10
128.982
20
-70.2551
11
128.971
21
-70.258
0
LINE
8
BLACK
6
CONTINUOUS
10
128.971
20
-70.258
11
128.962
21
-70.2635
0
LINE
8
BLACK
6
CONTINUOUS
10
128.962
20
-70.2635
11
128.929
21
-70.2693
0
LINE
8
BLACK
6
CONTINUOUS
10
128.929
20
-70.2693
11
128.897
21
-70.2779
0
LINE
8
BLACK
6
CONTINUOUS
10
128.897
20
-70.2779
11
128.864
21
-70.275
0
LINE
8
BLACK
6
CONTINUOUS
10
128.864
20
-70.275
11
126.8
21
-70.275
0
LINE
8
BLACK
6
CONTINUOUS
10
126.8
20
-70.275
11
126.8
21
-70.325
0
LINE
8
BLACK
6
CONTINUOUS
10
126.8
20
-70.325
11
124.8
21
-70.325
0
LINE
8
BLACK
6
CONTINUOUS
10
124.8
20
-70.325
11
124.8
21
-69.725
0
LINE
8
BLACK
6
CONTINUOUS
10
124.8
20
-69.725
11
126.8
21
-69.725
0
LINE
8
BLACK
6
CONTINUOUS
10
126.8
20
-69.725
11
126.8
21
-69.775
0
LINE
8
BLACK
6
CONTINUOUS
10
126.8
20
-69.775
11
128.771
21
-69.775
0
LINE
8
BLACK
6
CONTINUOUS
10
128.771
20
-69.775
11
129.416
21
-69.1309
0
LINE
8
BLACK
6
CONTINUOUS
10
129.416
20
-69.1309
11
129.437
21
-69.1055
0
LINE
8
BLACK
6
CONTINUOUS
10
129.437
20
-69.1055
11
129.466
21
-69.089
0
LINE
8
BLACK
6
CONTINUOUS
10
129.466
20
-69.089
11
129.493
21
-69.0699
0
LINE
8
BLACK
6
CONTINUOUS
10
129.493
20
-69.0699
11
129.504
21
-69.067
0
LINE
8
BLACK
6
CONTINUOUS
10
129.504
20
-69.067
11
129.513
21
-69.0615
0
LINE
8
BLACK
6
CONTINUOUS
10
129.513
20
-69.0615
11
129.546
21
-69.0557
0
LINE
8
BLACK
6
CONTINUOUS
10
129.546
20
-69.0557
11
129.578
21
-69.0471
0
LINE
8
BLACK
6
CONTINUOUS
10
129.578
20
-69.0471
11
129.611
21
-69.05
0
LINE
8
BLACK
6
CONTINUOUS
10
129.611
20
-69.05
11
140.703
21
-69.05
0
LINE
8
BLACK
6
CONTINUOUS
10
140.703
20
-69.05
11
140.953
21
-68.9058
0
LINE
8
BLACK
6
CONTINUOUS
10
140.953
20
-68.9058
11
141.3
21
-68.8446
0
LINE
8
BLACK
6
CONTINUOUS
10
141.3
20
-68.8446
11
141.647
21
-68.9058
0
LINE
8
BLACK
6
CONTINUOUS
10
110.55
20
-67.25
11
111.189
21
-67.25
0
LINE
8
BLACK
6
CONTINUOUS
10
111.189
20
-67.25
11
111.222
21
-67.2471
0
LINE
8
BLACK
6
CONTINUOUS
10
111.222
20
-67.2471
11
111.254
21
-67.2557
0
LINE
8
BLACK
6
CONTINUOUS
10
111.254
20
-67.2557
11
111.287
21
-67.2615
0
LINE
8
BLACK
6
CONTINUOUS
10
111.287
20
-67.2615
11
111.296
21
-67.267
0
LINE
8
BLACK
6
CONTINUOUS
10
111.296
20
-67.267
11
111.307
21
-67.2699
0
LINE
8
BLACK
6
CONTINUOUS
10
111.307
20
-67.2699
11
111.334
21
-67.2889
0
LINE
8
BLACK
6
CONTINUOUS
10
111.334
20
-67.2889
11
111.363
21
-67.3055
0
LINE
8
BLACK
6
CONTINUOUS
10
111.363
20
-67.3055
11
111.384
21
-67.3309
0
LINE
8
BLACK
6
CONTINUOUS
10
111.384
20
-67.3309
11
113.829
21
-69.775
0
LINE
8
BLACK
6
CONTINUOUS
10
113.829
20
-69.775
11
115.4
21
-69.775
0
LINE
8
BLACK
6
CONTINUOUS
10
115.4
20
-69.775
11
115.4
21
-69.725
0
LINE
8
BLACK
6
CONTINUOUS
10
115.4
20
-69.725
11
117.4
21
-69.725
0
LINE
8
BLACK
6
CONTINUOUS
10
117.4
20
-69.725
11
117.4
21
-70.325
0
LINE
8
BLACK
6
CONTINUOUS
10
117.4
20
-70.325
11
115.4
21
-70.325
0
LINE
8
BLACK
6
CONTINUOUS
10
115.4
20
-70.325
11
115.4
21
-70.275
0
LINE
8
BLACK
6
CONTINUOUS
10
115.4
20
-70.275
11
113.736
21
-70.275
0
LINE
8
BLACK
6
CONTINUOUS
10
113.736
20
-70.275
11
113.703
21
-70.2779
0
LINE
8
BLACK
6
CONTINUOUS
10
113.703
20
-70.2779
11
113.671
21
-70.2693
0
LINE
8
BLACK
6
CONTINUOUS
10
113.671
20
-70.2693
11
113.638
21
-70.2635
0
LINE
8
BLACK
6
CONTINUOUS
10
113.638
20
-70.2635
11
113.629
21
-70.258
0
LINE
8
BLACK
6
CONTINUOUS
10
113.629
20
-70.258
11
113.618
21
-70.2551
0
LINE
8
BLACK
6
CONTINUOUS
10
113.618
20
-70.2551
11
113.591
21
-70.236
0
LINE
8
BLACK
6
CONTINUOUS
10
113.591
20
-70.236
11
113.562
21
-70.2195
0
LINE
8
BLACK
6
CONTINUOUS
10
113.562
20
-70.2195
11
113.541
21
-70.1941
0
LINE
8
BLACK
6
CONTINUOUS
10
113.541
20
-70.1941
11
111.096
21
-67.75
0
LINE
8
BLACK
6
CONTINUOUS
10
111.096
20
-67.75
11
110.55
21
-67.75
0
LINE
8
BLACK
6
CONTINUOUS
10
110.55
20
-67.75
11
110.55
21
-67.95
0
LINE
8
BLACK
6
CONTINUOUS
10
110.55
20
-67.95
11
110.05
21
-67.95
0
LINE
8
BLACK
6
CONTINUOUS
10
110.05
20
-67.95
11
110.05
21
-67.05
0
LINE
8
BLACK
6
CONTINUOUS
10
110.05
20
-67.05
11
110.55
21
-67.05
0
LINE
8
BLACK
6
CONTINUOUS
10
110.55
20
-67.05
11
110.55
21
-67.25
0
LINE
8
BLACK
6
CONTINUOUS
10
101.447
20
-64.5458
11
101.753
21
-64.7221
0
LINE
8
BLACK
6
CONTINUOUS
10
101.753
20
-64.7221
11
101.979
21
-64.9923
0
LINE
8
BLACK
6
CONTINUOUS
10
101.979
20
-64.9923
11
102.073
21
-65.25
0
LINE
8
BLACK
6
CONTINUOUS
10
102.073
20
-65.25
11
102.789
21
-65.25
0
LINE
8
BLACK
6
CONTINUOUS
10
102.789
20
-65.25
11
102.822
21
-65.2471
0
LINE
8
BLACK
6
CONTINUOUS
10
102.822
20
-65.2471
11
102.854
21
-65.2557
0
LINE
8
BLACK
6
CONTINUOUS
10
102.854
20
-65.2557
11
102.887
21
-65.2615
0
LINE
8
BLACK
6
CONTINUOUS
10
102.887
20
-65.2615
11
102.896
21
-65.267
0
LINE
8
BLACK
6
CONTINUOUS
10
102.896
20
-65.267
11
102.907
21
-65.2699
0
LINE
8
BLACK
6
CONTINUOUS
10
102.907
20
-65.2699
11
102.934
21
-65.2889
0
LINE
8
BLACK
6
CONTINUOUS
10
102.934
20
-65.2889
11
102.963
21
-65.3055
0
LINE
8
BLACK
6
CONTINUOUS
10
102.963
20
-65.3055
11
102.984
21
-65.3309
0
LINE
8
BLACK
6
CONTINUOUS
10
102.984
20
-65.3309
11
103.769
21
-66.1155
0
LINE
8
BLACK
6
CONTINUOUS
10
103.769
20
-66.1155
11
103.794
21
-66.1368
0
LINE
8
BLACK
6
CONTINUOUS
10
103.794
20
-66.1368
11
103.811
21
-66.1655
0
LINE
8
BLACK
6
CONTINUOUS
10
103.811
20
-66.1655
11
103.83
21
-66.1927
0
LINE
8
BLACK
6
CONTINUOUS
10
103.83
20
-66.1927
11
103.833
21
-66.2035
0
LINE
8
BLACK
6
CONTINUOUS
10
103.833
20
-66.2035
11
103.839
21
-66.2132
0
LINE
8
BLACK
6
CONTINUOUS
10
103.839
20
-66.2132
11
103.844
21
-66.2458
0
LINE
8
BLACK
6
CONTINUOUS
10
103.844
20
-66.2458
11
103.853
21
-66.2779
0
LINE
8
BLACK
6
CONTINUOUS
10
103.853
20
-66.2779
11
103.85
21
-66.3109
0
LINE
8
BLACK
6
CONTINUOUS
10
103.85
20
-66.3109
11
103.85
21
-66.9317
0
LINE
8
BLACK
6
CONTINUOUS
10
103.85
20
-66.9317
11
103.878
21
-66.9366
0
LINE
8
BLACK
6
CONTINUOUS
10
103.878
20
-66.9366
11
104.122
21
-67.0777
0
LINE
8
BLACK
6
CONTINUOUS
10
104.122
20
-67.0777
11
104.304
21
-67.2938
0
LINE
8
BLACK
6
CONTINUOUS
10
104.304
20
-67.2938
11
104.4
21
-67.5589
0
LINE
8
BLACK
6
CONTINUOUS
10
104.4
20
-67.5589
11
104.4
21
-67.8411
0
LINE
8
BLACK
6
CONTINUOUS
10
104.4
20
-67.8411
11
104.319
21
-68.065
0
LINE
8
BLACK
6
CONTINUOUS
10
104.319
20
-68.065
11
105.704
21
-69.45
0
LINE
8
BLACK
6
CONTINUOUS
10
105.704
20
-69.45
11
108.55
21
-69.45
0
LINE
8
BLACK
6
CONTINUOUS
10
108.55
20
-69.45
11
108.55
21
-69.25
0
LINE
8
BLACK
6
CONTINUOUS
10
108.55
20
-69.25
11
109.05
21
-69.25
0
LINE
8
BLACK
6
CONTINUOUS
10
109.05
20
-69.25
11
109.05
21
-70.15
0
LINE
8
BLACK
6
CONTINUOUS
10
109.05
20
-70.15
11
108.55
21
-70.15
0
LINE
8
BLACK
6
CONTINUOUS
10
108.55
20
-70.15
11
108.55
21
-69.95
0
LINE
8
BLACK
6
CONTINUOUS
10
108.55
20
-69.95
11
105.611
21
-69.95
0
LINE
8
BLACK
6
CONTINUOUS
10
105.611
20
-69.95
11
105.578
21
-69.9529
0
LINE
8
BLACK
6
CONTINUOUS
10
105.578
20
-69.9529
11
105.546
21
-69.9443
0
LINE
8
BLACK
6
CONTINUOUS
10
105.546
20
-69.9443
11
105.513
21
-69.9385
0
LINE
8
BLACK
6
CONTINUOUS
10
105.513
20
-69.9385
11
105.504
21
-69.933
0
LINE
8
BLACK
6
CONTINUOUS
10
105.504
20
-69.933
11
105.493
21
-69.9301
0
LINE
8
BLACK
6
CONTINUOUS
10
105.493
20
-69.9301
11
105.466
21
-69.911
0
LINE
8
BLACK
6
CONTINUOUS
10
105.466
20
-69.911
11
105.437
21
-69.8945
0
LINE
8
BLACK
6
CONTINUOUS
10
105.437
20
-69.8945
11
105.416
21
-69.8691
0
LINE
8
BLACK
6
CONTINUOUS
10
105.416
20
-69.8691
11
103.961
21
-68.415
0
LINE
8
BLACK
6
CONTINUOUS
10
103.961
20
-68.415
11
103.878
21
-68.4634
0
LINE
8
BLACK
6
CONTINUOUS
10
103.878
20
-68.4634
11
103.6
21
-68.5123
0
LINE
8
BLACK
6
CONTINUOUS
10
103.6
20
-68.5123
11
103.322
21
-68.4634
0
LINE
8
BLACK
6
CONTINUOUS
10
103.322
20
-68.4634
11
103.078
21
-68.3223
0
LINE
8
BLACK
6
CONTINUOUS
10
103.078
20
-68.3223
11
102.896
21
-68.1062
0
LINE
8
BLACK
6
CONTINUOUS
10
102.896
20
-68.1062
11
102.84
21
-67.95
0
LINE
8
BLACK
6
CONTINUOUS
10
102.84
20
-67.95
11
102.65
21
-67.95
0
LINE
8
BLACK
6
CONTINUOUS
10
102.65
20
-67.95
11
102.65
21
-68.075
0
LINE
8
BLACK
6
CONTINUOUS
10
102.65
20
-68.075
11
101.45
21
-68.075
0
LINE
8
BLACK
6
CONTINUOUS
10
101.45
20
-68.075
11
101.45
21
-67.325
0
LINE
8
BLACK
6
CONTINUOUS
10
101.45
20
-67.325
11
102.65
21
-67.325
0
LINE
8
BLACK
6
CONTINUOUS
10
102.65
20
-67.325
11
102.65
21
-67.45
0
LINE
8
BLACK
6
CONTINUOUS
10
102.65
20
-67.45
11
102.84
21
-67.45
0
LINE
8
BLACK
6
CONTINUOUS
10
102.84
20
-67.45
11
102.896
21
-67.2938
0
LINE
8
BLACK
6
CONTINUOUS
10
102.896
20
-67.2938
11
103.078
21
-67.0777
0
LINE
8
BLACK
6
CONTINUOUS
10
103.078
20
-67.0777
11
103.322
21
-66.9366
0
LINE
8
BLACK
6
CONTINUOUS
10
103.322
20
-66.9366
11
103.35
21
-66.9317
0
LINE
8
BLACK
6
CONTINUOUS
10
103.35
20
-66.9317
11
103.35
21
-66.4036
0
LINE
8
BLACK
6
CONTINUOUS
10
103.35
20
-66.4036
11
102.696
21
-65.75
0
LINE
8
BLACK
6
CONTINUOUS
10
102.696
20
-65.75
11
102.073
21
-65.75
0
LINE
8
BLACK
6
CONTINUOUS
10
102.073
20
-65.75
11
101.979
21
-66.0077
0
LINE
8
BLACK
6
CONTINUOUS
10
101.979
20
-66.0077
11
101.753
21
-66.2779
0
LINE
8
BLACK
6
CONTINUOUS
10
101.753
20
-66.2779
11
101.447
21
-66.4542
0
LINE
8
BLACK
6
CONTINUOUS
10
101.447
20
-66.4542
11
101.1
21
-66.5154
0
LINE
8
BLACK
6
CONTINUOUS
10
101.1
20
-66.5154
11
100.753
21
-66.4542
0
LINE
8
BLACK
6
CONTINUOUS
10
100.753
20
-66.4542
11
100.447
21
-66.2779
0
LINE
8
BLACK
6
CONTINUOUS
10
100.447
20
-66.2779
11
100.221
21
-66.0077
0
LINE
8
BLACK
6
CONTINUOUS
10
100.221
20
-66.0077
11
100.1
21
-65.6763
0
LINE
8
BLACK
6
CONTINUOUS
10
100.1
20
-65.6763
11
100.1
21
-65.3237
0
LINE
8
BLACK
6
CONTINUOUS
10
100.1
20
-65.3237
11
100.221
21
-64.9923
0
LINE
8
BLACK
6
CONTINUOUS
10
100.221
20
-64.9923
11
100.447
21
-64.7221
0
LINE
8
BLACK
6
CONTINUOUS
10
100.447
20
-64.7221
11
100.753
21
-64.5458
0
LINE
8
BLACK
6
CONTINUOUS
10
100.753
20
-64.5458
11
101.1
21
-64.4846
0
LINE
8
BLACK
6
CONTINUOUS
10
101.1
20
-64.4846
11
101.447
21
-64.5458
0
LINE
8
BLACK
6
CONTINUOUS
10
98.8778
20
-66.9366
11
99.1222
21
-67.0777
0
LINE
8
BLACK
6
CONTINUOUS
10
99.1222
20
-67.0777
11
99.3035
21
-67.2938
0
LINE
8
BLACK
6
CONTINUOUS
10
99.3035
20
-67.2938
11
99.3603
21
-67.45
0
LINE
8
BLACK
6
CONTINUOUS
10
99.3603
20
-67.45
11
99.55
21
-67.45
0
LINE
8
BLACK
6
CONTINUOUS
10
99.55
20
-67.45
11
99.55
21
-67.325
0
LINE
8
BLACK
6
CONTINUOUS
10
99.55
20
-67.325
11
100.75
21
-67.325
0
LINE
8
BLACK
6
CONTINUOUS
10
100.75
20
-67.325
11
100.75
21
-68.075
0
LINE
8
BLACK
6
CONTINUOUS
10
100.75
20
-68.075
11
99.55
21
-68.075
0
LINE
8
BLACK
6
CONTINUOUS
10
99.55
20
-68.075
11
99.55
21
-67.95
0
LINE
8
BLACK
6
CONTINUOUS
10
99.55
20
-67.95
11
99.3603
21
-67.95
0
LINE
8
BLACK
6
CONTINUOUS
10
99.3603
20
-67.95
11
99.3035
21
-68.1062
0
LINE
8
BLACK
6
CONTINUOUS
10
99.3035
20
-68.1062
11
99.1222
21
-68.3223
0
LINE
8
BLACK
6
CONTINUOUS
10
99.1222
20
-68.3223
11
98.8778
21
-68.4634
0
LINE
8
BLACK
6
CONTINUOUS
10
98.8778
20
-68.4634
11
98.6
21
-68.5123
0
LINE
8
BLACK
6
CONTINUOUS
10
98.6
20
-68.5123
11
98.3222
21
-68.4634
0
LINE
8
BLACK
6
CONTINUOUS
10
98.3222
20
-68.4634
11
98.0778
21
-68.3223
0
LINE
8
BLACK
6
CONTINUOUS
10
98.0778
20
-68.3223
11
97.8965
21
-68.1062
0
LINE
8
BLACK
6
CONTINUOUS
10
97.8965
20
-68.1062
11
97.8396
21
-67.95
0
LINE
8
BLACK
6
CONTINUOUS
10
97.8396
20
-67.95
11
96.7036
21
-67.95
0
LINE
8
BLACK
6
CONTINUOUS
10
96.7036
20
-67.95
11
95.3845
21
-69.2691
0
LINE
8
BLACK
6
CONTINUOUS
10
95.3845
20
-69.2691
11
95.3632
21
-69.2945
0
LINE
8
BLACK
6
CONTINUOUS
10
95.3632
20
-69.2945
11
95.3344
21
-69.311
0
LINE
8
BLACK
6
CONTINUOUS
10
95.3344
20
-69.311
11
95.3073
21
-69.3301
0
LINE
8
BLACK
6
CONTINUOUS
10
95.3073
20
-69.3301
11
95.2965
21
-69.333
0
LINE
8
BLACK
6
CONTINUOUS
10
95.2965
20
-69.333
11
95.2868
21
-69.3385
0
LINE
8
BLACK
6
CONTINUOUS
10
95.2868
20
-69.3385
11
95.2542
21
-69.3443
0
LINE
8
BLACK
6
CONTINUOUS
10
95.2542
20
-69.3443
11
95.2221
21
-69.3529
0
LINE
8
BLACK
6
CONTINUOUS
10
95.2221
20
-69.3529
11
95.1891
21
-69.35
0
LINE
8
BLACK
6
CONTINUOUS
10
95.1891
20
-69.35
11
94.6732
21
-69.35
0
LINE
8
BLACK
6
CONTINUOUS
10
94.6732
20
-69.35
11
94.5794
21
-69.6077
0
LINE
8
BLACK
6
CONTINUOUS
10
94.5794
20
-69.6077
11
94.3527
21
-69.8779
0
LINE
8
BLACK
6
CONTINUOUS
10
94.3527
20
-69.8779
11
94.0473
21
-70.0542
0
LINE
8
BLACK
6
CONTINUOUS
10
94.0473
20
-70.0542
11
93.7
21
-70.1154
0
LINE
8
BLACK
6
CONTINUOUS
10
93.7
20
-70.1154
11
93.3527
21
-70.0542
0
LINE
8
BLACK
6
CONTINUOUS
10
93.3527
20
-70.0542
11
93.0473
21
-69.8779
0
LINE
8
BLACK
6
CONTINUOUS
10
93.0473
20
-69.8779
11
92.8206
21
-69.6077
0
LINE
8
BLACK
6
CONTINUOUS
10
92.8206
20
-69.6077
11
92.7
21
-69.2763
0
LINE
8
BLACK
6
CONTINUOUS
10
92.7
20
-69.2763
11
92.7
21
-68.9237
0
LINE
8
BLACK
6
CONTINUOUS
10
92.7
20
-68.9237
11
92.8206
21
-68.5923
0
LINE
8
BLACK
6
CONTINUOUS
10
92.8206
20
-68.5923
11
93.0473
21
-68.3221
0
LINE
8
BLACK
6
CONTINUOUS
10
93.0473
20
-68.3221
11
93.3527
21
-68.1458
0
LINE
8
BLACK
6
CONTINUOUS
10
93.3527
20
-68.1458
11
93.7
21
-68.0846
0
LINE
8
BLACK
6
CONTINUOUS
10
93.7
20
-68.0846
11
94.0473
21
-68.1458
0
LINE
8
BLACK
6
CONTINUOUS
10
94.0473
20
-68.1458
11
94.3527
21
-68.3221
0
LINE
8
BLACK
6
CONTINUOUS
10
94.3527
20
-68.3221
11
94.5794
21
-68.5923
0
LINE
8
BLACK
6
CONTINUOUS
10
94.5794
20
-68.5923
11
94.6732
21
-68.85
0
LINE
8
BLACK
6
CONTINUOUS
10
94.6732
20
-68.85
11
95.0964
21
-68.85
0
LINE
8
BLACK
6
CONTINUOUS
10
95.0964
20
-68.85
11
96.4155
21
-67.5309
0
LINE
8
BLACK
6
CONTINUOUS
10
96.4155
20
-67.5309
11
96.4368
21
-67.5055
0
LINE
8
BLACK
6
CONTINUOUS
10
96.4368
20
-67.5055
11
96.4655
21
-67.489
0
LINE
8
BLACK
6
CONTINUOUS
10
96.4655
20
-67.489
11
96.4927
21
-67.4699
0
LINE
8
BLACK
6
CONTINUOUS
10
96.4927
20
-67.4699
11
96.5035
21
-67.467
0
LINE
8
BLACK
6
CONTINUOUS
10
96.5035
20
-67.467
11
96.5132
21
-67.4615
0
LINE
8
BLACK
6
CONTINUOUS
10
96.5132
20
-67.4615
11
96.5458
21
-67.4557
0
LINE
8
BLACK
6
CONTINUOUS
10
96.5458
20
-67.4557
11
96.5779
21
-67.4471
0
LINE
8
BLACK
6
CONTINUOUS
10
96.5779
20
-67.4471
11
96.6109
21
-67.45
0
LINE
8
BLACK
6
CONTINUOUS
10
96.6109
20
-67.45
11
97.8396
21
-67.45
0
LINE
8
BLACK
6
CONTINUOUS
10
97.8396
20
-67.45
11
97.8965
21
-67.2938
0
LINE
8
BLACK
6
CONTINUOUS
10
97.8965
20
-67.2938
11
98.0778
21
-67.0777
0
LINE
8
BLACK
6
CONTINUOUS
10
98.0778
20
-67.0777
11
98.3222
21
-66.9366
0
LINE
8
BLACK
6
CONTINUOUS
10
98.3222
20
-66.9366
11
98.6
21
-66.8877
0
LINE
8
BLACK
6
CONTINUOUS
10
98.6
20
-66.8877
11
98.8778
21
-66.9366
0
LINE
8
BLACK
6
CONTINUOUS
10
136.947
20
-66.5458
11
137.253
21
-66.7221
0
LINE
8
BLACK
6
CONTINUOUS
10
137.253
20
-66.7221
11
137.479
21
-66.9923
0
LINE
8
BLACK
6
CONTINUOUS
10
137.479
20
-66.9923
11
137.6
21
-67.3237
0
LINE
8
BLACK
6
CONTINUOUS
10
137.6
20
-67.3237
11
137.6
21
-67.6763
0
LINE
8
BLACK
6
CONTINUOUS
10
137.6
20
-67.6763
11
137.479
21
-68.0077
0
LINE
8
BLACK
6
CONTINUOUS
10
137.479
20
-68.0077
11
137.253
21
-68.2779
0
LINE
8
BLACK
6
CONTINUOUS
10
137.253
20
-68.2779
11
136.947
21
-68.4542
0
LINE
8
BLACK
6
CONTINUOUS
10
136.947
20
-68.4542
11
136.6
21
-68.5154
0
LINE
8
BLACK
6
CONTINUOUS
10
136.6
20
-68.5154
11
136.253
21
-68.4542
0
LINE
8
BLACK
6
CONTINUOUS
10
136.253
20
-68.4542
11
135.947
21
-68.2779
0
LINE
8
BLACK
6
CONTINUOUS
10
135.947
20
-68.2779
11
135.721
21
-68.0077
0
LINE
8
BLACK
6
CONTINUOUS
10
135.721
20
-68.0077
11
135.627
21
-67.75
0
LINE
8
BLACK
6
CONTINUOUS
10
135.627
20
-67.75
11
130.004
21
-67.75
0
LINE
8
BLACK
6
CONTINUOUS
10
130.004
20
-67.75
11
128.829
21
-68.9241
0
LINE
8
BLACK
6
CONTINUOUS
10
128.829
20
-68.9241
11
128.808
21
-68.9495
0
LINE
8
BLACK
6
CONTINUOUS
10
128.808
20
-68.9495
11
128.779
21
-68.966
0
LINE
8
BLACK
6
CONTINUOUS
10
128.779
20
-68.966
11
128.752
21
-68.9851
0
LINE
8
BLACK
6
CONTINUOUS
10
128.752
20
-68.9851
11
128.741
21
-68.988
0
LINE
8
BLACK
6
CONTINUOUS
10
128.741
20
-68.988
11
128.732
21
-68.9935
0
LINE
8
BLACK
6
CONTINUOUS
10
128.732
20
-68.9935
11
128.699
21
-68.9993
0
LINE
8
BLACK
6
CONTINUOUS
10
128.699
20
-68.9993
11
128.667
21
-69.0079
0
LINE
8
BLACK
6
CONTINUOUS
10
128.667
20
-69.0079
11
128.634
21
-69.005
0
LINE
8
BLACK
6
CONTINUOUS
10
128.634
20
-69.005
11
126.8
21
-69.005
0
LINE
8
BLACK
6
CONTINUOUS
10
126.8
20
-69.005
11
126.8
21
-69.055
0
LINE
8
BLACK
6
CONTINUOUS
10
126.8
20
-69.055
11
124.8
21
-69.055
0
LINE
8
BLACK
6
CONTINUOUS
10
124.8
20
-69.055
11
124.8
21
-68.455
0
LINE
8
BLACK
6
CONTINUOUS
10
124.8
20
-68.455
11
126.8
21
-68.455
0
LINE
8
BLACK
6
CONTINUOUS
10
126.8
20
-68.455
11
126.8
21
-68.505
0
LINE
8
BLACK
6
CONTINUOUS
10
126.8
20
-68.505
11
128.541
21
-68.505
0
LINE
8
BLACK
6
CONTINUOUS
10
128.541
20
-68.505
11
129.716
21
-67.3309
0
LINE
8
BLACK
6
CONTINUOUS
10
129.716
20
-67.3309
11
129.737
21
-67.3055
0
LINE
8
BLACK
6
CONTINUOUS
10
129.737
20
-67.3055
11
129.766
21
-67.289
0
LINE
8
BLACK
6
CONTINUOUS
10
129.766
20
-67.289
11
129.793
21
-67.2699
0
LINE
8
BLACK
6
CONTINUOUS
10
129.793
20
-67.2699
11
129.804
21
-67.267
0
LINE
8
BLACK
6
CONTINUOUS
10
129.804
20
-67.267
11
129.813
21
-67.2615
0
LINE
8
BLACK
6
CONTINUOUS
10
129.813
20
-67.2615
11
129.846
21
-67.2557
0
LINE
8
BLACK
6
CONTINUOUS
10
129.846
20
-67.2557
11
129.878
21
-67.2471
0
LINE
8
BLACK
6
CONTINUOUS
10
129.878
20
-67.2471
11
129.911
21
-67.25
0
LINE
8
BLACK
6
CONTINUOUS
10
129.911
20
-67.25
11
135.627
21
-67.25
0
LINE
8
BLACK
6
CONTINUOUS
10
135.627
20
-67.25
11
135.721
21
-66.9923
0
LINE
8
BLACK
6
CONTINUOUS
10
135.721
20
-66.9923
11
135.947
21
-66.7221
0
LINE
8
BLACK
6
CONTINUOUS
10
135.947
20
-66.7221
11
136.253
21
-66.5458
0
LINE
8
BLACK
6
CONTINUOUS
10
136.253
20
-66.5458
11
136.6
21
-66.4846
0
LINE
8
BLACK
6
CONTINUOUS
10
136.6
20
-66.4846
11
136.947
21
-66.5458
0
LINE
8
BLACK
6
CONTINUOUS
10
110.55
20
-65.15
11
111.189
21
-65.15
0
LINE
8
BLACK
6
CONTINUOUS
10
111.189
20
-65.15
11
111.222
21
-65.1471
0
LINE
8
BLACK
6
CONTINUOUS
10
111.222
20
-65.1471
11
111.254
21
-65.1557
0
LINE
8
BLACK
6
CONTINUOUS
10
111.254
20
-65.1557
11
111.287
21
-65.1615
0
LINE
8
BLACK
6
CONTINUOUS
10
111.287
20
-65.1615
11
111.296
21
-65.167
0
LINE
8
BLACK
6
CONTINUOUS
10
111.296
20
-65.167
11
111.307
21
-65.1699
0
LINE
8
BLACK
6
CONTINUOUS
10
111.307
20
-65.1699
11
111.334
21
-65.1889
0
LINE
8
BLACK
6
CONTINUOUS
10
111.334
20
-65.1889
11
111.363
21
-65.2055
0
LINE
8
BLACK
6
CONTINUOUS
10
111.363
20
-65.2055
11
111.384
21
-65.2309
0
LINE
8
BLACK
6
CONTINUOUS
10
111.384
20
-65.2309
11
114.659
21
-68.505
0
LINE
8
BLACK
6
CONTINUOUS
10
114.659
20
-68.505
11
115.4
21
-68.505
0
LINE
8
BLACK
6
CONTINUOUS
10
115.4
20
-68.505
11
115.4
21
-68.455
0
LINE
8
BLACK
6
CONTINUOUS
10
115.4
20
-68.455
11
117.4
21
-68.455
0
LINE
8
BLACK
6
CONTINUOUS
10
117.4
20
-68.455
11
117.4
21
-69.055
0
LINE
8
BLACK
6
CONTINUOUS
10
117.4
20
-69.055
11
115.4
21
-69.055
0
LINE
8
BLACK
6
CONTINUOUS
10
115.4
20
-69.055
11
115.4
21
-69.005
0
LINE
8
BLACK
6
CONTINUOUS
10
115.4
20
-69.005
11
114.566
21
-69.005
0
LINE
8
BLACK
6
CONTINUOUS
10
114.566
20
-69.005
11
114.533
21
-69.0079
0
LINE
8
BLACK
6
CONTINUOUS
10
114.533
20
-69.0079
11
114.501
21
-68.9993
0
LINE
8
BLACK
6
CONTINUOUS
10
114.501
20
-68.9993
11
114.468
21
-68.9935
0
LINE
8
BLACK
6
CONTINUOUS
10
114.468
20
-68.9935
11
114.459
21
-68.988
0
LINE
8
BLACK
6
CONTINUOUS
10
114.459
20
-68.988
11
114.448
21
-68.9851
0
LINE
8
BLACK
6
CONTINUOUS
10
114.448
20
-68.9851
11
114.421
21
-68.966
0
LINE
8
BLACK
6
CONTINUOUS
10
114.421
20
-68.966
11
114.392
21
-68.9495
0
LINE
8
BLACK
6
CONTINUOUS
10
114.392
20
-68.9495
11
114.371
21
-68.9241
0
LINE
8
BLACK
6
CONTINUOUS
10
114.371
20
-68.9241
11
111.096
21
-65.65
0
LINE
8
BLACK
6
CONTINUOUS
10
111.096
20
-65.65
11
110.55
21
-65.65
0
LINE
8
BLACK
6
CONTINUOUS
10
110.55
20
-65.65
11
110.55
21
-65.85
0
LINE
8
BLACK
6
CONTINUOUS
10
110.55
20
-65.85
11
110.05
21
-65.85
0
LINE
8
BLACK
6
CONTINUOUS
10
110.05
20
-65.85
11
110.05
21
-64.95
0
LINE
8
BLACK
6
CONTINUOUS
10
110.05
20
-64.95
11
110.55
21
-64.95
0
LINE
8
BLACK
6
CONTINUOUS
10
110.55
20
-64.95
11
110.55
21
-65.15
0
LINE
8
BLACK
6
CONTINUOUS
10
107.047
20
-66.5458
11
107.353
21
-66.7221
0
LINE
8
BLACK
6
CONTINUOUS
10
107.353
20
-66.7221
11
107.579
21
-66.9923
0
LINE
8
BLACK
6
CONTINUOUS
10
107.579
20
-66.9923
11
107.673
21
-67.25
0
LINE
8
BLACK
6
CONTINUOUS
10
107.673
20
-67.25
11
108.55
21
-67.25
0
LINE
8
BLACK
6
CONTINUOUS
10
108.55
20
-67.25
11
108.55
21
-67.05
0
LINE
8
BLACK
6
CONTINUOUS
10
108.55
20
-67.05
11
109.05
21
-67.05
0
LINE
8
BLACK
6
CONTINUOUS
10
109.05
20
-67.05
11
109.05
21
-67.95
0
LINE
8
BLACK
6
CONTINUOUS
10
109.05
20
-67.95
11
108.55
21
-67.95
0
LINE
8
BLACK
6
CONTINUOUS
10
108.55
20
-67.95
11
108.55
21
-67.75
0
LINE
8
BLACK
6
CONTINUOUS
10
108.55
20
-67.75
11
107.673
21
-67.75
0
LINE
8
BLACK
6
CONTINUOUS
10
107.673
20
-67.75
11
107.579
21
-68.0077
0
LINE
8
BLACK
6
CONTINUOUS
10
107.579
20
-68.0077
11
107.353
21
-68.2779
0
LINE
8
BLACK
6
CONTINUOUS
10
107.353
20
-68.2779
11
107.047
21
-68.4542
0
LINE
8
BLACK
6
CONTINUOUS
10
107.047
20
-68.4542
11
106.7
21
-68.5154
0
LINE
8
BLACK
6
CONTINUOUS
10
106.7
20
-68.5154
11
106.353
21
-68.4542
0
LINE
8
BLACK
6
CONTINUOUS
10
106.353
20
-68.4542
11
106.047
21
-68.2779
0
LINE
8
BLACK
6
CONTINUOUS
10
106.047
20
-68.2779
11
105.821
21
-68.0077
0
LINE
8
BLACK
6
CONTINUOUS
10
105.821
20
-68.0077
11
105.7
21
-67.6763
0
LINE
8
BLACK
6
CONTINUOUS
10
105.7
20
-67.6763
11
105.7
21
-67.3237
0
LINE
8
BLACK
6
CONTINUOUS
10
105.7
20
-67.3237
11
105.821
21
-66.9923
0
LINE
8
BLACK
6
CONTINUOUS
10
105.821
20
-66.9923
11
106.047
21
-66.7221
0
LINE
8
BLACK
6
CONTINUOUS
10
106.047
20
-66.7221
11
106.353
21
-66.5458
0
LINE
8
BLACK
6
CONTINUOUS
10
106.353
20
-66.5458
11
106.7
21
-66.4846
0
LINE
8
BLACK
6
CONTINUOUS
10
106.7
20
-66.4846
11
107.047
21
-66.5458
0
LINE
8
BLACK
6
CONTINUOUS
10
141.647
20
-64.0458
11
141.953
21
-64.2221
0
LINE
8
BLACK
6
CONTINUOUS
10
141.953
20
-64.2221
11
142.179
21
-64.4923
0
LINE
8
BLACK
6
CONTINUOUS
10
142.179
20
-64.4923
11
142.3
21
-64.8237
0
LINE
8
BLACK
6
CONTINUOUS
10
142.3
20
-64.8237
11
142.3
21
-65.1763
0
LINE
8
BLACK
6
CONTINUOUS
10
142.3
20
-65.1763
11
142.179
21
-65.5077
0
LINE
8
BLACK
6
CONTINUOUS
10
142.179
20
-65.5077
11
141.953
21
-65.7779
0
LINE
8
BLACK
6
CONTINUOUS
10
141.953
20
-65.7779
11
141.647
21
-65.9542
0
LINE
8
BLACK
6
CONTINUOUS
10
141.647
20
-65.9542
11
141.3
21
-66.0154
0
LINE
8
BLACK
6
CONTINUOUS
10
141.3
20
-66.0154
11
140.953
21
-65.9542
0
LINE
8
BLACK
6
CONTINUOUS
10
140.953
20
-65.9542
11
140.647
21
-65.7779
0
LINE
8
BLACK
6
CONTINUOUS
10
140.647
20
-65.7779
11
140.421
21
-65.5077
0
LINE
8
BLACK
6
CONTINUOUS
10
140.421
20
-65.5077
11
140.327
21
-65.25
0
LINE
8
BLACK
6
CONTINUOUS
10
140.327
20
-65.25
11
130.804
21
-65.25
0
LINE
8
BLACK
6
CONTINUOUS
10
130.804
20
-65.25
11
128.399
21
-67.6541
0
LINE
8
BLACK
6
CONTINUOUS
10
128.399
20
-67.6541
11
128.378
21
-67.6795
0
LINE
8
BLACK
6
CONTINUOUS
10
128.378
20
-67.6795
11
128.349
21
-67.696
0
LINE
8
BLACK
6
CONTINUOUS
10
128.349
20
-67.696
11
128.322
21
-67.7151
0
LINE
8
BLACK
6
CONTINUOUS
10
128.322
20
-67.7151
11
128.311
21
-67.718
0
LINE
8
BLACK
6
CONTINUOUS
10
128.311
20
-67.718
11
128.302
21
-67.7235
0
LINE
8
BLACK
6
CONTINUOUS
10
128.302
20
-67.7235
11
128.269
21
-67.7293
0
LINE
8
BLACK
6
CONTINUOUS
10
128.269
20
-67.7293
11
128.237
21
-67.7379
0
LINE
8
BLACK
6
CONTINUOUS
10
128.237
20
-67.7379
11
128.204
21
-67.735
0
LINE
8
BLACK
6
CONTINUOUS
10
128.204
20
-67.735
11
126.8
21
-67.735
0
LINE
8
BLACK
6
CONTINUOUS
10
126.8
20
-67.735
11
126.8
21
-67.785
0
LINE
8
BLACK
6
CONTINUOUS
10
126.8
20
-67.785
11
124.8
21
-67.785
0
LINE
8
BLACK
6
CONTINUOUS
10
124.8
20
-67.785
11
124.8
21
-67.185
0
LINE
8
BLACK
6
CONTINUOUS
10
124.8
20
-67.185
11
126.8
21
-67.185
0
LINE
8
BLACK
6
CONTINUOUS
10
126.8
20
-67.185
11
126.8
21
-67.235
0
LINE
8
BLACK
6
CONTINUOUS
10
126.8
20
-67.235
11
128.111
21
-67.235
0
LINE
8
BLACK
6
CONTINUOUS
10
128.111
20
-67.235
11
130.516
21
-64.8309
0
LINE
8
BLACK
6
CONTINUOUS
10
130.516
20
-64.8309
11
130.537
21
-64.8055
0
LINE
8
BLACK
6
CONTINUOUS
10
130.537
20
-64.8055
11
130.566
21
-64.789
0
LINE
8
BLACK
6
CONTINUOUS
10
130.566
20
-64.789
11
130.593
21
-64.7699
0
LINE
8
BLACK
6
CONTINUOUS
10
130.593
20
-64.7699
11
130.604
21
-64.767
0
LINE
8
BLACK
6
CONTINUOUS
10
130.604
20
-64.767
11
130.613
21
-64.7615
0
LINE
8
BLACK
6
CONTINUOUS
10
130.613
20
-64.7615
11
130.646
21
-64.7557
0
LINE
8
BLACK
6
CONTINUOUS
10
130.646
20
-64.7557
11
130.678
21
-64.7471
0
LINE
8
BLACK
6
CONTINUOUS
10
130.678
20
-64.7471
11
130.711
21
-64.75
0
LINE
8
BLACK
6
CONTINUOUS
10
130.711
20
-64.75
11
140.327
21
-64.75
0
LINE
8
BLACK
6
CONTINUOUS
10
140.327
20
-64.75
11
140.421
21
-64.4923
0
LINE
8
BLACK
6
CONTINUOUS
10
140.421
20
-64.4923
11
140.647
21
-64.2221
0
LINE
8
BLACK
6
CONTINUOUS
10
140.647
20
-64.2221
11
140.953
21
-64.0458
0
LINE
8
BLACK
6
CONTINUOUS
10
140.953
20
-64.0458
11
141.3
21
-63.9846
0
LINE
8
BLACK
6
CONTINUOUS
10
141.3
20
-63.9846
11
141.647
21
-64.0458
0
LINE
8
BLACK
6
CONTINUOUS
10
110.55
20
-62.95
11
110.789
21
-62.95
0
LINE
8
BLACK
6
CONTINUOUS
10
110.789
20
-62.95
11
110.822
21
-62.9471
0
LINE
8
BLACK
6
CONTINUOUS
10
110.822
20
-62.9471
11
110.854
21
-62.9557
0
LINE
8
BLACK
6
CONTINUOUS
10
110.854
20
-62.9557
11
110.887
21
-62.9615
0
LINE
8
BLACK
6
CONTINUOUS
10
110.887
20
-62.9615
11
110.896
21
-62.967
0
LINE
8
BLACK
6
CONTINUOUS
10
110.896
20
-62.967
11
110.907
21
-62.9699
0
LINE
8
BLACK
6
CONTINUOUS
10
110.907
20
-62.9699
11
110.934
21
-62.9889
0
LINE
8
BLACK
6
CONTINUOUS
10
110.934
20
-62.9889
11
110.963
21
-63.0055
0
LINE
8
BLACK
6
CONTINUOUS
10
110.963
20
-63.0055
11
110.984
21
-63.0309
0
LINE
8
BLACK
6
CONTINUOUS
10
110.984
20
-63.0309
11
115.189
21
-67.235
0
LINE
8
BLACK
6
CONTINUOUS
10
115.189
20
-67.235
11
115.4
21
-67.235
0
LINE
8
BLACK
6
CONTINUOUS
10
115.4
20
-67.235
11
115.4
21
-67.185
0
LINE
8
BLACK
6
CONTINUOUS
10
115.4
20
-67.185
11
117.4
21
-67.185
0
LINE
8
BLACK
6
CONTINUOUS
10
117.4
20
-67.185
11
117.4
21
-67.785
0
LINE
8
BLACK
6
CONTINUOUS
10
117.4
20
-67.785
11
115.4
21
-67.785
0
LINE
8
BLACK
6
CONTINUOUS
10
115.4
20
-67.785
11
115.4
21
-67.735
0
LINE
8
BLACK
6
CONTINUOUS
10
115.4
20
-67.735
11
115.096
21
-67.735
0
LINE
8
BLACK
6
CONTINUOUS
10
115.096
20
-67.735
11
115.063
21
-67.7379
0
LINE
8
BLACK
6
CONTINUOUS
10
115.063
20
-67.7379
11
115.031
21
-67.7293
0
LINE
8
BLACK
6
CONTINUOUS
10
115.031
20
-67.7293
11
114.998
21
-67.7235
0
LINE
8
BLACK
6
CONTINUOUS
10
114.998
20
-67.7235
11
114.989
21
-67.718
0
LINE
8
BLACK
6
CONTINUOUS
10
114.989
20
-67.718
11
114.978
21
-67.7151
0
LINE
8
BLACK
6
CONTINUOUS
10
114.978
20
-67.7151
11
114.951
21
-67.696
0
LINE
8
BLACK
6
CONTINUOUS
10
114.951
20
-67.696
11
114.922
21
-67.6795
0
LINE
8
BLACK
6
CONTINUOUS
10
114.922
20
-67.6795
11
114.901
21
-67.6541
0
LINE
8
BLACK
6
CONTINUOUS
10
114.901
20
-67.6541
11
110.696
21
-63.45
0
LINE
8
BLACK
6
CONTINUOUS
10
110.696
20
-63.45
11
110.55
21
-63.45
0
LINE
8
BLACK
6
CONTINUOUS
10
110.55
20
-63.45
11
110.55
21
-63.65
0
LINE
8
BLACK
6
CONTINUOUS
10
110.55
20
-63.65
11
110.05
21
-63.65
0
LINE
8
BLACK
6
CONTINUOUS
10
110.05
20
-63.65
11
110.05
21
-62.75
0
LINE
8
BLACK
6
CONTINUOUS
10
110.05
20
-62.75
11
110.55
21
-62.75
0
LINE
8
BLACK
6
CONTINUOUS
10
110.55
20
-62.75
11
110.55
21
-62.95
0
LINE
8
BLACK
6
CONTINUOUS
10
141.647
20
-55.0058
11
141.953
21
-55.1821
0
LINE
8
BLACK
6
CONTINUOUS
10
141.953
20
-55.1821
11
142.179
21
-55.4523
0
LINE
8
BLACK
6
CONTINUOUS
10
142.179
20
-55.4523
11
142.3
21
-55.7837
0
LINE
8
BLACK
6
CONTINUOUS
10
142.3
20
-55.7837
11
142.3
21
-56.1363
0
LINE
8
BLACK
6
CONTINUOUS
10
142.3
20
-56.1363
11
142.179
21
-56.4677
0
LINE
8
BLACK
6
CONTINUOUS
10
142.179
20
-56.4677
11
141.953
21
-56.7379
0
LINE
8
BLACK
6
CONTINUOUS
10
141.953
20
-56.7379
11
141.647
21
-56.9142
0
LINE
8
BLACK
6
CONTINUOUS
10
141.647
20
-56.9142
11
141.3
21
-56.9754
0
LINE
8
BLACK
6
CONTINUOUS
10
141.3
20
-56.9754
11
140.953
21
-56.9142
0
LINE
8
BLACK
6
CONTINUOUS
10
140.953
20
-56.9142
11
140.647
21
-56.7379
0
LINE
8
BLACK
6
CONTINUOUS
10
140.647
20
-56.7379
11
140.421
21
-56.4677
0
LINE
8
BLACK
6
CONTINUOUS
10
140.421
20
-56.4677
11
140.327
21
-56.21
0
LINE
8
BLACK
6
CONTINUOUS
10
140.327
20
-56.21
11
137.944
21
-56.21
0
LINE
8
BLACK
6
CONTINUOUS
10
137.944
20
-56.21
11
127.769
21
-66.3841
0
LINE
8
BLACK
6
CONTINUOUS
10
127.769
20
-66.3841
11
127.748
21
-66.4095
0
LINE
8
BLACK
6
CONTINUOUS
10
127.748
20
-66.4095
11
127.719
21
-66.4261
0
LINE
8
BLACK
6
CONTINUOUS
10
127.719
20
-66.4261
11
127.692
21
-66.4451
0
LINE
8
BLACK
6
CONTINUOUS
10
127.692
20
-66.4451
11
127.681
21
-66.448
0
LINE
8
BLACK
6
CONTINUOUS
10
127.681
20
-66.448
11
127.672
21
-66.4535
0
LINE
8
BLACK
6
CONTINUOUS
10
127.672
20
-66.4535
11
127.639
21
-66.4593
0
LINE
8
BLACK
6
CONTINUOUS
10
127.639
20
-66.4593
11
127.607
21
-66.4679
0
LINE
8
BLACK
6
CONTINUOUS
10
127.607
20
-66.4679
11
127.574
21
-66.465
0
LINE
8
BLACK
6
CONTINUOUS
10
127.574
20
-66.465
11
126.8
21
-66.465
0
LINE
8
BLACK
6
CONTINUOUS
10
126.8
20
-66.465
11
126.8
21
-66.515
0
LINE
8
BLACK
6
CONTINUOUS
10
126.8
20
-66.515
11
124.8
21
-66.515
0
LINE
8
BLACK
6
CONTINUOUS
10
124.8
20
-66.515
11
124.8
21
-65.915
0
LINE
8
BLACK
6
CONTINUOUS
10
124.8
20
-65.915
11
126.8
21
-65.915
0
LINE
8
BLACK
6
CONTINUOUS
10
126.8
20
-65.915
11
126.8
21
-65.965
0
LINE
8
BLACK
6
CONTINUOUS
10
126.8
20
-65.965
11
127.481
21
-65.965
0
LINE
8
BLACK
6
CONTINUOUS
10
127.481
20
-65.965
11
137.656
21
-55.7909
0
LINE
8
BLACK
6
CONTINUOUS
10
137.656
20
-55.7909
11
137.677
21
-55.7655
0
LINE
8
BLACK
6
CONTINUOUS
10
137.677
20
-55.7655
11
137.706
21
-55.749
0
LINE
8
BLACK
6
CONTINUOUS
10
137.706
20
-55.749
11
137.733
21
-55.7299
0
LINE
8
BLACK
6
CONTINUOUS
10
137.733
20
-55.7299
11
137.744
21
-55.727
0
LINE
8
BLACK
6
CONTINUOUS
10
137.744
20
-55.727
11
137.753
21
-55.7215
0
LINE
8
BLACK
6
CONTINUOUS
10
137.753
20
-55.7215
11
137.786
21
-55.7157
0
LINE
8
BLACK
6
CONTINUOUS
10
137.786
20
-55.7157
11
137.818
21
-55.7071
0
LINE
8
BLACK
6
CONTINUOUS
10
137.818
20
-55.7071
11
137.851
21
-55.71
0
LINE
8
BLACK
6
CONTINUOUS
10
137.851
20
-55.71
11
140.327
21
-55.71
0
LINE
8
BLACK
6
CONTINUOUS
10
140.327
20
-55.71
11
140.421
21
-55.4523
0
LINE
8
BLACK
6
CONTINUOUS
10
140.421
20
-55.4523
11
140.647
21
-55.1821
0
LINE
8
BLACK
6
CONTINUOUS
10
140.647
20
-55.1821
11
140.953
21
-55.0058
0
LINE
8
BLACK
6
CONTINUOUS
10
140.953
20
-55.0058
11
141.3
21
-54.9446
0
LINE
8
BLACK
6
CONTINUOUS
10
141.3
20
-54.9446
11
141.647
21
-55.0058
0
LINE
8
BLACK
6
CONTINUOUS
10
110.6
20
-61.1464
11
115.4
21
-65.9464
0
LINE
8
BLACK
6
CONTINUOUS
10
115.4
20
-65.9464
11
115.4
21
-65.915
0
LINE
8
BLACK
6
CONTINUOUS
10
115.4
20
-65.915
11
117.4
21
-65.915
0
LINE
8
BLACK
6
CONTINUOUS
10
117.4
20
-65.915
11
117.4
21
-66.515
0
LINE
8
BLACK
6
CONTINUOUS
10
117.4
20
-66.515
11
115.4
21
-66.515
0
LINE
8
BLACK
6
CONTINUOUS
10
115.4
20
-66.515
11
115.4
21
-66.465
0
LINE
8
BLACK
6
CONTINUOUS
10
115.4
20
-66.465
11
115.326
21
-66.465
0
LINE
8
BLACK
6
CONTINUOUS
10
115.326
20
-66.465
11
115.293
21
-66.4679
0
LINE
8
BLACK
6
CONTINUOUS
10
115.293
20
-66.4679
11
115.261
21
-66.4593
0
LINE
8
BLACK
6
CONTINUOUS
10
115.261
20
-66.4593
11
115.228
21
-66.4535
0
LINE
8
BLACK
6
CONTINUOUS
10
115.228
20
-66.4535
11
115.219
21
-66.448
0
LINE
8
BLACK
6
CONTINUOUS
10
115.219
20
-66.448
11
115.208
21
-66.4451
0
LINE
8
BLACK
6
CONTINUOUS
10
115.208
20
-66.4451
11
115.181
21
-66.426
0
LINE
8
BLACK
6
CONTINUOUS
10
115.181
20
-66.426
11
115.152
21
-66.4095
0
LINE
8
BLACK
6
CONTINUOUS
10
115.152
20
-66.4095
11
115.131
21
-66.3841
0
LINE
8
BLACK
6
CONTINUOUS
10
115.131
20
-66.3841
11
110.196
21
-61.45
0
LINE
8
BLACK
6
CONTINUOUS
10
110.196
20
-61.45
11
110.1
21
-61.45
0
LINE
8
BLACK
6
CONTINUOUS
10
110.1
20
-61.45
11
110.1
21
-61.2829
0
LINE
8
BLACK
6
CONTINUOUS
10
110.1
20
-61.2829
11
110.097
21
-61.2721
0
LINE
8
BLACK
6
CONTINUOUS
10
110.097
20
-61.2721
11
110.1
21
-61.2391
0
LINE
8
BLACK
6
CONTINUOUS
10
110.1
20
-61.2391
11
110.1
21
-60.55
0
LINE
8
BLACK
6
CONTINUOUS
10
110.1
20
-60.55
11
110.6
21
-60.55
0
LINE
8
BLACK
6
CONTINUOUS
10
110.6
20
-60.55
11
110.6
21
-61.1464
0
LINE
8
BLACK
6
CONTINUOUS
10
94.0473
20
-63.8858
11
94.3527
21
-64.0621
0
LINE
8
BLACK
6
CONTINUOUS
10
94.3527
20
-64.0621
11
94.5794
21
-64.3323
0
LINE
8
BLACK
6
CONTINUOUS
10
94.5794
20
-64.3323
11
94.7
21
-64.6637
0
LINE
8
BLACK
6
CONTINUOUS
10
94.7
20
-64.6637
11
94.7
21
-65.0163
0
LINE
8
BLACK
6
CONTINUOUS
10
94.7
20
-65.0163
11
94.5794
21
-65.3477
0
LINE
8
BLACK
6
CONTINUOUS
10
94.5794
20
-65.3477
11
94.3527
21
-65.6179
0
LINE
8
BLACK
6
CONTINUOUS
10
94.3527
20
-65.6179
11
94.0473
21
-65.7942
0
LINE
8
BLACK
6
CONTINUOUS
10
94.0473
20
-65.7942
11
93.7
21
-65.8554
0
LINE
8
BLACK
6
CONTINUOUS
10
93.7
20
-65.8554
11
93.3527
21
-65.7942
0
LINE
8
BLACK
6
CONTINUOUS
10
93.3527
20
-65.7942
11
93.0473
21
-65.6179
0
LINE
8
BLACK
6
CONTINUOUS
10
93.0473
20
-65.6179
11
92.8206
21
-65.3477
0
LINE
8
BLACK
6
CONTINUOUS
10
92.8206
20
-65.3477
11
92.7
21
-65.0163
0
LINE
8
BLACK
6
CONTINUOUS
10
92.7
20
-65.0163
11
92.7
21
-64.6637
0
LINE
8
BLACK
6
CONTINUOUS
10
92.7
20
-64.6637
11
92.8206
21
-64.3323
0
LINE
8
BLACK
6
CONTINUOUS
10
92.8206
20
-64.3323
11
93.0473
21
-64.0621
0
LINE
8
BLACK
6
CONTINUOUS
10
93.0473
20
-64.0621
11
93.3527
21
-63.8858
0
LINE
8
BLACK
6
CONTINUOUS
10
93.3527
20
-63.8858
11
93.7
21
-63.8246
0
LINE
8
BLACK
6
CONTINUOUS
10
93.7
20
-63.8246
11
94.0473
21
-63.8858
0
LINE
8
BLACK
6
CONTINUOUS
10
108.55
20
-65.85
11
108.55
21
-64.95
0
LINE
8
BLACK
6
CONTINUOUS
10
108.55
20
-64.95
11
108.55
21
-64.95
0
LINE
8
BLACK
6
CONTINUOUS
10
108.55
20
-64.95
11
108.55
21
-63.45
0
LINE
8
BLACK
6
CONTINUOUS
10
108.55
20
-63.45
11
104.26
21
-63.45
0
LINE
8
BLACK
6
CONTINUOUS
10
104.26
20
-63.45
11
104.204
21
-63.6062
0
LINE
8
BLACK
6
CONTINUOUS
10
104.204
20
-63.6062
11
104.022
21
-63.8223
0
LINE
8
BLACK
6
CONTINUOUS
10
104.022
20
-63.8223
11
103.778
21
-63.9634
0
LINE
8
BLACK
6
CONTINUOUS
10
103.778
20
-63.9634
11
103.5
21
-64.0123
0
LINE
8
BLACK
6
CONTINUOUS
10
103.5
20
-64.0123
11
103.222
21
-63.9634
0
LINE
8
BLACK
6
CONTINUOUS
10
103.222
20
-63.9634
11
102.978
21
-63.8223
0
LINE
8
BLACK
6
CONTINUOUS
10
102.978
20
-63.8223
11
102.796
21
-63.6062
0
LINE
8
BLACK
6
CONTINUOUS
10
102.796
20
-63.6062
11
102.74
21
-63.45
0
LINE
8
BLACK
6
CONTINUOUS
10
102.74
20
-63.45
11
102.55
21
-63.45
0
LINE
8
BLACK
6
CONTINUOUS
10
102.55
20
-63.45
11
102.55
21
-63.575
0
LINE
8
BLACK
6
CONTINUOUS
10
102.55
20
-63.575
11
101.35
21
-63.575
0
LINE
8
BLACK
6
CONTINUOUS
10
101.35
20
-63.575
11
101.35
21
-62.825
0
LINE
8
BLACK
6
CONTINUOUS
10
101.35
20
-62.825
11
102.55
21
-62.825
0
LINE
8
BLACK
6
CONTINUOUS
10
102.55
20
-62.825
11
102.55
21
-62.95
0
LINE
8
BLACK
6
CONTINUOUS
10
102.55
20
-62.95
11
102.74
21
-62.95
0
LINE
8
BLACK
6
CONTINUOUS
10
102.74
20
-62.95
11
102.796
21
-62.7938
0
LINE
8
BLACK
6
CONTINUOUS
10
102.796
20
-62.7938
11
102.978
21
-62.5777
0
LINE
8
BLACK
6
CONTINUOUS
10
102.978
20
-62.5777
11
103.222
21
-62.4366
0
LINE
8
BLACK
6
CONTINUOUS
10
103.222
20
-62.4366
11
103.5
21
-62.3877
0
LINE
8
BLACK
6
CONTINUOUS
10
103.5
20
-62.3877
11
103.778
21
-62.4366
0
LINE
8
BLACK
6
CONTINUOUS
10
103.778
20
-62.4366
11
104.022
21
-62.5777
0
LINE
8
BLACK
6
CONTINUOUS
10
104.022
20
-62.5777
11
104.204
21
-62.7938
0
LINE
8
BLACK
6
CONTINUOUS
10
104.204
20
-62.7938
11
104.26
21
-62.95
0
LINE
8
BLACK
6
CONTINUOUS
10
104.26
20
-62.95
11
108.55
21
-62.95
0
LINE
8
BLACK
6
CONTINUOUS
10
108.55
20
-62.95
11
108.55
21
-62.75
0
LINE
8
BLACK
6
CONTINUOUS
10
108.55
20
-62.75
11
109.05
21
-62.75
0
LINE
8
BLACK
6
CONTINUOUS
10
109.05
20
-62.75
11
109.05
21
-65.85
0
LINE
8
BLACK
6
CONTINUOUS
10
109.05
20
-65.85
11
108.55
21
-65.85
0
LINE
8
BLACK
6
CONTINUOUS
10
110.6
20
-56.35
11
111.589
21
-56.35
0
LINE
8
BLACK
6
CONTINUOUS
10
111.589
20
-56.35
11
111.622
21
-56.3471
0
LINE
8
BLACK
6
CONTINUOUS
10
111.622
20
-56.3471
11
111.654
21
-56.3557
0
LINE
8
BLACK
6
CONTINUOUS
10
111.654
20
-56.3557
11
111.687
21
-56.3615
0
LINE
8
BLACK
6
CONTINUOUS
10
111.687
20
-56.3615
11
111.696
21
-56.367
0
LINE
8
BLACK
6
CONTINUOUS
10
111.696
20
-56.367
11
111.707
21
-56.3699
0
LINE
8
BLACK
6
CONTINUOUS
10
111.707
20
-56.3699
11
111.734
21
-56.3889
0
LINE
8
BLACK
6
CONTINUOUS
10
111.734
20
-56.3889
11
111.763
21
-56.4055
0
LINE
8
BLACK
6
CONTINUOUS
10
111.763
20
-56.4055
11
111.784
21
-56.4309
0
LINE
8
BLACK
6
CONTINUOUS
10
111.784
20
-56.4309
11
120.049
21
-64.695
0
LINE
8
BLACK
6
CONTINUOUS
10
120.049
20
-64.695
11
124.8
21
-64.695
0
LINE
8
BLACK
6
CONTINUOUS
10
124.8
20
-64.695
11
124.8
21
-64.645
0
LINE
8
BLACK
6
CONTINUOUS
10
124.8
20
-64.645
11
126.8
21
-64.645
0
LINE
8
BLACK
6
CONTINUOUS
10
126.8
20
-64.645
11
126.8
21
-65.245
0
LINE
8
BLACK
6
CONTINUOUS
10
126.8
20
-65.245
11
124.8
21
-65.245
0
LINE
8
BLACK
6
CONTINUOUS
10
124.8
20
-65.245
11
124.8
21
-65.195
0
LINE
8
BLACK
6
CONTINUOUS
10
124.8
20
-65.195
11
119.956
21
-65.195
0
LINE
8
BLACK
6
CONTINUOUS
10
119.956
20
-65.195
11
119.923
21
-65.1979
0
LINE
8
BLACK
6
CONTINUOUS
10
119.923
20
-65.1979
11
119.891
21
-65.1893
0
LINE
8
BLACK
6
CONTINUOUS
10
119.891
20
-65.1893
11
119.858
21
-65.1835
0
LINE
8
BLACK
6
CONTINUOUS
10
119.858
20
-65.1835
11
119.849
21
-65.178
0
LINE
8
BLACK
6
CONTINUOUS
10
119.849
20
-65.178
11
119.838
21
-65.1751
0
LINE
8
BLACK
6
CONTINUOUS
10
119.838
20
-65.1751
11
119.811
21
-65.156
0
LINE
8
BLACK
6
CONTINUOUS
10
119.811
20
-65.156
11
119.782
21
-65.1395
0
LINE
8
BLACK
6
CONTINUOUS
10
119.782
20
-65.1395
11
119.761
21
-65.1141
0
LINE
8
BLACK
6
CONTINUOUS
10
119.761
20
-65.1141
11
111.496
21
-56.85
0
LINE
8
BLACK
6
CONTINUOUS
10
111.496
20
-56.85
11
110.6
21
-56.85
0
LINE
8
BLACK
6
CONTINUOUS
10
110.6
20
-56.85
11
110.6
21
-57.05
0
LINE
8
BLACK
6
CONTINUOUS
10
110.6
20
-57.05
11
110.1
21
-57.05
0
LINE
8
BLACK
6
CONTINUOUS
10
110.1
20
-57.05
11
110.1
21
-56.15
0
LINE
8
BLACK
6
CONTINUOUS
10
110.1
20
-56.15
11
110.6
21
-56.15
0
LINE
8
BLACK
6
CONTINUOUS
10
110.6
20
-56.15
11
110.6
21
-56.35
0
LINE
8
BLACK
6
CONTINUOUS
10
110.6
20
-58.55
11
111.189
21
-58.55
0
LINE
8
BLACK
6
CONTINUOUS
10
111.189
20
-58.55
11
111.222
21
-58.5471
0
LINE
8
BLACK
6
CONTINUOUS
10
111.222
20
-58.5471
11
111.254
21
-58.5557
0
LINE
8
BLACK
6
CONTINUOUS
10
111.254
20
-58.5557
11
111.287
21
-58.5615
0
LINE
8
BLACK
6
CONTINUOUS
10
111.287
20
-58.5615
11
111.296
21
-58.567
0
LINE
8
BLACK
6
CONTINUOUS
10
111.296
20
-58.567
11
111.307
21
-58.5699
0
LINE
8
BLACK
6
CONTINUOUS
10
111.307
20
-58.5699
11
111.334
21
-58.5889
0
LINE
8
BLACK
6
CONTINUOUS
10
111.334
20
-58.5889
11
111.363
21
-58.6055
0
LINE
8
BLACK
6
CONTINUOUS
10
111.363
20
-58.6055
11
111.384
21
-58.6309
0
LINE
8
BLACK
6
CONTINUOUS
10
111.384
20
-58.6309
11
116.569
21
-63.8155
0
LINE
8
BLACK
6
CONTINUOUS
10
116.569
20
-63.8155
11
116.594
21
-63.8368
0
LINE
8
BLACK
6
CONTINUOUS
10
116.594
20
-63.8368
11
116.611
21
-63.8655
0
LINE
8
BLACK
6
CONTINUOUS
10
116.611
20
-63.8655
11
116.63
21
-63.8927
0
LINE
8
BLACK
6
CONTINUOUS
10
116.63
20
-63.8927
11
116.633
21
-63.9035
0
LINE
8
BLACK
6
CONTINUOUS
10
116.633
20
-63.9035
11
116.639
21
-63.9132
0
LINE
8
BLACK
6
CONTINUOUS
10
116.639
20
-63.9132
11
116.644
21
-63.9458
0
LINE
8
BLACK
6
CONTINUOUS
10
116.644
20
-63.9458
11
116.653
21
-63.9779
0
LINE
8
BLACK
6
CONTINUOUS
10
116.653
20
-63.9779
11
116.65
21
-64.0109
0
LINE
8
BLACK
6
CONTINUOUS
10
116.65
20
-64.0109
11
116.65
21
-64.645
0
LINE
8
BLACK
6
CONTINUOUS
10
116.65
20
-64.645
11
117.4
21
-64.645
0
LINE
8
BLACK
6
CONTINUOUS
10
117.4
20
-64.645
11
117.4
21
-65.245
0
LINE
8
BLACK
6
CONTINUOUS
10
117.4
20
-65.245
11
115.4
21
-65.245
0
LINE
8
BLACK
6
CONTINUOUS
10
115.4
20
-65.245
11
115.4
21
-64.645
0
LINE
8
BLACK
6
CONTINUOUS
10
115.4
20
-64.645
11
116.15
21
-64.645
0
LINE
8
BLACK
6
CONTINUOUS
10
116.15
20
-64.645
11
116.15
21
-64.1036
0
LINE
8
BLACK
6
CONTINUOUS
10
116.15
20
-64.1036
11
111.096
21
-59.05
0
LINE
8
BLACK
6
CONTINUOUS
10
111.096
20
-59.05
11
110.6
21
-59.05
0
LINE
8
BLACK
6
CONTINUOUS
10
110.6
20
-59.05
11
110.6
21
-59.25
0
LINE
8
BLACK
6
CONTINUOUS
10
110.6
20
-59.25
11
110.1
21
-59.25
0
LINE
8
BLACK
6
CONTINUOUS
10
110.1
20
-59.25
11
110.1
21
-58.35
0
LINE
8
BLACK
6
CONTINUOUS
10
110.1
20
-58.35
11
110.6
21
-58.35
0
LINE
8
BLACK
6
CONTINUOUS
10
110.6
20
-58.35
11
110.6
21
-58.55
0
LINE
8
BLACK
6
CONTINUOUS
10
94.0473
20
-61.3458
11
94.3527
21
-61.5221
0
LINE
8
BLACK
6
CONTINUOUS
10
94.3527
20
-61.5221
11
94.5794
21
-61.7923
0
LINE
8
BLACK
6
CONTINUOUS
10
94.5794
20
-61.7923
11
94.6732
21
-62.05
0
LINE
8
BLACK
6
CONTINUOUS
10
94.6732
20
-62.05
11
96.4891
21
-62.05
0
LINE
8
BLACK
6
CONTINUOUS
10
96.4891
20
-62.05
11
96.5221
21
-62.0471
0
LINE
8
BLACK
6
CONTINUOUS
10
96.5221
20
-62.0471
11
96.5542
21
-62.0557
0
LINE
8
BLACK
6
CONTINUOUS
10
96.5542
20
-62.0557
11
96.5868
21
-62.0615
0
LINE
8
BLACK
6
CONTINUOUS
10
96.5868
20
-62.0615
11
96.5965
21
-62.067
0
LINE
8
BLACK
6
CONTINUOUS
10
96.5965
20
-62.067
11
96.6073
21
-62.0699
0
LINE
8
BLACK
6
CONTINUOUS
10
96.6073
20
-62.0699
11
96.6344
21
-62.0889
0
LINE
8
BLACK
6
CONTINUOUS
10
96.6344
20
-62.0889
11
96.6632
21
-62.1055
0
LINE
8
BLACK
6
CONTINUOUS
10
96.6632
20
-62.1055
11
96.6845
21
-62.1309
0
LINE
8
BLACK
6
CONTINUOUS
10
96.6845
20
-62.1309
11
97.5036
21
-62.95
0
LINE
8
BLACK
6
CONTINUOUS
10
97.5036
20
-62.95
11
97.7396
21
-62.95
0
LINE
8
BLACK
6
CONTINUOUS
10
97.7396
20
-62.95
11
97.7965
21
-62.7938
0
LINE
8
BLACK
6
CONTINUOUS
10
97.7965
20
-62.7938
11
97.9778
21
-62.5777
0
LINE
8
BLACK
6
CONTINUOUS
10
97.9778
20
-62.5777
11
98.2222
21
-62.4366
0
LINE
8
BLACK
6
CONTINUOUS
10
98.2222
20
-62.4366
11
98.5
21
-62.3877
0
LINE
8
BLACK
6
CONTINUOUS
10
98.5
20
-62.3877
11
98.7778
21
-62.4366
0
LINE
8
BLACK
6
CONTINUOUS
10
98.7778
20
-62.4366
11
99.0222
21
-62.5777
0
LINE
8
BLACK
6
CONTINUOUS
10
99.0222
20
-62.5777
11
99.2035
21
-62.7938
0
LINE
8
BLACK
6
CONTINUOUS
10
99.2035
20
-62.7938
11
99.2604
21
-62.95
0
LINE
8
BLACK
6
CONTINUOUS
10
99.2604
20
-62.95
11
99.45
21
-62.95
0
LINE
8
BLACK
6
CONTINUOUS
10
99.45
20
-62.95
11
99.45
21
-62.825
0
LINE
8
BLACK
6
CONTINUOUS
10
99.45
20
-62.825
11
100.65
21
-62.825
0
LINE
8
BLACK
6
CONTINUOUS
10
100.65
20
-62.825
11
100.65
21
-63.575
0
LINE
8
BLACK
6
CONTINUOUS
10
100.65
20
-63.575
11
99.45
21
-63.575
0
LINE
8
BLACK
6
CONTINUOUS
10
99.45
20
-63.575
11
99.45
21
-63.45
0
LINE
8
BLACK
6
CONTINUOUS
10
99.45
20
-63.45
11
99.2604
21
-63.45
0
LINE
8
BLACK
6
CONTINUOUS
10
99.2604
20
-63.45
11
99.2035
21
-63.6062
0
LINE
8
BLACK
6
CONTINUOUS
10
99.2035
20
-63.6062
11
99.0222
21
-63.8223
0
LINE
8
BLACK
6
CONTINUOUS
10
99.0222
20
-63.8223
11
98.7778
21
-63.9634
0
LINE
8
BLACK
6
CONTINUOUS
10
98.7778
20
-63.9634
11
98.5
21
-64.0123
0
LINE
8
BLACK
6
CONTINUOUS
10
98.5
20
-64.0123
11
98.2222
21
-63.9634
0
LINE
8
BLACK
6
CONTINUOUS
10
98.2222
20
-63.9634
11
97.9778
21
-63.8223
0
LINE
8
BLACK
6
CONTINUOUS
10
97.9778
20
-63.8223
11
97.7965
21
-63.6062
0
LINE
8
BLACK
6
CONTINUOUS
10
97.7965
20
-63.6062
11
97.7396
21
-63.45
0
LINE
8
BLACK
6
CONTINUOUS
10
97.7396
20
-63.45
11
97.4109
21
-63.45
0
LINE
8
BLACK
6
CONTINUOUS
10
97.4109
20
-63.45
11
97.3779
21
-63.4529
0
LINE
8
BLACK
6
CONTINUOUS
10
97.3779
20
-63.4529
11
97.3458
21
-63.4443
0
LINE
8
BLACK
6
CONTINUOUS
10
97.3458
20
-63.4443
11
97.3132
21
-63.4385
0
LINE
8
BLACK
6
CONTINUOUS
10
97.3132
20
-63.4385
11
97.3035
21
-63.433
0
LINE
8
BLACK
6
CONTINUOUS
10
97.3035
20
-63.433
11
97.2927
21
-63.4301
0
LINE
8
BLACK
6
CONTINUOUS
10
97.2927
20
-63.4301
11
97.2655
21
-63.411
0
LINE
8
BLACK
6
CONTINUOUS
10
97.2655
20
-63.411
11
97.2368
21
-63.3945
0
LINE
8
BLACK
6
CONTINUOUS
10
97.2368
20
-63.3945
11
97.2155
21
-63.3691
0
LINE
8
BLACK
6
CONTINUOUS
10
97.2155
20
-63.3691
11
96.3964
21
-62.55
0
LINE
8
BLACK
6
CONTINUOUS
10
96.3964
20
-62.55
11
94.6732
21
-62.55
0
LINE
8
BLACK
6
CONTINUOUS
10
94.6732
20
-62.55
11
94.5794
21
-62.8077
0
LINE
8
BLACK
6
CONTINUOUS
10
94.5794
20
-62.8077
11
94.3527
21
-63.0779
0
LINE
8
BLACK
6
CONTINUOUS
10
94.3527
20
-63.0779
11
94.0473
21
-63.2542
0
LINE
8
BLACK
6
CONTINUOUS
10
94.0473
20
-63.2542
11
93.7
21
-63.3154
0
LINE
8
BLACK
6
CONTINUOUS
10
93.7
20
-63.3154
11
93.3527
21
-63.2542
0
LINE
8
BLACK
6
CONTINUOUS
10
93.3527
20
-63.2542
11
93.0473
21
-63.0779
0
LINE
8
BLACK
6
CONTINUOUS
10
93.0473
20
-63.0779
11
92.8206
21
-62.8077
0
LINE
8
BLACK
6
CONTINUOUS
10
92.8206
20
-62.8077
11
92.7
21
-62.4763
0
LINE
8
BLACK
6
CONTINUOUS
10
92.7
20
-62.4763
11
92.7
21
-62.1237
0
LINE
8
BLACK
6
CONTINUOUS
10
92.7
20
-62.1237
11
92.8206
21
-61.7923
0
LINE
8
BLACK
6
CONTINUOUS
10
92.8206
20
-61.7923
11
93.0473
21
-61.5221
0
LINE
8
BLACK
6
CONTINUOUS
10
93.0473
20
-61.5221
11
93.3527
21
-61.3458
0
LINE
8
BLACK
6
CONTINUOUS
10
93.3527
20
-61.3458
11
93.7
21
-61.2846
0
LINE
8
BLACK
6
CONTINUOUS
10
93.7
20
-61.2846
11
94.0473
21
-61.3458
0
LINE
8
BLACK
6
CONTINUOUS
10
141.647
20
-61.5058
11
141.953
21
-61.6821
0
LINE
8
BLACK
6
CONTINUOUS
10
141.953
20
-61.6821
11
142.179
21
-61.9523
0
LINE
8
BLACK
6
CONTINUOUS
10
142.179
20
-61.9523
11
142.3
21
-62.2837
0
LINE
8
BLACK
6
CONTINUOUS
10
142.3
20
-62.2837
11
142.3
21
-62.6363
0
LINE
8
BLACK
6
CONTINUOUS
10
142.3
20
-62.6363
11
142.179
21
-62.9677
0
LINE
8
BLACK
6
CONTINUOUS
10
142.179
20
-62.9677
11
141.953
21
-63.2379
0
LINE
8
BLACK
6
CONTINUOUS
10
141.953
20
-63.2379
11
141.647
21
-63.4142
0
LINE
8
BLACK
6
CONTINUOUS
10
141.647
20
-63.4142
11
141.3
21
-63.4754
0
LINE
8
BLACK
6
CONTINUOUS
10
141.3
20
-63.4754
11
140.953
21
-63.4142
0
LINE
8
BLACK
6
CONTINUOUS
10
140.953
20
-63.4142
11
140.647
21
-63.2379
0
LINE
8
BLACK
6
CONTINUOUS
10
140.647
20
-63.2379
11
140.421
21
-62.9677
0
LINE
8
BLACK
6
CONTINUOUS
10
140.421
20
-62.9677
11
140.3
21
-62.6363
0
LINE
8
BLACK
6
CONTINUOUS
10
140.3
20
-62.6363
11
140.3
21
-62.2837
0
LINE
8
BLACK
6
CONTINUOUS
10
140.3
20
-62.2837
11
140.421
21
-61.9523
0
LINE
8
BLACK
6
CONTINUOUS
10
140.421
20
-61.9523
11
140.647
21
-61.6821
0
LINE
8
BLACK
6
CONTINUOUS
10
140.647
20
-61.6821
11
140.953
21
-61.5058
0
LINE
8
BLACK
6
CONTINUOUS
10
140.953
20
-61.5058
11
141.3
21
-61.4446
0
LINE
8
BLACK
6
CONTINUOUS
10
141.3
20
-61.4446
11
141.647
21
-61.5058
0
LINE
8
BLACK
6
CONTINUOUS
10
103.778
20
-57.8366
11
104.022
21
-57.9777
0
LINE
8
BLACK
6
CONTINUOUS
10
104.022
20
-57.9777
11
104.204
21
-58.1938
0
LINE
8
BLACK
6
CONTINUOUS
10
104.204
20
-58.1938
11
104.26
21
-58.35
0
LINE
8
BLACK
6
CONTINUOUS
10
104.26
20
-58.35
11
104.689
21
-58.35
0
LINE
8
BLACK
6
CONTINUOUS
10
104.689
20
-58.35
11
104.722
21
-58.3471
0
LINE
8
BLACK
6
CONTINUOUS
10
104.722
20
-58.3471
11
104.754
21
-58.3557
0
LINE
8
BLACK
6
CONTINUOUS
10
104.754
20
-58.3557
11
104.787
21
-58.3615
0
LINE
8
BLACK
6
CONTINUOUS
10
104.787
20
-58.3615
11
104.796
21
-58.367
0
LINE
8
BLACK
6
CONTINUOUS
10
104.796
20
-58.367
11
104.807
21
-58.3699
0
LINE
8
BLACK
6
CONTINUOUS
10
104.807
20
-58.3699
11
104.834
21
-58.3889
0
LINE
8
BLACK
6
CONTINUOUS
10
104.834
20
-58.3889
11
104.863
21
-58.4055
0
LINE
8
BLACK
6
CONTINUOUS
10
104.863
20
-58.4055
11
104.884
21
-58.4309
0
LINE
8
BLACK
6
CONTINUOUS
10
104.884
20
-58.4309
11
106.647
21
-60.1938
0
LINE
8
BLACK
6
CONTINUOUS
10
106.647
20
-60.1938
11
106.7
21
-60.1846
0
LINE
8
BLACK
6
CONTINUOUS
10
106.7
20
-60.1846
11
107.047
21
-60.2458
0
LINE
8
BLACK
6
CONTINUOUS
10
107.047
20
-60.2458
11
107.353
21
-60.4221
0
LINE
8
BLACK
6
CONTINUOUS
10
107.353
20
-60.4221
11
107.579
21
-60.6923
0
LINE
8
BLACK
6
CONTINUOUS
10
107.579
20
-60.6923
11
107.6
21
-60.75
0
LINE
8
BLACK
6
CONTINUOUS
10
107.6
20
-60.75
11
108.6
21
-60.75
0
LINE
8
BLACK
6
CONTINUOUS
10
108.6
20
-60.75
11
108.6
21
-60.55
0
LINE
8
BLACK
6
CONTINUOUS
10
108.6
20
-60.55
11
109.1
21
-60.55
0
LINE
8
BLACK
6
CONTINUOUS
10
109.1
20
-60.55
11
109.1
21
-61.45
0
LINE
8
BLACK
6
CONTINUOUS
10
109.1
20
-61.45
11
108.6
21
-61.45
0
LINE
8
BLACK
6
CONTINUOUS
10
108.6
20
-61.45
11
108.6
21
-61.25
0
LINE
8
BLACK
6
CONTINUOUS
10
108.6
20
-61.25
11
107.7
21
-61.25
0
LINE
8
BLACK
6
CONTINUOUS
10
107.7
20
-61.25
11
107.7
21
-61.3763
0
LINE
8
BLACK
6
CONTINUOUS
10
107.7
20
-61.3763
11
107.579
21
-61.7077
0
LINE
8
BLACK
6
CONTINUOUS
10
107.579
20
-61.7077
11
107.353
21
-61.9779
0
LINE
8
BLACK
6
CONTINUOUS
10
107.353
20
-61.9779
11
107.047
21
-62.1542
0
LINE
8
BLACK
6
CONTINUOUS
10
107.047
20
-62.1542
11
106.7
21
-62.2154
0
LINE
8
BLACK
6
CONTINUOUS
10
106.7
20
-62.2154
11
106.353
21
-62.1542
0
LINE
8
BLACK
6
CONTINUOUS
10
106.353
20
-62.1542
11
106.047
21
-61.9779
0
LINE
8
BLACK
6
CONTINUOUS
10
106.047
20
-61.9779
11
105.821
21
-61.7077
0
LINE
8
BLACK
6
CONTINUOUS
10
105.821
20
-61.7077
11
105.7
21
-61.3763
0
LINE
8
BLACK
6
CONTINUOUS
10
105.7
20
-61.3763
11
105.7
21
-61.0237
0
LINE
8
BLACK
6
CONTINUOUS
10
105.7
20
-61.0237
11
105.821
21
-60.6923
0
LINE
8
BLACK
6
CONTINUOUS
10
105.821
20
-60.6923
11
106.047
21
-60.4221
0
LINE
8
BLACK
6
CONTINUOUS
10
106.047
20
-60.4221
11
106.124
21
-60.3777
0
LINE
8
BLACK
6
CONTINUOUS
10
106.124
20
-60.3777
11
104.596
21
-58.85
0
LINE
8
BLACK
6
CONTINUOUS
10
104.596
20
-58.85
11
104.26
21
-58.85
0
LINE
8
BLACK
6
CONTINUOUS
10
104.26
20
-58.85
11
104.204
21
-59.0062
0
LINE
8
BLACK
6
CONTINUOUS
10
104.204
20
-59.0062
11
104.022
21
-59.2223
0
LINE
8
BLACK
6
CONTINUOUS
10
104.022
20
-59.2223
11
103.778
21
-59.3634
0
LINE
8
BLACK
6
CONTINUOUS
10
103.778
20
-59.3634
11
103.5
21
-59.4123
0
LINE
8
BLACK
6
CONTINUOUS
10
103.5
20
-59.4123
11
103.222
21
-59.3634
0
LINE
8
BLACK
6
CONTINUOUS
10
103.222
20
-59.3634
11
102.978
21
-59.2223
0
LINE
8
BLACK
6
CONTINUOUS
10
102.978
20
-59.2223
11
102.796
21
-59.0062
0
LINE
8
BLACK
6
CONTINUOUS
10
102.796
20
-59.0062
11
102.74
21
-58.85
0
LINE
8
BLACK
6
CONTINUOUS
10
102.74
20
-58.85
11
102.55
21
-58.85
0
LINE
8
BLACK
6
CONTINUOUS
10
102.55
20
-58.85
11
102.55
21
-58.975
0
LINE
8
BLACK
6
CONTINUOUS
10
102.55
20
-58.975
11
101.35
21
-58.975
0
LINE
8
BLACK
6
CONTINUOUS
10
101.35
20
-58.975
11
101.35
21
-58.225
0
LINE
8
BLACK
6
CONTINUOUS
10
101.35
20
-58.225
11
102.55
21
-58.225
0
LINE
8
BLACK
6
CONTINUOUS
10
102.55
20
-58.225
11
102.55
21
-58.35
0
LINE
8
BLACK
6
CONTINUOUS
10
102.55
20
-58.35
11
102.74
21
-58.35
0
LINE
8
BLACK
6
CONTINUOUS
10
102.74
20
-58.35
11
102.796
21
-58.1938
0
LINE
8
BLACK
6
CONTINUOUS
10
102.796
20
-58.1938
11
102.978
21
-57.9777
0
LINE
8
BLACK
6
CONTINUOUS
10
102.978
20
-57.9777
11
103.222
21
-57.8366
0
LINE
8
BLACK
6
CONTINUOUS
10
103.222
20
-57.8366
11
103.5
21
-57.7877
0
LINE
8
BLACK
6
CONTINUOUS
10
103.5
20
-57.7877
11
103.778
21
-57.8366
0
LINE
8
BLACK
6
CONTINUOUS
10
141.647
20
-57.5458
11
141.953
21
-57.7221
0
LINE
8
BLACK
6
CONTINUOUS
10
141.953
20
-57.7221
11
142.179
21
-57.9923
0
LINE
8
BLACK
6
CONTINUOUS
10
142.179
20
-57.9923
11
142.3
21
-58.3237
0
LINE
8
BLACK
6
CONTINUOUS
10
142.3
20
-58.3237
11
142.3
21
-58.6763
0
LINE
8
BLACK
6
CONTINUOUS
10
142.3
20
-58.6763
11
142.179
21
-59.0077
0
LINE
8
BLACK
6
CONTINUOUS
10
142.179
20
-59.0077
11
141.953
21
-59.2779
0
LINE
8
BLACK
6
CONTINUOUS
10
141.953
20
-59.2779
11
141.647
21
-59.4542
0
LINE
8
BLACK
6
CONTINUOUS
10
141.647
20
-59.4542
11
141.3
21
-59.5154
0
LINE
8
BLACK
6
CONTINUOUS
10
141.3
20
-59.5154
11
140.953
21
-59.4542
0
LINE
8
BLACK
6
CONTINUOUS
10
140.953
20
-59.4542
11
140.647
21
-59.2779
0
LINE
8
BLACK
6
CONTINUOUS
10
140.647
20
-59.2779
11
140.421
21
-59.0077
0
LINE
8
BLACK
6
CONTINUOUS
10
140.421
20
-59.0077
11
140.3
21
-58.6763
0
LINE
8
BLACK
6
CONTINUOUS
10
140.3
20
-58.6763
11
140.3
21
-58.3237
0
LINE
8
BLACK
6
CONTINUOUS
10
140.3
20
-58.3237
11
140.421
21
-57.9923
0
LINE
8
BLACK
6
CONTINUOUS
10
140.421
20
-57.9923
11
140.647
21
-57.7221
0
LINE
8
BLACK
6
CONTINUOUS
10
140.647
20
-57.7221
11
140.953
21
-57.5458
0
LINE
8
BLACK
6
CONTINUOUS
10
140.953
20
-57.5458
11
141.3
21
-57.4846
0
LINE
8
BLACK
6
CONTINUOUS
10
141.3
20
-57.4846
11
141.647
21
-57.5458
0
LINE
8
BLACK
6
CONTINUOUS
10
94.0473
20
-54.2758
11
94.3527
21
-54.4521
0
LINE
8
BLACK
6
CONTINUOUS
10
94.3527
20
-54.4521
11
94.5794
21
-54.7223
0
LINE
8
BLACK
6
CONTINUOUS
10
94.5794
20
-54.7223
11
94.6732
21
-54.98
0
LINE
8
BLACK
6
CONTINUOUS
10
94.6732
20
-54.98
11
95.1191
21
-54.98
0
LINE
8
BLACK
6
CONTINUOUS
10
95.1191
20
-54.98
11
95.1521
21
-54.9771
0
LINE
8
BLACK
6
CONTINUOUS
10
95.1521
20
-54.9771
11
95.1842
21
-54.9857
0
LINE
8
BLACK
6
CONTINUOUS
10
95.1842
20
-54.9857
11
95.2168
21
-54.9915
0
LINE
8
BLACK
6
CONTINUOUS
10
95.2168
20
-54.9915
11
95.2265
21
-54.997
0
LINE
8
BLACK
6
CONTINUOUS
10
95.2265
20
-54.997
11
95.2373
21
-54.9999
0
LINE
8
BLACK
6
CONTINUOUS
10
95.2373
20
-54.9999
11
95.2644
21
-55.0189
0
LINE
8
BLACK
6
CONTINUOUS
10
95.2644
20
-55.0189
11
95.2932
21
-55.0355
0
LINE
8
BLACK
6
CONTINUOUS
10
95.2932
20
-55.0355
11
95.3145
21
-55.0609
0
LINE
8
BLACK
6
CONTINUOUS
10
95.3145
20
-55.0609
11
98.1385
21
-57.8849
0
LINE
8
BLACK
6
CONTINUOUS
10
98.1385
20
-57.8849
11
98.2222
21
-57.8366
0
LINE
8
BLACK
6
CONTINUOUS
10
98.2222
20
-57.8366
11
98.5
21
-57.7877
0
LINE
8
BLACK
6
CONTINUOUS
10
98.5
20
-57.7877
11
98.7778
21
-57.8366
0
LINE
8
BLACK
6
CONTINUOUS
10
98.7778
20
-57.8366
11
99.0222
21
-57.9777
0
LINE
8
BLACK
6
CONTINUOUS
10
99.0222
20
-57.9777
11
99.2035
21
-58.1938
0
LINE
8
BLACK
6
CONTINUOUS
10
99.2035
20
-58.1938
11
99.2604
21
-58.35
0
LINE
8
BLACK
6
CONTINUOUS
10
99.2604
20
-58.35
11
99.45
21
-58.35
0
LINE
8
BLACK
6
CONTINUOUS
10
99.45
20
-58.35
11
99.45
21
-58.225
0
LINE
8
BLACK
6
CONTINUOUS
10
99.45
20
-58.225
11
100.65
21
-58.225
0
LINE
8
BLACK
6
CONTINUOUS
10
100.65
20
-58.225
11
100.65
21
-58.975
0
LINE
8
BLACK
6
CONTINUOUS
10
100.65
20
-58.975
11
99.45
21
-58.975
0
LINE
8
BLACK
6
CONTINUOUS
10
99.45
20
-58.975
11
99.45
21
-58.85
0
LINE
8
BLACK
6
CONTINUOUS
10
99.45
20
-58.85
11
99.2604
21
-58.85
0
LINE
8
BLACK
6
CONTINUOUS
10
99.2604
20
-58.85
11
99.2035
21
-59.0062
0
LINE
8
BLACK
6
CONTINUOUS
10
99.2035
20
-59.0062
11
99.0222
21
-59.2223
0
LINE
8
BLACK
6
CONTINUOUS
10
99.0222
20
-59.2223
11
98.7778
21
-59.3634
0
LINE
8
BLACK
6
CONTINUOUS
10
98.7778
20
-59.3634
11
98.5
21
-59.4123
0
LINE
8
BLACK
6
CONTINUOUS
10
98.5
20
-59.4123
11
98.2222
21
-59.3634
0
LINE
8
BLACK
6
CONTINUOUS
10
98.2222
20
-59.3634
11
97.9778
21
-59.2223
0
LINE
8
BLACK
6
CONTINUOUS
10
97.9778
20
-59.2223
11
97.7965
21
-59.0062
0
LINE
8
BLACK
6
CONTINUOUS
10
97.7965
20
-59.0062
11
97.7
21
-58.7411
0
LINE
8
BLACK
6
CONTINUOUS
10
97.7
20
-58.7411
11
97.7
21
-58.4589
0
LINE
8
BLACK
6
CONTINUOUS
10
97.7
20
-58.4589
11
97.7815
21
-58.235
0
LINE
8
BLACK
6
CONTINUOUS
10
97.7815
20
-58.235
11
95.0264
21
-55.48
0
LINE
8
BLACK
6
CONTINUOUS
10
95.0264
20
-55.48
11
94.6732
21
-55.48
0
LINE
8
BLACK
6
CONTINUOUS
10
94.6732
20
-55.48
11
94.5794
21
-55.7377
0
LINE
8
BLACK
6
CONTINUOUS
10
94.5794
20
-55.7377
11
94.3527
21
-56.0079
0
LINE
8
BLACK
6
CONTINUOUS
10
94.3527
20
-56.0079
11
94.0473
21
-56.1842
0
LINE
8
BLACK
6
CONTINUOUS
10
94.0473
20
-56.1842
11
93.7
21
-56.2454
0
LINE
8
BLACK
6
CONTINUOUS
10
93.7
20
-56.2454
11
93.3527
21
-56.1842
0
LINE
8
BLACK
6
CONTINUOUS
10
93.3527
20
-56.1842
11
93.0473
21
-56.0079
0
LINE
8
BLACK
6
CONTINUOUS
10
93.0473
20
-56.0079
11
92.8206
21
-55.7377
0
LINE
8
BLACK
6
CONTINUOUS
10
92.8206
20
-55.7377
11
92.7
21
-55.4063
0
LINE
8
BLACK
6
CONTINUOUS
10
92.7
20
-55.4063
11
92.7
21
-55.0537
0
LINE
8
BLACK
6
CONTINUOUS
10
92.7
20
-55.0537
11
92.8206
21
-54.7223
0
LINE
8
BLACK
6
CONTINUOUS
10
92.8206
20
-54.7223
11
93.0473
21
-54.4521
0
LINE
8
BLACK
6
CONTINUOUS
10
93.0473
20
-54.4521
11
93.3527
21
-54.2758
0
LINE
8
BLACK
6
CONTINUOUS
10
93.3527
20
-54.2758
11
93.7
21
-54.2146
0
LINE
8
BLACK
6
CONTINUOUS
10
93.7
20
-54.2146
11
94.0473
21
-54.2758
0
LINE
8
BLACK
6
CONTINUOUS
10
107.178
20
-59.0529
11
107.146
21
-59.0443
0
LINE
8
BLACK
6
CONTINUOUS
10
107.146
20
-59.0443
11
107.113
21
-59.0385
0
LINE
8
BLACK
6
CONTINUOUS
10
107.113
20
-59.0385
11
107.104
21
-59.033
0
LINE
8
BLACK
6
CONTINUOUS
10
107.104
20
-59.033
11
107.093
21
-59.0301
0
LINE
8
BLACK
6
CONTINUOUS
10
107.093
20
-59.0301
11
107.066
21
-59.011
0
LINE
8
BLACK
6
CONTINUOUS
10
107.066
20
-59.011
11
107.037
21
-58.9945
0
LINE
8
BLACK
6
CONTINUOUS
10
107.037
20
-58.9945
11
107.016
21
-58.9691
0
LINE
8
BLACK
6
CONTINUOUS
10
107.016
20
-58.9691
11
104.596
21
-56.55
0
LINE
8
BLACK
6
CONTINUOUS
10
104.596
20
-56.55
11
102.073
21
-56.55
0
LINE
8
BLACK
6
CONTINUOUS
10
102.073
20
-56.55
11
101.979
21
-56.8077
0
LINE
8
BLACK
6
CONTINUOUS
10
101.979
20
-56.8077
11
101.753
21
-57.0779
0
LINE
8
BLACK
6
CONTINUOUS
10
101.753
20
-57.0779
11
101.447
21
-57.2542
0
LINE
8
BLACK
6
CONTINUOUS
10
101.447
20
-57.2542
11
101.1
21
-57.3154
0
LINE
8
BLACK
6
CONTINUOUS
10
101.1
20
-57.3154
11
100.753
21
-57.2542
0
LINE
8
BLACK
6
CONTINUOUS
10
100.753
20
-57.2542
11
100.447
21
-57.0779
0
LINE
8
BLACK
6
CONTINUOUS
10
100.447
20
-57.0779
11
100.221
21
-56.8077
0
LINE
8
BLACK
6
CONTINUOUS
10
100.221
20
-56.8077
11
100.1
21
-56.4763
0
LINE
8
BLACK
6
CONTINUOUS
10
100.1
20
-56.4763
11
100.1
21
-56.1237
0
LINE
8
BLACK
6
CONTINUOUS
10
100.1
20
-56.1237
11
100.221
21
-55.7923
0
LINE
8
BLACK
6
CONTINUOUS
10
100.221
20
-55.7923
11
100.447
21
-55.5221
0
LINE
8
BLACK
6
CONTINUOUS
10
100.447
20
-55.5221
11
100.753
21
-55.3458
0
LINE
8
BLACK
6
CONTINUOUS
10
100.753
20
-55.3458
11
101.1
21
-55.2846
0
LINE
8
BLACK
6
CONTINUOUS
10
101.1
20
-55.2846
11
101.447
21
-55.3458
0
LINE
8
BLACK
6
CONTINUOUS
10
101.447
20
-55.3458
11
101.753
21
-55.5221
0
LINE
8
BLACK
6
CONTINUOUS
10
101.753
20
-55.5221
11
101.979
21
-55.7923
0
LINE
8
BLACK
6
CONTINUOUS
10
101.979
20
-55.7923
11
102.073
21
-56.05
0
LINE
8
BLACK
6
CONTINUOUS
10
102.073
20
-56.05
11
104.689
21
-56.05
0
LINE
8
BLACK
6
CONTINUOUS
10
104.689
20
-56.05
11
104.722
21
-56.0471
0
LINE
8
BLACK
6
CONTINUOUS
10
104.722
20
-56.0471
11
104.754
21
-56.0557
0
LINE
8
BLACK
6
CONTINUOUS
10
104.754
20
-56.0557
11
104.787
21
-56.0615
0
LINE
8
BLACK
6
CONTINUOUS
10
104.787
20
-56.0615
11
104.796
21
-56.067
0
LINE
8
BLACK
6
CONTINUOUS
10
104.796
20
-56.067
11
104.807
21
-56.0699
0
LINE
8
BLACK
6
CONTINUOUS
10
104.807
20
-56.0699
11
104.834
21
-56.0889
0
LINE
8
BLACK
6
CONTINUOUS
10
104.834
20
-56.0889
11
104.863
21
-56.1055
0
LINE
8
BLACK
6
CONTINUOUS
10
104.863
20
-56.1055
11
104.884
21
-56.1309
0
LINE
8
BLACK
6
CONTINUOUS
10
104.884
20
-56.1309
11
107.304
21
-58.55
0
LINE
8
BLACK
6
CONTINUOUS
10
107.304
20
-58.55
11
108.6
21
-58.55
0
LINE
8
BLACK
6
CONTINUOUS
10
108.6
20
-58.55
11
108.6
21
-58.35
0
LINE
8
BLACK
6
CONTINUOUS
10
108.6
20
-58.35
11
109.1
21
-58.35
0
LINE
8
BLACK
6
CONTINUOUS
10
109.1
20
-58.35
11
109.1
21
-59.25
0
LINE
8
BLACK
6
CONTINUOUS
10
109.1
20
-59.25
11
108.6
21
-59.25
0
LINE
8
BLACK
6
CONTINUOUS
10
108.6
20
-59.25
11
108.6
21
-59.05
0
LINE
8
BLACK
6
CONTINUOUS
10
108.6
20
-59.05
11
107.211
21
-59.05
0
LINE
8
BLACK
6
CONTINUOUS
10
107.211
20
-59.05
11
107.178
21
-59.0529
0
LINE
8
BLACK
6
CONTINUOUS
10
94.0473
20
-56.8158
11
94.3527
21
-56.9921
0
LINE
8
BLACK
6
CONTINUOUS
10
94.3527
20
-56.9921
11
94.5794
21
-57.2623
0
LINE
8
BLACK
6
CONTINUOUS
10
94.5794
20
-57.2623
11
94.7
21
-57.5937
0
LINE
8
BLACK
6
CONTINUOUS
10
94.7
20
-57.5937
11
94.7
21
-57.9463
0
LINE
8
BLACK
6
CONTINUOUS
10
94.7
20
-57.9463
11
94.5794
21
-58.2777
0
LINE
8
BLACK
6
CONTINUOUS
10
94.5794
20
-58.2777
11
94.3527
21
-58.5479
0
LINE
8
BLACK
6
CONTINUOUS
10
94.3527
20
-58.5479
11
94.0473
21
-58.7242
0
LINE
8
BLACK
6
CONTINUOUS
10
94.0473
20
-58.7242
11
93.7
21
-58.7854
0
LINE
8
BLACK
6
CONTINUOUS
10
93.7
20
-58.7854
11
93.3527
21
-58.7242
0
LINE
8
BLACK
6
CONTINUOUS
10
93.3527
20
-58.7242
11
93.0473
21
-58.5479
0
LINE
8
BLACK
6
CONTINUOUS
10
93.0473
20
-58.5479
11
92.8206
21
-58.2777
0
LINE
8
BLACK
6
CONTINUOUS
10
92.8206
20
-58.2777
11
92.7
21
-57.9463
0
LINE
8
BLACK
6
CONTINUOUS
10
92.7
20
-57.9463
11
92.7
21
-57.5937
0
LINE
8
BLACK
6
CONTINUOUS
10
92.7
20
-57.5937
11
92.8206
21
-57.2623
0
LINE
8
BLACK
6
CONTINUOUS
10
92.8206
20
-57.2623
11
93.0473
21
-56.9921
0
LINE
8
BLACK
6
CONTINUOUS
10
93.0473
20
-56.9921
11
93.3527
21
-56.8158
0
LINE
8
BLACK
6
CONTINUOUS
10
93.3527
20
-56.8158
11
93.7
21
-56.7546
0
LINE
8
BLACK
6
CONTINUOUS
10
93.7
20
-56.7546
11
94.0473
21
-56.8158
0
LINE
8
BLACK
6
CONTINUOUS
10
107.147
20
-54.3458
11
107.453
21
-54.5221
0
LINE
8
BLACK
6
CONTINUOUS
10
107.453
20
-54.5221
11
107.679
21
-54.7923
0
LINE
8
BLACK
6
CONTINUOUS
10
107.679
20
-54.7923
11
107.8
21
-55.1237
0
LINE
8
BLACK
6
CONTINUOUS
10
107.8
20
-55.1237
11
107.8
21
-55.4763
0
LINE
8
BLACK
6
CONTINUOUS
10
107.8
20
-55.4763
11
107.679
21
-55.8077
0
LINE
8
BLACK
6
CONTINUOUS
10
107.679
20
-55.8077
11
107.671
21
-55.8176
0
LINE
8
BLACK
6
CONTINUOUS
10
107.671
20
-55.8176
11
108.204
21
-56.35
0
LINE
8
BLACK
6
CONTINUOUS
10
108.204
20
-56.35
11
108.6
21
-56.35
0
LINE
8
BLACK
6
CONTINUOUS
10
108.6
20
-56.35
11
108.6
21
-56.15
0
LINE
8
BLACK
6
CONTINUOUS
10
108.6
20
-56.15
11
109.1
21
-56.15
0
LINE
8
BLACK
6
CONTINUOUS
10
109.1
20
-56.15
11
109.1
21
-57.05
0
LINE
8
BLACK
6
CONTINUOUS
10
109.1
20
-57.05
11
108.6
21
-57.05
0
LINE
8
BLACK
6
CONTINUOUS
10
108.6
20
-57.05
11
108.6
21
-56.85
0
LINE
8
BLACK
6
CONTINUOUS
10
108.6
20
-56.85
11
108.111
21
-56.85
0
LINE
8
BLACK
6
CONTINUOUS
10
108.111
20
-56.85
11
108.078
21
-56.8529
0
LINE
8
BLACK
6
CONTINUOUS
10
108.078
20
-56.8529
11
108.046
21
-56.8443
0
LINE
8
BLACK
6
CONTINUOUS
10
108.046
20
-56.8443
11
108.013
21
-56.8385
0
LINE
8
BLACK
6
CONTINUOUS
10
108.013
20
-56.8385
11
108.004
21
-56.833
0
LINE
8
BLACK
6
CONTINUOUS
10
108.004
20
-56.833
11
107.993
21
-56.8301
0
LINE
8
BLACK
6
CONTINUOUS
10
107.993
20
-56.8301
11
107.966
21
-56.811
0
LINE
8
BLACK
6
CONTINUOUS
10
107.966
20
-56.811
11
107.937
21
-56.7945
0
LINE
8
BLACK
6
CONTINUOUS
10
107.937
20
-56.7945
11
107.916
21
-56.7691
0
LINE
8
BLACK
6
CONTINUOUS
10
107.916
20
-56.7691
11
107.308
21
-56.1615
0
LINE
8
BLACK
6
CONTINUOUS
10
107.308
20
-56.1615
11
107.147
21
-56.2542
0
LINE
8
BLACK
6
CONTINUOUS
10
107.147
20
-56.2542
11
106.8
21
-56.3154
0
LINE
8
BLACK
6
CONTINUOUS
10
106.8
20
-56.3154
11
106.453
21
-56.2542
0
LINE
8
BLACK
6
CONTINUOUS
10
106.453
20
-56.2542
11
106.147
21
-56.0779
0
LINE
8
BLACK
6
CONTINUOUS
10
106.147
20
-56.0779
11
105.921
21
-55.8077
0
LINE
8
BLACK
6
CONTINUOUS
10
105.921
20
-55.8077
11
105.8
21
-55.4763
0
LINE
8
BLACK
6
CONTINUOUS
10
105.8
20
-55.4763
11
105.8
21
-55.1237
0
LINE
8
BLACK
6
CONTINUOUS
10
105.8
20
-55.1237
11
105.921
21
-54.7923
0
LINE
8
BLACK
6
CONTINUOUS
10
105.921
20
-54.7923
11
106.147
21
-54.5221
0
LINE
8
BLACK
6
CONTINUOUS
10
106.147
20
-54.5221
11
106.453
21
-54.3458
0
LINE
8
BLACK
6
CONTINUOUS
10
106.453
20
-54.3458
11
106.8
21
-54.2846
0
LINE
8
BLACK
6
CONTINUOUS
10
106.8
20
-54.2846
11
107.147
21
-54.3458
0
LINE
8
BLACK
6
CONTINUOUS
10
118.756
20
-53.0733
11
119.244
21
-53.3554
0
LINE
8
BLACK
6
CONTINUOUS
10
119.244
20
-53.3554
11
119.607
21
-53.7877
0
LINE
8
BLACK
6
CONTINUOUS
10
119.607
20
-53.7877
11
119.8
21
-54.3179
0
LINE
8
BLACK
6
CONTINUOUS
10
119.8
20
-54.3179
11
119.8
21
-54.8821
0
LINE
8
BLACK
6
CONTINUOUS
10
119.8
20
-54.8821
11
119.607
21
-55.4123
0
LINE
8
BLACK
6
CONTINUOUS
10
119.607
20
-55.4123
11
119.244
21
-55.8446
0
LINE
8
BLACK
6
CONTINUOUS
10
119.244
20
-55.8446
11
118.756
21
-56.1267
0
LINE
8
BLACK
6
CONTINUOUS
10
118.756
20
-56.1267
11
118.2
21
-56.2247
0
LINE
8
BLACK
6
CONTINUOUS
10
118.2
20
-56.2247
11
117.644
21
-56.1267
0
LINE
8
BLACK
6
CONTINUOUS
10
117.644
20
-56.1267
11
117.156
21
-55.8446
0
LINE
8
BLACK
6
CONTINUOUS
10
117.156
20
-55.8446
11
116.793
21
-55.4123
0
LINE
8
BLACK
6
CONTINUOUS
10
116.793
20
-55.4123
11
116.6
21
-54.8821
0
LINE
8
BLACK
6
CONTINUOUS
10
116.6
20
-54.8821
11
116.6
21
-54.3179
0
LINE
8
BLACK
6
CONTINUOUS
10
116.6
20
-54.3179
11
116.793
21
-53.7877
0
LINE
8
BLACK
6
CONTINUOUS
10
116.793
20
-53.7877
11
117.156
21
-53.3554
0
LINE
8
BLACK
6
CONTINUOUS
10
117.156
20
-53.3554
11
117.644
21
-53.0733
0
LINE
8
BLACK
6
CONTINUOUS
10
117.644
20
-53.0733
11
118.2
21
-52.9753
0
LINE
8
BLACK
6
CONTINUOUS
10
118.2
20
-52.9753
11
118.756
21
-53.0733
0
CIRCLE
8
BLACK
10
105.9
20
-73.4
40
0.4
0
CIRCLE
8
BLACK
10
106.8
20
-55.3
40
0.4
0
CIRCLE
8
BLACK
10
101.1
20
-65.5
40
0.4
0
CIRCLE
8
BLACK
10
101.1
20
-56.3
40
0.4
0
CIRCLE
8
BLACK
10
106.7
20
-67.5
40
0.4
0
CIRCLE
8
BLACK
10
106.7
20
-61.2
40
0.4
0
CIRCLE
8
BLACK
10
136.6
20
-67.5
40
0.4
0
CIRCLE
8
BLACK
10
106.6
20
-90.6
40
0.4
  0
ENDSEC
  0
EOF
